<svg width="228" height="198" viewBox="0 0 228 198" fill="none" xmlns="http://www.w3.org/2000/svg">
<path d="M37.2042 13.8711C37.1713 13.8711 37.5882 11.825 37.6266 11.6769C38.0984 10.2122 39.8757 7.66689 41.5927 7.67237C41.8787 7.68044 42.1598 7.74872 42.4177 7.87277C42.6755 7.99682 42.9043 8.17385 43.0891 8.3923C43.2739 8.61074 43.4105 8.8657 43.4901 9.14054C43.5698 9.41537 43.5905 9.7039 43.5511 9.9873C43.4249 11.1941 42.3387 12.2254 41.3568 12.8179C40.2048 13.5365 37.2042 13.8711 37.2042 13.8711Z" fill="#6AB0F8"/>
<path d="M33.8744 0.113106C35.5201 0.69458 36.2991 3.68972 36.2442 5.22569C36.2442 5.35735 35.937 7.41994 35.9096 7.41994H35.8767C36.0028 7.8917 36.14 8.40186 36.2771 8.96139C36.5185 9.99269 36.7818 11.1556 36.9848 12.4502C37.2201 13.837 37.374 15.2364 37.4456 16.6412C37.533 18.2154 37.4798 19.7942 37.2865 21.3589C37.2839 21.3771 37.2839 21.3955 37.2865 21.4137C37.5004 20.9584 38.1367 19.6967 38.1916 19.609C39.0364 18.3253 41.4171 16.3176 43.0793 16.7948C43.3522 16.8781 43.6045 17.0179 43.8197 17.2052C44.0349 17.3925 44.2082 17.6231 44.3283 17.882C44.4484 18.1408 44.5126 18.422 44.5166 18.7073C44.5207 18.9926 44.4646 19.2755 44.3519 19.5377C43.9131 20.6677 42.5965 21.3753 41.4939 21.688C40.2487 22.0446 37.473 21.6277 37.2536 21.5893C37.019 23.1774 36.6781 24.748 36.2332 26.2904C35.9772 27.1901 35.6993 28.0879 35.3994 28.9839C35.5914 28.5944 35.7724 28.2488 35.7999 28.2049C36.6447 26.9158 39.0309 24.9135 40.6876 25.3908C40.9605 25.474 41.2128 25.6139 41.428 25.8012C41.6432 25.9885 41.8165 26.2191 41.9366 26.4779C42.0567 26.7367 42.1209 27.0179 42.1249 27.3032C42.129 27.5885 42.0729 27.8715 41.9602 28.1336C41.5214 29.2636 40.2048 29.9713 39.1022 30.284C37.9996 30.5966 35.6079 30.284 34.9825 30.2017L34.6369 31.233C34.0884 32.8787 33.4904 34.5243 32.9912 36.1371C32.8102 36.6857 32.6511 37.2781 32.4921 37.8486C32.6676 37.503 32.8157 37.2123 32.8431 37.1684C33.6824 35.8848 36.0687 33.877 37.7253 34.3543C37.9977 34.4384 38.2495 34.5787 38.4644 34.766C38.6792 34.9534 38.8525 35.1837 38.9729 35.4421C39.0933 35.7005 39.1582 35.9813 39.1635 36.2664C39.1688 36.5514 39.1143 36.8344 39.0035 37.0971C38.5646 38.2326 37.2426 38.9348 36.14 39.2529C35.0374 39.5711 32.8815 39.2913 32.1355 39.1871C31.9874 39.7741 31.8447 40.361 31.7296 40.937C31.6582 41.3375 31.565 41.7105 31.5156 42.1109L31.351 43.2903C31.2742 44.0419 31.1865 44.8153 31.1316 45.5504C31.0877 46.0606 31.0548 46.5488 31.0219 47.0425C31.1974 46.4939 31.5705 45.3584 31.5705 45.2706C32.178 44.0638 33.0845 43.0326 34.2036 42.2755C34.2632 42.1357 34.3387 42.0032 34.4285 41.8805C34.5838 41.6409 34.7879 41.4367 35.0275 41.2813C35.2671 41.1259 35.5369 41.0229 35.819 40.9788C36.1012 40.9348 36.3895 40.9509 36.665 41.0259C36.9406 41.1009 37.1972 41.2333 37.4181 41.4143C38.7237 42.5388 38.3946 45.6217 37.7966 47.037C37.7637 47.1193 37.2755 47.9805 36.9628 48.5236C37.1987 48.2329 37.4181 47.9476 37.665 47.6569C38.1422 47.0699 38.6359 46.4994 39.1626 45.885L39.9689 45.0128C40.2322 44.7166 40.5504 44.4643 40.8411 44.1406C41.5268 43.4768 42.2564 42.835 43.008 42.2042C42.4978 41.7873 40.6985 40.2733 40.1829 39.242C39.6672 38.2107 39.2997 36.768 39.8373 35.6763C39.9555 35.416 40.1271 35.1834 40.341 34.9936C40.5549 34.8039 40.8063 34.6612 41.0788 34.5748C41.3514 34.4885 41.6391 34.4603 41.9232 34.4923C42.2074 34.5242 42.4816 34.6155 42.7282 34.7602C44.1819 35.6763 44.33 38.7757 43.9515 40.2458C43.9515 40.3391 43.5346 41.3759 43.3097 41.9409C43.765 41.5679 44.2148 41.1948 44.6866 40.8438C46.047 39.796 47.4568 38.7702 48.8556 37.7444L50.1338 36.8009C49.9527 36.6528 47.7804 34.8974 47.199 33.7399C46.6888 32.7141 46.3158 31.2659 46.8534 30.1797C46.9709 29.9188 47.1422 29.6856 47.356 29.4954C47.5698 29.3051 47.8213 29.1621 48.0941 29.0757C48.3669 28.9892 48.6549 28.9613 48.9393 28.9937C49.2236 29.026 49.4979 29.118 49.7443 29.2636C51.2035 30.1742 51.3461 33.2736 50.9676 34.7492C50.9402 34.859 50.3751 36.351 50.2161 36.7241C51.1486 36.0274 52.0757 35.3252 52.9589 34.5902C54.1605 33.6106 55.2966 32.5532 56.3599 31.425C56.2776 31.3537 54.0011 29.5324 53.4087 28.353C52.893 27.3272 52.5255 25.8735 53.0631 24.7874C53.1807 24.5272 53.3518 24.2947 53.5652 24.105C53.7786 23.9153 54.0295 23.7726 54.3016 23.6862C54.5737 23.5998 54.861 23.5716 55.1448 23.6035C55.4285 23.6354 55.7023 23.7266 55.9485 23.8713C57.4077 24.7874 57.5558 27.8867 57.1773 29.3569C57.1773 29.4556 56.722 30.5912 56.508 31.1287L56.5903 31.1836C57.6295 30.0174 58.5639 28.7618 59.3825 27.4314C59.8433 26.7019 60.2383 25.9832 60.6113 25.2756C60.1505 24.9794 58.0714 23.6025 57.4187 22.5986C56.7659 21.5948 56.2722 20.2343 56.6836 19.0933C56.7718 18.8213 56.9162 18.571 57.1076 18.3586C57.299 18.1461 57.533 17.9764 57.7944 17.8605C58.0558 17.7446 58.3386 17.685 58.6245 17.6857C58.9105 17.6864 59.193 17.7473 59.4538 17.8645C61.0062 18.6161 61.489 21.7045 61.275 23.202C61.275 23.2843 61.0556 24.1126 60.8965 24.7106C61.0556 24.3869 61.2312 24.0578 61.3793 23.7451C61.9278 22.5767 62.3941 21.4686 62.7781 20.4537C62.9975 19.9052 63.1786 19.3841 63.3267 18.9013C63.025 18.3528 61.851 16.2463 61.7358 15.0614C61.6206 13.8765 61.8072 12.4393 62.7013 11.6164C62.9049 11.4161 63.1484 11.2608 63.4159 11.1607C63.6835 11.0607 63.9691 11.0181 64.2542 11.0357C64.5393 11.0533 64.8175 11.1307 65.0707 11.2629C65.3239 11.3951 65.5465 11.5791 65.7239 11.8029C66.7552 13.1798 65.7732 16.1256 64.8846 17.3763C64.8078 17.486 63.4089 19.022 63.3925 19.022V18.9891C63.2389 19.4554 63.0743 19.9546 62.8768 20.4921C62.5148 21.4905 62.0924 22.6096 61.5493 23.7835C60.9752 25.068 60.3287 26.3189 59.6129 27.5302C58.8141 28.8888 57.8962 30.1739 56.8701 31.3701L56.8317 31.414C57.2596 31.1507 58.4774 30.4485 58.5816 30.4046C59.9969 29.8012 63.0798 29.4611 64.2098 30.7557C64.3917 30.976 64.5252 31.2322 64.6015 31.5075C64.6779 31.7828 64.6954 32.0711 64.653 32.3536C64.6106 32.6362 64.5091 32.9066 64.3553 33.1473C64.2014 33.3881 63.9986 33.5937 63.76 33.7509C62.7671 34.453 61.2805 34.2994 60.1834 33.9703C58.9491 33.5753 56.892 31.6992 56.7055 31.5457C55.6341 32.741 54.4832 33.8626 53.2606 34.9028C52.5529 35.5117 51.8179 36.1042 51.0663 36.6911C51.4448 36.4717 51.7849 36.2797 51.8343 36.2578C53.2441 35.6544 56.327 35.3143 57.4571 36.6089C57.6398 36.8288 57.7739 37.0849 57.8508 37.3604C57.9276 37.6358 57.9454 37.9244 57.9029 38.2072C57.8604 38.49 57.7587 38.7606 57.6043 39.0013C57.45 39.242 57.2465 39.4474 57.0072 39.604C56.0198 40.3062 54.5277 40.1526 53.4361 39.8234C52.3445 39.4943 50.5178 37.9035 50.046 37.4811C49.7553 37.7005 49.4974 37.9254 49.1848 38.1503C47.8079 39.2036 46.442 40.2513 45.098 41.3265C44.6317 41.6995 44.1874 42.089 43.7376 42.4785L44.4068 42.1054C45.8166 41.502 48.8995 41.1564 50.0295 42.451C50.2115 42.6718 50.3451 42.9284 50.4215 43.2041C50.4979 43.4799 50.5154 43.7686 50.473 44.0515C50.4306 44.3345 50.3291 44.6054 50.1752 44.8466C50.0213 45.0878 49.8185 45.294 49.5797 45.4517C48.5923 46.1538 47.1002 46.0002 46.0086 45.6656C44.917 45.331 43.2658 43.8992 42.7172 43.4001C42.2729 43.8115 41.8231 44.2229 41.4117 44.6398C41.1319 44.9305 40.8631 45.1884 40.5888 45.501L39.7989 46.3897C39.3216 46.9767 38.8224 47.5746 38.3671 48.1561C38.049 48.5565 37.7528 48.946 37.4565 49.341C37.9118 48.957 38.8334 48.2438 38.9157 48.178C40.2158 47.3661 43.2164 46.5323 44.5275 47.6733C44.74 47.8642 44.9099 48.0976 45.0262 48.3585C45.1425 48.6193 45.2026 48.9018 45.2026 49.1874C45.2026 49.473 45.1425 49.7554 45.0262 50.0162C44.9099 50.2771 44.74 50.5105 44.5275 50.7014C43.6498 51.5462 42.1577 51.634 41.0277 51.4584C39.7769 51.2609 37.5169 49.8127 37.2371 49.6043C36.7434 50.2571 36.2716 50.8879 35.8328 51.4968C34.3133 53.5978 33.1284 55.408 32.3165 56.6807L32.2342 56.8124L31.181 56.3022L31.3456 56.0499C32.1958 54.7772 33.4356 52.9779 35.0154 50.8934C35.5146 50.2296 36.0577 49.533 36.6227 48.8253C36.0351 48.1833 35.4856 47.5074 34.977 46.8011C33.7647 47.2784 31.2523 47.2948 30.9232 47.2948C30.8738 48.1067 30.8299 48.9021 30.797 49.6482C30.6873 52.2374 30.6983 54.3987 30.7257 55.9127V56.0883L29.5682 55.5397C29.5682 54.0366 29.6286 52.007 29.7822 49.6043C29.8315 48.7814 29.9028 47.8983 29.9851 46.9931C29.6615 46.9108 27.0448 46.2416 26.0574 45.4517C25.1633 44.7331 24.2198 43.5756 24.2527 42.3578C24.2505 42.0721 24.3085 41.7891 24.4228 41.5273C24.5372 41.2655 24.7054 41.0307 24.9166 40.8382C25.1277 40.6458 25.377 40.4999 25.6482 40.4101C25.9194 40.3203 26.2065 40.2886 26.4908 40.3171C28.1968 40.5366 29.6286 43.2903 29.9083 44.7989C29.9083 44.8921 29.9961 45.896 30.029 46.4994C30.0674 46.1319 30.0948 45.7698 30.1387 45.4023C30.21 44.6508 30.3088 43.9047 30.413 43.0983C30.4733 42.7089 30.5392 42.3194 30.5995 41.9244C30.6599 41.5295 30.7641 41.1235 30.8464 40.7176C31.0548 39.785 31.3072 38.847 31.5869 37.909C30.9287 37.8431 28.5973 37.5688 27.5989 36.9929C26.6005 36.4169 25.4924 35.4185 25.3443 34.2117C25.2984 33.9294 25.3126 33.6406 25.3858 33.3641C25.4591 33.0877 25.5897 32.8298 25.7693 32.6072C25.9489 32.3846 26.1734 32.2024 26.4282 32.0724C26.6829 31.9425 26.9622 31.8676 27.2478 31.8528C28.9648 31.8144 30.797 34.3159 31.3017 35.7696C31.3346 35.8573 31.5814 36.938 31.7076 37.5359C31.8777 36.9874 32.0422 36.4114 32.2562 35.8464C32.8047 34.2007 33.4246 32.5934 34.028 30.9642C34.2145 30.465 34.3901 29.9658 34.5766 29.4666C34.3407 29.4666 31.5595 29.1759 30.4404 28.534C29.4475 27.9855 28.3394 26.9597 28.1858 25.7528C28.1409 25.4707 28.1557 25.1822 28.2292 24.9061C28.3028 24.63 28.4336 24.3725 28.613 24.1501C28.7924 23.9277 29.0166 23.7455 29.2709 23.6153C29.5252 23.4851 29.8041 23.4097 30.0894 23.394C31.8118 23.3556 33.644 25.8571 34.1487 27.3108C34.1871 27.4205 34.5382 28.9564 34.6095 29.3733C35.0045 28.2762 35.3939 27.1791 35.7066 26.082C36.1705 24.6008 36.537 23.0909 36.8037 21.5618C36.694 21.5618 33.7921 21.2876 32.6456 20.6293C31.6473 20.0807 30.5392 19.0549 30.3911 17.8481C30.3452 17.5661 30.3593 17.2776 30.4326 17.0014C30.5059 16.7253 30.6366 16.4677 30.8163 16.2455C30.996 16.0234 31.2205 15.8417 31.4753 15.7123C31.73 15.5829 32.0092 15.5088 32.2946 15.4948C34.0116 15.4509 35.8438 17.9523 36.3484 19.406C36.3813 19.4993 36.6556 20.6841 36.7708 21.2546H36.8641C37.0907 19.7095 37.1788 18.1472 37.1274 16.5864C37.1274 15.7252 37.0451 14.9078 36.9628 14.1124C36.4143 14.1124 33.9238 14.1124 32.8267 13.6351C31.7296 13.1579 30.5611 12.3021 30.2759 11.1227C30.1998 10.8464 30.1829 10.5572 30.2263 10.274C30.2697 9.9907 30.3725 9.71981 30.5278 9.47901C30.6832 9.23821 30.8876 9.03294 31.1278 8.87662C31.368 8.7203 31.6385 8.61647 31.9215 8.57191C33.6276 8.33603 35.7231 10.629 36.3868 12.0114C36.4197 12.0882 36.705 12.8946 36.897 13.487C36.8586 13.125 36.8202 12.7519 36.7708 12.3899C36.6008 11.1008 36.3594 9.93235 36.14 8.89557C36.0083 8.30861 35.8822 7.79845 35.756 7.28828C35.2074 7.014 33.0571 5.88397 32.322 4.97336C31.5869 4.06275 30.9287 2.74071 31.2249 1.56679C31.2904 1.28957 31.4135 1.0292 31.586 0.802532C31.7585 0.575859 31.9767 0.387931 32.2265 0.250907C32.4762 0.113883 32.7519 0.030816 33.0358 0.00707832C33.3197 -0.0166593 33.6054 0.0194624 33.8744 0.113106Z" fill="#6AB0F8"/>
<path d="M64.9669 26.6029C63.6229 26.548 60.935 25.1712 60.935 25.1712C60.935 25.1712 62.3777 23.6736 62.4819 23.5913C63.6832 22.6368 66.5687 21.4903 68.0004 22.4448C68.2345 22.6088 68.4312 22.8203 68.5779 23.0656C68.7245 23.3108 68.8177 23.5843 68.8514 23.8681C68.8851 24.1518 68.8584 24.4395 68.7732 24.7123C68.688 24.9851 68.5462 25.2368 68.357 25.4509C67.589 26.389 66.1134 26.6523 64.9669 26.6029Z" fill="#6AB0F8"/>
<g opacity="0.5">
<path d="M37.2042 13.8711C37.1713 13.8711 37.5882 11.825 37.6266 11.6769C38.0984 10.2122 39.8757 7.66689 41.5927 7.67237C41.8787 7.68044 42.1598 7.74872 42.4177 7.87277C42.6755 7.99682 42.9043 8.17385 43.0891 8.3923C43.2739 8.61074 43.4105 8.8657 43.4901 9.14054C43.5698 9.41537 43.5905 9.7039 43.5511 9.9873C43.4249 11.1941 42.3387 12.2254 41.3568 12.8179C40.2048 13.5365 37.2042 13.8711 37.2042 13.8711Z" fill="#F1F8FF"/>
<path d="M33.8744 0.113106C35.5201 0.69458 36.2991 3.68972 36.2442 5.22569C36.2442 5.35735 35.937 7.41994 35.9096 7.41994H35.8767C36.0028 7.8917 36.14 8.40186 36.2771 8.96139C36.5185 9.99269 36.7818 11.1556 36.9848 12.4502C37.2201 13.837 37.374 15.2364 37.4456 16.6412C37.533 18.2154 37.4798 19.7942 37.2865 21.3589C37.2839 21.3771 37.2839 21.3955 37.2865 21.4137C37.5004 20.9584 38.1367 19.6967 38.1916 19.609C39.0364 18.3253 41.4171 16.3176 43.0793 16.7948C43.3522 16.8781 43.6045 17.0179 43.8197 17.2052C44.0349 17.3925 44.2082 17.6231 44.3283 17.882C44.4484 18.1408 44.5126 18.422 44.5166 18.7073C44.5207 18.9926 44.4646 19.2755 44.3519 19.5377C43.9131 20.6677 42.5965 21.3753 41.4939 21.688C40.2487 22.0446 37.473 21.6277 37.2536 21.5893C37.019 23.1774 36.6781 24.748 36.2332 26.2904C35.9772 27.1901 35.6993 28.0879 35.3994 28.9839C35.5914 28.5944 35.7724 28.2488 35.7999 28.2049C36.6447 26.9158 39.0309 24.9135 40.6876 25.3908C40.9605 25.474 41.2128 25.6139 41.428 25.8012C41.6432 25.9885 41.8165 26.2191 41.9366 26.4779C42.0567 26.7367 42.1209 27.0179 42.1249 27.3032C42.129 27.5885 42.0729 27.8715 41.9602 28.1336C41.5214 29.2636 40.2048 29.9713 39.1022 30.284C37.9996 30.5966 35.6079 30.284 34.9825 30.2017L34.6369 31.233C34.0884 32.8787 33.4904 34.5243 32.9912 36.1371C32.8102 36.6857 32.6511 37.2781 32.4921 37.8486C32.6676 37.503 32.8157 37.2123 32.8431 37.1684C33.6824 35.8848 36.0687 33.877 37.7253 34.3543C37.9977 34.4384 38.2495 34.5787 38.4644 34.766C38.6792 34.9534 38.8525 35.1837 38.9729 35.4421C39.0933 35.7005 39.1582 35.9813 39.1635 36.2664C39.1688 36.5514 39.1143 36.8344 39.0035 37.0971C38.5646 38.2326 37.2426 38.9348 36.14 39.2529C35.0374 39.5711 32.8815 39.2913 32.1355 39.1871C31.9874 39.7741 31.8447 40.361 31.7296 40.937C31.6582 41.3375 31.565 41.7105 31.5156 42.1109L31.351 43.2903C31.2742 44.0419 31.1865 44.8153 31.1316 45.5504C31.0877 46.0606 31.0548 46.5488 31.0219 47.0425C31.1974 46.4939 31.5705 45.3584 31.5705 45.2706C32.178 44.0638 33.0845 43.0326 34.2036 42.2755C34.2632 42.1357 34.3387 42.0032 34.4285 41.8805C34.5838 41.6409 34.7879 41.4367 35.0275 41.2813C35.2671 41.1259 35.5369 41.0229 35.819 40.9788C36.1012 40.9348 36.3895 40.9509 36.665 41.0259C36.9406 41.1009 37.1972 41.2333 37.4181 41.4143C38.7237 42.5388 38.3946 45.6217 37.7966 47.037C37.7637 47.1193 37.2755 47.9805 36.9628 48.5236C37.1987 48.2329 37.4181 47.9476 37.665 47.6569C38.1422 47.0699 38.6359 46.4994 39.1626 45.885L39.9689 45.0128C40.2322 44.7166 40.5504 44.4643 40.8411 44.1406C41.5268 43.4768 42.2564 42.835 43.008 42.2042C42.4978 41.7873 40.6985 40.2733 40.1829 39.242C39.6672 38.2107 39.2997 36.768 39.8373 35.6763C39.9555 35.416 40.1271 35.1834 40.341 34.9936C40.5549 34.8039 40.8063 34.6612 41.0788 34.5748C41.3514 34.4885 41.6391 34.4603 41.9232 34.4923C42.2074 34.5242 42.4816 34.6155 42.7282 34.7602C44.1819 35.6763 44.33 38.7757 43.9515 40.2458C43.9515 40.3391 43.5346 41.3759 43.3097 41.9409C43.765 41.5679 44.2148 41.1948 44.6866 40.8438C46.047 39.796 47.4568 38.7702 48.8556 37.7444L50.1338 36.8009C49.9527 36.6528 47.7804 34.8974 47.199 33.7399C46.6888 32.7141 46.3158 31.2659 46.8534 30.1797C46.9709 29.9188 47.1422 29.6856 47.356 29.4954C47.5698 29.3051 47.8213 29.1621 48.0941 29.0757C48.3669 28.9892 48.6549 28.9613 48.9393 28.9937C49.2236 29.026 49.4979 29.118 49.7443 29.2636C51.2035 30.1742 51.3461 33.2736 50.9676 34.7492C50.9402 34.859 50.3751 36.351 50.2161 36.7241C51.1486 36.0274 52.0757 35.3252 52.9589 34.5902C54.1605 33.6106 55.2966 32.5532 56.3599 31.425C56.2776 31.3537 54.0011 29.5324 53.4087 28.353C52.893 27.3272 52.5255 25.8735 53.0631 24.7874C53.1807 24.5272 53.3518 24.2947 53.5652 24.105C53.7786 23.9153 54.0295 23.7726 54.3016 23.6862C54.5737 23.5998 54.861 23.5716 55.1448 23.6035C55.4285 23.6354 55.7023 23.7266 55.9485 23.8713C57.4077 24.7874 57.5558 27.8867 57.1773 29.3569C57.1773 29.4556 56.722 30.5912 56.508 31.1287L56.5903 31.1836C57.6295 30.0174 58.5639 28.7618 59.3825 27.4314C59.8433 26.7019 60.2383 25.9832 60.6113 25.2756C60.1505 24.9794 58.0714 23.6025 57.4187 22.5986C56.7659 21.5948 56.2722 20.2343 56.6836 19.0933C56.7718 18.8213 56.9162 18.571 57.1076 18.3586C57.299 18.1461 57.533 17.9764 57.7944 17.8605C58.0558 17.7446 58.3386 17.685 58.6245 17.6857C58.9105 17.6864 59.193 17.7473 59.4538 17.8645C61.0062 18.6161 61.489 21.7045 61.275 23.202C61.275 23.2843 61.0556 24.1126 60.8965 24.7106C61.0556 24.3869 61.2312 24.0578 61.3793 23.7451C61.9278 22.5767 62.3941 21.4686 62.7781 20.4537C62.9975 19.9052 63.1786 19.3841 63.3267 18.9013C63.025 18.3528 61.851 16.2463 61.7358 15.0614C61.6206 13.8765 61.8072 12.4393 62.7013 11.6164C62.9049 11.4161 63.1484 11.2608 63.4159 11.1607C63.6835 11.0607 63.9691 11.0181 64.2542 11.0357C64.5393 11.0533 64.8175 11.1307 65.0707 11.2629C65.3239 11.3951 65.5465 11.5791 65.7239 11.8029C66.7552 13.1798 65.7732 16.1256 64.8846 17.3763C64.8078 17.486 63.4089 19.022 63.3925 19.022V18.9891C63.2389 19.4554 63.0743 19.9546 62.8768 20.4921C62.5148 21.4905 62.0924 22.6096 61.5493 23.7835C60.9752 25.068 60.3287 26.3189 59.6129 27.5302C58.8141 28.8888 57.8962 30.1739 56.8701 31.3701L56.8317 31.414C57.2596 31.1507 58.4774 30.4485 58.5816 30.4046C59.9969 29.8012 63.0798 29.4611 64.2098 30.7557C64.3917 30.976 64.5252 31.2322 64.6015 31.5075C64.6779 31.7828 64.6954 32.0711 64.653 32.3536C64.6106 32.6362 64.5091 32.9066 64.3553 33.1473C64.2014 33.3881 63.9986 33.5937 63.76 33.7509C62.7671 34.453 61.2805 34.2994 60.1834 33.9703C58.9491 33.5753 56.892 31.6992 56.7055 31.5457C55.6341 32.741 54.4832 33.8626 53.2606 34.9028C52.5529 35.5117 51.8179 36.1042 51.0663 36.6911C51.4448 36.4717 51.7849 36.2797 51.8343 36.2578C53.2441 35.6544 56.327 35.3143 57.4571 36.6089C57.6398 36.8288 57.7739 37.0849 57.8508 37.3604C57.9276 37.6358 57.9454 37.9244 57.9029 38.2072C57.8604 38.49 57.7587 38.7606 57.6043 39.0013C57.45 39.242 57.2465 39.4474 57.0072 39.604C56.0198 40.3062 54.5277 40.1526 53.4361 39.8234C52.3445 39.4943 50.5178 37.9035 50.046 37.4811C49.7553 37.7005 49.4974 37.9254 49.1848 38.1503C47.8079 39.2036 46.442 40.2513 45.098 41.3265C44.6317 41.6995 44.1874 42.089 43.7376 42.4785L44.4068 42.1054C45.8166 41.502 48.8995 41.1564 50.0295 42.451C50.2115 42.6718 50.3451 42.9284 50.4215 43.2041C50.4979 43.4799 50.5154 43.7686 50.473 44.0515C50.4306 44.3345 50.3291 44.6054 50.1752 44.8466C50.0213 45.0878 49.8185 45.294 49.5797 45.4517C48.5923 46.1538 47.1002 46.0002 46.0086 45.6656C44.917 45.331 43.2658 43.8992 42.7172 43.4001C42.2729 43.8115 41.8231 44.2229 41.4117 44.6398C41.1319 44.9305 40.8631 45.1884 40.5888 45.501L39.7989 46.3897C39.3216 46.9767 38.8224 47.5746 38.3671 48.1561C38.049 48.5565 37.7528 48.946 37.4565 49.341C37.9118 48.957 38.8334 48.2438 38.9157 48.178C40.2158 47.3661 43.2164 46.5323 44.5275 47.6733C44.74 47.8642 44.9099 48.0976 45.0262 48.3585C45.1425 48.6193 45.2026 48.9018 45.2026 49.1874C45.2026 49.473 45.1425 49.7554 45.0262 50.0162C44.9099 50.2771 44.74 50.5105 44.5275 50.7014C43.6498 51.5462 42.1577 51.634 41.0277 51.4584C39.7769 51.2609 37.5169 49.8127 37.2371 49.6043C36.7434 50.2571 36.2716 50.8879 35.8328 51.4968C34.3133 53.5978 33.1284 55.408 32.3165 56.6807L32.2342 56.8124L31.181 56.3022L31.3456 56.0499C32.1958 54.7772 33.4356 52.9779 35.0154 50.8934C35.5146 50.2296 36.0577 49.533 36.6227 48.8253C36.0351 48.1833 35.4856 47.5074 34.977 46.8011C33.7647 47.2784 31.2523 47.2948 30.9232 47.2948C30.8738 48.1067 30.8299 48.9021 30.797 49.6482C30.6873 52.2374 30.6983 54.3987 30.7257 55.9127V56.0883L29.5682 55.5397C29.5682 54.0366 29.6286 52.007 29.7822 49.6043C29.8315 48.7814 29.9028 47.8983 29.9851 46.9931C29.6615 46.9108 27.0448 46.2416 26.0574 45.4517C25.1633 44.7331 24.2198 43.5756 24.2527 42.3578C24.2505 42.0721 24.3085 41.7891 24.4228 41.5273C24.5372 41.2655 24.7054 41.0307 24.9166 40.8382C25.1277 40.6458 25.377 40.4999 25.6482 40.4101C25.9194 40.3203 26.2065 40.2886 26.4908 40.3171C28.1968 40.5366 29.6286 43.2903 29.9083 44.7989C29.9083 44.8921 29.9961 45.896 30.029 46.4994C30.0674 46.1319 30.0948 45.7698 30.1387 45.4023C30.21 44.6508 30.3088 43.9047 30.413 43.0983C30.4733 42.7089 30.5392 42.3194 30.5995 41.9244C30.6599 41.5295 30.7641 41.1235 30.8464 40.7176C31.0548 39.785 31.3072 38.847 31.5869 37.909C30.9287 37.8431 28.5973 37.5688 27.5989 36.9929C26.6005 36.4169 25.4924 35.4185 25.3443 34.2117C25.2984 33.9294 25.3126 33.6406 25.3858 33.3641C25.4591 33.0877 25.5897 32.8298 25.7693 32.6072C25.9489 32.3846 26.1734 32.2024 26.4282 32.0724C26.6829 31.9425 26.9622 31.8676 27.2478 31.8528C28.9648 31.8144 30.797 34.3159 31.3017 35.7696C31.3346 35.8573 31.5814 36.938 31.7076 37.5359C31.8777 36.9874 32.0422 36.4114 32.2562 35.8464C32.8047 34.2007 33.4246 32.5934 34.028 30.9642C34.2145 30.465 34.3901 29.9658 34.5766 29.4666C34.3407 29.4666 31.5595 29.1759 30.4404 28.534C29.4475 27.9855 28.3394 26.9597 28.1858 25.7528C28.1409 25.4707 28.1557 25.1822 28.2292 24.9061C28.3028 24.63 28.4336 24.3725 28.613 24.1501C28.7924 23.9277 29.0166 23.7455 29.2709 23.6153C29.5252 23.4851 29.8041 23.4097 30.0894 23.394C31.8118 23.3556 33.644 25.8571 34.1487 27.3108C34.1871 27.4205 34.5382 28.9564 34.6095 29.3733C35.0045 28.2762 35.3939 27.1791 35.7066 26.082C36.1705 24.6008 36.537 23.0909 36.8037 21.5618C36.694 21.5618 33.7921 21.2876 32.6456 20.6293C31.6473 20.0807 30.5392 19.0549 30.3911 17.8481C30.3452 17.5661 30.3593 17.2776 30.4326 17.0014C30.5059 16.7253 30.6366 16.4677 30.8163 16.2455C30.996 16.0234 31.2205 15.8417 31.4753 15.7123C31.73 15.5829 32.0092 15.5088 32.2946 15.4948C34.0116 15.4509 35.8438 17.9523 36.3484 19.406C36.3813 19.4993 36.6556 20.6841 36.7708 21.2546H36.8641C37.0907 19.7095 37.1788 18.1472 37.1274 16.5864C37.1274 15.7252 37.0451 14.9078 36.9628 14.1124C36.4143 14.1124 33.9238 14.1124 32.8267 13.6351C31.7296 13.1579 30.5611 12.3021 30.2759 11.1227C30.1998 10.8464 30.1829 10.5572 30.2263 10.274C30.2697 9.9907 30.3725 9.71981 30.5278 9.47901C30.6832 9.23821 30.8876 9.03294 31.1278 8.87662C31.368 8.7203 31.6385 8.61647 31.9215 8.57191C33.6276 8.33603 35.7231 10.629 36.3868 12.0114C36.4197 12.0882 36.705 12.8946 36.897 13.487C36.8586 13.125 36.8202 12.7519 36.7708 12.3899C36.6008 11.1008 36.3594 9.93235 36.14 8.89557C36.0083 8.30861 35.8822 7.79845 35.756 7.28828C35.2074 7.014 33.0571 5.88397 32.322 4.97336C31.5869 4.06275 30.9287 2.74071 31.2249 1.56679C31.2904 1.28957 31.4135 1.0292 31.586 0.802532C31.7585 0.575859 31.9767 0.387931 32.2265 0.250907C32.4762 0.113883 32.7519 0.030816 33.0358 0.00707832C33.3197 -0.0166593 33.6054 0.0194624 33.8744 0.113106Z" fill="#F1F8FF"/>
<path d="M64.9669 26.6029C63.6229 26.548 60.935 25.1712 60.935 25.1712C60.935 25.1712 62.3777 23.6736 62.4819 23.5913C63.6833 22.6368 66.5687 21.4903 68.0004 22.4448C68.2345 22.6088 68.4313 22.8203 68.5779 23.0656C68.7245 23.3108 68.8178 23.5843 68.8514 23.8681C68.8851 24.1518 68.8584 24.4395 68.7732 24.7123C68.688 24.9851 68.5462 25.2368 68.357 25.4509C67.589 26.389 66.1134 26.6523 64.9669 26.6029Z" fill="#F1F8FF"/>
</g>
<path d="M49.2725 60.263C49.2725 60.263 41.1154 40.6025 36.5514 41.4583C31.9874 42.3141 44.3794 72.8031 44.3794 72.8031C44.3794 72.8031 30.029 45.7316 20.2427 45.7316C10.4564 45.7316 23.8303 75.6501 36.2552 85.6229C36.2552 85.6229 16.6825 64.5363 5.26699 69.0948C-6.14857 73.6533 28.0707 95.0143 28.0707 95.0143C28.0707 95.0143 8.17436 88.7552 10.4728 93.6045C12.7713 98.4538 18.9536 99.2986 18.9536 99.2986L24.1869 100.44H52.712L57.1005 98.7335C57.1005 98.7335 75.3676 89.611 70.4744 85.9082C65.5813 82.2054 54.8185 90.1815 54.8185 90.1815C54.8185 90.1815 73.4092 69.6653 69.8216 61.9745C66.234 54.2837 50.249 75.9354 50.249 75.9354C50.249 75.9354 63.2992 48.2934 60.6716 43.4496C58.044 38.6058 49.2725 60.263 49.2725 60.263Z" fill="#6AB0F8"/>
<path opacity="0.4" d="M49.2725 60.263C49.2725 60.263 41.1154 40.6025 36.5514 41.4583C31.9874 42.3141 44.3794 72.8031 44.3794 72.8031C44.3794 72.8031 30.029 45.7316 20.2427 45.7316C10.4564 45.7316 23.8303 75.6501 36.2552 85.6229C36.2552 85.6229 16.6825 64.5363 5.26699 69.0948C-6.14857 73.6533 28.0707 95.0143 28.0707 95.0143C28.0707 95.0143 8.17436 88.7552 10.4728 93.6045C12.7713 98.4538 18.9536 99.2986 18.9536 99.2986L27.4782 100.44H50.5178L57.1005 98.7335C57.1005 98.7335 75.3676 89.611 70.4744 85.9082C65.5813 82.2054 54.8185 90.1815 54.8185 90.1815C54.8185 90.1815 73.4092 69.6653 69.8216 61.9745C66.234 54.2837 50.249 75.9354 50.249 75.9354C50.249 75.9354 63.2992 48.2934 60.6716 43.4496C58.044 38.6058 49.2725 60.263 49.2725 60.263Z" fill="#F1F8FF"/>
<path d="M51.8837 61.2998C44.7085 82.5017 44.7085 97.5048 44.7085 97.5048C44.7085 97.5048 53.1893 97.834 61.9937 91.3061" stroke="#06223E" stroke-linecap="round" stroke-linejoin="round"/>
<path d="M48.3235 72.7152C46.843 66.3773 44.8789 60.1622 42.4484 54.1245" stroke="#06223E" stroke-linecap="round" stroke-linejoin="round"/>
<path d="M27.0942 60.3179L45.3558 87.3948C45.3558 87.3948 57.7533 76.9722 61.9937 71.0861" stroke="#06223E" stroke-linecap="round" stroke-linejoin="round"/>
<path d="M45.0322 93.9173C45.0322 93.9173 25.7886 84.7837 17.9607 79.5669" stroke="#06223E" stroke-linecap="round" stroke-linejoin="round"/>
<path d="M102.966 16.3672H98.9996V181.643H102.966V16.3672Z" fill="#C9CBCC" stroke="#B4B5B5" stroke-linecap="round" stroke-linejoin="round"/>
<path d="M31.6199 16.3672H27.6538V181.643H31.6199V16.3672Z" fill="#C9CBCC" stroke="#B4B5B5" stroke-linecap="round" stroke-linejoin="round"/>
<path d="M67.2928 16.3672H63.3267V181.643H67.2928V16.3672Z" fill="#C9CBCC" stroke="#B4B5B5" stroke-linecap="round" stroke-linejoin="round"/>
<path d="M138.633 16.3672H134.667V181.643H138.633V16.3672Z" fill="#C9CBCC" stroke="#B4B5B5" stroke-linecap="round" stroke-linejoin="round"/>
<path d="M137.443 21.5181H26.3756V29.0498H137.443V21.5181Z" fill="#C9CBCC" stroke="#B4B5B5" stroke-linecap="round" stroke-linejoin="round"/>
<path d="M137.443 21.5181H65.9653V29.0498H137.443V21.5181Z" fill="#C9CBCC" stroke="#B4B5B5" stroke-linecap="round" stroke-linejoin="round"/>
<path d="M137.443 97.3569H26.3756V104.889H137.443V97.3569Z" fill="#C9CBCC" stroke="#B4B5B5" stroke-linecap="round" stroke-linejoin="round"/>
<path d="M137.443 97.3569H65.9653V104.889H137.443V97.3569Z" fill="#C9CBCC" stroke="#B4B5B5" stroke-linecap="round" stroke-linejoin="round"/>
<path d="M137.443 173.19H26.3756V180.722H137.443V173.19Z" fill="#C9CBCC" stroke="#B4B5B5" stroke-linecap="round" stroke-linejoin="round"/>
<path d="M137.443 173.19H65.9653V180.722H137.443V173.19Z" fill="#C9CBCC" stroke="#B4B5B5" stroke-linecap="round" stroke-linejoin="round"/>
<path d="M65.9817 132.755H7.8562V181.582H65.9817V132.755Z" fill="#6AB0F8"/>
<mask id="mask0_398_82318" style="mask-type:luminance" maskUnits="userSpaceOnUse" x="7" y="132" width="59" height="50">
<path d="M65.9817 132.755H7.8562V181.582H65.9817V132.755Z" fill="white"/>
</mask>
<g mask="url(#mask0_398_82318)">
<path opacity="0.6" d="M65.9817 132.755H7.8562V181.582H65.9817V132.755Z" fill="#F1F8FF" stroke="#9B9D9F" stroke-linecap="round" stroke-linejoin="round"/>
</g>
<path d="M65.9817 132.755H7.8562V181.582H65.9817V132.755Z" stroke="#9B9D9F" stroke-linecap="round" stroke-linejoin="round"/>
<path d="M65.9817 132.755H46.6669V181.582H65.9817V132.755Z" fill="#6AB0F8"/>
<mask id="mask1_398_82318" style="mask-type:luminance" maskUnits="userSpaceOnUse" x="46" y="132" width="20" height="50">
<path d="M65.9817 132.755H46.6669V181.582H65.9817V132.755Z" fill="white"/>
</mask>
<g mask="url(#mask1_398_82318)">
<path opacity="0.39" d="M65.9817 132.755H46.6669V181.582H65.9817V132.755Z" fill="#F1F8FF" stroke="#9B9D9F" stroke-linecap="round" stroke-linejoin="round"/>
</g>
<path d="M65.9817 132.755H46.6669V181.582H65.9817V132.755Z" stroke="#9B9D9F" stroke-linecap="round" stroke-linejoin="round"/>
<path d="M56.5245 132.887V181.643" stroke="#9B9D9F" stroke-linecap="round" stroke-linejoin="round"/>
<path d="M68.9165 84.0044H10.791V132.832H68.9165V84.0044Z" fill="#6AB0F8"/>
<mask id="mask2_398_82318" style="mask-type:luminance" maskUnits="userSpaceOnUse" x="10" y="84" width="59" height="49">
<path d="M68.9165 84.0044H10.791V132.832H68.9165V84.0044Z" fill="white"/>
</mask>
<g mask="url(#mask2_398_82318)">
<path opacity="0.6" d="M68.9165 84.0044H10.791V132.832H68.9165V84.0044Z" fill="#F1F8FF" stroke="#9B9D9F" stroke-linecap="round" stroke-linejoin="round"/>
</g>
<path d="M68.9165 84.0044H10.791V132.832H68.9165V84.0044Z" stroke="#9B9D9F" stroke-linecap="round" stroke-linejoin="round"/>
<path d="M68.9165 84.0044H49.6017V132.832H68.9165V84.0044Z" fill="#6AB0F8"/>
<mask id="mask3_398_82318" style="mask-type:luminance" maskUnits="userSpaceOnUse" x="49" y="84" width="20" height="49">
<path d="M68.9165 84.0044H49.6017V132.832H68.9165V84.0044Z" fill="white"/>
</mask>
<g mask="url(#mask3_398_82318)">
<path opacity="0.39" d="M68.9165 84.0044H49.6017V132.832H68.9165V84.0044Z" fill="#F1F8FF" stroke="#9B9D9F" stroke-linecap="round" stroke-linejoin="round"/>
</g>
<path d="M68.9165 84.0044H49.6017V132.832H68.9165V84.0044Z" stroke="#9B9D9F" stroke-linecap="round" stroke-linejoin="round"/>
<path d="M59.4594 84.1362V132.892" stroke="#9B9D9F" stroke-linecap="round" stroke-linejoin="round"/>
<path d="M220.177 132.755H162.051V181.582H220.177V132.755Z" fill="#6AB0F8"/>
<mask id="mask4_398_82318" style="mask-type:luminance" maskUnits="userSpaceOnUse" x="162" y="132" width="59" height="50">
<path d="M220.177 132.755H162.051V181.582H220.177V132.755Z" fill="white"/>
</mask>
<g mask="url(#mask4_398_82318)">
<path opacity="0.6" d="M220.177 132.755H162.051V181.582H220.177V132.755Z" fill="#F1F8FF" stroke="#595F63" stroke-linecap="round" stroke-linejoin="round"/>
</g>
<path d="M220.177 132.755H162.051V181.582H220.177V132.755Z" stroke="#595F63" stroke-linecap="round" stroke-linejoin="round"/>
<path d="M220.177 132.755H200.862V181.582H220.177V132.755Z" fill="#6AB0F8"/>
<mask id="mask5_398_82318" style="mask-type:luminance" maskUnits="userSpaceOnUse" x="200" y="132" width="21" height="50">
<path d="M220.177 132.755H200.862V181.582H220.177V132.755Z" fill="white"/>
</mask>
<g mask="url(#mask5_398_82318)">
<path opacity="0.39" d="M220.177 132.755H200.862V181.582H220.177V132.755Z" fill="#F1F8FF" stroke="#595F63" stroke-linecap="round" stroke-linejoin="round"/>
</g>
<path d="M220.177 132.755H200.862V181.582H220.177V132.755Z" stroke="#595F63" stroke-linecap="round" stroke-linejoin="round"/>
<path d="M210.72 132.887V181.643" stroke="#595F63" stroke-linecap="round" stroke-linejoin="round"/>
<path d="M220.177 83.8779H162.051V132.705H220.177V83.8779Z" fill="#6AB0F8"/>
<mask id="mask6_398_82318" style="mask-type:luminance" maskUnits="userSpaceOnUse" x="162" y="83" width="59" height="50">
<path d="M220.177 83.8779H162.051V132.705H220.177V83.8779Z" fill="white"/>
</mask>
<g mask="url(#mask6_398_82318)">
<path opacity="0.6" d="M220.177 83.8779H162.051V132.705H220.177V83.8779Z" fill="#F1F8FF" stroke="#595F63" stroke-linecap="round" stroke-linejoin="round"/>
</g>
<path d="M220.177 83.8779H162.051V132.705H220.177V83.8779Z" stroke="#595F63" stroke-linecap="round" stroke-linejoin="round"/>
<path d="M220.177 83.8779H200.862V132.705H220.177V83.8779Z" fill="#6AB0F8"/>
<mask id="mask7_398_82318" style="mask-type:luminance" maskUnits="userSpaceOnUse" x="200" y="83" width="21" height="50">
<path d="M220.177 83.8779H200.862V132.705H220.177V83.8779Z" fill="white"/>
</mask>
<g mask="url(#mask7_398_82318)">
<path opacity="0.39" d="M220.177 83.8779H200.862V132.705H220.177V83.8779Z" fill="#F1F8FF" stroke="#595F63" stroke-linecap="round" stroke-linejoin="round"/>
</g>
<path d="M220.177 83.8779H200.862V132.705H220.177V83.8779Z" stroke="#595F63" stroke-linecap="round" stroke-linejoin="round"/>
<path d="M210.72 84.0098V132.766" stroke="#595F63" stroke-linecap="round" stroke-linejoin="round"/>
<path d="M215.07 43.4492H166.988V83.8398H215.07V43.4492Z" fill="#6AB0F8"/>
<mask id="mask8_398_82318" style="mask-type:luminance" maskUnits="userSpaceOnUse" x="166" y="43" width="50" height="41">
<path d="M215.07 43.4492H166.988V83.8398H215.07V43.4492Z" fill="white"/>
</mask>
<g mask="url(#mask8_398_82318)">
<path opacity="0.6" d="M215.07 43.4492H166.988V83.8398H215.07V43.4492Z" fill="#F1F8FF" stroke="#595F63" stroke-linecap="round" stroke-linejoin="round"/>
</g>
<path d="M215.07 43.4492H166.988V83.8398H215.07V43.4492Z" stroke="#595F63" stroke-linecap="round" stroke-linejoin="round"/>
<path d="M215.07 43.4492H199.096V83.8398H215.07V43.4492Z" fill="#6AB0F8"/>
<mask id="mask9_398_82318" style="mask-type:luminance" maskUnits="userSpaceOnUse" x="199" y="43" width="17" height="41">
<path d="M215.07 43.4492H199.096V83.8398H215.07V43.4492Z" fill="white"/>
</mask>
<g mask="url(#mask9_398_82318)">
<path opacity="0.39" d="M215.07 43.4492H199.096V83.8398H215.07V43.4492Z" fill="#F1F8FF" stroke="#595F63" stroke-linecap="round" stroke-linejoin="round"/>
</g>
<path d="M215.07 43.4492H199.096V83.8398H215.07V43.4492Z" stroke="#595F63" stroke-linecap="round" stroke-linejoin="round"/>
<path d="M207.247 43.5591V83.8893" stroke="#595F63" stroke-linecap="round" stroke-linejoin="round"/>
<path d="M208.92 163.228H201.389V167.94H208.92V163.228Z" fill="#F1F8FF" stroke="#06223E" stroke-linecap="round" stroke-linejoin="round"/>
<path d="M138.046 181.643C140.561 181.643 142.599 179.605 142.599 177.09C142.599 174.576 140.561 172.537 138.046 172.537C135.532 172.537 133.493 174.576 133.493 177.09C133.493 179.605 135.532 181.643 138.046 181.643Z" fill="#06223E" stroke="#06223E" stroke-linecap="round" stroke-linejoin="round"/>
<path d="M212.969 101.729H210.281V177.194H212.969V101.729Z" fill="#06223E" stroke="#06223E" stroke-linecap="round" stroke-linejoin="round"/>
<path d="M211.537 128.125L205.179 123.068C202.475 120.913 200.446 118.027 199.335 114.752C198.223 111.478 198.076 107.954 198.909 104.598C199.154 103.618 199.719 102.748 200.513 102.125C201.308 101.502 202.288 101.162 203.298 101.158H219.754C220.765 101.16 221.745 101.5 222.54 102.123C223.335 102.746 223.899 103.617 224.143 104.598C224.978 107.953 224.831 111.477 223.72 114.752C222.61 118.026 220.582 120.913 217.878 123.068L211.537 128.125ZM203.308 103.731C202.869 103.729 202.442 103.876 202.096 104.146C201.749 104.417 201.504 104.796 201.399 105.223C200.683 108.099 200.808 111.12 201.76 113.927C202.712 116.734 204.451 119.208 206.77 121.055L211.526 124.84L216.287 121.055C218.607 119.209 220.347 116.735 221.301 113.929C222.256 111.122 222.383 108.1 221.669 105.223C221.563 104.797 221.318 104.418 220.972 104.148C220.626 103.877 220.199 103.73 219.76 103.731H203.308Z" fill="#06223E"/>
<path d="M195.755 165.587H112.522V175.275H195.755V165.587Z" fill="#F1F8FF"/>
<mask id="mask10_398_82318" style="mask-type:luminance" maskUnits="userSpaceOnUse" x="112" y="165" width="84" height="11">
<path d="M195.755 165.587H112.522V175.275H195.755V165.587Z" fill="white"/>
</mask>
<g mask="url(#mask10_398_82318)">
<path opacity="0.28" d="M195.755 165.587H112.522V175.275H195.755V165.587Z" fill="#051729" stroke="#06223E" stroke-linecap="round" stroke-linejoin="round"/>
</g>
<path d="M195.755 165.587H112.522V175.275H195.755V165.587Z" stroke="#06223E" stroke-linecap="round" stroke-linejoin="round"/>
<path d="M121.847 165.587H112.522V175.275H121.847V165.587Z" stroke="#06223E" stroke-linecap="round" stroke-linejoin="round"/>
<path d="M195.749 165.587H186.424V175.275H195.749V165.587Z" stroke="#06223E" stroke-linecap="round" stroke-linejoin="round"/>
<path d="M158.798 165.587H149.473V175.275H158.798V165.587Z" stroke="#06223E" stroke-linecap="round" stroke-linejoin="round"/>
<path d="M195.755 175.274H201.493L208.668 148.005H202.93L195.755 175.274Z" fill="#F1F8FF" stroke="#06223E" stroke-linecap="round" stroke-linejoin="round"/>
<path d="M215.393 159.487H207.862V171.687H215.393V159.487Z" fill="#F1F8FF" stroke="#06223E" stroke-linecap="round" stroke-linejoin="round"/>
<path d="M209.781 181.643C209.354 181.636 208.947 181.463 208.645 181.161C208.343 180.859 208.17 180.452 208.163 180.025V173.952C208.17 173.525 208.343 173.118 208.645 172.816C208.947 172.514 209.354 172.341 209.781 172.334C210.208 172.341 210.616 172.514 210.918 172.816C211.22 173.118 211.393 173.525 211.4 173.952V180.041C211.388 180.465 211.214 180.869 210.912 181.167C210.611 181.466 210.206 181.636 209.781 181.643Z" fill="#06223E"/>
<path d="M213.627 181.643C213.2 181.636 212.792 181.463 212.49 181.161C212.188 180.859 212.016 180.452 212.009 180.025V173.952C212.016 173.525 212.188 173.118 212.49 172.816C212.792 172.514 213.2 172.341 213.627 172.334C214.059 172.334 214.473 172.504 214.781 172.806C215.089 173.109 215.265 173.521 215.273 173.952V180.041C215.261 180.47 215.083 180.877 214.775 181.177C214.468 181.476 214.056 181.643 213.627 181.643Z" fill="#06223E"/>
<path d="M0.5 181.643H227.5" stroke="#06223E" stroke-linecap="round" stroke-linejoin="round"/>
<path d="M78.818 197.491C100.704 197.491 118.446 195.334 118.446 192.674C118.446 190.014 100.704 187.858 78.818 187.858C56.9321 187.858 39.19 190.014 39.19 192.674C39.19 195.334 56.9321 197.491 78.818 197.491Z" fill="#6AB0F8"/>
<path opacity="0.5" d="M78.818 197.491C100.704 197.491 118.446 195.334 118.446 192.674C118.446 190.014 100.704 187.858 78.818 187.858C56.9321 187.858 39.19 190.014 39.19 192.674C39.19 195.334 56.9321 197.491 78.818 197.491Z" fill="#F1F8FF"/>
<path d="M160.822 192.658C160.822 193.985 151.974 195.061 141.074 195.061C130.174 195.061 121.326 193.964 121.326 192.658C121.326 191.352 130.169 190.261 141.074 190.261C151.98 190.261 160.822 191.352 160.822 192.658Z" fill="#6AB0F8"/>
<path opacity="0.5" d="M160.822 192.658C160.822 193.985 151.974 195.061 141.074 195.061C130.174 195.061 121.326 193.964 121.326 192.658C121.326 191.352 130.169 190.261 141.074 190.261C151.98 190.261 160.822 191.352 160.822 192.658Z" fill="#F1F8FF"/>
<path d="M86.7228 34.0085C86.7228 34.0085 83.6564 31.6003 80.1401 32.8016C76.6238 34.003 73.9578 39.8616 73.0088 44.6231C72.0598 49.3846 68.4118 52.9942 69.2895 58.5785C70.1672 64.1629 76.5141 65.0351 84.1775 65.8579C91.8409 66.6808 95.999 65.7482 99.6085 60.7124C103.218 55.6766 101.688 49.5492 99.5536 44.1294C97.4197 38.7096 93.8651 33.6793 90.9083 32.7468C87.9516 31.8142 86.7228 34.0085 86.7228 34.0085Z" fill="#06223E" stroke="#06223E" stroke-linecap="round" stroke-linejoin="round"/>
<path d="M74.051 62.6489C74.5685 62.8816 75.1066 63.0653 75.6583 63.1975" stroke="#F1F8FF" stroke-linecap="round" stroke-linejoin="round"/>
<path d="M85.9548 37.9087C84.705 40.7011 83.1208 43.3315 81.2372 45.7421C78.0994 49.7741 71.1601 53.5811 70.7158 57.8105C70.6444 58.3767 70.694 58.9517 70.8614 59.4973C71.0288 60.043 71.3101 60.5469 71.6867 60.9757" stroke="#F1F8FF" stroke-linecap="round" stroke-linejoin="round"/>
<path d="M98.6869 58.1343C98.4602 58.6652 98.1691 59.1663 97.8202 59.6264" stroke="#F1F8FF" stroke-linecap="round" stroke-linejoin="round"/>
<path d="M96.0483 47.5361C96.0483 47.5361 99.5756 51.6065 99.2355 55.9511" stroke="#F1F8FF" stroke-linecap="round" stroke-linejoin="round"/>
<path d="M85.2856 35.6651C83.9108 35.5251 82.5226 35.7166 81.237 36.2234C79.9514 36.7302 78.8059 37.5375 77.8965 38.5779C77.7703 38.7206 77.6551 38.8632 77.5454 39.0058" stroke="#F1F8FF" stroke-linecap="round" stroke-linejoin="round"/>
<path d="M65.0492 139.064L64.3635 149.618C64.3635 149.618 61.4451 163.776 60.5235 169.613C59.602 175.45 57.9124 184.325 57.6052 184.325C57.298 184.325 52.2622 187.37 50.6495 189.855C49.0367 192.34 51.0828 193.393 53.3209 192.598C55.5591 191.802 58.5981 189.553 59.591 186.882C60.5839 184.21 61.0776 183.217 61.1434 182.784C61.2092 182.35 71.8239 153.853 72.8771 150.808C73.9304 147.764 76.1685 138.822 76.1685 138.822L81.3853 121.126C81.3853 121.126 86.9697 139.321 87.0355 140.128C87.1013 140.934 92.8064 187.441 93.0697 189.18C93.333 190.919 93.2562 192.159 94.3094 192.532C95.3626 192.905 97.8476 192.905 99.1532 192.905C100.459 192.905 104.99 193.59 107.223 193.031C109.455 192.471 109.708 192.098 108.155 190.979C106.603 189.86 97.9793 189.147 97.1839 185.889C97.118 185.642 97.0577 137.769 97.0577 137.769C97.0577 137.769 96.3117 121.937 95.0719 117.472H66.3822L65.0492 139.064Z" fill="#E9CBB9" stroke="#06223E" stroke-linecap="round" stroke-linejoin="round"/>
<path d="M53.3155 192.586C55.5481 191.775 58.5926 189.542 59.5855 186.87L59.794 186.322C58.5268 187.671 56.5026 189.547 56.5026 189.547C56.3785 188.911 56.1018 188.314 55.6962 187.808C55.5192 187.613 55.2925 187.47 55.0404 187.393C54.7882 187.317 54.52 187.311 54.2645 187.375L56.4587 184.961C54.813 185.982 51.8508 188.066 50.6878 189.86C49.0257 192.334 51.0664 193.393 53.3155 192.586Z" fill="#06223E" stroke="#06223E" stroke-linecap="round" stroke-linejoin="round"/>
<path d="M108.117 190.968C107.052 190.206 102.68 189.63 99.7621 188.297C99.6417 188.399 99.5476 188.529 99.4878 188.675C99.3026 189.201 99.1577 189.74 99.0545 190.288L93.0203 188.999V189.169C93.2671 190.908 93.2068 192.148 94.26 192.521C95.3133 192.894 97.7983 192.894 99.1038 192.894C100.409 192.894 104.941 193.58 107.173 193.02C109.406 192.46 109.691 192.109 108.117 190.968Z" fill="#06223E" stroke="#06223E" stroke-linecap="round" stroke-linejoin="round"/>
<path d="M73.4092 91.7227C73.4092 91.7227 70.5622 93.0337 67.1172 99.2215C63.3486 105.974 63.9959 109.726 63.9411 117.873C63.8862 126.019 63.7216 139.541 63.7216 139.541C63.7216 139.541 74.1443 142.333 81.6212 141.894C89.0981 141.455 98.5827 139.76 98.5827 139.76C98.5827 139.76 96.5585 112.178 94.644 104.246C92.7296 96.3141 91.5776 92.7265 91.5776 92.7265C87.8774 93.2401 84.128 93.2953 80.4144 92.8911C74.0675 92.2712 73.4092 91.7227 73.4092 91.7227Z" fill="#06223E" stroke="#06223E" stroke-linecap="round" stroke-linejoin="round"/>
<path d="M85.4008 116.117C85.686 117.055 85.9493 118.004 86.1797 118.953" stroke="#F1F8FF" stroke-linecap="round" stroke-linejoin="round"/>
<path d="M78.7906 100.593C81.0004 104.67 82.8966 108.91 84.4627 113.276" stroke="#F1F8FF" stroke-linecap="round" stroke-linejoin="round"/>
<path d="M143.29 86.4782C142.961 86.2588 137.569 85.414 137.569 85.414L136.516 84.9806C136.516 84.9806 143.044 85.5018 143.098 85.2275C143.153 84.9532 143.373 84.6241 142.934 84.5692C142.495 84.5144 134.097 82.8083 134.097 82.8083C134.097 82.8083 136.23 80.7896 136.505 80.3508C136.779 79.9119 137.158 79.0342 136.719 79.0342C136.28 79.0342 136.17 79.3085 135.572 79.6925C134.974 80.0765 132.615 81.009 131.957 81.5521C131.299 82.0952 129.335 83.5215 129.335 83.5215L106.526 80.3837C106.526 80.3837 98.5169 70.5096 96.7779 68.4031C95.5691 66.9974 94.193 65.7447 92.6802 64.6729C91.0016 63.9323 91.0345 65.1721 91.0345 65.1721L94.5398 80.7512C94.5398 80.7512 103.608 86.1545 104.167 86.1545C104.727 86.1545 129.225 86.9664 129.225 86.9664C129.225 86.9664 130.871 87.7344 131.902 88.3872C132.934 89.04 139.511 91.13 139.511 91.13C139.511 91.13 139.95 90.9106 139.456 90.5266C138.962 90.1426 135.792 88.6121 135.792 88.6121L142.374 90.0384C142.374 90.0384 142.758 89.7641 142.594 89.4898C142.429 89.2155 136.56 86.9719 136.56 86.9719L143.142 87.301C143.142 87.301 143.614 86.6976 143.29 86.4782Z" fill="#E9CBB9" stroke="#06223E" stroke-linecap="round" stroke-linejoin="round"/>
<path d="M105.149 78.6886C102.785 75.7758 98.0616 69.961 96.7779 68.4031C95.5691 66.9974 94.193 65.7447 92.6802 64.6729C91.0016 63.9323 91.0345 65.1721 91.0345 65.1721L94.5398 80.7512C94.5398 80.7512 98.6321 83.1868 101.485 84.7886L105.149 78.6886Z" fill="#F1F8FF" stroke="#06223E" stroke-linecap="round" stroke-linejoin="round"/>
<path d="M80.9081 63.3401C80.9081 63.3401 76.1465 63.5596 73.2282 66.7906C70.3099 70.0216 70.6555 77.131 71.8623 81.3988C73.0691 85.6666 74.6051 88.0199 74.2705 89.501C73.9359 90.9821 72.74 91.4703 73.3928 92.8363C74.0456 94.2022 77.8251 95.6833 84.5011 95.4639C91.1771 95.2444 92.4388 93.8182 92.4937 92.5675C92.5485 91.3167 92.0548 90.269 92.2194 89.501C92.384 88.733 97.2003 84.4652 97.2003 79.7586C97.2003 75.0519 95.1213 73.4117 94.6276 70.0161C94.1339 66.6205 94.2984 66.1323 92.2742 64.6512C90.25 63.1701 83.5905 62.4076 80.9081 63.3401Z" fill="#F1F8FF" stroke="#06223E" stroke-linecap="round" stroke-linejoin="round"/>
<path d="M78.7467 79.6543C77.1553 80.986 75.389 82.0934 73.497 82.9457" stroke="#06223E" stroke-linecap="round" stroke-linejoin="round"/>
<path d="M79.2734 80.2026C79.2734 80.2026 78.0939 84.0097 75.203 86.1106" stroke="#06223E" stroke-linecap="round" stroke-linejoin="round"/>
<path d="M91.0894 66.7852L91.6379 72.0404L89.334 69.3579L91.0894 66.7852Z" fill="#F1F8FF" stroke="#06223E" stroke-linecap="round" stroke-linejoin="round"/>
<path d="M88.0229 72.479L91.0894 66.7849L88.2972 63.7788L88.0229 72.479Z" fill="#F1F8FF" stroke="#06223E" stroke-linecap="round" stroke-linejoin="round"/>
<path d="M82.1149 54.0366C82.593 55.9339 82.8308 57.8838 82.8225 59.8404C82.8066 61.1073 82.6781 62.3703 82.4385 63.6145L88.0229 72.4792L89.6082 64.2508L90.6505 58.5568C90.6505 58.5568 84.3037 58.1947 82.1149 54.0366Z" fill="#E9CBB9" stroke="#06223E" stroke-linecap="round" stroke-linejoin="round"/>
<path d="M87.6938 67.7178L88.0229 72.4793L86.3827 69.9065L87.6938 67.7178Z" fill="#F1F8FF" stroke="#06223E" stroke-linecap="round" stroke-linejoin="round"/>
<path d="M80.5789 63.3948L85.6696 72.5338L87.6938 67.7174L82.2795 60.2734L80.5789 63.3948Z" fill="#F1F8FF" stroke="#06223E" stroke-linecap="round" stroke-linejoin="round"/>
<path d="M169.764 67.6572H123.57V105.563H169.764V67.6572Z" fill="#6AB0F8"/>
<mask id="mask11_398_82318" style="mask-type:luminance" maskUnits="userSpaceOnUse" x="123" y="67" width="47" height="39">
<path d="M169.764 67.6572H123.57V105.563H169.764V67.6572Z" fill="white"/>
</mask>
<g mask="url(#mask11_398_82318)">
<path opacity="0.2" d="M169.764 67.6572H123.57V105.563H169.764V67.6572Z" fill="#051729"/>
</g>
<path d="M169.764 67.6572H123.57V105.563H169.764V67.6572Z" stroke="#06223E" stroke-linecap="round" stroke-linejoin="round"/>
<path d="M159.983 67.6572H113.789V105.563H159.983V67.6572Z" fill="#6AB0F8" stroke="#06223E" stroke-linecap="round" stroke-linejoin="round"/>
<path d="M177.372 118.323C175.891 115.975 169.764 105.563 169.764 105.563H159.989L165.019 118.323H177.372Z" fill="#6AB0F8"/>
<mask id="mask12_398_82318" style="mask-type:luminance" maskUnits="userSpaceOnUse" x="159" y="105" width="19" height="14">
<path d="M177.372 118.323C175.891 115.975 169.764 105.563 169.764 105.563H159.989L165.019 118.323H177.372Z" fill="white"/>
</mask>
<g mask="url(#mask12_398_82318)">
<path opacity="0.2" d="M177.372 118.323C175.891 115.975 169.764 105.563 169.764 105.563H159.989L165.019 118.323H177.372Z" fill="#051729"/>
</g>
<path d="M177.372 118.323C175.891 115.975 169.764 105.563 169.764 105.563H159.989L165.019 118.323H177.372Z" stroke="#06223E" stroke-linecap="round" stroke-linejoin="round"/>
<path d="M106.153 118.323C107.634 115.975 113.756 105.563 113.756 105.563H123.537L118.506 118.323H106.153Z" fill="#6AB0F8" stroke="#06223E" stroke-linecap="round" stroke-linejoin="round"/>
<path d="M113.756 105.563L109.505 118.323H157.75L159.989 105.563H113.756Z" fill="#6AB0F8" stroke="#06223E" stroke-linecap="round" stroke-linejoin="round"/>
<path d="M175.71 81.3711V94.0648" stroke="#0D58A4" stroke-linecap="round" stroke-linejoin="round"/>
<path d="M178.113 86.8623V97.1533" stroke="#0D58A4" stroke-linecap="round" stroke-linejoin="round"/>
<path d="M108.824 94.0649V101.953" stroke="#0D58A4" stroke-linecap="round" stroke-linejoin="round"/>
<path d="M106.767 98.5249V104.696" stroke="#0D58A4" stroke-linecap="round" stroke-linejoin="round"/>
<path d="M72.9704 76.966C74.6074 78.8202 76.5074 80.4244 78.6096 81.7275C81.901 83.6969 93.9693 90.5374 94.9183 90.9214C95.8673 91.3054 124.689 86.5988 124.689 86.5988C124.689 86.5988 126.334 87.3667 127.371 88.0195C128.408 88.6723 134.98 90.7623 134.98 90.7623C134.98 90.7623 135.419 90.5429 134.925 90.1644C134.431 89.7859 131.26 88.2444 131.26 88.2444L137.843 89.6707C137.843 89.6707 138.227 89.3964 138.063 89.1221C137.898 88.8479 132.028 86.6042 132.028 86.6042L138.611 86.9334C138.611 86.9334 139.105 86.33 138.776 86.1105C138.447 85.8911 131.705 84.3551 131.705 84.3551C131.705 84.3551 138.875 83.7517 138.929 83.4774C138.984 83.2032 139.204 82.8795 138.765 82.8247C138.326 82.7698 129.351 81.8921 129.351 81.8921C129.351 81.8921 131.705 80.4165 131.979 79.9776C132.253 79.5388 132.637 78.6611 132.199 78.6611C131.76 78.6611 131.65 78.9354 131.052 79.3194C130.454 79.7033 128.095 80.6359 127.437 81.179C126.779 81.7221 124.809 83.1538 124.809 83.1538L98.4346 83.2087L82.06 70.29" fill="#F1F8FF"/>
<path d="M72.9704 76.966C74.6074 78.8202 76.5074 80.4244 78.6096 81.7275C81.901 83.6969 93.9693 90.5374 94.9183 90.9214C95.8673 91.3054 124.689 86.5988 124.689 86.5988C124.689 86.5988 126.334 87.3667 127.371 88.0195C128.408 88.6723 134.98 90.7623 134.98 90.7623C134.98 90.7623 135.419 90.5429 134.925 90.1644C134.431 89.7859 131.26 88.2444 131.26 88.2444L137.843 89.6707C137.843 89.6707 138.227 89.3964 138.063 89.1221C137.898 88.8479 132.028 86.6042 132.028 86.6042L138.611 86.9334C138.611 86.9334 139.105 86.33 138.776 86.1105C138.447 85.8911 131.705 84.3551 131.705 84.3551C131.705 84.3551 138.875 83.7517 138.929 83.4774C138.984 83.2032 139.204 82.8795 138.765 82.8247C138.326 82.7698 129.351 81.8921 129.351 81.8921C129.351 81.8921 131.705 80.4165 131.979 79.9776C132.253 79.5388 132.637 78.6611 132.199 78.6611C131.76 78.6611 131.65 78.9354 131.052 79.3194C130.454 79.7033 128.095 80.6359 127.437 81.179C126.779 81.7221 124.809 83.1538 124.809 83.1538L98.4346 83.2087L82.06 70.29" stroke="#06223E" stroke-linecap="round" stroke-linejoin="round"/>
<path d="M138.754 82.8247C138.32 82.7699 129.341 81.8922 129.341 81.8922C129.341 81.8922 131.694 80.4165 131.968 79.9777C132.242 79.5388 132.626 78.6611 132.188 78.6611C131.749 78.6611 131.639 78.9354 131.041 79.3194C130.443 79.7034 128.084 80.636 127.426 81.179C126.768 81.7221 124.798 83.1538 124.798 83.1538L98.4236 83.2087L95.4998 80.8883C94.4027 82.8137 92.351 86.4233 91.018 88.804C93.0697 89.945 94.6221 90.7953 94.9348 90.9215C95.8673 91.3055 124.705 86.5988 124.705 86.5988C124.705 86.5988 126.351 87.3668 127.388 88.0196C128.424 88.6724 134.996 90.7624 134.996 90.7624C134.996 90.7624 135.435 90.543 134.941 90.1645C134.448 89.7859 131.277 88.2445 131.277 88.2445L137.86 89.6707C137.86 89.6707 138.244 89.3965 138.079 89.1222C137.915 88.8479 132.045 86.6043 132.045 86.6043L138.628 86.9334C138.628 86.9334 139.121 86.33 138.792 86.1106C138.463 85.8912 131.705 84.3552 131.705 84.3552C131.705 84.3552 138.875 83.7518 138.929 83.4775C138.984 83.2032 139.193 82.8796 138.754 82.8247Z" fill="#E9CBB9" stroke="#06223E" stroke-linecap="round" stroke-linejoin="round"/>
<path d="M94.5892 49.4395C94.6826 49.326 94.8062 49.2411 94.9456 49.1944C95.085 49.1477 95.2348 49.1412 95.3777 49.1755C95.5207 49.2098 95.6512 49.2836 95.7542 49.3885C95.8573 49.4934 95.9288 49.6251 95.9606 49.7687C96.0522 50.3637 96.0216 50.9712 95.8707 51.5541C95.7198 52.1369 95.4518 52.6829 95.0829 53.1588C94.4795 53.7622 93.9309 53.9268 93.9309 53.1588C94.0832 51.9081 94.303 50.6665 94.5892 49.4395Z" fill="#F1F8FF" stroke="#06223E" stroke-linecap="round" stroke-linejoin="round"/>
<path d="M87.8528 39.8506C87.6605 42.5202 86.5181 45.0327 84.6328 46.9325C82.8763 48.6597 80.8901 50.1364 78.7303 51.321C78.7303 51.321 79.0484 53.038 79.6957 53.5756C80.343 54.1132 81.6267 54.0089 81.6267 54.0089C82.373 56.0493 83.5866 57.8867 85.1704 59.3739C87.7431 61.7327 90.7492 61.5187 92.4662 57.9805C94.1832 54.4423 95.0445 50.8931 94.8305 48.8525L94.6166 46.8118C94.6166 46.8118 89.0322 43.7125 87.8528 39.8506Z" fill="#E9CBB9" stroke="#06223E" stroke-linecap="round" stroke-linejoin="round"/>
<path d="M87.5292 50.46C87.8019 50.46 88.0229 50.067 88.0229 49.5823C88.0229 49.0975 87.8019 48.7046 87.5292 48.7046C87.2565 48.7046 87.0355 49.0975 87.0355 49.5823C87.0355 50.067 87.2565 50.46 87.5292 50.46Z" fill="#06223E"/>
<path d="M90.2116 57.4649C90.4843 57.4649 90.7053 57.0719 90.7053 56.5872C90.7053 56.1024 90.4843 55.7095 90.2116 55.7095C89.939 55.7095 89.7179 56.1024 89.7179 56.5872C89.7179 57.0719 89.939 57.4649 90.2116 57.4649Z" fill="#06223E"/>
<path d="M92.2907 50.46C92.5634 50.46 92.7844 50.067 92.7844 49.5823C92.7844 49.0975 92.5634 48.7046 92.2907 48.7046C92.018 48.7046 91.797 49.0975 91.797 49.5823C91.797 50.067 92.018 50.46 92.2907 50.46Z" fill="#06223E"/>
<path d="M91.3033 48.6494C91.1148 49.3066 91.0589 49.9946 91.1387 50.6736C91.3033 51.6062 92.0713 53.1915 91.413 53.4658C91.1126 53.6028 90.7804 53.6548 90.4525 53.6161C90.1246 53.5774 89.8136 53.4495 89.5534 53.2464" stroke="#06223E" stroke-linecap="round" stroke-linejoin="round"/>
<path d="M86.1029 47.9965C86.1029 47.9965 86.3662 46.3179 88.566 46.5099" stroke="#06223E" stroke-linecap="round" stroke-linejoin="round"/>
<path d="M91.9945 47.0259C91.9945 47.0259 94.0461 45.3802 94.7098 48.3918" stroke="#06223E" stroke-linecap="round" stroke-linejoin="round"/>
</svg>
