<svg width="46" height="46" viewBox="0 0 46 46" fill="none" xmlns="http://www.w3.org/2000/svg">
<rect x="3" y="3" width="40" height="40" rx="20" fill="#E0EFFF"/>
<rect x="3" y="3" width="40" height="40" rx="20" stroke="#F1F8FF" stroke-width="6"/>
<mask id="path-2-inside-1_1177_13142" fill="white">
<path d="M22.1667 23.8334H18.0001C17.764 23.8334 17.5661 23.7536 17.4063 23.5938C17.2466 23.4341 17.1667 23.2362 17.1667 23.0001C17.1667 22.764 17.2466 22.5661 17.4063 22.4063C17.5661 22.2466 17.764 22.1667 18.0001 22.1667H22.1667V18.0001C22.1667 17.764 22.2466 17.5661 22.4063 17.4063C22.5661 17.2466 22.764 17.1667 23.0001 17.1667C23.2362 17.1667 23.4341 17.2466 23.5938 17.4063C23.7536 17.5661 23.8334 17.764 23.8334 18.0001V22.1667H28.0001C28.2362 22.1667 28.4341 22.2466 28.5938 22.4063C28.7536 22.5661 28.8334 22.764 28.8334 23.0001C28.8334 23.2362 28.7536 23.4341 28.5938 23.5938C28.4341 23.7536 28.2362 23.8334 28.0001 23.8334H23.8334V28.0001C23.8334 28.2362 23.7536 28.4341 23.5938 28.5938C23.4341 28.7536 23.2362 28.8334 23.0001 28.8334C22.764 28.8334 22.5661 28.7536 22.4063 28.5938C22.2466 28.4341 22.1667 28.2362 22.1667 28.0001V23.8334Z"/>
</mask>
<path d="M22.1667 23.8334H18.0001C17.764 23.8334 17.5661 23.7536 17.4063 23.5938C17.2466 23.4341 17.1667 23.2362 17.1667 23.0001C17.1667 22.764 17.2466 22.5661 17.4063 22.4063C17.5661 22.2466 17.764 22.1667 18.0001 22.1667H22.1667V18.0001C22.1667 17.764 22.2466 17.5661 22.4063 17.4063C22.5661 17.2466 22.764 17.1667 23.0001 17.1667C23.2362 17.1667 23.4341 17.2466 23.5938 17.4063C23.7536 17.5661 23.8334 17.764 23.8334 18.0001V22.1667H28.0001C28.2362 22.1667 28.4341 22.2466 28.5938 22.4063C28.7536 22.5661 28.8334 22.764 28.8334 23.0001C28.8334 23.2362 28.7536 23.4341 28.5938 23.5938C28.4341 23.7536 28.2362 23.8334 28.0001 23.8334H23.8334V28.0001C23.8334 28.2362 23.7536 28.4341 23.5938 28.5938C23.4341 28.7536 23.2362 28.8334 23.0001 28.8334C22.764 28.8334 22.5661 28.7536 22.4063 28.5938C22.2466 28.4341 22.1667 28.2362 22.1667 28.0001V23.8334Z" fill="#106DCC"/>
<path d="M22.1667 23.8334H23.8334V22.1667H22.1667V23.8334ZM22.1667 22.1667V23.8334H23.8334V22.1667H22.1667ZM23.8334 22.1667H22.1667V23.8334H23.8334V22.1667ZM23.8334 23.8334V22.1667H22.1667V23.8334H23.8334ZM22.1667 22.1667H18.0001V25.5001H22.1667V22.1667ZM18.0001 22.1667C18.073 22.1667 18.1789 22.1798 18.2982 22.2279C18.419 22.2767 18.5157 22.3462 18.5848 22.4153L16.2278 24.7723C16.7155 25.2601 17.3442 25.5001 18.0001 25.5001V22.1667ZM18.5848 22.4153C18.654 22.4845 18.7235 22.5812 18.7722 22.7019C18.8204 22.8212 18.8334 22.9272 18.8334 23.0001H15.5001C15.5001 23.6559 15.7401 24.2846 16.2278 24.7723L18.5848 22.4153ZM18.8334 23.0001C18.8334 23.073 18.8204 23.1789 18.7722 23.2982C18.7235 23.419 18.654 23.5157 18.5848 23.5848L16.2278 21.2278C15.7401 21.7155 15.5001 22.3442 15.5001 23.0001H18.8334ZM18.5848 23.5848C18.5157 23.654 18.419 23.7235 18.2982 23.7722C18.1789 23.8204 18.073 23.8334 18.0001 23.8334V20.5001C17.3442 20.5001 16.7155 20.7401 16.2278 21.2278L18.5848 23.5848ZM18.0001 23.8334H22.1667V20.5001H18.0001V23.8334ZM23.8334 22.1667V18.0001H20.5001V22.1667H23.8334ZM23.8334 18.0001C23.8334 18.073 23.8204 18.1789 23.7722 18.2982C23.7235 18.419 23.654 18.5157 23.5848 18.5848L21.2278 16.2278C20.7401 16.7155 20.5001 17.3442 20.5001 18.0001H23.8334ZM23.5848 18.5848C23.5157 18.654 23.419 18.7235 23.2982 18.7722C23.1789 18.8204 23.073 18.8334 23.0001 18.8334V15.5001C22.3442 15.5001 21.7155 15.7401 21.2278 16.2278L23.5848 18.5848ZM23.0001 18.8334C22.9272 18.8334 22.8212 18.8204 22.7019 18.7722C22.5812 18.7235 22.4845 18.654 22.4153 18.5848L24.7723 16.2278C24.2846 15.7401 23.6559 15.5001 23.0001 15.5001V18.8334ZM22.4153 18.5848C22.3462 18.5157 22.2767 18.419 22.2279 18.2982C22.1798 18.1789 22.1667 18.073 22.1667 18.0001H25.5001C25.5001 17.3442 25.2601 16.7155 24.7723 16.2278L22.4153 18.5848ZM22.1667 18.0001V22.1667H25.5001V18.0001H22.1667ZM23.8334 23.8334H28.0001V20.5001H23.8334V23.8334ZM28.0001 23.8334C27.9272 23.8334 27.8212 23.8204 27.7019 23.7722C27.5812 23.7235 27.4845 23.654 27.4153 23.5848L29.7723 21.2278C29.2846 20.7401 28.6559 20.5001 28.0001 20.5001V23.8334ZM27.4153 23.5848C27.3462 23.5157 27.2767 23.419 27.2279 23.2982C27.1798 23.1789 27.1667 23.073 27.1667 23.0001H30.5001C30.5001 22.3442 30.2601 21.7155 29.7723 21.2278L27.4153 23.5848ZM27.1667 23.0001C27.1667 22.9272 27.1798 22.8212 27.2279 22.7019C27.2767 22.5812 27.3462 22.4845 27.4153 22.4153L29.7723 24.7723C30.2601 24.2846 30.5001 23.6559 30.5001 23.0001H27.1667ZM27.4153 22.4153C27.4845 22.3462 27.5812 22.2767 27.7019 22.2279C27.8212 22.1798 27.9272 22.1667 28.0001 22.1667V25.5001C28.6559 25.5001 29.2846 25.2601 29.7723 24.7723L27.4153 22.4153ZM28.0001 22.1667H23.8334V25.5001H28.0001V22.1667ZM22.1667 23.8334V28.0001H25.5001V23.8334H22.1667ZM22.1667 28.0001C22.1667 27.9272 22.1798 27.8212 22.2279 27.7019C22.2767 27.5812 22.3462 27.4845 22.4153 27.4153L24.7723 29.7723C25.2601 29.2846 25.5001 28.6559 25.5001 28.0001H22.1667ZM22.4153 27.4153C22.4845 27.3462 22.5812 27.2767 22.7019 27.2279C22.8212 27.1798 22.9272 27.1667 23.0001 27.1667V30.5001C23.6559 30.5001 24.2846 30.2601 24.7723 29.7723L22.4153 27.4153ZM23.0001 27.1667C23.073 27.1667 23.1789 27.1798 23.2982 27.2279C23.419 27.2767 23.5157 27.3462 23.5848 27.4153L21.2278 29.7723C21.7155 30.2601 22.3442 30.5001 23.0001 30.5001V27.1667ZM23.5848 27.4153C23.654 27.4845 23.7235 27.5812 23.7722 27.7019C23.8204 27.8212 23.8334 27.9272 23.8334 28.0001H20.5001C20.5001 28.6559 20.7401 29.2846 21.2278 29.7723L23.5848 27.4153ZM23.8334 28.0001V23.8334H20.5001V28.0001H23.8334Z" fill="#106DCC" mask="url(#path-2-inside-1_1177_13142)"/>
</svg>
