<svg width="16" height="14" viewBox="0 0 16 14" fill="none" xmlns="http://www.w3.org/2000/svg">
<path d="M0.5 3V1.5C0.5 1.0875 0.646875 0.734375 0.940625 0.440625C1.23438 0.146875 1.5875 0 2 0H14C14.4125 0 14.7656 0.146875 15.0594 0.440625C15.3531 0.734375 15.5 1.0875 15.5 1.5V4.875C15.5 5.0875 15.4281 5.26562 15.2844 5.40938C15.1406 5.55312 14.9625 5.625 14.75 5.625C14.5375 5.625 14.3594 5.55312 14.2156 5.40938C14.0719 5.26562 14 5.0875 14 4.875V1.5H2V3C2 3.2125 1.92813 3.39062 1.78437 3.53438C1.64062 3.67813 1.4625 3.75 1.25 3.75C1.0375 3.75 0.859375 3.67813 0.715625 3.53438C0.571875 3.39062 0.5 3.2125 0.5 3ZM4.25 9.75C4.1125 9.75 3.98125 9.71562 3.85625 9.64688C3.73125 9.57812 3.6375 9.475 3.575 9.3375L2.3 6.75H1.26875C1.05625 6.75 0.878125 6.67813 0.734375 6.53438C0.590625 6.39063 0.51875 6.2125 0.51875 6C0.51875 5.7875 0.590625 5.60938 0.734375 5.46562C0.878125 5.32188 1.05625 5.25 1.26875 5.25H2.76875C2.90625 5.25 3.03438 5.2875 3.15313 5.3625C3.27188 5.4375 3.3625 5.5375 3.425 5.6625L4.25 7.3125L6.575 2.6625C6.6375 2.5375 6.73125 2.44375 6.85625 2.38125C6.98125 2.31875 7.1125 2.2875 7.25 2.2875C7.3875 2.2875 7.51875 2.31875 7.64375 2.38125C7.76875 2.44375 7.8625 2.5375 7.925 2.6625L9.18125 5.175C8.95625 5.3125 8.74063 5.45625 8.53438 5.60625C8.32813 5.75625 8.1375 5.925 7.9625 6.1125L7.25 4.6875L4.925 9.3375C4.8625 9.475 4.76875 9.57812 4.64375 9.64688C4.51875 9.71562 4.3875 9.75 4.25 9.75ZM2 12C1.5875 12 1.23438 11.8531 0.940625 11.5594C0.646875 11.2656 0.5 10.9125 0.5 10.5V9C0.5 8.7875 0.571875 8.60938 0.715625 8.46563C0.859375 8.32188 1.0375 8.25 1.25 8.25C1.4625 8.25 1.64062 8.32188 1.78437 8.46563C1.92813 8.60938 2 8.7875 2 9V10.5H6.03125C6.24375 10.5 6.42188 10.5719 6.56563 10.7156C6.70938 10.8594 6.78125 11.0375 6.78125 11.25C6.78125 11.4625 6.70938 11.6406 6.56563 11.7844C6.42188 11.9281 6.24375 12 6.03125 12H2ZM11.75 13.5C10.7125 13.5 9.82812 13.1344 9.09688 12.4031C8.36563 11.6719 8 10.7875 8 9.75C8 8.7125 8.36563 7.82813 9.09688 7.09688C9.82812 6.36563 10.7125 6 11.75 6C12.7875 6 13.6719 6.36563 14.4031 7.09688C15.1344 7.82813 15.5 8.7125 15.5 9.75C15.5 10.7875 15.1344 11.6719 14.4031 12.4031C13.6719 13.1344 12.7875 13.5 11.75 13.5ZM13.3438 8.68125C13.4187 8.60625 13.4562 8.51875 13.4562 8.41875C13.4562 8.31875 13.4187 8.23125 13.3438 8.15625C13.2688 8.08125 13.1812 8.04375 13.0812 8.04375C12.9812 8.04375 12.8938 8.08125 12.8188 8.15625L11.6375 9.31875C11.5625 9.39375 11.525 9.48438 11.525 9.59063C11.525 9.69688 11.5625 9.7875 11.6375 9.8625C11.7125 9.9375 11.8031 9.975 11.9094 9.975C12.0156 9.975 12.1062 9.9375 12.1812 9.8625L13.3438 8.68125Z" fill="#364144"/>
</svg>
