<svg width="42" height="42" viewBox="0 0 42 42" fill="none" xmlns="http://www.w3.org/2000/svg">
<g filter="url(#filter0_d_2874_19490)">
<rect x="2" y="1" width="38" height="38" rx="19" fill="#EEFBFF"/>
<rect x="2.5" y="1.5" width="37" height="37" rx="18.5" stroke="#078EB9"/>
<mask id="mask0_2874_19490" style="mask-type:alpha" maskUnits="userSpaceOnUse" x="12" y="11" width="18" height="18">
<rect x="12" y="11" width="18" height="18" fill="#D9D9D9"/>
</mask>
<g mask="url(#mask0_2874_19490)">
<path d="M14.25 26.75C13.8375 26.75 13.4844 26.6031 13.1906 26.3094C12.8969 26.0156 12.75 25.6625 12.75 25.25V16.25C12.75 15.8375 12.8969 15.4844 13.1906 15.1906C13.4844 14.8969 13.8375 14.75 14.25 14.75H16.6125L17.55 13.7375C17.6875 13.5875 17.8531 13.4688 18.0469 13.3812C18.2406 13.2937 18.4437 13.25 18.6562 13.25H21.75C21.9625 13.25 22.1406 13.3219 22.2844 13.4656C22.4281 13.6094 22.5 13.7875 22.5 14C22.5 14.2125 22.4281 14.3906 22.2844 14.5344C22.1406 14.6781 21.9625 14.75 21.75 14.75H18.6562L17.2875 16.25H14.25V25.25H26.25V19.25C26.25 19.0375 26.3219 18.8594 26.4656 18.7156C26.6094 18.5719 26.7875 18.5 27 18.5C27.2125 18.5 27.3906 18.5719 27.5344 18.7156C27.6781 18.8594 27.75 19.0375 27.75 19.25V25.25C27.75 25.6625 27.6031 26.0156 27.3094 26.3094C27.0156 26.6031 26.6625 26.75 26.25 26.75H14.25ZM26.25 14.75H25.5C25.2875 14.75 25.1094 14.6781 24.9656 14.5344C24.8219 14.3906 24.75 14.2125 24.75 14C24.75 13.7875 24.8219 13.6094 24.9656 13.4656C25.1094 13.3219 25.2875 13.25 25.5 13.25H26.25V12.5C26.25 12.2875 26.3219 12.1094 26.4656 11.9656C26.6094 11.8219 26.7875 11.75 27 11.75C27.2125 11.75 27.3906 11.8219 27.5344 11.9656C27.6781 12.1094 27.75 12.2875 27.75 12.5V13.25H28.5C28.7125 13.25 28.8906 13.3219 29.0344 13.4656C29.1781 13.6094 29.25 13.7875 29.25 14C29.25 14.2125 29.1781 14.3906 29.0344 14.5344C28.8906 14.6781 28.7125 14.75 28.5 14.75H27.75V15.5C27.75 15.7125 27.6781 15.8906 27.5344 16.0344C27.3906 16.1781 27.2125 16.25 27 16.25C26.7875 16.25 26.6094 16.1781 26.4656 16.0344C26.3219 15.8906 26.25 15.7125 26.25 15.5V14.75ZM20.25 24.125C21.1875 24.125 21.9844 23.7969 22.6406 23.1406C23.2969 22.4844 23.625 21.6875 23.625 20.75C23.625 19.8125 23.2969 19.0156 22.6406 18.3594C21.9844 17.7031 21.1875 17.375 20.25 17.375C19.3125 17.375 18.5156 17.7031 17.8594 18.3594C17.2031 19.0156 16.875 19.8125 16.875 20.75C16.875 21.6875 17.2031 22.4844 17.8594 23.1406C18.5156 23.7969 19.3125 24.125 20.25 24.125ZM20.25 22.625C19.725 22.625 19.2813 22.4438 18.9188 22.0813C18.5563 21.7188 18.375 21.275 18.375 20.75C18.375 20.225 18.5563 19.7812 18.9188 19.4188C19.2813 19.0563 19.725 18.875 20.25 18.875C20.775 18.875 21.2188 19.0563 21.5813 19.4188C21.9438 19.7812 22.125 20.225 22.125 20.75C22.125 21.275 21.9438 21.7188 21.5813 22.0813C21.2188 22.4438 20.775 22.625 20.25 22.625Z" fill="#006D8F"/>
</g>
</g>
<defs>
<filter id="filter0_d_2874_19490" x="0" y="0" width="42" height="42" filterUnits="userSpaceOnUse" color-interpolation-filters="sRGB">
<feFlood flood-opacity="0" result="BackgroundImageFix"/>
<feColorMatrix in="SourceAlpha" type="matrix" values="0 0 0 0 0 0 0 0 0 0 0 0 0 0 0 0 0 0 127 0" result="hardAlpha"/>
<feOffset dy="1"/>
<feGaussianBlur stdDeviation="1"/>
<feColorMatrix type="matrix" values="0 0 0 0 0.0627451 0 0 0 0 0.0941176 0 0 0 0 0.156863 0 0 0 0.05 0"/>
<feBlend mode="normal" in2="BackgroundImageFix" result="effect1_dropShadow_2874_19490"/>
<feBlend mode="normal" in="SourceGraphic" in2="effect1_dropShadow_2874_19490" result="shape"/>
</filter>
</defs>
</svg>
