<svg width="17" height="17" viewBox="0 0 17 17" fill="none" xmlns="http://www.w3.org/2000/svg">
<path d="M8 6.95V4.25C8 4.0375 7.92813 3.85938 7.78438 3.71562C7.64063 3.57187 7.4625 3.5 7.25 3.5C7.0375 3.5 6.85938 3.57187 6.71563 3.71562C6.57188 3.85938 6.5 4.0375 6.5 4.25V7.25C6.5 7.35 6.51875 7.44375 6.55625 7.53125C6.59375 7.61875 6.65 7.7 6.725 7.775L8.225 9.275C8.375 9.425 8.55 9.5 8.75 9.5C8.95 9.5 9.125 9.425 9.275 9.275C9.425 9.125 9.5 8.95 9.5 8.75C9.5 8.55 9.425 8.375 9.275 8.225L8 6.95ZM5.9 12.3313C6.1 11.7313 6.45312 11.2344 6.95938 10.8406C7.46563 10.4469 8.05 10.25 8.7125 10.25H11.5625C11.8625 9.825 12.0938 9.35938 12.2563 8.85312C12.4187 8.34687 12.5 7.8125 12.5 7.25C12.5 5.7875 11.9906 4.54688 10.9719 3.52812C9.95312 2.50937 8.7125 2 7.25 2C5.7875 2 4.54688 2.50937 3.52812 3.52812C2.50937 4.54688 2 5.7875 2 7.25C2 8.475 2.36563 9.55313 3.09688 10.4844C3.82812 11.4156 4.7625 12.0312 5.9 12.3313ZM8.75 16.25C8.025 16.25 7.3875 16.0219 6.8375 15.5656C6.2875 15.1094 5.94375 14.5375 5.80625 13.85C4.28125 13.525 3.01562 12.75 2.00938 11.525C1.00313 10.3 0.5 8.875 0.5 7.25C0.5 5.375 1.15625 3.78125 2.46875 2.46875C3.78125 1.15625 5.375 0.5 7.25 0.5C9.125 0.5 10.7188 1.15625 12.0312 2.46875C13.3438 3.78125 14 5.375 14 7.25C14 7.7875 13.9406 8.30938 13.8219 8.81563C13.7031 9.32188 13.5313 9.8 13.3063 10.25C14.1313 10.25 14.8281 10.5437 15.3969 11.1313C15.9656 11.7188 16.25 12.425 16.25 13.25C16.25 14.075 15.9563 14.7813 15.3688 15.3688C14.7813 15.9563 14.075 16.25 13.25 16.25H8.75ZM8.75 14.75H13.25C13.6625 14.75 14.0156 14.6031 14.3094 14.3094C14.6031 14.0156 14.75 13.6625 14.75 13.25C14.75 12.8375 14.6031 12.4844 14.3094 12.1906C14.0156 11.8969 13.6625 11.75 13.25 11.75H8.75C8.3375 11.75 7.98438 11.8969 7.69063 12.1906C7.39688 12.4844 7.25 12.8375 7.25 13.25C7.25 13.6625 7.39688 14.0156 7.69063 14.3094C7.98438 14.6031 8.3375 14.75 8.75 14.75ZM8.75 14C8.5375 14 8.35938 13.9281 8.21563 13.7844C8.07188 13.6406 8 13.4625 8 13.25C8 13.0375 8.07188 12.8594 8.21563 12.7156C8.35938 12.5719 8.5375 12.5 8.75 12.5C8.9625 12.5 9.14062 12.5719 9.28438 12.7156C9.42813 12.8594 9.5 13.0375 9.5 13.25C9.5 13.4625 9.42813 13.6406 9.28438 13.7844C9.14062 13.9281 8.9625 14 8.75 14ZM11 14C10.7875 14 10.6094 13.9281 10.4656 13.7844C10.3219 13.6406 10.25 13.4625 10.25 13.25C10.25 13.0375 10.3219 12.8594 10.4656 12.7156C10.6094 12.5719 10.7875 12.5 11 12.5C11.2125 12.5 11.3906 12.5719 11.5344 12.7156C11.6781 12.8594 11.75 13.0375 11.75 13.25C11.75 13.4625 11.6781 13.6406 11.5344 13.7844C11.3906 13.9281 11.2125 14 11 14ZM13.25 14C13.0375 14 12.8594 13.9281 12.7156 13.7844C12.5719 13.6406 12.5 13.4625 12.5 13.25C12.5 13.0375 12.5719 12.8594 12.7156 12.7156C12.8594 12.5719 13.0375 12.5 13.25 12.5C13.4625 12.5 13.6406 12.5719 13.7844 12.7156C13.9281 12.8594 14 13.0375 14 13.25C14 13.4625 13.9281 13.6406 13.7844 13.7844C13.6406 13.9281 13.4625 14 13.25 14Z" fill="#364144"/>
</svg>
