<svg width="22" height="28" viewBox="0 0 22 28" fill="none" xmlns="http://www.w3.org/2000/svg">
<path d="M7.00065 22H15.0007C15.3784 22 15.6951 21.8722 15.9507 21.6167C16.2062 21.3611 16.334 21.0444 16.334 20.6667C16.334 20.2889 16.2062 19.9722 15.9507 19.7167C15.6951 19.4611 15.3784 19.3333 15.0007 19.3333H7.00065C6.62287 19.3333 6.30621 19.4611 6.05065 19.7167C5.7951 19.9722 5.66732 20.2889 5.66732 20.6667C5.66732 21.0444 5.7951 21.3611 6.05065 21.6167C6.30621 21.8722 6.62287 22 7.00065 22ZM7.00065 16.6667H15.0007C15.3784 16.6667 15.6951 16.5389 15.9507 16.2833C16.2062 16.0278 16.334 15.7111 16.334 15.3333C16.334 14.9556 16.2062 14.6389 15.9507 14.3833C15.6951 14.1278 15.3784 14 15.0007 14H7.00065C6.62287 14 6.30621 14.1278 6.05065 14.3833C5.7951 14.6389 5.66732 14.9556 5.66732 15.3333C5.66732 15.7111 5.7951 16.0278 6.05065 16.2833C6.30621 16.5389 6.62287 16.6667 7.00065 16.6667ZM3.00065 27.3333C2.26732 27.3333 1.63954 27.0722 1.11732 26.55C0.595096 26.0278 0.333984 25.4 0.333984 24.6667V3.33334C0.333984 2.6 0.595096 1.97223 1.11732 1.45001C1.63954 0.927783 2.26732 0.666672 3.00065 0.666672H12.5673C12.9229 0.666672 13.2618 0.733338 13.584 0.866672C13.9062 1.00001 14.1895 1.18889 14.434 1.43334L20.9007 7.9C21.1451 8.14445 21.334 8.42778 21.4673 8.75C21.6007 9.07223 21.6673 9.41112 21.6673 9.76667V24.6667C21.6673 25.4 21.4062 26.0278 20.884 26.55C20.3618 27.0722 19.734 27.3333 19.0007 27.3333H3.00065ZM12.334 8.66667V3.33334H3.00065V24.6667H19.0007V10H13.6673C13.2895 10 12.9729 9.87223 12.7173 9.61667C12.4618 9.36112 12.334 9.04445 12.334 8.66667Z" fill="#049B22"/>
</svg>
