<svg width="16" height="18" viewBox="0 0 16 18" fill="none" xmlns="http://www.w3.org/2000/svg">
<path d="M8 17.3333C6.95833 17.3333 5.98264 17.1354 5.07292 16.7396C4.16319 16.3438 3.37153 15.809 2.69792 15.1354C2.02431 14.4618 1.48958 13.6701 1.09375 12.7604C0.697917 11.8507 0.5 10.875 0.5 9.83334C0.5 9.59723 0.579861 9.39932 0.739583 9.23959C0.899306 9.07987 1.09722 9.00001 1.33333 9.00001C1.56944 9.00001 1.76736 9.07987 1.92708 9.23959C2.08681 9.39932 2.16667 9.59723 2.16667 9.83334C2.16667 11.4583 2.73264 12.8368 3.86458 13.9688C4.99653 15.1007 6.375 15.6667 8 15.6667C9.625 15.6667 11.0035 15.1007 12.1354 13.9688C13.2674 12.8368 13.8333 11.4583 13.8333 9.83334C13.8333 8.20834 13.2674 6.82987 12.1354 5.69793C11.0035 4.56598 9.625 4.00001 8 4.00001H7.875L8.58333 4.70834C8.75 4.87501 8.82986 5.06945 8.82292 5.29168C8.81597 5.5139 8.73611 5.70834 8.58333 5.87501C8.41667 6.04168 8.21875 6.12848 7.98958 6.13543C7.76042 6.14237 7.5625 6.06251 7.39583 5.89584L5.25 3.75001C5.08333 3.58334 5 3.3889 5 3.16668C5 2.94445 5.08333 2.75001 5.25 2.58334L7.39583 0.43751C7.5625 0.270843 7.76042 0.190982 7.98958 0.197926C8.21875 0.204871 8.41667 0.291676 8.58333 0.458343C8.73611 0.62501 8.81597 0.819454 8.82292 1.04168C8.82986 1.2639 8.75 1.45834 8.58333 1.62501L7.875 2.33334H8C9.04167 2.33334 10.0174 2.53126 10.9271 2.92709C11.8368 3.32293 12.6285 3.85765 13.3021 4.53126C13.9757 5.20487 14.5104 5.99654 14.9062 6.90626C15.3021 7.81598 15.5 8.79168 15.5 9.83334C15.5 10.875 15.3021 11.8507 14.9062 12.7604C14.5104 13.6701 13.9757 14.4618 13.3021 15.1354C12.6285 15.809 11.8368 16.3438 10.9271 16.7396C10.0174 17.1354 9.04167 17.3333 8 17.3333Z" fill="#004AB1"/>
</svg>
