<svg width="18" height="18" viewBox="0 0 18 18" fill="none" xmlns="http://www.w3.org/2000/svg">
<path d="M6.49935 12.3334H11.4993C11.7355 12.3334 11.9334 12.2536 12.0931 12.0938C12.2528 11.9341 12.3327 11.7362 12.3327 11.5001V6.50008C12.3327 6.26397 12.2528 6.06605 12.0931 5.90633C11.9334 5.74661 11.7355 5.66675 11.4993 5.66675H6.49935C6.26324 5.66675 6.06532 5.74661 5.9056 5.90633C5.74588 6.06605 5.66602 6.26397 5.66602 6.50008V11.5001C5.66602 11.7362 5.74588 11.9341 5.9056 12.0938C6.06532 12.2536 6.26324 12.3334 6.49935 12.3334ZM8.99935 17.3334C7.84657 17.3334 6.76324 17.1147 5.74935 16.6772C4.73546 16.2397 3.85352 15.6459 3.10352 14.8959C2.35352 14.1459 1.75977 13.264 1.32227 12.2501C0.884766 11.2362 0.666016 10.1529 0.666016 9.00008C0.666016 7.8473 0.884766 6.76397 1.32227 5.75008C1.75977 4.73619 2.35352 3.85425 3.10352 3.10425C3.85352 2.35425 4.73546 1.7605 5.74935 1.323C6.76324 0.885498 7.84657 0.666748 8.99935 0.666748C10.1521 0.666748 11.2355 0.885498 12.2493 1.323C13.2632 1.7605 14.1452 2.35425 14.8952 3.10425C15.6452 3.85425 16.2389 4.73619 16.6764 5.75008C17.1139 6.76397 17.3327 7.8473 17.3327 9.00008C17.3327 10.1529 17.1139 11.2362 16.6764 12.2501C16.2389 13.264 15.6452 14.1459 14.8952 14.8959C14.1452 15.6459 13.2632 16.2397 12.2493 16.6772C11.2355 17.1147 10.1521 17.3334 8.99935 17.3334ZM8.99935 15.6667C10.8605 15.6667 12.4368 15.0209 13.7285 13.7292C15.0202 12.4376 15.666 10.8612 15.666 9.00008C15.666 7.13897 15.0202 5.56258 13.7285 4.27091C12.4368 2.97925 10.8605 2.33341 8.99935 2.33341C7.13824 2.33341 5.56185 2.97925 4.27018 4.27091C2.97852 5.56258 2.33268 7.13897 2.33268 9.00008C2.33268 10.8612 2.97852 12.4376 4.27018 13.7292C5.56185 15.0209 7.13824 15.6667 8.99935 15.6667Z" fill="#B1000F"/>
</svg>
