<svg width="46" height="47" viewBox="0 0 46 47" fill="none" xmlns="http://www.w3.org/2000/svg">
<rect x="3" y="3.5" width="40" height="40" rx="20" fill="#E7E7E7"/>
<rect x="3" y="3.5" width="40" height="40" rx="20" stroke="#F5F5F5" stroke-width="6"/>
<mask id="path-2-inside-1_1322_22786" fill="white">
<path d="M17.9999 30.1667C17.5416 30.1667 17.1492 30.0035 16.8228 29.6771C16.4964 29.3507 16.3333 28.9583 16.3333 28.5V26.8333C16.3333 26.5972 16.4131 26.3993 16.5728 26.2396C16.7326 26.0799 16.9305 26 17.1666 26C17.4027 26 17.6006 26.0799 17.7603 26.2396C17.9201 26.3993 17.9999 26.5972 17.9999 26.8333V28.5H27.9999V26.8333C27.9999 26.5972 28.0798 26.3993 28.2395 26.2396C28.3992 26.0799 28.5971 26 28.8333 26C29.0694 26 29.2673 26.0799 29.427 26.2396C29.5867 26.3993 29.6666 26.5972 29.6666 26.8333V28.5C29.6666 28.9583 29.5034 29.3507 29.177 29.6771C28.8506 30.0035 28.4583 30.1667 27.9999 30.1667H17.9999ZM22.1666 20.0417L20.6041 21.6042C20.4374 21.7708 20.2395 21.8507 20.0103 21.8438C19.7812 21.8368 19.5833 21.75 19.4166 21.5833C19.2638 21.4167 19.1839 21.2222 19.177 21C19.1701 20.7778 19.2499 20.5833 19.4166 20.4167L22.4166 17.4167C22.4999 17.3333 22.5902 17.2743 22.6874 17.2396C22.7846 17.2049 22.8888 17.1875 22.9999 17.1875C23.111 17.1875 23.2152 17.2049 23.3124 17.2396C23.4096 17.2743 23.4999 17.3333 23.5833 17.4167L26.5833 20.4167C26.7499 20.5833 26.8298 20.7778 26.8228 21C26.8159 21.2222 26.736 21.4167 26.5833 21.5833C26.4166 21.75 26.2187 21.8368 25.9895 21.8438C25.7603 21.8507 25.5624 21.7708 25.3958 21.6042L23.8333 20.0417V26C23.8333 26.2361 23.7534 26.434 23.5937 26.5938C23.4339 26.7535 23.236 26.8333 22.9999 26.8333C22.7638 26.8333 22.5659 26.7535 22.4062 26.5938C22.2464 26.434 22.1666 26.2361 22.1666 26V20.0417Z"/>
</mask>
<path d="M17.9999 30.1667C17.5416 30.1667 17.1492 30.0035 16.8228 29.6771C16.4964 29.3507 16.3333 28.9583 16.3333 28.5V26.8333C16.3333 26.5972 16.4131 26.3993 16.5728 26.2396C16.7326 26.0799 16.9305 26 17.1666 26C17.4027 26 17.6006 26.0799 17.7603 26.2396C17.9201 26.3993 17.9999 26.5972 17.9999 26.8333V28.5H27.9999V26.8333C27.9999 26.5972 28.0798 26.3993 28.2395 26.2396C28.3992 26.0799 28.5971 26 28.8333 26C29.0694 26 29.2673 26.0799 29.427 26.2396C29.5867 26.3993 29.6666 26.5972 29.6666 26.8333V28.5C29.6666 28.9583 29.5034 29.3507 29.177 29.6771C28.8506 30.0035 28.4583 30.1667 27.9999 30.1667H17.9999ZM22.1666 20.0417L20.6041 21.6042C20.4374 21.7708 20.2395 21.8507 20.0103 21.8438C19.7812 21.8368 19.5833 21.75 19.4166 21.5833C19.2638 21.4167 19.1839 21.2222 19.177 21C19.1701 20.7778 19.2499 20.5833 19.4166 20.4167L22.4166 17.4167C22.4999 17.3333 22.5902 17.2743 22.6874 17.2396C22.7846 17.2049 22.8888 17.1875 22.9999 17.1875C23.111 17.1875 23.2152 17.2049 23.3124 17.2396C23.4096 17.2743 23.4999 17.3333 23.5833 17.4167L26.5833 20.4167C26.7499 20.5833 26.8298 20.7778 26.8228 21C26.8159 21.2222 26.736 21.4167 26.5833 21.5833C26.4166 21.75 26.2187 21.8368 25.9895 21.8438C25.7603 21.8507 25.5624 21.7708 25.3958 21.6042L23.8333 20.0417V26C23.8333 26.2361 23.7534 26.434 23.5937 26.5938C23.4339 26.7535 23.236 26.8333 22.9999 26.8333C22.7638 26.8333 22.5659 26.7535 22.4062 26.5938C22.2464 26.434 22.1666 26.2361 22.1666 26V20.0417Z" fill="#373D41"/>
<path d="M17.9999 28.5H16.3333V30.1667H17.9999V28.5ZM27.9999 28.5V30.1667H29.6666V28.5H27.9999ZM22.1666 20.0417H23.8333V16.018L20.9881 18.8632L22.1666 20.0417ZM20.6041 21.6042L21.7826 22.7827L20.6041 21.6042ZM19.4166 21.5833L18.188 22.7095L18.2125 22.7362L18.2381 22.7618L19.4166 21.5833ZM19.4166 20.4167L18.2381 19.2382L19.4166 20.4167ZM22.4166 17.4167L23.5951 18.5952V18.5952L22.4166 17.4167ZM23.5833 17.4167L22.4047 18.5952V18.5952L23.5833 17.4167ZM26.5833 20.4167L27.7618 19.2382H27.7618L26.5833 20.4167ZM26.5833 21.5833L27.7618 22.7618L27.7874 22.7362L27.8118 22.7095L26.5833 21.5833ZM25.3958 21.6042L24.2172 22.7827L25.3958 21.6042ZM23.8333 20.0417L25.0118 18.8632L22.1666 16.018V20.0417H23.8333ZM17.9999 28.5C17.9846 28.5 17.9796 28.4987 17.9825 28.4992C17.9839 28.4995 17.9865 28.5001 17.9901 28.5012C17.9937 28.5023 17.9978 28.5037 18.002 28.5054C18.0061 28.5071 18.0098 28.5089 18.0129 28.5106C18.0159 28.5122 18.0177 28.5134 18.0183 28.5138C18.0196 28.5147 18.0138 28.511 18.0013 28.4986L15.6443 30.8556C16.2808 31.4921 17.096 31.8333 17.9999 31.8333V28.5ZM18.0013 28.4986C17.9889 28.4862 17.9852 28.4803 17.9861 28.4816C17.9865 28.4822 17.9877 28.484 17.9893 28.4871C17.991 28.4901 17.9928 28.4938 17.9945 28.498C17.9962 28.5021 17.9977 28.5062 17.9988 28.5098C17.9998 28.5134 18.0004 28.5161 18.0007 28.5174C18.0012 28.5203 17.9999 28.5153 17.9999 28.5H14.6666C14.6666 29.4039 15.0079 30.2191 15.6443 30.8556L18.0013 28.4986ZM17.9999 28.5V26.8333H14.6666V28.5H17.9999ZM17.9999 26.8333C17.9999 26.9063 17.9869 27.0122 17.9387 27.1315C17.89 27.2522 17.8205 27.3489 17.7513 27.4181L15.3943 25.0611C14.9066 25.5488 14.6666 26.1775 14.6666 26.8333H17.9999ZM17.7513 27.4181C17.6822 27.4872 17.5855 27.5568 17.4647 27.6055C17.3454 27.6536 17.2395 27.6667 17.1666 27.6667V24.3333C16.5107 24.3333 15.882 24.5734 15.3943 25.0611L17.7513 27.4181ZM17.1666 27.6667C17.0937 27.6667 16.9877 27.6536 16.8684 27.6055C16.7477 27.5568 16.651 27.4872 16.5818 27.4181L18.9388 25.0611C18.4511 24.5734 17.8224 24.3333 17.1666 24.3333V27.6667ZM16.5818 27.4181C16.5127 27.3489 16.4432 27.2522 16.3944 27.1315C16.3463 27.0122 16.3333 26.9063 16.3333 26.8333H19.6666C19.6666 26.1775 19.4266 25.5488 18.9388 25.0611L16.5818 27.4181ZM16.3333 26.8333V28.5H19.6666V26.8333H16.3333ZM17.9999 30.1667H27.9999V26.8333H17.9999V30.1667ZM29.6666 28.5V26.8333H26.3333V28.5H29.6666ZM29.6666 26.8333C29.6666 26.9063 29.6535 27.0122 29.6054 27.1315C29.5567 27.2522 29.4872 27.3489 29.418 27.4181L27.061 25.0611C26.5733 25.5488 26.3333 26.1775 26.3333 26.8333H29.6666ZM29.418 27.4181C29.3489 27.4872 29.2521 27.5568 29.1314 27.6055C29.0121 27.6536 28.9062 27.6667 28.8333 27.6667V24.3333C28.1774 24.3333 27.5487 24.5734 27.061 25.0611L29.418 27.4181ZM28.8333 27.6667C28.7603 27.6667 28.6544 27.6536 28.5351 27.6055C28.4144 27.5568 28.3176 27.4872 28.2485 27.4181L30.6055 25.0611C30.1178 24.5734 29.4891 24.3333 28.8333 24.3333V27.6667ZM28.2485 27.4181C28.1793 27.3489 28.1098 27.2522 28.0611 27.1315C28.013 27.0122 27.9999 26.9063 27.9999 26.8333H31.3333C31.3333 26.1775 31.0932 25.5488 30.6055 25.0611L28.2485 27.4181ZM27.9999 26.8333V28.5H31.3333V26.8333H27.9999ZM27.9999 28.5C27.9999 28.5153 27.9986 28.5203 27.9992 28.5174C27.9994 28.5161 28 28.5134 28.0011 28.5098C28.0022 28.5062 28.0036 28.5021 28.0053 28.498C28.0071 28.4938 28.0089 28.4901 28.0105 28.4871C28.0121 28.484 28.0133 28.4822 28.0137 28.4816C28.0147 28.4803 28.0109 28.4862 27.9985 28.4986L30.3555 30.8556C30.992 30.2191 31.3333 29.4039 31.3333 28.5H27.9999ZM27.9985 28.4986C27.9861 28.511 27.9802 28.5147 27.9816 28.5138C27.9821 28.5134 27.984 28.5122 27.987 28.5106C27.99 28.5089 27.9937 28.5071 27.9979 28.5054C28.0021 28.5037 28.0061 28.5023 28.0097 28.5012C28.0134 28.5001 28.016 28.4995 28.0173 28.4992C28.0203 28.4987 28.0152 28.5 27.9999 28.5V31.8333C28.9038 31.8333 29.7191 31.4921 30.3555 30.8556L27.9985 28.4986ZM27.9999 28.5H17.9999V31.8333H27.9999V28.5ZM20.9881 18.8632L19.4256 20.4257L21.7826 22.7827L23.3451 21.2202L20.9881 18.8632ZM19.4256 20.4257C19.484 20.3672 19.5775 20.2957 19.707 20.2435C19.8375 20.1908 19.9621 20.1749 20.0608 20.1778L19.9599 23.5097C20.6627 23.531 21.3013 23.264 21.7826 22.7827L19.4256 20.4257ZM20.0608 20.1778C20.1464 20.1804 20.2512 20.1997 20.3595 20.2471C20.4669 20.2942 20.5452 20.3549 20.5951 20.4048L18.2381 22.7618C18.6956 23.2194 19.2933 23.4895 19.9599 23.5097L20.0608 20.1778ZM20.6452 20.4571C20.6913 20.5074 20.7437 20.5818 20.7838 20.6793C20.824 20.7773 20.8405 20.8711 20.8429 20.9479L17.5111 21.0521C17.5308 21.6805 17.7706 22.2542 18.188 22.7095L20.6452 20.4571ZM20.8429 20.9479C20.8463 21.0577 20.8277 21.1884 20.7734 21.3207C20.7199 21.4508 20.6488 21.5415 20.5951 21.5952L18.2381 19.2382C17.768 19.7082 17.4889 20.3398 17.5111 21.0521L20.8429 20.9479ZM20.5951 21.5952L23.5951 18.5952L21.2381 16.2382L18.2381 19.2382L20.5951 21.5952ZM23.5951 18.5952C23.5287 18.6616 23.414 18.7499 23.248 18.8092L22.1269 15.67C21.7664 15.7987 21.4712 16.0051 21.2381 16.2382L23.5951 18.5952ZM23.248 18.8092C23.152 18.8434 23.0652 18.8542 22.9999 18.8542V15.5208C22.7124 15.5208 22.4173 15.5663 22.1269 15.67L23.248 18.8092ZM22.9999 18.8542C22.9346 18.8542 22.8478 18.8434 22.7519 18.8092L23.873 15.67C23.5826 15.5663 23.2875 15.5208 22.9999 15.5208V18.8542ZM22.7519 18.8092C22.5859 18.7499 22.4712 18.6616 22.4047 18.5952L24.7618 16.2382C24.5287 16.0051 24.2334 15.7987 23.873 15.67L22.7519 18.8092ZM22.4047 18.5952L25.4047 21.5952L27.7618 19.2382L24.7618 16.2382L22.4047 18.5952ZM25.4047 21.5952C25.351 21.5415 25.2799 21.4508 25.2264 21.3207C25.1721 21.1884 25.1536 21.0577 25.157 20.9479L28.4887 21.0521C28.5109 20.3398 28.2318 19.7082 27.7618 19.2382L25.4047 21.5952ZM25.157 20.9479C25.1594 20.8711 25.1758 20.7773 25.216 20.6793C25.2561 20.5818 25.3085 20.5074 25.3547 20.4571L27.8118 22.7095C28.2293 22.2542 28.4691 21.6805 28.4887 21.0521L25.157 20.9479ZM25.4047 20.4048C25.4547 20.3549 25.533 20.2942 25.6404 20.2471C25.7486 20.1997 25.8534 20.1804 25.939 20.1778L26.04 23.5097C26.7065 23.4895 27.3042 23.2194 27.7618 22.7618L25.4047 20.4048ZM25.939 20.1778C26.0377 20.1749 26.1623 20.1908 26.2928 20.2435C26.4223 20.2957 26.5158 20.3672 26.5743 20.4257L24.2172 22.7827C24.6986 23.264 25.3371 23.531 26.04 23.5097L25.939 20.1778ZM26.5743 20.4257L25.0118 18.8632L22.6547 21.2202L24.2172 22.7827L26.5743 20.4257ZM22.1666 20.0417V26H25.4999V20.0417H22.1666ZM22.1666 26C22.1666 25.9271 22.1796 25.8212 22.2278 25.7019C22.2765 25.5811 22.346 25.4844 22.4152 25.4152L24.7722 27.7723C25.2599 27.2845 25.4999 26.6558 25.4999 26H22.1666ZM22.4152 25.4152C22.4843 25.3461 22.581 25.2766 22.7018 25.2279C22.8211 25.1797 22.927 25.1667 22.9999 25.1667V28.5C23.6557 28.5 24.2845 28.26 24.7722 27.7723L22.4152 25.4152ZM22.9999 25.1667C23.0728 25.1667 23.1788 25.1797 23.2981 25.2279C23.4188 25.2766 23.5155 25.3461 23.5847 25.4152L21.2277 27.7723C21.7154 28.26 22.3441 28.5 22.9999 28.5V25.1667ZM23.5847 25.4152C23.6538 25.4844 23.7233 25.5811 23.7721 25.7019C23.8202 25.8212 23.8333 25.9271 23.8333 26H20.4999C20.4999 26.6558 20.7399 27.2846 21.2277 27.7723L23.5847 25.4152ZM23.8333 26V20.0417H20.4999V26H23.8333Z" fill="#373D41" mask="url(#path-2-inside-1_1322_22786)"/>
</svg>
