<svg width="504" height="520" viewBox="0 0 504 520" fill="none" xmlns="http://www.w3.org/2000/svg">
<path d="M257.28 519.975C393.211 519.975 503.404 456.355 503.404 377.875C503.404 299.396 393.211 235.776 257.28 235.776C121.349 235.776 11.1553 299.396 11.1553 377.875C11.1553 456.355 121.349 519.975 257.28 519.975Z" fill="#F5F5F5"/>
<path d="M218.127 427.647C250.035 427.647 275.901 412.713 275.901 394.29C275.901 375.867 250.035 360.933 218.127 360.933C186.22 360.933 160.354 375.867 160.354 394.29C160.354 412.713 186.22 427.647 218.127 427.647Z" fill="#E0E0E0"/>
<path d="M316.075 458.622C354.708 458.622 386.027 440.541 386.027 418.237C386.027 395.933 354.708 377.852 316.075 377.852C277.441 377.852 246.122 395.933 246.122 418.237C246.122 440.541 277.441 458.622 316.075 458.622Z" fill="#E0E0E0"/>
<path d="M237.956 381.524C237.956 378.591 236.031 375.658 232.159 373.44C224.427 368.97 211.885 368.97 204.153 373.44C200.281 375.67 198.345 378.603 198.345 381.524V390.571C198.345 393.504 200.281 396.437 204.153 398.666C211.885 403.125 224.427 403.125 232.159 398.666C236.031 396.425 237.956 393.504 237.956 390.571V381.524Z" fill="#263238"/>
<path d="M232.206 382.486C239.938 386.957 239.938 394.22 232.206 398.666C224.474 403.113 211.931 403.125 204.199 398.666C196.467 394.208 196.455 386.933 204.199 382.486C211.943 378.04 224.474 378.028 232.206 382.486Z" fill="#37474F"/>
<path d="M238.002 381.524H198.392V390.571H238.002V381.524Z" fill="#37474F"/>
<path d="M232.206 373.475C239.938 377.934 239.938 385.209 232.206 389.644C224.474 394.079 211.931 394.114 204.199 389.644C196.467 385.173 196.455 377.911 204.199 373.475C211.943 369.04 224.474 368.97 232.206 373.475Z" fill="#455A64"/>
<path d="M224.791 375.494C228.44 377.594 228.44 381.008 224.791 383.108C222.747 384.144 220.488 384.684 218.197 384.684C215.906 384.684 213.647 384.144 211.603 383.108C207.966 381.008 207.966 377.594 211.603 375.494C213.647 374.458 215.906 373.918 218.197 373.918C220.488 373.918 222.747 374.458 224.791 375.494Z" fill="#263238"/>
<path d="M227.525 208.52H208.869V379.307H227.525V208.52Z" fill="#263238"/>
<path d="M294.379 129.651V129.521C294.203 128.548 293.992 127.562 293.746 126.576C293.779 126.681 293.806 126.786 293.828 126.893C293.676 126.224 293.5 125.556 293.312 124.887C293.382 125.133 293.441 125.38 293.5 125.626C293.312 124.887 293.101 124.159 292.878 123.42C292.983 123.737 293.089 124.066 293.171 124.382C293.054 123.96 292.925 123.538 292.796 123.115L292.584 122.446V122.353V122.423C291.008 117.638 288.932 113.033 286.389 108.684C286.307 108.531 286.225 108.378 286.131 108.226C279.737 97.3494 270.467 87.4115 260.119 81.2399L259.614 80.9348C256.647 79.2113 253.499 77.8185 250.228 76.7813C247.509 75.9213 244.678 75.4667 241.827 75.432H240.842H240.243C239.75 75.432 239.269 75.5259 238.8 75.5963H238.366L237.568 75.7488C237.228 75.8192 236.887 75.9013 236.559 75.9952L235.644 76.2651C235.644 76.2651 235.644 76.2651 235.585 76.2651L234.67 76.5936C234.365 76.7226 234.06 76.8517 233.778 76.9925L231.76 78.1658L130.14 136.831H130.058C124.555 139.917 121.223 146.218 121.223 155.17V210.444L82.9848 231.564C79.1965 233.652 76.031 236.709 73.8122 240.423C71.5934 244.136 70.4009 248.372 70.3567 252.698C70.3126 257.023 71.4183 261.283 73.5609 265.04C75.7034 268.798 78.8058 271.919 82.5506 274.085C93.1988 280.227 105.275 283.46 117.568 283.46C129.861 283.46 141.937 280.227 152.585 274.085L192.196 251.792L295.13 192.317V137.031C295.101 134.553 294.85 132.083 294.379 129.651Z" fill="#006D8F"/>
<path d="M128.38 206.608V144.857L193.757 107.475L199.647 164.568L128.38 206.608Z" fill="#006D8F"/>
<path opacity="0.5" d="M128.38 206.608V144.857L193.757 107.475L199.647 164.568L128.38 206.608Z" fill="black"/>
<path d="M128.38 206.608L199.647 164.568V231.763L184.91 239.249L128.38 206.608Z" fill="#006D8F"/>
<path opacity="0.3" d="M128.38 206.608L199.647 164.568V231.763L184.91 239.249L128.38 206.608Z" fill="black"/>
<path d="M294.391 129.65L287.633 133.37L246.497 155.886L239.058 159.934L187.643 188.093C184.382 182.578 175.91 156.848 171.393 152.19C167.041 147.613 162.074 143.664 156.633 140.457C150.18 136.726 144.137 134.954 138.916 134.954C135.844 134.891 132.807 135.614 130.093 137.054L231.725 78.3887L233.743 77.2154C234.024 77.0746 234.329 76.9456 234.634 76.8165L235.55 76.488C235.55 76.488 235.55 76.488 235.608 76.488L236.523 76.2181C236.852 76.1242 237.192 76.0421 237.532 75.9717L238.33 75.8192H238.764C239.234 75.7488 239.715 75.6901 240.208 75.6549H240.806H241.792C244.643 75.6896 247.474 76.1442 250.192 77.0042C253.464 78.0414 256.611 79.4342 259.579 81.1577L260.083 81.4628C277.085 91.3772 291.188 111.687 294.391 129.65Z" fill="#006D8F"/>
<g opacity="0.3">
<path d="M294.391 129.65L287.633 133.37L246.497 155.886L239.058 159.934L187.643 188.093C184.382 182.578 175.91 156.848 171.393 152.19C167.041 147.613 162.074 143.664 156.633 140.457C150.18 136.726 144.137 134.954 138.916 134.954C135.844 134.891 132.807 135.614 130.093 137.054L231.725 78.3887L233.743 77.2154C234.024 77.0746 234.329 76.9456 234.634 76.8165L235.55 76.488C235.55 76.488 235.55 76.488 235.608 76.488L236.523 76.2181C236.852 76.1242 237.192 76.0421 237.532 75.9717L238.33 75.8192H238.764C239.234 75.7488 239.715 75.6901 240.208 75.6549H240.806H241.792C244.643 75.6896 247.474 76.1442 250.192 77.0042C253.464 78.0414 256.611 79.4342 259.579 81.1577L260.083 81.4628C277.085 91.3772 291.188 111.687 294.391 129.65Z" fill="black"/>
</g>
<path d="M286.061 108.308C286.154 108.449 286.248 108.601 286.33 108.754C286.283 108.566 286.201 108.414 286.061 108.308Z" fill="#006D8F"/>
<path d="M291.516 119.454C292.788 122.757 293.75 126.17 294.391 129.651L287.633 133.37L246.497 155.886L239.058 159.934L187.644 188.093L192.196 251.792L295.13 192.317V137.031C294.993 131.002 293.768 125.048 291.516 119.454Z" fill="#006D8F"/>
<path d="M289.992 115.77C289.558 114.808 289.1 113.834 288.619 112.872C289.1 113.834 289.581 114.808 289.992 115.77Z" fill="#006D8F"/>
<path d="M286.835 109.481C287.328 110.373 287.821 111.265 288.278 112.168C287.821 111.312 287.339 110.42 286.835 109.481Z" fill="#006D8F"/>
<g opacity="0.5">
<path d="M286.061 108.308C286.154 108.449 286.248 108.601 286.33 108.754C286.283 108.566 286.201 108.414 286.061 108.308Z" fill="black"/>
<path d="M291.516 119.454C292.788 122.757 293.75 126.17 294.391 129.651L287.633 133.37L246.497 155.886L239.058 159.934L187.644 188.093L192.196 251.792L295.13 192.317V137.031C294.993 131.002 293.768 125.048 291.516 119.454Z" fill="black"/>
<path d="M289.991 115.77C289.557 114.808 289.099 113.834 288.618 112.872C289.099 113.834 289.58 114.808 289.991 115.77Z" fill="black"/>
<path d="M286.835 109.481C287.328 110.373 287.821 111.265 288.278 112.168C287.821 111.312 287.339 110.42 286.835 109.481Z" fill="black"/>
</g>
<path d="M138.916 142.252C143.011 142.252 147.892 143.812 152.996 146.781C170.279 156.754 184.886 179.528 184.886 196.517V239.249L128.356 206.608V155.51C128.356 144.552 134.082 142.252 138.916 142.252ZM138.916 135.001C128.286 135.001 121.141 142.357 121.141 155.51V210.785L192.149 251.85V196.517C192.149 176.9 176.251 151.826 156.645 140.504C150.192 136.784 144.126 135.001 138.916 135.001Z" fill="#006D8F"/>
<path d="M121.141 210.785L82.9027 231.904C79.1145 233.993 75.949 237.05 73.7302 240.763C71.5114 244.476 70.3189 248.712 70.2747 253.038C70.2305 257.363 71.3363 261.623 73.4788 265.381C75.6214 269.139 78.7238 272.26 82.4686 274.425C93.1168 280.567 105.193 283.801 117.486 283.801C129.779 283.801 141.855 280.567 152.503 274.425L192.196 251.792L121.141 210.785Z" fill="#006D8F"/>
<path opacity="0.2" d="M121.141 210.785L82.9027 231.904C79.1145 233.993 75.949 237.05 73.7302 240.763C71.5114 244.476 70.3189 248.712 70.2747 253.038C70.2305 257.363 71.3363 261.623 73.4788 265.381C75.6214 269.139 78.7238 272.26 82.4686 274.425C93.1168 280.567 105.193 283.801 117.486 283.801C129.779 283.801 141.855 280.567 152.503 274.425L192.196 251.792L121.141 210.785Z" fill="white"/>
<path d="M215.839 234.955L207.86 239.554V162.527L215.839 157.916V234.955Z" fill="#E0E0E0"/>
<path d="M230.904 164.615L207.86 177.909V162.527L230.904 149.221V164.615Z" fill="#E0E0E0"/>
<path d="M219.276 232.245C219.135 234.842 218.384 237.37 217.084 239.622C215.783 241.875 213.97 243.789 211.79 245.21C207.649 247.556 204.293 245.667 204.293 240.892C204.443 238.303 205.2 235.786 206.502 233.544C207.805 231.302 209.616 229.398 211.79 227.985C215.92 225.533 219.276 227.469 219.276 232.245Z" fill="#006D8F"/>
<path opacity="0.2" d="M219.276 232.245C219.135 234.842 218.384 237.37 217.084 239.622C215.783 241.875 213.97 243.789 211.79 245.21C207.649 247.556 204.293 245.667 204.293 240.892C204.443 238.303 205.2 235.786 206.502 233.544C207.805 231.302 209.616 229.398 211.79 227.985C215.92 225.533 219.276 227.469 219.276 232.245Z" fill="black"/>
<path d="M221.763 233.688C221.615 236.275 220.86 238.791 219.559 241.033C218.259 243.275 216.45 245.18 214.278 246.594C210.148 248.941 206.792 247.04 206.792 242.265C206.935 239.668 207.688 237.141 208.988 234.889C210.288 232.637 212.1 230.722 214.278 229.299C218.419 226.976 221.763 228.912 221.763 233.688Z" fill="#006D8F"/>
<path d="M388.983 360.569L402.218 368.243C402.218 368.243 395.531 346.9 399.238 325.44C400.634 317.344 403.591 313.32 404.624 311.149C405.656 308.979 413.658 295.603 406.618 289.432C399.578 283.26 383.093 295.533 383.833 328.597C384.196 339.428 385.926 350.171 388.983 360.569Z" fill="#006D8F"/>
<path opacity="0.3" d="M388.983 360.569L402.218 368.243C402.218 368.243 395.531 346.9 399.238 325.44C400.634 317.344 403.591 313.32 404.624 311.149C405.656 308.979 413.658 295.603 406.618 289.432C399.578 283.26 383.093 295.533 383.833 328.597C384.196 339.428 385.926 350.171 388.983 360.569Z" fill="black"/>
<path d="M395.178 364.723C395.058 364.719 394.942 364.681 394.844 364.612C394.746 364.543 394.67 364.447 394.627 364.335C394.627 364.195 389.57 350.256 389.828 327.963C390.086 305.67 401.89 293.562 402.007 293.444C402.117 293.334 402.267 293.272 402.423 293.272C402.58 293.272 402.729 293.334 402.84 293.444C402.95 293.555 403.012 293.704 403.012 293.861C403.012 294.017 402.95 294.167 402.84 294.277C402.723 294.395 391.271 306.01 391.013 327.975C390.755 349.939 395.706 363.772 395.706 363.913C395.759 364.059 395.752 364.221 395.686 364.361C395.62 364.502 395.5 364.611 395.354 364.664C395.3 364.695 395.24 364.715 395.178 364.723Z" fill="white"/>
<path d="M399.25 366.565L421.132 379.471C421.132 379.471 431.152 377.993 430.401 368.559C429.65 359.126 425.567 356.897 430.636 352.755C435.705 348.613 437.019 348.343 436.772 344.272C436.526 340.2 433.804 338.405 432.513 336.833C431.223 335.261 427.644 331.847 430.167 326.942C432.689 322.038 436.104 317.309 431.035 315.068C427.996 313.731 422.904 315.409 419.536 318.987C416.169 322.566 413.365 325.159 410.15 326.027C406.935 326.895 400.282 326.919 400.505 332.433C400.728 337.948 402.16 339.849 400.822 342.289C398.323 346.83 387.564 349.317 399.25 366.565Z" fill="#006D8F"/>
<path d="M408.167 372.396C408.018 372.396 407.873 372.339 407.764 372.237C407.655 372.134 407.59 371.994 407.581 371.845C407.581 371.516 405.163 338.898 427.832 317.474C427.885 317.407 427.952 317.353 428.028 317.314C428.104 317.276 428.187 317.254 428.272 317.25C428.357 317.247 428.442 317.261 428.521 317.293C428.6 317.324 428.671 317.372 428.73 317.434C428.789 317.495 428.834 317.569 428.863 317.649C428.891 317.729 428.902 317.815 428.895 317.899C428.887 317.984 428.862 318.067 428.82 318.141C428.779 318.215 428.722 318.28 428.653 318.33C406.36 339.356 408.707 371.434 408.707 371.751C408.72 371.908 408.671 372.063 408.57 372.184C408.469 372.305 408.324 372.381 408.167 372.396Z" fill="white"/>
<path d="M412.086 344.424C411.938 344.425 411.795 344.37 411.686 344.27C411.578 344.169 411.511 344.032 411.499 343.885C411.326 341.377 410.647 338.931 409.504 336.693C408.36 334.455 406.776 332.471 404.846 330.861C404.784 330.816 404.731 330.758 404.691 330.692C404.65 330.626 404.624 330.553 404.612 330.477C404.6 330.401 404.603 330.323 404.621 330.248C404.639 330.173 404.672 330.102 404.717 330.04C404.763 329.977 404.82 329.924 404.886 329.884C404.952 329.844 405.025 329.817 405.101 329.805C405.177 329.793 405.255 329.796 405.33 329.814C405.405 329.832 405.476 329.865 405.538 329.911C407.623 331.605 409.335 333.714 410.565 336.103C411.794 338.491 412.516 341.109 412.684 343.791C412.69 343.869 412.681 343.947 412.657 344.022C412.632 344.096 412.593 344.165 412.542 344.224C412.49 344.283 412.428 344.331 412.357 344.365C412.287 344.4 412.211 344.42 412.132 344.424H412.086Z" fill="white"/>
<path d="M410.432 350.009C410.284 350.013 410.141 349.958 410.033 349.857C409.978 349.802 409.934 349.737 409.904 349.666C409.875 349.594 409.859 349.518 409.859 349.44C409.859 349.363 409.875 349.286 409.904 349.215C409.934 349.143 409.978 349.078 410.033 349.024C410.268 348.754 415.97 342.594 429.158 344.401C429.314 344.424 429.454 344.507 429.55 344.632C429.647 344.756 429.691 344.913 429.674 345.07C429.651 345.225 429.568 345.364 429.443 345.459C429.318 345.553 429.161 345.594 429.005 345.574C416.427 343.85 410.972 349.751 410.913 349.81C410.853 349.877 410.778 349.93 410.695 349.965C410.612 349.999 410.522 350.015 410.432 350.009Z" fill="white"/>
<path d="M148.022 174.635C146.977 174.635 145.921 174.635 144.889 174.506C144.746 174.496 144.607 174.457 144.48 174.392C144.353 174.327 144.24 174.237 144.148 174.128C144.056 174.018 143.987 173.892 143.945 173.755C143.903 173.619 143.889 173.475 143.903 173.333C143.93 173.047 144.068 172.784 144.288 172.599C144.507 172.415 144.791 172.324 145.077 172.347C146.469 172.476 147.868 172.511 149.265 172.453C149.55 172.449 149.825 172.556 150.033 172.751C150.24 172.945 150.365 173.213 150.38 173.497C150.389 173.781 150.286 174.058 150.093 174.267C149.9 174.476 149.632 174.599 149.347 174.612C148.89 174.635 148.456 174.635 148.022 174.635ZM153.583 174.189C153.309 174.194 153.043 174.094 152.84 173.91C152.637 173.726 152.511 173.471 152.489 173.198C152.466 172.925 152.549 172.653 152.719 172.439C152.89 172.224 153.136 172.082 153.407 172.042C154.784 171.817 156.144 171.499 157.478 171.092C157.748 171.024 158.033 171.063 158.274 171.2C158.516 171.337 158.696 171.561 158.776 171.827C158.856 172.093 158.83 172.38 158.704 172.627C158.579 172.875 158.362 173.065 158.1 173.157C156.678 173.595 155.228 173.936 153.759 174.178L153.583 174.189ZM140.677 173.884H140.465C139.014 173.572 137.58 173.18 136.171 172.711C135.9 172.617 135.676 172.421 135.546 172.165C135.417 171.909 135.393 171.612 135.479 171.338C135.572 171.067 135.769 170.844 136.026 170.716C136.283 170.589 136.579 170.568 136.852 170.658C138.179 171.096 139.531 171.456 140.9 171.737C141.039 171.765 141.171 171.82 141.289 171.9C141.407 171.98 141.507 172.082 141.585 172.201C141.663 172.32 141.716 172.454 141.741 172.594C141.766 172.734 141.764 172.877 141.733 173.016C141.685 173.256 141.556 173.473 141.369 173.631C141.181 173.789 140.945 173.878 140.7 173.884H140.677ZM161.796 171.643C161.551 171.644 161.313 171.561 161.121 171.409C160.929 171.257 160.795 171.043 160.74 170.804C160.686 170.565 160.714 170.315 160.821 170.094C160.927 169.874 161.106 169.696 161.327 169.59L162.078 169.226C162.205 169.154 162.345 169.109 162.49 169.093C162.635 169.077 162.782 169.091 162.922 169.133C163.061 169.175 163.191 169.245 163.303 169.339C163.414 169.433 163.506 169.548 163.572 169.679C163.638 169.809 163.677 169.951 163.686 170.097C163.695 170.242 163.675 170.388 163.627 170.526C163.578 170.663 163.502 170.79 163.403 170.897C163.304 171.004 163.185 171.091 163.052 171.15L162.254 171.549C162.119 171.619 161.971 171.659 161.82 171.667L161.796 171.643ZM132.464 171.186C132.305 171.184 132.149 171.148 132.006 171.08C130.666 170.456 129.362 169.759 128.099 168.992C127.978 168.915 127.873 168.814 127.791 168.697C127.709 168.579 127.65 168.447 127.619 168.307C127.588 168.167 127.585 168.022 127.61 167.881C127.635 167.74 127.687 167.605 127.764 167.484C127.841 167.363 127.942 167.258 128.059 167.176C128.177 167.094 128.309 167.035 128.449 167.004C128.589 166.973 128.734 166.97 128.875 166.995C129.016 167.02 129.151 167.072 129.272 167.149C130.471 167.873 131.709 168.531 132.98 169.121C133.196 169.23 133.37 169.408 133.474 169.627C133.578 169.847 133.606 170.094 133.554 170.331C133.501 170.568 133.371 170.781 133.185 170.935C132.998 171.09 132.765 171.178 132.522 171.186H132.464ZM125.072 166.727C124.84 166.722 124.616 166.648 124.426 166.516C123.253 165.648 122.08 164.697 121.024 163.688C120.919 163.593 120.834 163.477 120.774 163.349C120.714 163.221 120.679 163.082 120.673 162.94C120.666 162.799 120.688 162.657 120.736 162.524C120.784 162.39 120.858 162.268 120.953 162.163C121.049 162.058 121.164 161.973 121.293 161.913C121.421 161.853 121.56 161.818 121.701 161.812C121.843 161.805 121.985 161.827 122.118 161.875C122.251 161.923 122.374 161.997 122.479 162.093C123.535 163.055 124.626 163.958 125.729 164.791C125.908 164.928 126.039 165.118 126.105 165.334C126.17 165.55 126.166 165.781 126.094 165.995C126.021 166.208 125.884 166.394 125.701 166.525C125.517 166.656 125.297 166.727 125.072 166.727ZM118.701 160.919C118.55 160.92 118.402 160.889 118.264 160.828C118.127 160.768 118.004 160.679 117.903 160.567C116.929 159.499 115.967 158.361 115.075 157.188C114.989 157.076 114.926 156.947 114.889 156.81C114.852 156.673 114.843 156.531 114.861 156.39C114.899 156.106 115.047 155.849 115.275 155.675C115.502 155.5 115.789 155.423 116.073 155.461C116.357 155.498 116.614 155.647 116.788 155.874C117.645 157.047 118.56 158.08 119.498 159.112C119.594 159.217 119.668 159.34 119.716 159.473C119.764 159.606 119.786 159.748 119.779 159.89C119.773 160.031 119.738 160.17 119.678 160.299C119.618 160.427 119.533 160.542 119.428 160.638C119.244 160.805 119.008 160.904 118.759 160.919H118.701ZM113.503 154.067C113.322 154.068 113.143 154.021 112.985 153.933C112.827 153.845 112.694 153.717 112.599 153.563C112.13 152.835 111.673 152.084 111.238 151.333C110.945 150.817 110.652 150.289 110.37 149.761C110.262 149.512 110.253 149.231 110.342 148.975C110.432 148.719 110.615 148.507 110.855 148.379C111.095 148.252 111.373 148.22 111.636 148.289C111.898 148.358 112.125 148.523 112.271 148.752C112.541 149.257 112.822 149.761 113.104 150.254C113.526 150.981 113.96 151.697 114.418 152.401C114.52 152.565 114.576 152.754 114.581 152.947C114.587 153.141 114.54 153.332 114.447 153.501C114.354 153.671 114.217 153.813 114.052 153.912C113.886 154.011 113.696 154.065 113.503 154.067ZM109.467 146.441C109.254 146.441 109.046 146.379 108.869 146.263C108.692 146.146 108.553 145.979 108.469 145.784C107.894 144.423 107.378 143.026 106.932 141.642C106.888 141.507 106.871 141.365 106.882 141.223C106.893 141.082 106.932 140.944 106.997 140.818C107.061 140.691 107.149 140.579 107.257 140.487C107.365 140.395 107.49 140.325 107.625 140.281C107.898 140.196 108.195 140.222 108.45 140.354C108.704 140.485 108.897 140.712 108.986 140.985C109.408 142.311 109.901 143.636 110.452 144.939C110.525 145.102 110.556 145.281 110.541 145.459C110.527 145.638 110.468 145.809 110.37 145.959C110.271 146.108 110.137 146.231 109.98 146.315C109.822 146.399 109.646 146.442 109.467 146.441ZM106.839 138.227C106.592 138.225 106.353 138.139 106.161 137.984C105.969 137.828 105.836 137.612 105.783 137.371C105.469 135.926 105.234 134.465 105.079 132.994C105.052 132.712 105.139 132.43 105.319 132.21C105.499 131.991 105.758 131.851 106.041 131.821C106.191 131.786 106.348 131.786 106.498 131.821C106.577 131.675 106.689 131.55 106.826 131.456C106.963 131.363 107.12 131.303 107.284 131.281C108.651 131.093 110.001 130.794 111.321 130.39C111.594 130.304 111.891 130.331 112.145 130.464C112.399 130.597 112.59 130.826 112.676 131.1C112.761 131.373 112.735 131.67 112.601 131.924C112.468 132.178 112.24 132.369 111.966 132.455C110.531 132.893 109.063 133.218 107.578 133.429C107.488 133.44 107.397 133.44 107.308 133.429C107.449 134.602 107.648 135.775 107.894 136.878C107.925 137.017 107.928 137.16 107.903 137.3C107.878 137.44 107.825 137.574 107.747 137.693C107.669 137.812 107.569 137.914 107.451 137.994C107.333 138.074 107.201 138.129 107.061 138.157C106.992 138.196 106.917 138.224 106.839 138.239V138.227ZM103.119 133.745C101.63 133.722 100.145 133.601 98.6723 133.382C98.3913 133.337 98.1391 133.184 97.9707 132.954C97.8023 132.725 97.7312 132.439 97.773 132.157C97.8147 131.876 97.9659 131.622 98.1937 131.451C98.4214 131.281 98.7073 131.207 98.9891 131.246C100.364 131.457 101.752 131.571 103.143 131.587C103.429 131.587 103.703 131.7 103.906 131.903C104.108 132.105 104.222 132.38 104.222 132.666C104.222 132.952 104.108 133.227 103.906 133.429C103.703 133.632 103.429 133.745 103.143 133.745H103.119ZM94.6009 132.478C94.5039 132.495 94.4046 132.495 94.3076 132.478C92.8799 132.061 91.4807 131.551 90.1189 130.953C89.8559 130.839 89.6489 130.626 89.5433 130.36C89.4376 130.093 89.4421 129.796 89.5557 129.533C89.6693 129.27 89.8827 129.063 90.1489 128.958C90.4152 128.852 90.7125 128.856 90.9754 128.97C92.2571 129.522 93.5741 129.989 94.9177 130.366C95.1915 130.448 95.4223 130.634 95.5606 130.884C95.6988 131.134 95.7334 131.429 95.6569 131.704C95.5888 131.931 95.4493 132.13 95.2591 132.272C95.0688 132.413 94.8381 132.49 94.6009 132.49V132.478ZM115.638 130.918C115.4 130.914 115.169 130.83 114.983 130.681C114.796 130.532 114.664 130.325 114.608 130.093C114.552 129.861 114.574 129.617 114.671 129.399C114.768 129.181 114.935 129.001 115.146 128.888C116.354 128.268 117.488 127.512 118.525 126.635C118.742 126.449 119.024 126.356 119.309 126.376C119.594 126.396 119.86 126.527 120.05 126.741C120.143 126.849 120.213 126.973 120.258 127.109C120.302 127.244 120.319 127.386 120.308 127.528C120.297 127.67 120.258 127.808 120.194 127.934C120.13 128.061 120.041 128.174 119.933 128.266C118.776 129.261 117.504 130.112 116.143 130.8C115.987 130.883 115.814 130.927 115.638 130.929V130.918ZM105.959 129.651C105.671 129.644 105.398 129.525 105.198 129.319C104.998 129.112 104.888 128.835 104.891 128.548C104.914 127.064 105.028 125.583 105.231 124.113C105.246 123.968 105.29 123.828 105.36 123.7C105.43 123.573 105.525 123.461 105.64 123.371C105.754 123.282 105.886 123.216 106.026 123.179C106.167 123.141 106.314 123.132 106.458 123.153C106.602 123.174 106.74 123.223 106.864 123.298C106.989 123.374 107.097 123.474 107.182 123.592C107.266 123.71 107.327 123.844 107.358 123.986C107.39 124.128 107.393 124.275 107.366 124.418C107.177 125.798 107.071 127.189 107.05 128.583C107.047 128.87 106.93 129.145 106.726 129.347C106.522 129.549 106.246 129.662 105.959 129.662V129.651ZM86.6694 129.099C86.4807 129.096 86.2956 129.048 86.1296 128.958C84.8462 128.211 83.6082 127.388 82.422 126.494C82.3077 126.411 82.2113 126.306 82.1385 126.184C82.0658 126.063 82.0181 125.928 81.9984 125.788C81.9787 125.648 81.9874 125.505 82.0239 125.369C82.0603 125.232 82.1239 125.104 82.2108 124.993C82.2953 124.878 82.4016 124.782 82.5235 124.709C82.6455 124.636 82.7806 124.587 82.9213 124.567C83.0619 124.546 83.2052 124.553 83.3431 124.588C83.4809 124.623 83.6105 124.685 83.7244 124.77C84.8466 125.626 86.0223 126.41 87.2443 127.116C87.452 127.234 87.6147 127.418 87.707 127.638C87.7992 127.858 87.8158 128.103 87.7541 128.334C87.6923 128.565 87.5558 128.768 87.3659 128.913C87.176 129.058 86.9434 129.136 86.7046 129.134L86.6694 129.099ZM122.009 125.251C121.82 125.251 121.634 125.203 121.47 125.11C121.347 125.038 121.24 124.943 121.154 124.83C121.068 124.717 121.005 124.588 120.969 124.451C120.933 124.314 120.925 124.171 120.944 124.03C120.964 123.889 121.011 123.754 121.082 123.632C121.391 123.097 121.65 122.535 121.857 121.954C122.079 121.334 122.213 120.686 122.256 120.029C122.265 119.886 122.302 119.746 122.366 119.617C122.431 119.488 122.52 119.374 122.63 119.281C122.74 119.188 122.867 119.118 123.004 119.075C123.141 119.032 123.286 119.018 123.429 119.032C123.572 119.042 123.712 119.081 123.839 119.146C123.967 119.211 124.081 119.3 124.174 119.41C124.267 119.519 124.337 119.646 124.38 119.782C124.423 119.919 124.439 120.063 124.426 120.205C124.364 121.054 124.191 121.89 123.91 122.693C123.66 123.4 123.345 124.084 122.971 124.734C122.872 124.9 122.731 125.035 122.562 125.128C122.393 125.221 122.202 125.267 122.009 125.262V125.251ZM79.7703 123.913C79.4901 123.912 79.2213 123.802 79.0194 123.608L78.3037 122.881C77.5176 122.071 76.7549 121.215 76.0275 120.323C75.847 120.1 75.7623 119.815 75.792 119.53C75.8217 119.245 75.9634 118.984 76.1859 118.803C76.4084 118.623 76.6934 118.538 76.9784 118.568C77.2633 118.598 77.5248 118.739 77.7053 118.962C78.3858 119.807 79.1133 120.616 79.8524 121.379L80.5212 122.059C80.6227 122.159 80.7033 122.277 80.7583 122.408C80.8134 122.539 80.8417 122.68 80.8417 122.822C80.8417 122.964 80.8134 123.105 80.7583 123.236C80.7033 123.367 80.6227 123.485 80.5212 123.585C80.3301 123.785 80.0704 123.907 79.7938 123.925L79.7703 123.913ZM107.179 121.121C107.074 121.138 106.967 121.138 106.862 121.121C106.726 121.079 106.6 121.011 106.491 120.921C106.381 120.831 106.291 120.72 106.224 120.594C106.158 120.469 106.117 120.332 106.103 120.191C106.09 120.049 106.105 119.907 106.146 119.771C106.58 118.299 107.208 116.89 108.012 115.583C108.167 115.34 108.413 115.169 108.695 115.107C108.976 115.046 109.271 115.099 109.514 115.254C109.756 115.41 109.927 115.655 109.989 115.937C110.051 116.219 109.998 116.513 109.842 116.756C109.138 117.902 108.589 119.137 108.211 120.428C108.136 120.635 107.999 120.814 107.818 120.94C107.638 121.066 107.422 121.133 107.202 121.132L107.179 121.121ZM74.3262 117.225C74.1463 117.226 73.9691 117.181 73.8112 117.095C73.6532 117.009 73.5196 116.884 73.4227 116.732C72.619 115.496 71.8789 114.219 71.2052 112.907C71.0745 112.652 71.0505 112.356 71.1385 112.083C71.2265 111.81 71.4193 111.583 71.6745 111.453C71.9297 111.322 72.2263 111.298 72.4991 111.386C72.772 111.474 72.9987 111.667 73.1294 111.922C73.7665 113.17 74.4675 114.384 75.2296 115.559C75.335 115.722 75.3946 115.91 75.4021 116.104C75.4097 116.298 75.3649 116.49 75.2724 116.66C75.18 116.831 75.0433 116.973 74.8768 117.073C74.7103 117.172 74.5201 117.225 74.3262 117.225ZM122.631 116.955C122.417 116.955 122.209 116.892 122.031 116.772C121.853 116.653 121.715 116.484 121.634 116.287C121.185 115.136 120.405 114.144 119.393 113.435C119.189 113.266 119.055 113.028 119.016 112.766C118.977 112.504 119.035 112.237 119.18 112.015C119.325 111.794 119.546 111.633 119.802 111.564C120.057 111.495 120.329 111.522 120.566 111.64C121.931 112.588 122.985 113.919 123.593 115.465C123.649 115.595 123.678 115.735 123.68 115.877C123.681 116.018 123.654 116.159 123.6 116.29C123.547 116.421 123.468 116.54 123.368 116.64C123.268 116.74 123.149 116.819 123.018 116.873C122.904 116.926 122.78 116.957 122.655 116.967L122.631 116.955ZM111.872 114.069C111.697 114.068 111.524 114.025 111.369 113.943C111.213 113.862 111.08 113.744 110.98 113.6C110.9 113.483 110.844 113.351 110.814 113.212C110.785 113.073 110.783 112.93 110.81 112.79C110.836 112.651 110.889 112.518 110.967 112.399C111.044 112.28 111.145 112.178 111.262 112.098C112.605 111.169 114.165 110.599 115.791 110.444C115.936 110.422 116.084 110.431 116.226 110.469C116.368 110.507 116.501 110.574 116.616 110.665C116.731 110.757 116.827 110.87 116.897 111C116.966 111.129 117.009 111.271 117.022 111.418C117.034 111.564 117.017 111.712 116.971 111.851C116.925 111.991 116.851 112.119 116.753 112.229C116.655 112.339 116.536 112.428 116.403 112.49C116.27 112.552 116.125 112.586 115.979 112.591C114.712 112.713 113.499 113.161 112.459 113.893C112.29 114.003 112.096 114.068 111.895 114.081L111.872 114.069ZM70.3721 109.564C70.157 109.562 69.9471 109.497 69.7694 109.376C69.5917 109.255 69.4543 109.083 69.3748 108.883C68.8351 107.534 68.3423 106.138 67.9199 104.718C67.8715 104.58 67.8515 104.434 67.8611 104.289C67.8707 104.143 67.9097 104.001 67.9758 103.871C68.0419 103.741 68.1336 103.625 68.2455 103.532C68.3575 103.438 68.4872 103.368 68.6269 103.326C68.7666 103.284 68.9134 103.271 69.0584 103.287C69.2035 103.303 69.3437 103.349 69.4706 103.421C69.5975 103.493 69.7085 103.589 69.7969 103.706C69.8853 103.822 69.9493 103.954 69.9849 104.096C70.3956 105.445 70.8649 106.795 71.3812 108.085C71.4817 108.352 71.4742 108.647 71.3602 108.907C71.2462 109.168 71.0348 109.374 70.7711 109.481C70.6538 109.538 70.5259 109.57 70.3956 109.575L70.3721 109.564ZM67.873 101.35C67.6254 101.35 67.3854 101.265 67.1932 101.109C67.0009 100.953 66.8681 100.736 66.817 100.494C66.5119 99.0742 66.2655 97.6193 66.0661 96.1527C66.0488 95.8796 66.1359 95.6102 66.3097 95.3989C66.4834 95.1875 66.731 95.0501 67.0023 95.0143C67.2735 94.9786 67.5482 95.0471 67.7709 95.2062C67.9935 95.3652 68.1474 95.6029 68.2015 95.8711C68.3892 97.279 68.6356 98.6753 68.929 100.048C68.988 100.328 68.9335 100.62 68.7772 100.86C68.621 101.1 68.3759 101.268 68.0959 101.327L67.873 101.35ZM66.6997 92.797C66.4241 92.7946 66.1596 92.688 65.9594 92.4987C65.7592 92.3093 65.638 92.0512 65.6202 91.7762C65.6202 90.6029 65.5264 89.4296 65.5264 88.2563V87.3529C65.5385 87.0686 65.66 86.7999 65.8655 86.6031C66.0711 86.4064 66.3447 86.2966 66.6293 86.2969C66.771 86.2968 66.9112 86.3252 67.0417 86.3805C67.1721 86.4357 67.2902 86.5167 67.3887 86.6185C67.4872 86.7203 67.5643 86.8409 67.6152 86.9731C67.6662 87.1053 67.69 87.2464 67.6852 87.3881V88.2563C67.6852 89.4296 67.6853 90.509 67.7791 91.6237C67.7903 91.7671 67.7731 91.9112 67.7283 92.0479C67.6836 92.1846 67.6123 92.3111 67.5186 92.4202C67.4248 92.5292 67.3104 92.6186 67.1819 92.6833C67.0535 92.748 66.9135 92.7866 66.7701 92.797H66.6997Z" fill="#263238"/>
<path d="M77.5177 53.5146L71.0645 81.5567L0.595703 66.4328L77.5177 53.5146Z" fill="#006D8F"/>
<path opacity="0.3" d="M77.5177 53.5146L71.0645 81.5567L0.595703 66.4328L77.5177 53.5146Z" fill="black"/>
<path d="M0.595703 66.4328L88.3356 64.0862L108.951 95.8593L0.595703 66.4328Z" fill="#006D8F"/>
<path d="M0.595703 66.4328L77.5177 53.5147L59.3901 32.489L0.595703 66.4328Z" fill="#006D8F"/>
<path d="M306.207 358.635L287.64 358.161L286.682 395.754L305.249 396.227L306.207 358.635Z" fill="#945959"/>
<path d="M281.814 207.687C281.814 207.687 280.511 271.656 280.957 296.999C281.297 316.089 284.278 373.264 284.278 373.264C284.278 373.264 296.316 381.125 308.999 374.555C308.999 374.555 316.321 316.805 314.537 299.405C314.309 297.295 314.309 295.167 314.537 293.057L325.731 196.212L281.814 207.687Z" fill="#37474F"/>
<path d="M293.101 390.547C293.101 390.547 303.391 389.374 305.467 386.018V383.836C305.467 383.836 307.251 384.786 306.91 388.4C306.605 391.756 307.943 397.47 308.142 404.439C308.155 405.008 308.035 405.571 307.79 406.085C307.546 406.598 307.184 407.047 306.734 407.396C304.74 408.933 300.528 411.291 293.101 411.608C290.496 411.725 280.077 418.401 271.406 418.401C262.735 418.401 257.068 414.107 257.068 408.1C257.068 402.092 274.75 396.66 274.75 396.66L283.245 388.447C283.245 388.447 281.59 379.495 286.999 381.642C292.408 383.789 293.101 386.018 293.101 390.547Z" fill="#37474F"/>
<path d="M291.224 395.768C291.109 395.769 290.997 395.733 290.904 395.665C290.811 395.598 290.742 395.502 290.708 395.393C288.901 389.984 283.257 388.987 283.198 388.975C283.128 388.963 283.061 388.938 283.001 388.901C282.94 388.863 282.888 388.814 282.846 388.757C282.805 388.699 282.775 388.633 282.759 388.564C282.743 388.495 282.741 388.423 282.753 388.353C282.778 388.213 282.858 388.088 282.974 388.005C283.09 387.922 283.233 387.887 283.374 387.907C285.265 388.276 287.028 389.128 288.492 390.38C289.956 391.632 291.071 393.242 291.728 395.053C291.773 395.188 291.762 395.335 291.698 395.463C291.635 395.59 291.523 395.688 291.388 395.733L291.224 395.768Z" fill="#FAFAFA"/>
<path d="M287.833 399.124C287.719 399.121 287.608 399.084 287.516 399.016C287.424 398.949 287.354 398.856 287.316 398.749C285.521 393.363 279.866 392.342 279.807 392.331C279.737 392.319 279.67 392.294 279.61 392.256C279.551 392.219 279.499 392.17 279.458 392.112C279.418 392.054 279.389 391.988 279.375 391.919C279.36 391.85 279.359 391.778 279.373 391.709C279.384 391.639 279.409 391.571 279.447 391.511C279.484 391.45 279.533 391.398 279.591 391.357C279.649 391.315 279.714 391.285 279.784 391.269C279.853 391.253 279.925 391.251 279.995 391.263C281.886 391.631 283.649 392.483 285.113 393.735C286.577 394.988 287.692 396.597 288.349 398.408C288.371 398.476 288.379 398.548 288.373 398.619C288.367 398.689 288.347 398.759 288.314 398.822C288.282 398.885 288.237 398.941 288.182 398.987C288.128 399.033 288.065 399.067 287.997 399.089C287.945 399.113 287.889 399.125 287.833 399.124Z" fill="#FAFAFA"/>
<path d="M284.888 402.034C284.776 402.034 284.667 401.999 284.577 401.934C284.486 401.869 284.418 401.776 284.384 401.67C282.588 396.273 276.933 395.252 276.874 395.24C276.798 395.238 276.723 395.218 276.654 395.184C276.585 395.15 276.525 395.102 276.476 395.042C276.428 394.983 276.392 394.914 276.373 394.84C276.353 394.765 276.349 394.688 276.362 394.612C276.374 394.537 276.403 394.464 276.446 394.401C276.488 394.337 276.544 394.283 276.609 394.243C276.674 394.202 276.748 394.176 276.824 394.166C276.9 394.156 276.977 394.162 277.05 394.184C278.943 394.55 280.707 395.4 282.172 396.653C283.636 397.906 284.75 399.517 285.404 401.33C285.449 401.465 285.438 401.613 285.375 401.74C285.311 401.868 285.199 401.965 285.064 402.01L284.888 402.034Z" fill="#FAFAFA"/>
<path d="M257.116 408.1C257.116 414.037 262.666 418.296 271.196 418.39L283.34 413.52C283.34 400.931 274.821 396.66 274.821 396.66C274.821 396.66 257.116 402.104 257.116 408.1Z" fill="#EBEBEB"/>
<path d="M307.885 404.955C305.808 406.563 301.396 409.038 293.629 409.379C290.895 409.496 280.007 416.419 270.937 416.419C264.719 416.419 259.978 414.307 257.608 410.939C259.145 415.386 264.261 418.343 271.453 418.343C280.124 418.343 290.543 411.667 293.148 411.549C300.575 411.233 304.787 408.874 306.782 407.337C307.195 407.015 307.533 406.607 307.772 406.141C308.011 405.675 308.146 405.162 308.166 404.639C308.08 404.751 307.986 404.857 307.885 404.955Z" fill="#263238"/>
<path d="M292.573 216.64C292.573 216.64 294.275 231.118 305.374 238.768L315.171 287.895L321.46 226.472L292.573 216.64Z" fill="#263238"/>
<path d="M356.339 368.94L337.822 370.387L340.753 407.877L359.27 406.43L356.339 368.94Z" fill="#945959"/>
<path d="M349.22 209.213C349.22 209.213 351.461 217.696 352.541 252.695C353.409 280.432 354.054 296.389 354.289 301.81C354.346 303.159 354.491 304.504 354.723 305.834C357.004 319.822 358.531 333.922 359.299 348.073C360.883 375.059 361.012 387.837 361.012 387.837C361.012 387.837 349.56 396.789 335.739 389.761L322.363 309.343L308.283 234.708C308.283 234.708 288.983 227.352 287.281 207.722L349.22 209.213Z" fill="#37474F"/>
<path d="M358.607 397.833L358.9 401.494C358.9 401.494 356.695 404.592 354.09 405.495C354.09 405.495 352.095 398.209 348.564 397.833C345.032 397.458 337.699 397.129 338.684 401.189C339.234 403.306 339.576 405.471 339.705 407.654L332.9 420.337C332.9 420.337 319.09 432.235 324.863 439.814C330.635 447.394 350.007 443.334 351.919 431.437C352.225 429.645 352.898 427.935 353.896 426.415C354.893 424.894 356.193 423.596 357.715 422.602C358.964 421.814 359.947 420.669 360.535 419.315C361.123 417.961 361.289 416.461 361.012 415.011C360.66 412.288 359.839 407.056 360.085 404.697C360.332 402.339 360.989 397.869 358.607 397.833Z" fill="#37474F"/>
<path d="M324.863 439.814C329.662 446.115 343.812 444.39 349.584 436.811C349.838 435.579 349.963 434.325 349.96 433.068C349.96 419.516 332.9 420.337 332.9 420.337C332.9 420.337 319.09 432.235 324.863 439.814Z" fill="#EBEBEB"/>
<path d="M361.012 415.011C361.012 414.811 360.954 414.576 360.918 414.342C360.785 415.426 360.409 416.466 359.818 417.384C359.227 418.302 358.436 419.075 357.504 419.645C355.931 420.675 354.588 422.018 353.558 423.591C352.529 425.164 351.835 426.932 351.52 428.785C349.573 440.964 329.978 445.212 323.76 437.691C323.999 438.458 324.372 439.177 324.863 439.814C330.635 447.406 350.007 443.334 351.919 431.437C352.225 429.645 352.898 427.935 353.895 426.415C354.893 424.894 356.193 423.596 357.715 422.602C358.964 421.814 359.947 420.669 360.535 419.315C361.123 417.961 361.289 416.461 361.012 415.011Z" fill="#263238"/>
<path d="M349.737 410.482C349.598 410.483 349.464 410.433 349.361 410.341C345.231 406.434 339.764 408.205 339.705 408.229C339.636 408.258 339.562 408.273 339.488 408.272C339.413 408.271 339.34 408.255 339.272 408.224C339.204 408.193 339.143 408.149 339.093 408.094C339.043 408.038 339.005 407.973 338.982 407.903C338.958 407.832 338.95 407.757 338.956 407.683C338.963 407.609 338.985 407.537 339.021 407.472C339.057 407.406 339.106 407.349 339.165 407.304C339.224 407.259 339.292 407.226 339.365 407.208C341.204 406.635 343.161 406.55 345.043 406.961C346.925 407.373 348.668 408.266 350.1 409.555C350.152 409.604 350.193 409.663 350.221 409.729C350.249 409.794 350.263 409.865 350.263 409.936C350.263 410.007 350.249 410.078 350.221 410.143C350.193 410.209 350.152 410.268 350.1 410.317C350.004 410.416 349.874 410.474 349.737 410.482Z" fill="#FAFAFA"/>
<path d="M347.367 415.187C347.232 415.185 347.103 415.135 347.003 415.046C342.873 411.139 337.405 412.91 337.347 412.934C337.21 412.979 337.06 412.968 336.932 412.903C336.803 412.838 336.705 412.725 336.66 412.588C336.615 412.451 336.626 412.302 336.691 412.173C336.756 412.044 336.869 411.946 337.006 411.901C338.846 411.334 340.802 411.252 342.683 411.663C344.564 412.074 346.307 412.965 347.742 414.248C347.84 414.351 347.895 414.487 347.895 414.629C347.895 414.771 347.84 414.908 347.742 415.011C347.644 415.115 347.51 415.178 347.367 415.187Z" fill="#FAFAFA"/>
<path d="M345.008 419.892C344.874 419.89 344.744 419.84 344.644 419.751C340.514 415.844 335.047 417.615 334.988 417.639C334.851 417.684 334.702 417.673 334.573 417.608C334.445 417.543 334.347 417.43 334.302 417.293C334.257 417.156 334.268 417.007 334.333 416.878C334.398 416.749 334.511 416.651 334.648 416.606C336.487 416.035 338.444 415.952 340.325 416.363C342.207 416.774 343.95 417.667 345.384 418.953C345.482 419.056 345.537 419.192 345.537 419.334C345.537 419.476 345.482 419.613 345.384 419.716C345.285 419.819 345.151 419.882 345.008 419.892Z" fill="#FAFAFA"/>
<path d="M226.293 57.3866C225.177 52.6522 224.392 47.8456 223.946 43.0019C223.665 37.3348 222.022 35.3519 218.561 38.1913C215.099 41.0307 207.215 49.2673 207.684 55.6853C208.068 62.7971 210.331 69.6798 214.243 75.6315L224.333 78.6821L228.37 70.3986L226.293 57.3866Z" fill="#945959"/>
<path d="M270.034 108.684L249.818 104.213C249.818 104.213 241.206 90.2626 236.219 82.906C231.233 75.5494 228.405 70.4572 228.405 70.4572L219.019 67.6061L214.231 75.6902C214.231 75.6902 229.965 114.796 237.263 121.449C240.936 124.758 264.66 132.103 264.66 132.103C264.66 132.103 274.622 121.59 270.034 108.684Z" fill="#945959"/>
<path d="M295.518 114.175L270.034 108.684C269.688 116.733 267.883 124.652 264.707 132.056L290.309 139.987L295.518 114.175Z" fill="#006D8F"/>
<path opacity="0.3" d="M295.518 114.175L270.034 108.684C269.688 116.733 267.883 124.652 264.707 132.056L290.309 139.987L295.518 114.175Z" fill="white"/>
<path d="M330.869 117.237L342.72 120.968L349.22 156.027L345.372 173.028C344.844 175.337 344.745 177.723 345.078 180.068L349.22 209.213C349.22 209.213 337.487 216.698 315.91 216.698C294.333 216.698 281.813 207.746 281.813 207.746L283.444 141.595C284.053 131.303 288.337 121.573 295.518 114.175L310.219 115.876L330.869 117.237Z" fill="#006D8F"/>
<path d="M293.511 61.587C293.511 61.587 282.189 71.5249 292.033 93.677L303.543 63.7225L293.511 61.587Z" fill="#263238"/>
<path d="M330.87 117.237L316.603 121.825L310.22 115.876V89.1364H330.87V117.237Z" fill="#945959"/>
<path d="M310.22 114.175C317.189 114.175 327.819 107.968 327.819 103.615L330.166 89.1011H310.22V114.175Z" fill="#703838"/>
<path d="M315.711 55.5093C308.765 55.5093 293.993 59.3812 292.245 77.5557C290.496 95.7302 293.207 111.206 301.572 111.206C317.999 111.206 333.792 109.118 333.921 82.2255C334.061 58.4425 322.493 55.5093 315.711 55.5093Z" fill="#945959"/>
<path d="M330.87 98.1003L328.195 89.8872C327.994 90.0563 327.749 90.1648 327.489 90.2001C327.229 90.2354 326.964 90.196 326.726 90.0866C326.487 89.9771 326.285 89.8021 326.142 89.5819C325.999 89.3617 325.921 89.1054 325.919 88.843V74.1766C325.919 74.1766 319.09 72.2407 319.817 66.4915C319.817 66.4915 316.297 69.6242 302.91 69.6242C289.523 69.6242 286.249 58.2548 287.587 51.9894C287.587 51.9894 290.074 54.5589 297.161 54.5589C304.248 54.5589 333.756 45.6535 334.519 63.4761C334.519 63.4761 337.006 59.8271 341.031 63.4761L335.856 66.5501C335.856 66.5501 341.993 66.3624 341.031 75.3617C340.409 81.2282 338.238 91.6589 336.83 98.0534C336.044 101.626 333.909 104.758 330.87 106.795V98.1003Z" fill="#263238"/>
<path d="M305.549 82.9647V94.6391L298.709 92.5389L305.549 82.9647Z" fill="#703838"/>
<path d="M316.414 84.842C316.412 85.2732 316.282 85.6939 316.041 86.0513C315.8 86.4086 315.458 86.6865 315.059 86.8499C314.66 87.0133 314.222 87.0548 313.799 86.9693C313.377 86.8838 312.989 86.675 312.685 86.3693C312.381 86.0636 312.174 85.6748 312.091 85.2518C312.008 84.8287 312.052 84.3906 312.217 83.9925C312.383 83.5944 312.662 83.2542 313.021 83.0149C313.38 82.7757 313.801 82.648 314.232 82.6479C314.52 82.6479 314.804 82.7048 315.07 82.8152C315.336 82.9256 315.577 83.0874 315.779 83.2913C315.982 83.4952 316.143 83.7372 316.252 84.0033C316.361 84.2694 316.416 84.5545 316.414 84.842Z" fill="#263238"/>
<path d="M300.071 83.2932C300.071 83.7248 299.943 84.1468 299.703 84.5056C299.463 84.8645 299.122 85.1442 298.724 85.3094C298.325 85.4746 297.886 85.5178 297.463 85.4336C297.039 85.3494 296.65 85.1416 296.345 84.8363C296.04 84.5311 295.832 84.1423 295.748 83.7189C295.664 83.2956 295.707 82.8568 295.872 82.458C296.037 82.0593 296.317 81.7184 296.676 81.4786C297.035 81.2388 297.457 81.1108 297.888 81.1108C298.467 81.1108 299.022 81.3408 299.432 81.75C299.841 82.1593 300.071 82.7144 300.071 83.2932Z" fill="#263238"/>
<path d="M295.225 78.7409L299.495 76.2065C299.495 76.2065 297.853 74.5052 296.222 75.526C294.591 76.5468 295.225 78.7409 295.225 78.7409Z" fill="#263238"/>
<path d="M318.679 80.3247L314.396 77.8021C314.396 77.8021 316.039 76.1008 317.67 77.1216C319.301 78.1424 318.679 80.3247 318.679 80.3247Z" fill="#263238"/>
<path d="M306.102 100.247C306.102 100.247 309.27 98.2176 312.32 95.9297C312.32 95.9297 314.092 99.3792 311.299 101.163C308.507 102.946 306.102 100.247 306.102 100.247Z" fill="#703838"/>
<path d="M328.007 90.0046L335.563 81.8149L330.131 78.5531L328.007 90.0046Z" fill="#253239"/>
<path d="M329.251 86.8131C326.775 91.1074 327.421 96.3169 330.87 98.1003C333.088 99.2736 339.635 96.7745 342.11 92.4802C344.586 88.1859 343.202 84.5134 339.834 82.5774C336.467 80.6415 331.727 82.4953 329.251 86.8131Z" fill="#945959"/>
<path d="M310.22 115.876L307.404 120.346C306.861 121.206 306.505 122.171 306.359 123.178C306.214 124.185 306.283 125.211 306.56 126.19C306.838 127.169 307.319 128.078 307.972 128.858C308.625 129.638 309.435 130.272 310.349 130.718C312.011 131.527 313.823 131.979 315.669 132.046C317.516 132.113 319.356 131.793 321.072 131.107C322.788 130.421 324.341 129.383 325.632 128.062C326.924 126.74 327.924 125.163 328.571 123.432L330.917 117.237L320.592 113.541L310.22 115.876Z" fill="#945959"/>
<path d="M228.405 70.4572C228.405 70.4572 231.854 65.2008 231.795 60.2142C231.737 55.2277 232.359 52.9163 233.215 51.7195C234.072 50.5227 233.11 48.7745 230.81 49.3729C228.862 49.9009 226.457 52.8928 225.929 55.6501C225.852 56.0887 225.678 56.5047 225.42 56.868C225.163 57.2312 224.827 57.5326 224.439 57.7503C222.01 59.0527 217.481 62.7838 219.628 71.83L228.405 70.4572Z" fill="#945959"/>
<path d="M219.183 65.6701C219.076 65.6528 218.98 65.5937 218.916 65.5057C218.852 65.4178 218.826 65.3081 218.843 65.2008C219.068 63.5683 219.676 62.012 220.615 60.6584C221.555 59.3047 222.801 58.1918 224.252 57.41C224.591 57.228 224.884 56.9703 225.108 56.657C225.332 56.3437 225.48 55.9831 225.542 55.6031C225.565 55.4978 225.628 55.4055 225.718 55.3463C225.808 55.287 225.918 55.2655 226.024 55.2863C226.075 55.2962 226.124 55.3162 226.168 55.3451C226.212 55.3741 226.25 55.4114 226.28 55.4551C226.309 55.4987 226.33 55.5477 226.34 55.5993C226.35 55.6509 226.351 55.704 226.34 55.7557C226.251 56.2494 226.052 56.7167 225.757 57.1229C225.463 57.5291 225.08 57.8638 224.639 58.1023C223.297 58.8242 222.145 59.8531 221.276 61.1051C220.408 62.3571 219.847 63.7966 219.641 65.3064C219.637 65.3611 219.621 65.4143 219.595 65.4628C219.57 65.5112 219.534 65.5538 219.491 65.588C219.448 65.6221 219.399 65.647 219.346 65.6612C219.293 65.6753 219.237 65.6783 219.183 65.6701Z" fill="#703838"/>
<path d="M344.457 164.193L349.667 175.175L376.406 185.758L365.624 153.082L344.457 164.193Z" fill="#945959"/>
<path d="M341.136 120.475C341.136 120.475 332.219 129.639 336.08 142.557C338.252 149.994 341.054 157.232 344.457 164.193C344.457 164.193 359.487 164.639 365.576 153.082L357.915 133.745C356.706 130.705 354.804 127.99 352.359 125.816C349.915 123.643 346.996 122.071 343.835 121.226L341.136 120.475Z" fill="#006D8F"/>
<path opacity="0.3" d="M341.136 120.475C341.136 120.475 332.219 129.639 336.08 142.557C338.252 149.994 341.054 157.232 344.457 164.193C344.457 164.193 359.487 164.639 365.576 153.082L357.915 133.745C356.706 130.705 354.804 127.99 352.359 125.816C349.915 123.643 346.996 122.071 343.835 121.226L341.136 120.475Z" fill="white"/>
<path d="M348.164 173.133C354.923 175.116 374.845 181.018 374.845 181.018C374.845 181.018 374.998 181.452 376.406 185.711C378.565 192.34 371.713 208.379 347.449 196.74C323.185 185.101 314.326 178.871 314.326 178.871L316.966 164.146C316.966 164.146 340.456 170.869 348.164 173.133Z" fill="#945959"/>
<path d="M348.88 173.474L361.446 177.099L347.378 170.306L348.88 173.474Z" fill="#703838"/>
<path d="M313.211 185.523L297.442 183.846C296.877 183.788 296.343 183.56 295.911 183.191C295.479 182.822 295.17 182.33 295.025 181.781L286.413 149.374C286.354 149.152 286.347 148.92 286.395 148.695C286.442 148.471 286.542 148.261 286.686 148.082C286.831 147.904 287.015 147.762 287.224 147.668C287.434 147.575 287.662 147.532 287.891 147.543L303.144 148.259C303.712 148.282 304.256 148.486 304.7 148.841C305.143 149.195 305.461 149.682 305.608 150.23L314.784 183.705C314.842 183.934 314.843 184.173 314.789 184.402C314.735 184.632 314.626 184.845 314.471 185.024C314.317 185.202 314.122 185.341 313.903 185.428C313.683 185.515 313.446 185.548 313.211 185.523Z" fill="#37474F"/>
<path d="M292.573 152.295C292.573 152.565 292.493 152.829 292.342 153.053C292.192 153.277 291.979 153.451 291.73 153.554C291.48 153.657 291.206 153.683 290.942 153.629C290.677 153.576 290.435 153.445 290.245 153.254C290.055 153.062 289.927 152.818 289.875 152.554C289.824 152.289 289.853 152.015 289.958 151.766C290.062 151.518 290.239 151.306 290.464 151.158C290.689 151.01 290.954 150.932 291.223 150.934C291.582 150.937 291.925 151.082 292.178 151.337C292.431 151.592 292.573 151.936 292.573 152.295Z" fill="#263238"/>
<path d="M316.966 164.193C316.966 164.193 312.402 156.261 306.735 154.337L308.999 163.055C308.999 163.055 304.693 163.395 299.824 163.395C294.955 163.395 289.628 160.11 288.091 159.265C286.554 158.42 285.122 164.31 291.247 175.41C297.372 186.509 314.373 178.929 314.373 178.929L316.966 164.193Z" fill="#945959"/>
<path d="M385.863 4.62295L394.358 9.45697V6.45331C394.358 6.24211 394.358 6.01919 394.358 5.81973C394.358 5.62026 394.358 5.40907 394.358 5.20961V5.13921C394.663 1.14996 397.678 -0.375337 401.398 1.74835C403.065 2.77626 404.493 4.14835 405.586 5.77279C406.42 0.363847 410.831 -1.59558 416.146 1.49022C422.06 4.90454 426.859 13.2702 426.859 20.0754V26.5169C426.863 27.0271 426.999 27.5277 427.254 27.9697C427.509 28.4117 427.874 28.7803 428.313 29.0395L433.3 31.961C434.376 32.6027 435.267 33.5136 435.884 34.604C436.501 35.6943 436.824 36.9266 436.82 38.1795C436.817 38.7 436.677 39.2105 436.416 39.6604C436.154 40.1102 435.779 40.4836 435.328 40.7435C434.877 41.0034 434.366 41.1407 433.845 41.1416C433.325 41.1426 432.813 41.0073 432.361 40.7491L385.992 13.9273C384.758 13.2134 383.734 12.1867 383.023 10.9507C382.313 9.7147 381.941 8.31317 381.944 6.88743C381.949 6.4305 382.072 5.98259 382.302 5.5879C382.533 5.19321 382.862 4.86538 383.257 4.63676C383.653 4.40814 384.102 4.28662 384.559 4.2842C385.015 4.28177 385.465 4.39853 385.863 4.62295Z" fill="#E6E6E6"/>
<path d="M422.681 58.6538L428.958 62.1737V60.0031C428.958 59.8388 428.958 59.6863 428.958 59.5338C428.958 59.3812 428.958 59.2287 428.958 59.0762C429.181 56.1312 431.411 55.0048 434.133 56.577C435.367 57.3316 436.424 58.3442 437.23 59.5455C437.84 55.5445 441.102 54.1013 445.056 56.3776C447.363 57.8881 449.283 59.9195 450.66 62.3081C452.038 64.6967 452.835 67.3755 452.988 70.1287V74.8923C452.988 75.2692 453.087 75.6395 453.275 75.9666C453.462 76.2937 453.731 76.5664 454.056 76.7579L457.751 78.9168C458.552 79.3885 459.215 80.0608 459.676 80.8675C460.137 81.6741 460.38 82.5871 460.38 83.5162C460.379 83.9005 460.278 84.278 460.085 84.6108C459.893 84.9436 459.617 85.2201 459.284 85.4125C458.952 85.605 458.574 85.7067 458.19 85.7075C457.806 85.7083 457.428 85.608 457.094 85.4169L422.775 65.5294C421.871 64.9994 421.123 64.2415 420.604 63.3314C420.085 62.4213 419.814 61.3909 419.818 60.3433C419.82 60.0084 419.909 59.6796 420.076 59.3891C420.243 59.0986 420.482 58.8564 420.77 58.6861C421.059 58.5159 421.387 58.4234 421.722 58.4177C422.057 58.412 422.387 58.4934 422.681 58.6538Z" fill="#E6E6E6"/>
</svg>
