<svg width="825" height="876" viewBox="0 0 825 876" fill="none" xmlns="http://www.w3.org/2000/svg">
<rect width="825" height="876" rx="24" fill="#EFF0F2"/>
<path d="M389.574 580.981H63.2316C60.6735 580.977 58.2214 580.048 56.4126 578.397C54.6037 576.747 53.5855 574.51 53.5811 572.175V153.588C53.6077 151.267 54.6357 149.05 56.4422 147.416C58.2486 145.782 60.688 144.863 63.2316 144.859H389.574C392.13 144.863 394.581 145.793 396.387 147.444C398.193 149.095 399.207 151.332 399.207 153.665V572.175C399.207 574.508 398.193 576.746 396.387 578.397C394.581 580.047 392.13 580.977 389.574 580.981ZM63.2316 145.168C60.7855 145.172 58.4409 146.06 56.7113 147.639C54.9817 149.217 54.008 151.356 54.0036 153.588V572.175C54.008 574.407 54.9817 576.547 56.7113 578.125C58.4409 579.703 60.7855 580.592 63.2316 580.596H389.574C392.018 580.592 394.361 579.703 396.088 578.124C397.815 576.545 398.785 574.406 398.785 572.175V153.588C398.785 151.357 397.815 149.218 396.088 147.639C394.361 146.061 392.018 145.172 389.574 145.168H63.2316Z" fill="#C3DFFB"/>
<path d="M755.143 580.981H428.784C426.228 580.977 423.777 580.047 421.971 578.397C420.165 576.746 419.151 574.508 419.151 572.175V153.588C419.173 151.269 420.197 149.051 422.001 147.417C423.805 145.782 426.242 144.863 428.784 144.859H755.143C757.685 144.863 760.123 145.782 761.927 147.417C763.73 149.051 764.755 151.269 764.777 153.588V572.175C764.777 574.508 763.763 576.746 761.956 578.397C760.15 580.047 757.7 580.977 755.143 580.981ZM428.784 145.168C426.34 145.172 423.997 146.061 422.27 147.639C420.543 149.218 419.573 151.357 419.573 153.588V572.175C419.573 574.406 420.543 576.545 422.27 578.124C423.997 579.703 426.34 580.592 428.784 580.596H755.143C757.591 580.592 759.937 579.704 761.67 578.126C763.402 576.548 764.379 574.409 764.388 572.175V153.588C764.379 151.355 763.402 149.215 761.67 147.638C759.937 146.06 757.591 145.172 755.143 145.168H428.784Z" fill="#C3DFFB"/>
<path d="M337.772 358.803L335.457 540.068C327.277 600.381 210.102 648.265 210.102 648.265C210.102 648.265 92.9098 600.428 84.6789 540.068L82.2959 358.803L207.533 321.189L337.772 358.803Z" fill="#CAD5E1" fill-opacity="0.43"/>
<path d="M321.429 370.276L319.418 533.035C312.285 585.638 210.085 627.4 210.085 627.4C210.085 627.4 107.884 585.638 100.769 533.035L98.6223 370.276L207.854 337.475L321.429 370.276Z" fill="#DBDBDB"/>
<path d="M314.263 380.547L312.37 529.967C305.609 579.316 209.865 618.425 209.865 618.425C209.865 618.425 114.053 579.269 107.377 529.967L105.366 380.547L207.769 349.796L314.263 380.547Z" stroke="white" stroke-width="3" stroke-linecap="round" stroke-linejoin="round"/>
<path d="M730.84 297.625H505.414V658.551H730.84V297.625Z" fill="#CAD5E1" fill-opacity="0.43"/>
<path d="M714.496 311.813H522.078V658.551H714.496V311.813Z" fill="#DBDBDB"/>
<path d="M527.486 660.094C527.149 660.095 526.815 660.032 526.506 659.909C526.201 659.798 525.924 659.63 525.695 659.415C525.449 659.205 525.259 658.946 525.137 658.659C525.015 658.38 524.952 658.081 524.951 657.78C524.952 657.439 525.035 657.102 525.195 656.793C525.355 656.484 525.588 656.212 525.877 655.995C526.167 655.779 526.505 655.623 526.868 655.54C527.231 655.456 527.609 655.447 527.976 655.513L528.45 655.637L528.889 655.853C529.026 655.942 529.156 656.04 529.278 656.146C529.398 656.25 529.5 656.369 529.582 656.5C529.681 656.623 529.76 656.758 529.819 656.901C529.887 657.04 529.938 657.184 529.971 657.333C529.988 657.482 529.988 657.632 529.971 657.78C529.972 658.083 529.903 658.383 529.768 658.659C529.647 658.943 529.463 659.2 529.227 659.415C528.763 659.835 528.14 660.078 527.486 660.094Z" fill="white"/>
<path d="M524.917 600.967C524.92 600.662 524.988 600.361 525.118 600.08C525.249 599.799 525.439 599.544 525.678 599.331C525.917 599.117 526.199 598.949 526.51 598.835C526.82 598.722 527.152 598.666 527.486 598.67C528.159 598.67 528.804 598.913 529.279 599.347C529.754 599.781 530.022 600.369 530.022 600.983C530.022 601.596 529.754 602.185 529.279 602.619C528.804 603.052 528.159 603.296 527.486 603.296C527.149 603.3 526.814 603.243 526.502 603.128C526.189 603.012 525.905 602.841 525.666 602.624C525.427 602.407 525.237 602.149 525.109 601.865C524.98 601.58 524.915 601.275 524.917 600.967ZM524.917 544.17C524.917 543.556 525.184 542.968 525.66 542.534C526.135 542.1 526.78 541.857 527.453 541.857C528.125 541.857 528.77 542.1 529.245 542.534C529.721 542.968 529.988 543.556 529.988 544.17C529.988 544.783 529.721 545.372 529.245 545.806C528.77 546.239 528.125 546.483 527.453 546.483C526.78 546.483 526.135 546.239 525.66 545.806C525.184 545.372 524.917 544.783 524.917 544.17ZM524.917 487.357C524.917 486.743 525.184 486.155 525.66 485.721C526.135 485.287 526.78 485.044 527.453 485.044C528.125 485.044 528.77 485.287 529.245 485.721C529.721 486.155 529.988 486.743 529.988 487.357C529.988 487.97 529.721 488.559 529.245 488.992C528.77 489.426 528.125 489.67 527.453 489.67C527.12 489.67 526.79 489.61 526.482 489.494C526.175 489.378 525.895 489.207 525.66 488.992C525.425 488.778 525.238 488.523 525.11 488.242C524.983 487.961 524.917 487.661 524.917 487.357ZM524.917 430.544C524.917 429.93 525.184 429.342 525.66 428.908C526.135 428.474 526.78 428.23 527.453 428.23C528.125 428.23 528.77 428.474 529.245 428.908C529.721 429.342 529.988 429.93 529.988 430.544C529.988 431.157 529.721 431.746 529.245 432.179C528.77 432.613 528.125 432.857 527.453 432.857C526.786 432.857 526.146 432.618 525.672 432.19C525.197 431.763 524.926 431.183 524.917 430.575V430.544ZM524.917 373.746C524.917 373.133 525.184 372.544 525.66 372.11C526.135 371.677 526.78 371.433 527.453 371.433C528.125 371.433 528.77 371.677 529.245 372.11C529.721 372.544 529.988 373.133 529.988 373.746C529.988 374.36 529.721 374.948 529.245 375.382C528.77 375.816 528.125 376.059 527.453 376.059C527.12 376.059 526.79 375.999 526.482 375.883C526.175 375.767 525.895 375.597 525.66 375.382C525.425 375.167 525.238 374.912 525.11 374.631C524.983 374.351 524.917 374.05 524.917 373.746Z" fill="white"/>
<path d="M527.486 319.246C527.153 319.248 526.823 319.188 526.516 319.072C526.208 318.955 525.929 318.784 525.695 318.568C525.57 318.464 525.462 318.344 525.374 318.213C525.285 318.09 525.206 317.961 525.137 317.827C525.068 317.685 525.022 317.535 525.002 317.38C524.984 317.232 524.984 317.082 525.002 316.933C525.006 316.32 525.273 315.734 525.746 315.298C525.858 315.189 525.982 315.091 526.117 315.005C526.255 314.923 526.402 314.856 526.557 314.805C526.709 314.745 526.868 314.698 527.03 314.666C527.359 314.605 527.698 314.605 528.027 314.666C528.189 314.698 528.348 314.745 528.5 314.805C528.655 314.856 528.802 314.923 528.94 315.005C529.077 315.094 529.207 315.192 529.329 315.298C529.801 315.734 530.068 316.32 530.072 316.933C530.09 317.082 530.09 317.232 530.072 317.38C530.037 317.533 529.986 317.683 529.92 317.827C529.858 317.964 529.779 318.093 529.683 318.213C529.602 318.344 529.499 318.464 529.379 318.568C529.131 318.792 528.835 318.968 528.51 319.085C528.184 319.202 527.836 319.257 527.486 319.246Z" fill="white"/>
<path d="M645.591 316.933C645.591 316.32 645.858 315.731 646.333 315.297C646.809 314.864 647.454 314.62 648.126 314.62C648.798 314.62 649.443 314.864 649.919 315.297C650.394 315.731 650.661 316.32 650.661 316.933C650.661 317.547 650.394 318.135 649.919 318.569C649.443 319.003 648.798 319.246 648.126 319.246C647.454 319.246 646.809 319.003 646.333 318.569C645.858 318.135 645.591 317.547 645.591 316.933ZM585.254 316.933C585.254 316.32 585.521 315.731 585.997 315.297C586.472 314.864 587.117 314.62 587.789 314.62C588.462 314.62 589.107 314.864 589.582 315.297C590.057 315.731 590.324 316.32 590.324 316.933C590.324 317.547 590.057 318.135 589.582 318.569C589.107 319.003 588.462 319.246 587.789 319.246C587.117 319.246 586.472 319.003 585.997 318.569C585.521 318.135 585.254 317.547 585.254 316.933Z" fill="white"/>
<path d="M708.463 319.246C708.3 319.261 708.136 319.261 707.973 319.246L707.499 319.123L707.06 318.907C706.923 318.818 706.793 318.72 706.671 318.614C706.196 318.181 705.928 317.593 705.928 316.979C705.932 316.367 706.199 315.78 706.671 315.345C706.789 315.239 706.919 315.146 707.06 315.067C707.193 314.974 707.341 314.902 707.499 314.851C707.651 314.789 707.81 314.742 707.973 314.712C708.302 314.651 708.641 314.651 708.97 314.712L709.443 314.851C709.596 314.902 709.738 314.975 709.866 315.067C710.009 315.142 710.14 315.235 710.254 315.345C710.727 315.78 710.994 316.367 710.998 316.979C710.997 317.593 710.73 318.181 710.254 318.614C710.136 318.724 710.006 318.822 709.866 318.907C709.731 318.988 709.589 319.06 709.443 319.123L708.97 319.246C708.801 319.261 708.631 319.261 708.463 319.246Z" fill="white"/>
<path d="M705.928 600.967C705.928 600.354 706.195 599.766 706.67 599.332C707.146 598.898 707.79 598.654 708.463 598.654C709.135 598.654 709.78 598.898 710.255 599.332C710.731 599.766 710.998 600.354 710.998 600.967C710.998 601.581 710.731 602.169 710.255 602.603C709.78 603.037 709.135 603.281 708.463 603.281C707.79 603.281 707.146 603.037 706.67 602.603C706.195 602.169 705.928 601.581 705.928 600.967ZM705.928 544.17C705.928 543.556 706.195 542.968 706.67 542.534C707.146 542.1 707.79 541.857 708.463 541.857C709.135 541.857 709.78 542.1 710.255 542.534C710.731 542.968 710.998 543.556 710.998 544.17C710.998 544.783 710.731 545.372 710.255 545.806C709.78 546.239 709.135 546.483 708.463 546.483C707.79 546.483 707.146 546.239 706.67 545.806C706.195 545.372 705.928 544.783 705.928 544.17ZM705.928 487.357C705.928 486.743 706.195 486.155 706.67 485.721C707.146 485.287 707.79 485.044 708.463 485.044C709.135 485.044 709.78 485.287 710.255 485.721C710.731 486.155 710.998 486.743 710.998 487.357C710.998 487.97 710.731 488.559 710.255 488.992C709.78 489.426 709.135 489.67 708.463 489.67C708.13 489.67 707.8 489.61 707.493 489.494C707.185 489.378 706.906 489.207 706.67 488.992C706.435 488.778 706.248 488.523 706.121 488.242C705.993 487.961 705.928 487.661 705.928 487.357ZM705.928 430.544C705.928 429.93 706.195 429.342 706.67 428.908C707.146 428.474 707.79 428.23 708.463 428.23C709.135 428.23 709.78 428.474 710.255 428.908C710.731 429.342 710.998 429.93 710.998 430.544C710.998 431.157 710.731 431.746 710.255 432.179C709.78 432.613 709.135 432.857 708.463 432.857C707.796 432.857 707.156 432.618 706.682 432.19C706.207 431.763 705.936 431.183 705.928 430.575V430.544ZM705.928 373.746C705.928 373.133 706.195 372.544 706.67 372.11C707.146 371.677 707.79 371.433 708.463 371.433C709.135 371.433 709.78 371.677 710.255 372.11C710.731 372.544 710.998 373.133 710.998 373.746C710.998 374.36 710.731 374.948 710.255 375.382C709.78 375.816 709.135 376.059 708.463 376.059C708.13 376.059 707.8 375.999 707.493 375.883C707.185 375.767 706.906 375.597 706.67 375.382C706.435 375.167 706.248 374.912 706.121 374.631C705.993 374.351 705.928 374.05 705.928 373.746Z" fill="white"/>
<path d="M708.463 660.094C707.962 660.093 707.472 659.957 707.055 659.703C706.639 659.449 706.314 659.088 706.123 658.665C705.931 658.243 705.881 657.778 705.978 657.33C706.076 656.881 706.317 656.469 706.671 656.146C706.793 656.04 706.923 655.942 707.06 655.853L707.499 655.637L707.973 655.513C708.302 655.452 708.641 655.452 708.97 655.513L709.443 655.637C709.589 655.699 709.731 655.772 709.866 655.853C710.006 655.938 710.136 656.036 710.254 656.146C710.73 656.579 710.997 657.167 710.998 657.78C711.001 658.085 710.937 658.386 710.809 658.667C710.682 658.948 710.493 659.203 710.254 659.415C709.779 659.849 709.135 660.093 708.463 660.094Z" fill="white"/>
<path d="M147.213 659.137H77.5636V659.523H147.213V659.137Z" fill="#DBDBDB"/>
<path d="M289.182 656.053H219.33V656.439H289.182V656.053Z" fill="#DBDBDB"/>
<path d="M380.075 656.053H363.174V656.439H380.075V656.053Z" fill="#DBDBDB"/>
<path d="M211.15 669.223H132.982V669.609H211.15V669.223Z" fill="#DBDBDB"/>
<path d="M481.515 658.937H445.009V659.323H481.515V658.937Z" fill="#DBDBDB"/>
<path d="M543.762 658.937H496.557V659.323H543.762V658.937Z" fill="#DBDBDB"/>
<path d="M771.419 665.46H665.889V665.846H771.419V665.46Z" fill="#DBDBDB"/>
<path d="M381.14 189.458H303.277L307.536 145.183H385.382L381.14 189.458Z" fill="#EBEBEB"/>
<path d="M382.712 139.169L380.582 162.286L378.453 190.075H303.581L307.84 139.169H382.712Z" fill="#BDCAD2"/>
<path d="M375.563 145.183L379.805 189.458H301.959L297.7 145.183H304.325L306.623 141.852H327.598L330.606 145.183H375.563Z" fill="#DBDBDB"/>
<path d="M501.814 199.344H418.965V274.94H501.814V199.344Z" fill="#EBEBEB"/>
<path d="M503.926 199.344H501.814V274.94H503.926V199.344Z" fill="#DBDBDB"/>
<path d="M427.246 206.345H426.621V267.97H427.246V206.345Z" fill="#DBDBDB"/>
<path d="M461.015 246.056C468.286 246.056 474.18 239.206 474.18 230.757C474.18 222.308 468.286 215.459 461.015 215.459C453.743 215.459 447.849 222.308 447.849 230.757C447.849 239.206 453.743 246.056 461.015 246.056Z" fill="#DBDBDB"/>
<path d="M454.136 253.797H468.012V241.136H454.136V253.797Z" fill="#DBDBDB"/>
<path d="M486.028 267.969H435.19V263.651C435.19 259.709 436.906 255.927 439.962 253.139C443.017 250.351 447.161 248.785 451.482 248.785H469.803C474.124 248.785 478.268 250.351 481.324 253.139C484.379 255.927 486.096 259.709 486.096 263.651V267.969H486.028Z" fill="#DBDBDB"/>
<path d="M433.922 242.247C433.922 244.76 438.992 246.873 438.992 246.873C438.992 246.873 444.063 244.822 444.063 242.247C444.063 241.044 442.237 240.365 441.037 240.704C440.578 240.851 440.154 241.079 439.792 241.375C439.429 241.671 439.134 242.031 438.925 242.432C438.278 241.636 437.424 241 436.44 240.581C436.152 240.489 435.843 240.462 435.541 240.502C435.238 240.542 434.951 240.649 434.704 240.813C434.456 240.976 434.256 241.192 434.12 241.442C433.984 241.692 433.916 241.968 433.922 242.247Z" fill="#DBDBDB"/>
<path d="M478.913 231.004C478.913 234.32 485.487 237.003 485.487 237.003C485.487 237.003 492.062 234.32 492.062 231.004C492.062 229.462 489.628 228.552 488.09 228.953C486.93 229.376 485.996 230.194 485.487 231.235C484.63 230.196 483.511 229.361 482.225 228.799C481.845 228.676 481.437 228.639 481.037 228.692C480.637 228.746 480.258 228.887 479.932 229.104C479.605 229.322 479.342 229.608 479.165 229.939C478.987 230.27 478.901 230.636 478.913 231.004Z" fill="#DBDBDB"/>
<path d="M334.324 608.416C335.102 612.873 338.634 616.713 338.905 621.216C339.124 624.747 337.316 628.063 336.42 631.502C335.524 634.941 335.964 639.213 339.259 641.033C340.459 641.588 341.798 641.843 343.141 641.77C344.484 641.697 345.781 641.298 346.899 640.616C349.106 639.222 350.928 637.38 352.223 635.234C357.407 627.588 360.238 618.809 360.42 609.819C360.42 606.041 359.997 602.031 357.563 599.024C350.025 589.417 332.398 597.312 334.324 608.416Z" fill="#CAD5E1" fill-opacity="0.43"/>
<path d="M328.054 596.618C328.781 597.343 329.729 597.853 330.775 598.084C331.408 598.271 332.083 598.309 332.737 598.193C333.39 598.077 334.001 597.811 334.51 597.42C334.898 596.965 335.175 596.439 335.321 595.877C335.466 595.316 335.478 594.732 335.355 594.166C335.252 592.746 334.72 591.38 333.817 590.219C333.364 589.646 332.763 589.185 332.067 588.875C331.371 588.566 330.602 588.418 329.829 588.445C329.057 588.503 328.33 588.801 327.77 589.29C327.21 589.778 326.851 590.427 326.753 591.128C326.565 593.037 327.019 594.952 328.054 596.618Z" fill="#CAD5E1" fill-opacity="0.43"/>
<path d="M342.099 587.35C341.753 586.862 341.258 586.478 340.675 586.245C340.092 586.012 339.447 585.94 338.82 586.039C338.2 586.166 337.635 586.46 337.201 586.884C336.767 587.308 336.483 587.841 336.386 588.414C336.359 588.789 336.359 589.165 336.386 589.54C336.392 590.147 336.466 590.751 336.606 591.344C336.747 591.916 337.044 592.447 337.468 592.887C338.048 593.401 338.784 593.745 339.581 593.874C340.073 593.981 340.587 593.978 341.079 593.866C341.57 593.753 342.025 593.533 342.403 593.226C342.739 592.852 342.99 592.421 343.141 591.958C343.292 591.494 343.34 591.008 343.282 590.527C343.243 589.384 342.831 588.278 342.099 587.35Z" fill="#CAD5E1" fill-opacity="0.43"/>
<path d="M349.924 586.965C349.647 586.499 349.196 586.14 348.653 585.953C348.11 585.767 347.511 585.764 346.966 585.947C346.435 586.149 345.965 586.467 345.6 586.873C345.235 587.279 344.984 587.76 344.871 588.276C344.871 588.615 344.769 588.954 344.752 589.293C344.742 589.854 344.81 590.414 344.955 590.959C345.076 591.496 345.385 591.983 345.834 592.347C346.313 592.713 346.902 592.938 347.524 592.995C347.929 593.04 348.34 593.004 348.728 592.889C349.116 592.775 349.473 592.584 349.772 592.331C350.429 591.65 350.789 590.772 350.786 589.864C350.86 588.837 350.557 587.817 349.924 586.965Z" fill="#CAD5E1" fill-opacity="0.43"/>
<path d="M356.904 588.445C356.076 587.319 355.214 587.242 354.268 587.72C353.426 588.282 352.828 589.095 352.577 590.018C352.482 590.316 352.415 590.62 352.375 590.928C352.283 591.439 352.283 591.959 352.375 592.47C352.485 592.964 352.8 593.401 353.253 593.688C353.672 593.927 354.164 594.035 354.656 593.997C355.296 593.945 355.894 593.688 356.346 593.272C356.968 592.664 357.364 591.892 357.479 591.067C357.65 590.158 357.445 589.224 356.904 588.445Z" fill="#CAD5E1" fill-opacity="0.43"/>
<path d="M358.273 594.691C358.181 595.056 358.181 595.436 358.273 595.801C358.307 595.989 358.391 596.165 358.518 596.316C358.645 596.467 358.81 596.586 359 596.665C359.345 596.737 359.706 596.713 360.037 596.598C360.368 596.483 360.654 596.281 360.859 596.017C361.359 595.55 361.724 594.978 361.924 594.352C362.022 594.039 362.051 593.711 362.007 593.387C361.964 593.064 361.849 592.752 361.67 592.47C360.166 590.234 358.476 593.581 358.273 594.691Z" fill="#CAD5E1" fill-opacity="0.43"/>
<path d="M359.642 711.417C360.774 707.777 361.434 703.783 359.929 700.251C355.282 689.256 336.082 692.756 334.814 703.953L359.642 711.417Z" fill="#CAD5E1" fill-opacity="0.43"/>
<path d="M332.144 691.091C332.646 691.963 333.423 692.678 334.375 693.142C334.932 693.471 335.573 693.665 336.235 693.706C336.897 693.746 337.56 693.632 338.161 693.373C338.655 693.019 339.061 692.574 339.352 692.066C339.643 691.558 339.813 691 339.851 690.428C340.149 689.035 340.021 687.594 339.479 686.264C339.199 685.6 338.744 685.01 338.154 684.545C337.565 684.079 336.859 683.754 336.099 683.596C335.339 683.473 334.555 683.591 333.879 683.93C333.202 684.27 332.674 684.81 332.381 685.462C331.681 687.274 331.598 689.236 332.144 691.091Z" fill="#CAD5E1" fill-opacity="0.43"/>
<path d="M348.335 685.401C348.135 684.849 347.763 684.363 347.264 684.002C346.766 683.64 346.163 683.419 345.53 683.365C344.894 683.345 344.267 683.499 343.728 683.807C343.189 684.115 342.763 684.562 342.504 685.092C342.356 685.444 342.231 685.805 342.133 686.172C341.962 686.756 341.86 687.356 341.828 687.961C341.786 688.563 341.92 689.164 342.217 689.703C342.618 690.319 343.205 690.817 343.907 691.137C344.352 691.353 344.848 691.466 345.352 691.466C345.856 691.466 346.352 691.353 346.797 691.137C347.24 690.863 347.619 690.51 347.909 690.099C348.199 689.688 348.396 689.229 348.487 688.747C348.791 687.641 348.738 686.479 348.335 685.401Z" fill="#CAD5E1" fill-opacity="0.43"/>
<path d="M355.941 686.866C355.803 686.358 355.473 685.911 355.009 685.603C354.545 685.296 353.977 685.147 353.406 685.185C352.834 685.259 352.29 685.46 351.822 685.769C351.354 686.078 350.975 686.486 350.718 686.958C350.566 687.265 350.43 687.579 350.313 687.899C350.122 688.423 350.009 688.967 349.975 689.518C349.941 690.061 350.095 690.601 350.414 691.06C350.788 691.543 351.321 691.905 351.935 692.093C352.315 692.234 352.724 692.295 353.133 692.274C353.543 692.253 353.941 692.149 354.301 691.97C355.131 691.473 355.732 690.716 355.991 689.842C356.334 688.872 356.316 687.825 355.941 686.866Z" fill="#CAD5E1" fill-opacity="0.43"/>
<path d="M362.262 689.934C361.789 688.639 360.893 688.392 359.929 688.608C358.945 688.943 358.12 689.581 357.597 690.413C357.428 690.682 357.276 690.96 357.141 691.245C356.934 691.708 356.808 692.197 356.769 692.695C356.737 693.192 356.912 693.683 357.259 694.067C357.594 694.4 358.039 694.622 358.527 694.7C359.159 694.812 359.815 694.708 360.369 694.407C361.131 693.96 361.722 693.308 362.059 692.541C362.472 691.723 362.544 690.797 362.262 689.934Z" fill="#CAD5E1" fill-opacity="0.43"/>
<path d="M361.856 696.288C361.65 696.613 361.528 696.977 361.501 697.352C361.484 697.54 361.517 697.729 361.597 697.904C361.676 698.078 361.8 698.233 361.958 698.355C362.27 698.505 362.625 698.568 362.977 698.535C363.329 698.502 363.662 698.375 363.935 698.17C364.547 697.832 365.062 697.367 365.439 696.813C365.622 696.532 365.741 696.221 365.791 695.898C365.84 695.575 365.818 695.246 365.726 694.931C364.848 692.417 362.397 695.286 361.856 696.288Z" fill="#CAD5E1" fill-opacity="0.43"/>
<path d="M293.018 645.952C293.644 650.44 291.328 655.02 292.511 659.415C293.373 662.854 296.128 665.584 298.021 668.668C299.914 671.752 300.81 675.947 298.173 678.538C297.194 679.378 295.987 679.964 294.676 680.235C293.366 680.506 292 680.453 290.72 680.08C288.176 679.284 285.864 677.971 283.959 676.24C276.66 670.204 271.277 662.485 268.376 653.894C267.16 650.27 266.416 646.307 267.836 642.744C272.281 631.656 291.514 634.802 293.018 645.952Z" fill="#CAD5E1" fill-opacity="0.43"/>
<path d="M295.401 633.06C294.926 633.937 294.172 634.662 293.238 635.142C292.689 635.486 292.052 635.695 291.389 635.749C290.726 635.803 290.059 635.7 289.452 635.45C288.937 635.113 288.509 634.677 288.197 634.174C287.885 633.671 287.696 633.112 287.644 632.535C287.317 631.146 287.411 629.701 287.914 628.356C288.187 627.684 288.639 627.084 289.229 626.61C289.819 626.137 290.529 625.804 291.294 625.642C292.052 625.502 292.839 625.603 293.525 625.929C294.211 626.254 294.754 626.784 295.063 627.431C295.536 628.865 296.128 631.656 295.401 633.06Z" fill="#CAD5E1" fill-opacity="0.43"/>
<path d="M279.159 627.678C279.346 627.121 279.705 626.627 280.194 626.255C280.684 625.882 281.281 625.648 281.914 625.58C282.55 625.551 283.18 625.695 283.725 625.994C284.27 626.294 284.705 626.735 284.973 627.261C285.137 627.606 285.272 627.962 285.379 628.325C285.561 628.904 285.675 629.498 285.717 630.099C285.778 630.703 285.655 631.312 285.362 631.857C284.986 632.518 284.396 633.056 283.672 633.399C283.237 633.632 282.746 633.763 282.242 633.782C281.738 633.801 281.236 633.706 280.782 633.507C280.341 633.234 279.964 632.883 279.673 632.476C279.383 632.068 279.185 631.611 279.092 631.132C278.725 630.001 278.748 628.795 279.159 627.678Z" fill="#CAD5E1" fill-opacity="0.43"/>
<path d="M271.52 629.281C271.645 628.763 271.969 628.304 272.435 627.987C272.9 627.669 273.476 627.516 274.055 627.554C274.626 627.618 275.172 627.807 275.646 628.105C276.12 628.403 276.508 628.801 276.776 629.266C276.939 629.571 277.08 629.885 277.199 630.207C277.406 630.728 277.536 631.273 277.588 631.826C277.622 632.367 277.474 632.905 277.165 633.368C276.805 633.857 276.284 634.23 275.678 634.432C275.302 634.581 274.894 634.651 274.485 634.637C274.076 634.624 273.675 634.528 273.312 634.355C272.485 633.869 271.884 633.122 271.621 632.258C271.229 631.303 271.193 630.257 271.52 629.281Z" fill="#CAD5E1" fill-opacity="0.43"/>
<path d="M265.267 632.474C265.723 631.178 266.602 630.932 267.582 631.101C268.574 631.421 269.411 632.049 269.948 632.875C270.125 633.137 270.283 633.41 270.421 633.692C270.649 634.144 270.786 634.63 270.827 635.126C270.88 635.626 270.717 636.124 270.371 636.514C270.044 636.85 269.604 637.078 269.12 637.162C268.488 637.289 267.827 637.201 267.261 636.915C266.476 636.485 265.857 635.844 265.486 635.08C265.07 634.264 264.992 633.338 265.267 632.474Z" fill="#CAD5E1" fill-opacity="0.43"/>
<path d="M265.841 638.766C266.051 639.092 266.183 639.454 266.23 639.83C266.249 640.019 266.219 640.209 266.143 640.386C266.066 640.563 265.946 640.721 265.791 640.848C265.477 641 265.122 641.067 264.769 641.039C264.415 641.012 264.077 640.892 263.796 640.693C263.177 640.372 262.655 639.917 262.275 639.367C262.083 639.09 261.956 638.781 261.9 638.457C261.845 638.133 261.863 637.803 261.954 637.486C262.748 635.003 265.267 637.825 265.841 638.766Z" fill="#CAD5E1" fill-opacity="0.43"/>
<path d="M251.543 275.727C247.653 276.226 243.689 275.661 240.151 274.104C236.614 272.547 233.661 270.068 231.668 266.98C229.674 263.892 228.729 260.334 228.952 256.755C229.174 253.177 230.555 249.74 232.919 246.877C235.283 244.015 238.524 241.857 242.232 240.675C245.94 239.494 249.949 239.342 253.752 240.24C257.554 241.137 260.98 243.044 263.595 245.718C266.21 248.391 267.898 251.713 268.444 255.262C269.167 260.02 267.795 264.845 264.627 268.68C261.459 272.516 256.754 275.05 251.543 275.727ZM247.521 249.356C245.696 249.585 243.986 250.304 242.609 251.42C241.231 252.536 240.247 254 239.782 255.626C239.316 257.253 239.39 258.969 239.994 260.557C240.597 262.145 241.703 263.534 243.172 264.549C244.641 265.563 246.407 266.157 248.246 266.256C250.085 266.355 251.915 265.953 253.504 265.103C255.093 264.252 256.37 262.991 257.173 261.478C257.976 259.965 258.27 258.269 258.016 256.604C257.672 254.375 256.375 252.361 254.408 251.003C252.441 249.645 249.965 249.052 247.521 249.356Z" fill="#EDCEB0"/>
<path d="M244.098 203.728L236.633 204.679L243.34 248.499L250.805 247.547L244.098 203.728Z" fill="#EDCEB0"/>
<path d="M250.414 197.629L236.409 199.437L237.464 206.246L251.469 204.439L250.414 197.629Z" fill="#EDCEB0"/>
<path d="M251.565 206.893L238.391 208.57L239.432 215.382L252.606 213.705L251.565 206.893Z" fill="#EDCEB0"/>
<path d="M253.485 219.242L241.985 220.706L243.026 227.518L254.526 226.054L253.485 219.242Z" fill="#EDCEB0"/>
<path d="M409.179 736.831C590.16 736.831 736.873 729.016 736.873 719.374C736.873 709.733 590.16 701.917 409.179 701.917C228.198 701.917 81.4846 709.733 81.4846 719.374C81.4846 729.016 228.198 736.831 409.179 736.831Z" fill="#CAD5E1" fill-opacity="0.43"/>
<path d="M235.893 429.458C251.475 414.606 249.709 389.99 231.948 374.477C214.188 358.963 187.159 358.427 171.578 373.279C155.996 388.131 157.762 412.747 175.522 428.26C193.282 443.774 220.311 444.31 235.893 429.458Z" fill="#308CEA"/>
<g opacity="0.8">
<path d="M235.893 429.458C251.475 414.606 249.709 389.99 231.948 374.477C214.188 358.963 187.159 358.427 171.578 373.279C155.996 388.131 157.762 412.747 175.522 428.26C193.282 443.774 220.311 444.31 235.893 429.458Z" fill="white"/>
</g>
<path d="M183.871 376.969C183.517 376.969 183.171 376.867 182.883 376.678C182.595 376.489 182.38 376.222 182.268 375.915C182.156 375.608 182.152 375.276 182.258 374.967C182.364 374.658 182.573 374.387 182.857 374.193C188.548 370.466 195.408 368.519 202.412 368.641C202.86 368.641 203.29 368.804 203.607 369.093C203.924 369.382 204.102 369.775 204.102 370.184C204.102 370.593 203.924 370.985 203.607 371.274C203.29 371.563 202.86 371.726 202.412 371.726C196.139 371.6 189.99 373.331 184.885 376.661C184.593 376.861 184.237 376.969 183.871 376.969Z" fill="#308CEA"/>
<path d="M191.865 430.019C191.588 430.018 191.315 429.954 191.071 429.834C185.892 427.307 181.397 423.755 177.917 419.437C174.437 415.12 172.06 410.147 170.959 404.882C169.885 400.328 169.935 395.613 171.104 391.079C172.273 386.545 174.533 382.305 177.719 378.665C178.006 378.351 178.418 378.153 178.865 378.115C179.312 378.077 179.757 378.203 180.102 378.465C180.447 378.727 180.665 379.103 180.706 379.511C180.747 379.919 180.609 380.325 180.322 380.639C177.443 383.933 175.405 387.771 174.356 391.874C173.306 395.977 173.272 400.241 174.255 404.358C175.267 409.17 177.443 413.716 180.624 417.665C183.805 421.613 187.911 424.864 192.643 427.182C192.973 427.344 193.235 427.603 193.387 427.916C193.538 428.23 193.571 428.58 193.48 428.913C193.389 429.245 193.179 429.541 192.884 429.752C192.588 429.964 192.224 430.079 191.849 430.081L191.865 430.019Z" fill="#308CEA"/>
<path d="M208.783 434.044C205 434.029 201.243 433.478 197.646 432.41C197.434 432.347 197.237 432.247 197.068 432.115C196.898 431.983 196.759 431.821 196.658 431.64C196.556 431.459 196.495 431.262 196.478 431.059C196.46 430.856 196.487 430.652 196.555 430.459C196.624 430.266 196.734 430.086 196.879 429.932C197.023 429.777 197.2 429.65 197.399 429.558C197.597 429.465 197.814 429.409 198.036 429.393C198.258 429.377 198.481 429.401 198.693 429.464C209.088 432.549 219.465 430.821 227.155 424.838C231.056 421.696 234.004 417.69 235.715 413.206C237.426 408.722 237.843 403.911 236.924 399.238C236.852 398.829 236.961 398.411 237.227 398.075C237.494 397.74 237.895 397.515 238.343 397.449C238.792 397.384 239.25 397.483 239.618 397.726C239.985 397.969 240.232 398.335 240.304 398.744C241.328 403.938 240.863 409.284 238.953 414.265C237.043 419.245 233.753 423.69 229.403 427.166C223.671 431.665 216.343 434.11 208.783 434.044Z" fill="#308CEA"/>
<path d="M237.211 395.29C236.852 395.289 236.504 395.183 236.215 394.989C235.926 394.795 235.713 394.523 235.605 394.21C234.051 389.831 231.505 385.799 228.134 382.374C224.762 378.95 220.64 376.21 216.034 374.332C215.622 374.168 215.297 373.862 215.133 373.48C214.968 373.099 214.976 372.673 215.155 372.296C215.334 371.92 215.67 371.624 216.089 371.474C216.507 371.323 216.974 371.331 217.386 371.495C222.43 373.552 226.945 376.554 230.636 380.305C234.328 384.056 237.115 388.473 238.817 393.27C238.955 393.658 238.919 394.081 238.716 394.446C238.514 394.81 238.161 395.086 237.735 395.213C237.565 395.26 237.389 395.286 237.211 395.29Z" fill="#308CEA"/>
<path d="M210.575 372.589C210.446 372.605 210.315 372.605 210.186 372.589C207.643 372.049 205.04 371.775 202.429 371.772C201.98 371.772 201.551 371.61 201.234 371.32C200.917 371.031 200.739 370.639 200.739 370.23C200.739 369.821 200.917 369.429 201.234 369.139C201.551 368.85 201.98 368.688 202.429 368.688C205.274 368.696 208.11 369.001 210.879 369.598C211.327 369.645 211.737 369.852 212.017 370.175C212.298 370.497 212.426 370.908 212.375 371.317C212.323 371.726 212.096 372.1 211.742 372.356C211.389 372.612 210.939 372.729 210.49 372.682L210.575 372.589Z" fill="#308CEA"/>
<path d="M180.761 409.431C180.416 409.433 180.079 409.337 179.795 409.158C179.511 408.979 179.294 408.724 179.173 408.429C177.589 404.697 177.031 400.668 177.55 396.695C178.068 392.721 179.647 388.924 182.147 385.636C184.511 382.521 187.676 379.984 191.366 378.247C195.055 376.51 199.156 375.626 203.307 375.674C203.756 375.674 204.186 375.836 204.503 376.125C204.819 376.415 204.998 376.807 204.998 377.216C204.998 377.625 204.819 378.017 204.503 378.306C204.186 378.596 203.756 378.758 203.307 378.758C199.7 378.719 196.138 379.486 192.93 380.991C189.722 382.496 186.966 384.695 184.902 387.394C182.71 390.289 181.33 393.632 180.885 397.128C180.44 400.623 180.943 404.165 182.35 407.442C182.503 407.825 182.484 408.247 182.297 408.617C182.111 408.986 181.771 409.274 181.353 409.416C181.158 409.451 180.958 409.456 180.761 409.431Z" fill="#308CEA"/>
<path d="M207.567 427.043C202.501 426.889 197.55 425.62 193.137 423.346C188.723 421.072 184.976 417.859 182.215 413.981C182.01 413.64 181.953 413.241 182.057 412.864C182.16 412.487 182.416 412.16 182.772 411.947C183.129 411.735 183.561 411.653 183.981 411.718C184.401 411.784 184.778 411.992 185.037 412.3C187.492 415.75 190.82 418.611 194.741 420.64C198.663 422.669 203.062 423.808 207.567 423.959C208.015 423.959 208.445 424.121 208.762 424.41C209.079 424.7 209.257 425.092 209.257 425.501C209.257 425.91 209.079 426.302 208.762 426.591C208.445 426.881 208.015 427.043 207.567 427.043Z" fill="#308CEA"/>
<path d="M213.887 426.38C213.501 426.39 213.123 426.279 212.816 426.066C212.508 425.853 212.29 425.55 212.197 425.208C212.09 424.811 212.16 424.392 212.391 424.042C212.623 423.692 212.997 423.44 213.431 423.342C227.138 420.258 230.687 409.293 229.555 400.873C228.084 389.893 218.586 378.774 203.257 378.758C202.809 378.758 202.379 378.596 202.062 378.306C201.745 378.017 201.567 377.625 201.567 377.216C201.567 376.807 201.745 376.415 202.062 376.126C202.379 375.836 202.809 375.674 203.257 375.674C220.547 375.674 231.262 388.165 232.918 400.503C234.608 413.225 227.29 423.373 214.242 426.334C214.126 426.361 214.007 426.376 213.887 426.38Z" fill="#308CEA"/>
<path d="M196.395 387.271C196.074 387.269 195.761 387.183 195.492 387.025C195.223 386.867 195.008 386.642 194.874 386.376C194.683 386.006 194.662 385.582 194.814 385.198C194.966 384.813 195.279 384.499 195.685 384.325C198.276 383.28 201.083 382.754 203.916 382.783C204.364 382.783 204.794 382.946 205.111 383.235C205.428 383.524 205.606 383.916 205.606 384.325C205.606 384.734 205.428 385.127 205.111 385.416C204.794 385.705 204.364 385.867 203.916 385.867C201.583 385.869 199.278 386.326 197.155 387.209C196.91 387.282 196.65 387.303 196.395 387.271Z" fill="#308CEA"/>
<path d="M207.262 419.857C202.982 419.794 198.811 418.613 195.243 416.454C191.676 414.295 188.861 411.247 187.133 407.674C183.635 400.718 184.666 393.455 189.888 388.212C190.191 387.912 190.612 387.734 191.059 387.716C191.505 387.699 191.941 387.844 192.271 388.119C192.6 388.396 192.795 388.78 192.814 389.187C192.833 389.595 192.674 389.992 192.373 390.293C190.273 392.461 188.942 395.158 188.555 398.029C188.169 400.901 188.746 403.812 190.209 406.378C191.703 409.493 194.167 412.139 197.295 413.987C200.423 415.835 204.077 416.804 207.803 416.772C210.622 416.754 213.375 415.991 215.729 414.576C218.083 413.161 219.938 411.155 221.071 408.799C222.343 406.02 222.727 402.969 222.177 399.999C221.626 397.03 220.164 394.263 217.961 392.021C217.816 391.867 217.707 391.688 217.638 391.496C217.569 391.303 217.543 391.1 217.56 390.898C217.577 390.696 217.638 390.5 217.739 390.319C217.839 390.139 217.978 389.978 218.147 389.846C218.315 389.715 218.511 389.615 218.722 389.552C218.933 389.489 219.155 389.465 219.377 389.481C219.598 389.496 219.814 389.552 220.012 389.644C220.209 389.735 220.385 389.862 220.53 390.016C223.153 392.701 224.887 396.01 225.531 399.559C226.174 403.108 225.7 406.751 224.163 410.064C222.777 412.954 220.504 415.417 217.62 417.157C214.736 418.897 211.362 419.84 207.905 419.872L207.262 419.857Z" fill="#308CEA"/>
<path d="M214.378 388.628C214.059 388.63 213.747 388.544 213.482 388.381C210.628 386.705 207.31 385.807 203.916 385.79C203.468 385.79 203.038 385.628 202.721 385.339C202.404 385.049 202.226 384.657 202.226 384.248C202.226 383.839 202.404 383.447 202.721 383.158C203.038 382.869 203.468 382.706 203.916 382.706C207.953 382.72 211.9 383.79 215.29 385.79C215.596 385.971 215.83 386.237 215.957 386.548C216.084 386.86 216.098 387.201 215.995 387.52C215.892 387.839 215.679 388.119 215.388 388.319C215.097 388.519 214.742 388.627 214.378 388.628Z" fill="#308CEA"/>
<path d="M206.367 412.901C204.392 412.889 202.444 412.483 200.66 411.71C198.876 410.937 197.299 409.817 196.04 408.429C194.416 406.733 193.361 404.646 193.001 402.417C192.641 400.188 192.992 397.912 194.012 395.861C194.922 393.998 196.411 392.421 198.295 391.324C200.179 390.228 202.375 389.66 204.609 389.692C205.057 389.692 205.487 389.854 205.804 390.144C206.121 390.433 206.299 390.825 206.299 391.234C206.299 391.643 206.121 392.035 205.804 392.325C205.487 392.614 205.057 392.776 204.609 392.776C203.028 392.75 201.474 393.146 200.138 393.916C198.801 394.686 197.741 395.796 197.088 397.11C196.345 398.624 196.095 400.302 196.367 401.942C196.64 403.583 197.424 405.117 198.626 406.363C199.822 407.7 201.411 408.701 203.206 409.247C205.001 409.793 206.93 409.862 208.766 409.447C210.261 409.14 211.627 408.448 212.703 407.453C213.779 406.457 214.518 405.201 214.834 403.834C214.931 403.435 215.197 403.088 215.574 402.868C215.951 402.649 216.408 402.574 216.845 402.661C217.063 402.704 217.269 402.785 217.453 402.9C217.636 403.015 217.793 403.162 217.914 403.332C218.035 403.503 218.117 403.693 218.157 403.893C218.197 404.093 218.194 404.298 218.147 404.497C217.699 406.427 216.656 408.2 215.141 409.607C213.626 411.014 211.702 411.996 209.595 412.439C208.543 412.71 207.459 412.865 206.367 412.901Z" fill="#308CEA"/>
<path d="M216.203 400.688C215.83 400.703 215.462 400.606 215.156 400.41C214.851 400.215 214.624 399.933 214.513 399.608C213.838 397.676 212.52 395.984 210.742 394.767C208.964 393.551 206.814 392.871 204.592 392.823C204.144 392.823 203.714 392.66 203.397 392.371C203.08 392.082 202.902 391.689 202.902 391.28C202.902 390.871 203.08 390.479 203.397 390.19C203.714 389.901 204.144 389.738 204.592 389.738C207.53 389.798 210.376 390.691 212.732 392.294C215.088 393.897 216.839 396.13 217.741 398.683C217.809 398.876 217.835 399.08 217.817 399.282C217.798 399.485 217.736 399.682 217.634 399.863C217.532 400.043 217.392 400.204 217.222 400.335C217.052 400.466 216.855 400.565 216.642 400.626C216.5 400.664 216.352 400.685 216.203 400.688Z" fill="#308CEA"/>
<path d="M206.823 406.486C206.375 406.486 205.945 406.324 205.628 406.034C205.311 405.745 205.133 405.353 205.133 404.944C205.133 404.535 205.311 404.143 205.628 403.853C205.945 403.564 206.375 403.402 206.823 403.402C207.054 403.402 207.282 403.359 207.494 403.276C207.706 403.193 207.897 403.071 208.055 402.918C208.214 402.765 208.336 402.583 208.415 402.386C208.493 402.188 208.527 401.977 208.513 401.767C208.522 401.467 208.465 401.168 208.347 400.888C208.228 400.607 208.049 400.352 207.821 400.135C207.593 399.918 207.321 399.745 207.019 399.626C206.717 399.506 206.392 399.442 206.062 399.438C205.814 399.444 205.57 399.495 205.344 399.588C205.118 399.68 204.914 399.813 204.744 399.978C204.571 400.165 204.44 400.38 204.359 400.613C204.277 400.846 204.248 401.092 204.271 401.335C204.284 401.538 204.254 401.741 204.181 401.932C204.108 402.124 203.995 402.301 203.848 402.453C203.7 402.605 203.521 402.728 203.321 402.817C203.121 402.906 202.904 402.958 202.682 402.97C202.46 402.982 202.238 402.954 202.028 402.888C201.817 402.822 201.624 402.718 201.457 402.584C201.291 402.449 201.155 402.286 201.058 402.103C200.961 401.921 200.904 401.723 200.891 401.52C200.83 400.873 200.916 400.222 201.142 399.606C201.368 398.99 201.729 398.423 202.204 397.939C202.679 397.455 203.257 397.065 203.903 396.792C204.549 396.52 205.249 396.371 205.961 396.354C206.735 396.356 207.5 396.498 208.213 396.772C208.926 397.046 209.573 397.446 210.115 397.949C210.657 398.453 211.085 399.05 211.373 399.705C211.661 400.36 211.803 401.061 211.792 401.767C211.805 402.382 211.684 402.994 211.435 403.566C211.187 404.138 210.815 404.659 210.343 405.098C209.871 405.538 209.307 405.887 208.686 406.125C208.064 406.363 207.396 406.486 206.721 406.486H206.823Z" fill="#308CEA"/>
<path d="M250.309 401.351C252.371 422.833 234.946 440.244 211.437 440.244H209.612C232.022 439.195 248.298 422.201 246.304 401.397C245.152 391.214 240.091 381.731 232.015 374.624C223.939 367.518 213.369 363.247 202.175 362.566C202.767 362.566 203.375 362.566 203.983 362.566C227.56 362.473 248.315 379.884 250.309 401.351Z" fill="#308CEA"/>
<g opacity="0.4">
<path d="M250.309 401.351C252.371 422.833 234.946 440.244 211.437 440.244H209.612C232.022 439.195 248.298 422.201 246.304 401.397C245.152 391.214 240.091 381.731 232.015 374.624C223.939 367.518 213.369 363.247 202.175 362.566C202.767 362.566 203.375 362.566 203.983 362.566C227.56 362.473 248.315 379.884 250.309 401.351Z" fill="white"/>
</g>
<path d="M284.821 211.804C284.863 212.265 284.93 212.723 285.024 213.177C285.662 216.148 287.333 218.852 289.79 220.888C292.574 223.266 296.235 224.604 300.049 224.635H442.846C444.513 224.666 446.17 224.394 447.72 223.835C449.271 223.276 450.684 222.441 451.878 221.379C453.071 220.317 454.022 219.049 454.673 217.649C455.325 216.249 455.665 214.744 455.674 213.223C455.699 212.766 455.699 212.308 455.674 211.851C455.276 208.398 453.511 205.196 450.711 202.845C447.911 200.494 444.267 199.156 440.463 199.081H297.632C295.842 199.048 294.064 199.363 292.417 200.005C290.77 200.647 289.292 201.602 288.08 202.805C286.868 204.008 285.951 205.433 285.389 206.985C284.827 208.536 284.634 210.179 284.821 211.804Z" fill="#308CEA"/>
<path opacity="0.8" d="M284.821 211.804C284.863 212.265 284.93 212.723 285.024 213.177C285.662 216.148 287.333 218.852 289.79 220.888C292.574 223.266 296.235 224.604 300.049 224.635H442.846C444.513 224.666 446.17 224.394 447.72 223.835C449.271 223.276 450.684 222.441 451.878 221.379C453.071 220.317 454.022 219.049 454.673 217.649C455.325 216.249 455.665 214.744 455.674 213.223C455.699 212.766 455.699 212.308 455.674 211.851C455.276 208.398 453.511 205.196 450.711 202.845C447.911 200.494 444.267 199.156 440.463 199.081H297.632C295.842 199.048 294.064 199.363 292.417 200.005C290.77 200.647 289.292 201.602 288.08 202.805C286.868 204.008 285.951 205.433 285.389 206.985C284.827 208.536 284.634 210.179 284.821 211.804Z" fill="white"/>
<path d="M455.674 213.13C455.674 213.543 455.64 213.956 455.572 214.364C455.069 210.989 453.258 207.891 450.468 205.628C447.679 203.365 444.094 202.088 440.362 202.027L288.539 202.335C289.743 201.267 291.166 200.426 292.726 199.859C294.286 199.293 295.953 199.013 297.632 199.035H440.429C444.233 199.11 447.877 200.448 450.677 202.799C453.477 205.149 455.242 208.351 455.64 211.804C455.675 212.246 455.686 212.688 455.674 213.13Z" fill="#308CEA"/>
<path opacity="0.5" d="M455.674 213.13C455.674 213.543 455.64 213.956 455.572 214.364C455.069 210.989 453.258 207.891 450.468 205.628C447.679 203.365 444.094 202.088 440.362 202.027L288.539 202.335C289.743 201.267 291.166 200.426 292.726 199.859C294.286 199.293 295.953 199.013 297.632 199.035H440.429C444.233 199.11 447.877 200.448 450.677 202.799C453.477 205.149 455.242 208.351 455.64 211.804C455.675 212.246 455.686 212.688 455.674 213.13Z" fill="white"/>
<path d="M431.15 205.204L431.759 211.372L438.114 209.213L439.618 212.298L433.128 214.272L437.793 219.5L434.869 221.458L430.322 216.03L426.942 221.458L423.748 219.5L427.348 214.272L420.587 212.298L421.5 209.213L428.345 211.295L427.736 205.127L431.15 205.204Z" fill="#308CEA"/>
<path d="M392.024 205.204L392.633 211.373L398.988 209.214L400.509 212.298L393.968 214.318L398.633 219.546L395.726 221.505L391.179 216.076L387.799 221.505L384.588 219.546L388.205 214.318L381.444 212.344L382.357 209.26L389.202 211.342L388.61 205.173L392.024 205.204Z" fill="#308CEA"/>
<path d="M352.983 205.204L353.575 211.373L359.929 209.214L361.45 212.298L354.944 214.272L359.608 219.5L356.786 221.505L352.239 216.076L348.859 221.505L345.665 219.546L349.265 214.318L342.504 212.344L343.434 209.26L350.194 211.342L349.603 205.173L352.983 205.204Z" fill="#308CEA"/>
<path d="M313.925 205.204L314.516 211.372L320.888 209.213L322.392 212.298L315.885 214.272L320.567 219.5L317.643 221.458L313.097 216.03L309.716 221.458L306.522 219.5L310.122 214.272L303.362 212.298L304.274 209.213L311.035 211.295L310.443 205.127L313.925 205.204Z" fill="#308CEA"/>
<path d="M408.587 192.99H401.928V194.532H408.587V192.99Z" fill="#308CEA"/>
<path d="M437.201 192.99H415.483V194.532H437.201V192.99Z" fill="#308CEA"/>
<path opacity="0.8" d="M658.96 250.512L652.047 322.624C651.78 324.925 650.604 327.059 648.737 328.626C646.871 330.193 644.442 331.085 641.906 331.136H587.029C585.841 331.142 584.665 330.92 583.578 330.483C582.491 330.046 581.517 329.405 580.72 328.602C579.922 327.799 579.319 326.851 578.95 325.821C578.581 324.791 578.455 323.701 578.578 322.624L585.491 250.497C585.747 248.192 586.92 246.052 588.789 244.483C590.658 242.914 593.092 242.025 595.631 241.984H650.509C651.698 241.978 652.876 242.201 653.964 242.639C655.052 243.076 656.027 243.719 656.825 244.524C657.623 245.329 658.225 246.278 658.593 247.31C658.961 248.342 659.086 249.433 658.96 250.512Z" fill="#308CEA"/>
<path opacity="0.8" d="M658.96 250.512L652.047 322.624C651.78 324.925 650.604 327.059 648.737 328.626C646.871 330.193 644.442 331.085 641.906 331.136H587.029C585.841 331.142 584.665 330.92 583.578 330.483C582.491 330.046 581.517 329.405 580.72 328.602C579.922 327.799 579.319 326.851 578.95 325.821C578.581 324.791 578.455 323.701 578.578 322.624L585.491 250.497C585.747 248.192 586.92 246.052 588.789 244.483C590.658 242.914 593.092 242.025 595.631 241.984H650.509C651.698 241.978 652.876 242.201 653.964 242.639C655.052 243.076 656.027 243.719 656.825 244.524C657.623 245.329 658.225 246.278 658.593 247.31C658.961 248.342 659.086 249.433 658.96 250.512Z" fill="white"/>
<path d="M590.493 262.14H590.341C589.896 262.105 589.483 261.91 589.195 261.598C588.907 261.285 588.766 260.882 588.803 260.475L589.446 253.874C589.484 253.49 589.678 253.132 589.991 252.873C590.304 252.613 590.713 252.469 591.136 252.471H598.775C599.223 252.471 599.653 252.633 599.97 252.923C600.287 253.212 600.465 253.604 600.465 254.013C600.465 254.422 600.287 254.814 599.97 255.104C599.653 255.393 599.223 255.555 598.775 255.555H592.691L592.184 260.737C592.145 261.121 591.951 261.479 591.638 261.739C591.325 261.999 590.917 262.142 590.493 262.14Z" fill="#308CEA"/>
<path d="M651.946 262.14H651.793C651.348 262.105 650.936 261.91 650.647 261.598C650.359 261.285 650.218 260.882 650.256 260.475L650.729 255.555H644.949C644.5 255.555 644.07 255.393 643.754 255.104C643.437 254.814 643.258 254.422 643.258 254.013C643.258 253.604 643.437 253.212 643.754 252.923C644.07 252.633 644.5 252.471 644.949 252.471H652.554C652.789 252.47 653.022 252.514 653.238 252.6C653.454 252.686 653.647 252.812 653.806 252.971C653.965 253.129 654.087 253.316 654.162 253.519C654.237 253.722 654.265 253.938 654.244 254.152L653.602 260.737C653.564 261.116 653.374 261.469 653.069 261.728C652.763 261.988 652.363 262.134 651.946 262.14Z" fill="#308CEA"/>
<path d="M593.4 311.906H585.761C585.529 311.905 585.3 311.861 585.088 311.776C584.876 311.691 584.685 311.567 584.527 311.412C584.369 311.255 584.249 311.07 584.173 310.868C584.097 310.666 584.068 310.452 584.088 310.24L584.713 303.64C584.751 303.231 584.966 302.852 585.31 302.587C585.654 302.323 586.099 302.194 586.547 302.228C586.995 302.263 587.41 302.459 587.7 302.773C587.99 303.087 588.132 303.493 588.093 303.902L587.62 308.821H593.4C593.849 308.821 594.279 308.984 594.595 309.273C594.912 309.562 595.091 309.954 595.091 310.363C595.091 310.772 594.912 311.165 594.595 311.454C594.279 311.743 593.849 311.906 593.4 311.906Z" fill="#308CEA"/>
<path d="M647.163 311.906H639.54C639.092 311.906 638.662 311.743 638.345 311.454C638.028 311.165 637.85 310.773 637.85 310.364C637.85 309.955 638.028 309.562 638.345 309.273C638.662 308.984 639.092 308.821 639.54 308.821H645.625L646.115 303.64C646.153 303.233 646.367 302.857 646.709 302.594C647.052 302.331 647.494 302.202 647.94 302.236C648.386 302.272 648.798 302.467 649.086 302.779C649.375 303.091 649.515 303.495 649.478 303.902L648.853 310.502C648.815 310.887 648.62 311.244 648.307 311.504C647.994 311.764 647.586 311.907 647.163 311.906Z" fill="#308CEA"/>
<path d="M641.346 287.041C645.161 273.54 638.612 260.327 626.717 257.528C614.822 254.729 602.087 263.405 598.271 276.906C594.456 290.407 601.005 303.62 612.9 306.419C624.794 309.218 637.53 300.542 641.346 287.041Z" fill="white"/>
<path d="M626.442 320.357H604.555L606.465 300.386H628.352L626.442 320.357Z" fill="white"/>
<path d="M652.047 322.624C651.78 324.925 650.604 327.059 648.737 328.626C646.871 330.193 644.442 331.085 641.906 331.136H587.029C585.841 331.142 584.665 330.92 583.578 330.483C582.491 330.046 581.517 329.406 580.72 328.602C579.922 327.799 579.319 326.851 578.95 325.821C578.581 324.791 578.455 323.702 578.578 322.624C578.578 322.624 603.795 315.345 606.904 315.345H626.391L652.047 322.624Z" fill="white"/>
<path d="M662.147 271.587L659.589 299.913L661.274 300.039L663.831 271.713L662.147 271.587Z" fill="#308CEA"/>
<path d="M663.925 258.625L663.422 264.188L665.107 264.315L665.609 258.751L663.925 258.625Z" fill="#308CEA"/>
<path d="M605.028 430.682H598.369V432.225H605.028V430.682Z" fill="#308CEA"/>
<path d="M633.642 430.682H611.924V432.225H633.642V430.682Z" fill="#308CEA"/>
<path d="M673.393 404.358L669.185 448.309C668.966 450.252 667.975 452.054 666.4 453.375C664.824 454.696 662.772 455.445 660.633 455.48C659.626 455.497 658.627 455.317 657.702 454.954C656.777 454.591 655.947 454.052 655.268 453.374C654.588 452.696 654.075 451.893 653.761 451.02C653.448 450.147 653.342 449.223 653.45 448.309L657.624 404.358C658.013 401.08 657.633 397.764 656.51 394.63C655.388 391.496 653.547 388.616 651.111 386.18C648.676 383.745 645.7 381.81 642.382 380.503C639.064 379.197 635.48 378.55 631.867 378.604H614.696C607.016 378.736 599.654 381.429 594 386.173C588.346 390.917 584.79 397.386 584.003 404.358L582.313 422.309H566.595L568.285 404.358C570.398 382.243 591.845 364.262 616.065 364.262H633.304C638.928 364.177 644.509 365.185 649.674 367.219C654.839 369.252 659.471 372.265 663.262 376.057C667.053 379.849 669.918 384.334 671.664 389.213C673.411 394.092 674 399.255 673.393 404.358Z" fill="#308CEA"/>
<g opacity="0.5">
<path d="M673.393 404.358L669.185 448.309C668.966 450.252 667.975 452.054 666.4 453.375C664.824 454.696 662.772 455.445 660.633 455.48C659.626 455.497 658.627 455.317 657.702 454.954C656.777 454.591 655.947 454.052 655.268 453.374C654.588 452.696 654.075 451.893 653.761 451.02C653.448 450.147 653.342 449.223 653.45 448.309L657.624 404.358C658.013 401.08 657.633 397.764 656.51 394.63C655.388 391.496 653.547 388.616 651.111 386.18C648.676 383.745 645.7 381.81 642.382 380.503C639.064 379.197 635.48 378.55 631.867 378.604H614.696C607.016 378.736 599.654 381.429 594 386.173C588.346 390.917 584.79 397.386 584.003 404.358L582.313 422.309H566.595L568.285 404.358C570.398 382.243 591.845 364.262 616.065 364.262H633.304C638.928 364.177 644.509 365.185 649.674 367.219C654.839 369.252 659.471 372.265 663.262 376.057C667.053 379.849 669.918 384.334 671.664 389.213C673.411 394.092 674 399.255 673.393 404.358Z" fill="white"/>
</g>
<path d="M674.525 446.705L666.328 532.357C666.031 535.012 664.676 537.476 662.52 539.281C660.365 541.086 657.558 542.107 654.633 542.149H560.765C559.39 542.172 558.025 541.927 556.762 541.432C555.499 540.936 554.366 540.2 553.439 539.274C552.511 538.347 551.811 537.251 551.384 536.059C550.957 534.866 550.813 533.604 550.962 532.357L559.176 446.705C559.365 444.998 559.993 443.355 561.009 441.91C562.025 440.466 563.401 439.261 565.024 438.393C566.785 437.409 568.806 436.876 570.871 436.851H664.723C666.64 436.841 668.521 437.328 670.148 438.254C671.666 439.153 672.88 440.419 673.654 441.912C674.427 443.405 674.729 445.065 674.525 446.705Z" fill="#308CEA"/>
<path d="M576.922 484.118L601.31 518.369L681.742 444.978C681.866 444.842 681.933 444.67 681.93 444.493C681.927 444.316 681.855 444.145 681.726 444.013C681.597 443.88 681.42 443.794 681.228 443.771C681.036 443.747 680.84 443.787 680.677 443.883L604.031 498.707L589.547 477.41L576.922 484.118Z" fill="white"/>
<path d="M192.846 318.475H131.698C128.868 318.428 126.156 317.438 124.073 315.69C121.989 313.943 120.68 311.559 120.391 308.991L115.101 253.226C114.954 252.019 115.091 250.797 115.503 249.641C115.915 248.486 116.592 247.424 117.489 246.527C118.387 245.629 119.484 244.916 120.707 244.436C121.93 243.956 123.251 243.719 124.582 243.742H185.663C188.481 243.801 191.179 244.797 193.249 246.544C195.319 248.29 196.618 250.667 196.902 253.226L202.243 308.96C202.394 310.163 202.262 311.382 201.858 312.536C201.453 313.69 200.785 314.752 199.896 315.651C199.007 316.551 197.919 317.268 196.704 317.755C195.488 318.242 194.173 318.487 192.846 318.475Z" fill="#308CEA"/>
<path opacity="0.8" d="M192.846 318.475H131.698C128.868 318.428 126.156 317.438 124.073 315.69C121.989 313.943 120.68 311.559 120.391 308.991L115.101 253.226C114.954 252.019 115.091 250.797 115.503 249.641C115.915 248.486 116.592 247.424 117.489 246.527C118.387 245.629 119.484 244.916 120.707 244.436C121.93 243.956 123.251 243.719 124.582 243.742H185.663C188.481 243.801 191.179 244.797 193.249 246.544C195.319 248.29 196.618 250.667 196.902 253.226L202.243 308.96C202.394 310.163 202.262 311.382 201.858 312.536C201.453 313.69 200.785 314.752 199.896 315.651C199.007 316.551 197.919 317.268 196.704 317.755C195.488 318.242 194.173 318.487 192.846 318.475Z" fill="white"/>
<path d="M120.425 286.738C120.425 286.738 142.143 259.149 158.131 259.858C174.119 260.567 200.688 286.075 200.688 286.075C200.688 286.075 161.528 304.843 120.425 286.738Z" fill="white"/>
<path d="M121.118 287.154L119.749 286.26C120.628 285.134 141.331 259.041 157.522 259.041H158.182C174.339 259.75 200.198 284.455 201.296 285.504L200.079 286.568C199.809 286.321 173.578 261.261 158.097 260.583H157.522C142.143 260.614 121.32 286.923 121.118 287.154Z" fill="#06223E"/>
<path d="M118.177 287.709C114.898 287.709 110.639 286.599 109.135 282.373C109.065 282.179 109.083 281.968 109.185 281.785C109.286 281.603 109.463 281.465 109.676 281.402C109.781 281.368 109.893 281.354 110.004 281.361C110.115 281.368 110.224 281.395 110.323 281.442C110.423 281.488 110.511 281.552 110.582 281.63C110.654 281.707 110.708 281.798 110.74 281.895C112.684 287.354 119.951 286.044 120.256 285.982C120.475 285.945 120.701 285.987 120.887 286.099C121.073 286.211 121.204 286.385 121.253 286.583C121.275 286.683 121.276 286.785 121.255 286.884C121.233 286.984 121.191 287.078 121.13 287.163C121.069 287.247 120.99 287.32 120.898 287.377C120.806 287.433 120.702 287.473 120.594 287.493C119.798 287.637 118.988 287.709 118.177 287.709Z" fill="#06223E"/>
<path d="M131.072 275.865C130.884 275.869 130.699 275.815 130.548 275.711C130.295 275.526 124.295 271.301 122.774 266.998C122.705 266.804 122.723 266.592 122.824 266.41C122.925 266.228 123.102 266.09 123.315 266.026C123.528 265.967 123.758 265.986 123.956 266.078C124.154 266.17 124.306 266.328 124.38 266.52C125.749 270.36 131.512 274.447 131.579 274.477C131.756 274.602 131.871 274.786 131.9 274.989C131.928 275.191 131.868 275.395 131.731 275.557C131.654 275.651 131.555 275.727 131.441 275.781C131.327 275.834 131.201 275.863 131.072 275.865Z" fill="#06223E"/>
<path d="M143.478 265.363C143.256 265.352 143.048 265.264 142.895 265.118C142.741 264.972 142.653 264.779 142.65 264.577C141.663 261.218 140.437 257.921 138.982 254.707C138.559 253.689 138.255 252.949 138.188 252.764C138.154 252.666 138.142 252.562 138.153 252.46C138.164 252.358 138.197 252.258 138.251 252.168C138.304 252.077 138.377 251.997 138.465 251.933C138.553 251.868 138.654 251.821 138.762 251.792C138.869 251.764 138.98 251.755 139.091 251.766C139.201 251.777 139.308 251.808 139.405 251.856C139.503 251.905 139.588 251.971 139.658 252.05C139.727 252.129 139.779 252.219 139.81 252.317C139.81 252.502 140.165 253.18 140.554 254.152C142.92 259.812 144.373 263.528 144.34 264.608C144.34 264.71 144.317 264.81 144.274 264.904C144.23 264.998 144.166 265.083 144.085 265.153C144.005 265.224 143.909 265.279 143.805 265.315C143.701 265.351 143.589 265.367 143.478 265.363Z" fill="#06223E"/>
<path d="M158.131 260.629C157.92 260.623 157.719 260.548 157.564 260.418C157.409 260.287 157.31 260.111 157.286 259.92L156.103 247.582C156.083 247.378 156.152 247.174 156.297 247.017C156.441 246.859 156.648 246.76 156.872 246.742C157.096 246.723 157.319 246.787 157.492 246.919C157.664 247.05 157.773 247.239 157.793 247.444L158.976 259.873C158.99 260.075 158.92 260.273 158.778 260.428C158.636 260.583 158.435 260.683 158.215 260.706L158.131 260.629Z" fill="#06223E"/>
<path d="M203.223 286.861C202.396 286.865 201.57 286.803 200.755 286.676C200.647 286.656 200.543 286.616 200.451 286.559C200.359 286.503 200.28 286.43 200.219 286.346C200.158 286.261 200.116 286.166 200.095 286.067C200.073 285.967 200.074 285.865 200.096 285.766C200.114 285.666 200.154 285.571 200.214 285.486C200.274 285.401 200.352 285.328 200.444 285.272C200.536 285.216 200.639 285.177 200.748 285.159C200.857 285.14 200.969 285.142 201.076 285.165C201.076 285.165 205.217 285.889 207.752 284.255C208.295 283.895 208.747 283.433 209.079 282.902C209.411 282.37 209.616 281.78 209.679 281.17C209.696 281.069 209.734 280.972 209.792 280.884C209.85 280.796 209.926 280.72 210.016 280.659C210.106 280.598 210.209 280.554 210.318 280.529C210.427 280.505 210.54 280.5 210.651 280.515C210.762 280.53 210.868 280.565 210.965 280.618C211.061 280.671 211.145 280.74 211.211 280.823C211.278 280.905 211.326 280.998 211.353 281.098C211.38 281.197 211.386 281.3 211.369 281.402C211.267 282.213 210.98 282.996 210.526 283.7C210.071 284.404 209.461 285.013 208.733 285.488C207.09 286.444 205.169 286.922 203.223 286.861Z" fill="#06223E"/>
<path d="M188.046 275.048C187.927 275.049 187.809 275.026 187.701 274.98C187.593 274.935 187.497 274.869 187.42 274.786C187.341 274.714 187.278 274.629 187.235 274.535C187.193 274.441 187.17 274.34 187.17 274.238C187.17 274.137 187.193 274.036 187.235 273.942C187.278 273.848 187.341 273.763 187.42 273.691C187.42 273.691 192.491 269.62 193.032 265.826C193.069 265.625 193.19 265.446 193.37 265.325C193.55 265.204 193.774 265.151 193.995 265.178C194.105 265.193 194.21 265.228 194.306 265.28C194.401 265.333 194.484 265.402 194.55 265.483C194.616 265.565 194.663 265.658 194.69 265.756C194.716 265.855 194.722 265.957 194.705 266.057C193.995 270.406 188.756 274.663 188.536 274.848C188.404 274.965 188.23 275.036 188.046 275.048Z" fill="#06223E"/>
<path d="M173.764 266.088H173.612C173.392 266.05 173.196 265.936 173.067 265.769C172.938 265.602 172.885 265.396 172.919 265.194C172.919 265.101 174.778 255.185 175.116 253.149C175.133 253.048 175.171 252.951 175.229 252.863C175.287 252.775 175.363 252.699 175.454 252.638C175.544 252.577 175.646 252.533 175.755 252.508C175.864 252.484 175.977 252.479 176.088 252.494C176.199 252.509 176.306 252.544 176.402 252.597C176.498 252.65 176.582 252.719 176.649 252.802C176.715 252.884 176.764 252.977 176.791 253.077C176.818 253.176 176.823 253.279 176.807 253.381C176.468 255.432 174.626 265.363 174.609 265.456C174.573 265.635 174.469 265.798 174.314 265.913C174.159 266.029 173.964 266.091 173.764 266.088Z" fill="#06223E"/>
<path d="M174.261 289.968C181.258 283.299 180.458 272.239 172.475 265.266C164.491 258.293 152.348 258.046 145.351 264.715C138.354 271.385 139.153 282.444 147.137 289.417C155.12 296.391 167.264 296.637 174.261 289.968Z" fill="#308CEA"/>
<path opacity="0.3" d="M167.731 277.331C167.756 276.94 167.756 276.549 167.731 276.159C167.504 274.148 166.477 272.283 164.845 270.916C163.213 269.549 161.089 268.775 158.874 268.741C157.834 268.724 156.801 268.91 155.844 269.286C154.888 269.662 154.031 270.219 153.329 270.921C152.627 271.623 152.097 272.452 151.774 273.356C151.451 274.259 151.342 275.214 151.455 276.159C151.483 276.556 151.562 276.95 151.692 277.331H140.672C140.403 275.107 140.656 272.856 141.415 270.729C142.173 268.601 143.42 266.646 145.072 264.993C146.724 263.339 148.743 262.026 150.995 261.141C153.247 260.255 155.679 259.818 158.131 259.858C163.344 259.946 168.341 261.771 172.18 264.99C176.019 268.209 178.434 272.599 178.97 277.331H167.731Z" fill="#051729"/>
<path opacity="0.7" d="M167.714 276.159C167.739 276.549 167.739 276.94 167.714 277.331C167.592 279.047 166.749 280.655 165.361 281.818C163.972 282.982 162.145 283.612 160.26 283.576C158.274 283.542 156.354 282.912 154.799 281.783C153.244 280.654 152.14 279.09 151.658 277.331C151.529 276.95 151.449 276.556 151.421 276.159C151.308 275.214 151.417 274.259 151.74 273.356C152.063 272.452 152.593 271.623 153.295 270.921C153.997 270.219 154.855 269.662 155.811 269.286C156.767 268.91 157.8 268.724 158.841 268.741C161.059 268.772 163.187 269.544 164.822 270.911C166.458 272.278 167.486 274.145 167.714 276.159Z" fill="#051729"/>
<path opacity="0.7" d="M172.125 268.879C172.216 269.649 172.127 270.428 171.863 271.164C171.599 271.9 171.167 272.576 170.595 273.148C170.022 273.719 169.323 274.174 168.544 274.48C167.765 274.786 166.923 274.938 166.074 274.925C164.273 274.892 162.546 274.259 161.22 273.146C159.894 272.032 159.06 270.515 158.875 268.879C158.781 268.109 158.868 267.329 159.131 266.592C159.394 265.855 159.826 265.178 160.399 264.606C160.971 264.033 161.672 263.579 162.452 263.274C163.233 262.968 164.076 262.818 164.925 262.834C166.728 262.863 168.456 263.495 169.783 264.609C171.11 265.723 171.943 267.242 172.125 268.879Z" fill="white"/>
<path d="M145.962 236.849H139.303V238.391H145.962V236.849Z" fill="#308CEA"/>
<path d="M174.576 236.849H152.858V238.391H174.576V236.849Z" fill="#308CEA"/>
<path d="M453.122 349.843L453.696 350.475L454.474 351.292C455.032 351.832 455.572 352.403 456.164 352.927C457.33 354.037 458.598 355.117 459.882 356.212C462.449 358.372 465.14 360.405 467.944 362.303C470.8 364.246 473.809 366.02 476.817 367.778C478.507 368.611 479.893 369.49 481.482 370.292L485.149 372.142C485.682 372.357 486.282 372.39 486.839 372.235C488.022 371.911 494.817 365.773 496.98 363.491C501.78 358.479 509.047 351.878 512.968 346.265L517.346 351.77C514.579 358.648 510.907 365.193 506.411 371.263C503.993 374.545 501.093 377.508 497.791 380.069C495.809 381.592 493.573 382.816 491.166 383.693C488.116 384.804 484.765 385.035 481.566 384.356C480.739 384.172 479.931 383.925 479.149 383.616L477.628 383.014L474.89 381.873C473.048 381.133 471.274 380.239 469.482 379.421C465.9 377.677 462.425 375.757 459.071 373.669C455.69 371.548 452.446 369.251 449.353 366.791C447.747 365.511 446.311 364.216 444.84 362.812C444.114 362.118 443.37 361.393 442.66 360.638L441.612 359.466C441.223 359.034 440.936 358.71 440.412 358.047L453.122 349.843Z" fill="#EAC1AC"/>
<path d="M512.275 347.113L520.118 331.815L527.605 344.06C527.605 344.06 522.686 351.77 517.346 351.77L512.275 347.113Z" fill="#EAC1AC"/>
<path d="M529.007 325.461L536.917 334.745L527.672 344.044L520.185 331.815L529.007 325.461Z" fill="#EAC1AC"/>
<path d="M526.253 348.27H538.709C539.06 348.267 539.398 348.146 539.657 347.93C539.916 347.713 540.078 347.417 540.111 347.098L542.697 319.848C542.716 319.67 542.694 319.49 542.632 319.32C542.57 319.15 542.47 318.994 542.338 318.862C542.205 318.73 542.044 318.624 541.865 318.552C541.685 318.48 541.491 318.444 541.295 318.444H528.855C528.501 318.447 528.161 318.57 527.902 318.79C527.642 319.01 527.482 319.31 527.453 319.632L524.833 346.866C524.817 347.045 524.841 347.225 524.905 347.395C524.969 347.565 525.071 347.721 525.205 347.853C525.338 347.985 525.5 348.09 525.681 348.162C525.861 348.234 526.056 348.27 526.253 348.27Z" fill="#308CEA"/>
<path opacity="0.3" d="M526.388 345.54H538.861L541.193 321.189H528.72L526.388 345.54Z" fill="white"/>
<path d="M525.577 342.086L527.791 341.052C528.918 340.53 529.959 339.865 530.884 339.079L531.289 337.737C531.053 337.38 530.697 337.101 530.274 336.943C529.851 336.785 529.383 336.755 528.94 336.858L527.098 337.32L517.954 337.953L517.734 341.469L520.405 345.232H521.318C522.324 345.264 523.309 344.964 524.092 344.386C524.875 343.807 525.402 342.991 525.577 342.086Z" fill="#EAC1AC"/>
<path d="M437.167 334.961C443.505 333.912 488.208 369.274 488.208 369.274L474.958 387.009C474.958 387.009 426.08 355.95 427.635 348.455C429.139 340.574 427.939 336.503 437.167 334.961Z" fill="#06223E"/>
<path opacity="0.2" d="M442.812 346.265L442.322 364.771C447.392 368.364 465.713 381.179 465.713 381.179L442.812 346.265Z" fill="#051729"/>
<path d="M407.371 702.472L422.362 703.814L427.128 672.092L412.12 670.75L407.371 702.472Z" fill="#EAC1AC"/>
<path d="M259.774 516.334L255.937 529.658L288.37 542.412L295.097 528.887L259.774 516.334Z" fill="#EAC1AC"/>
<path d="M433.094 706.621C434.384 706.765 435.69 706.504 436.795 705.88C437.034 705.691 437.22 705.452 437.337 705.184C437.455 704.916 437.501 704.626 437.471 704.338C437.471 704.158 437.417 703.981 437.316 703.827C437.215 703.672 437.07 703.545 436.897 703.459C435.088 702.472 428.97 705.125 428.277 705.418C428.211 705.446 428.156 705.492 428.12 705.55C428.083 705.608 428.068 705.675 428.074 705.742C428.084 705.81 428.117 705.873 428.169 705.923C428.22 705.973 428.288 706.007 428.362 706.019C429.916 706.351 431.5 706.552 433.094 706.621ZM435.815 703.86C436.051 703.844 436.286 703.892 436.491 703.999C436.562 704.033 436.622 704.084 436.664 704.146C436.705 704.209 436.728 704.28 436.728 704.354C436.746 704.546 436.714 704.74 436.635 704.92C436.555 705.099 436.431 705.259 436.271 705.387C435.342 706.112 432.891 706.173 429.511 705.587C431.504 704.679 433.654 704.09 435.866 703.845L435.815 703.86Z" fill="#308CEA"/>
<path d="M428.429 705.958H428.564C430.39 705.264 434.057 702.395 433.821 700.822C433.755 700.549 433.588 700.305 433.348 700.131C433.108 699.956 432.809 699.863 432.502 699.866C432.15 699.806 431.789 699.817 431.441 699.897C431.094 699.977 430.77 700.124 430.491 700.329C428.548 701.701 428.091 705.418 428.057 705.557C428.041 705.613 428.041 705.672 428.055 705.728C428.07 705.785 428.1 705.837 428.142 705.88C428.181 705.911 428.227 705.933 428.277 705.947C428.326 705.96 428.378 705.964 428.429 705.958ZM432.164 700.452H432.367C433.026 700.545 433.06 700.776 433.06 700.853C433.212 701.794 430.711 704.076 428.835 704.986C429.015 703.423 429.737 701.953 430.897 700.791C431.273 700.544 431.739 700.439 432.198 700.498L432.164 700.452Z" fill="#308CEA"/>
<path d="M421.618 698.293L408.097 698.817C407.806 698.82 407.526 698.92 407.311 699.099C407.096 699.279 406.96 699.524 406.931 699.789L403.686 717.015C403.668 717.308 403.714 717.601 403.82 717.878C403.927 718.155 404.093 718.409 404.308 718.627C404.524 718.845 404.784 719.022 405.075 719.148C405.365 719.273 405.68 719.345 406.002 719.359H406.272C412.171 719.081 415.01 718.68 422.48 718.449C427.06 718.31 441.071 719.821 447.325 718.526C453.578 717.231 452.395 711.571 449.708 711.617C441.021 711.771 430.998 706.605 426.046 700.56C425.184 700.051 422.565 698.247 421.618 698.293Z" fill="#06223E"/>
<path d="M262.833 531.401L269.729 520.714C269.885 520.487 269.942 520.216 269.889 519.953C269.835 519.69 269.676 519.455 269.441 519.295L255.38 507.466C254.857 507.13 254.211 506.993 253.579 507.085C252.948 507.178 252.381 507.492 251.999 507.96L251.847 508.176C248.906 512.802 247.74 515.239 243.904 521.084C241.538 524.677 232.512 534.655 230.383 540.099C228.253 545.542 234.034 547.809 235.453 545.681C240.033 538.927 250.225 534.053 258.506 533.467C259.301 533.19 262.36 532.156 262.833 531.401Z" fill="#06223E"/>
<path opacity="0.2" d="M427.128 672.092L424.677 688.454L409.669 687.112L412.103 670.765L427.128 672.092Z" fill="#051729"/>
<path opacity="0.2" d="M305.069 532.187L298.139 546.452L277.25 538.032L282.573 524.446L305.069 532.187Z" fill="#051729"/>
<path d="M446.75 351.231C455.319 364.524 444.84 375.735 436.086 415.461L379.602 415.6C380.515 394.195 380.413 376.892 370.408 334.776C370.148 333.738 370.149 332.66 370.41 331.623C370.671 330.585 371.185 329.615 371.915 328.784C372.645 327.954 373.571 327.285 374.624 326.827C375.677 326.369 376.83 326.134 377.997 326.14C382.661 326.14 388.526 326.279 394.492 326.834C403.902 327.536 413.248 328.829 422.463 330.705C427.461 331.804 432.373 333.206 437.167 334.899C440.074 335.794 443.573 343.011 446.75 351.231Z" fill="#06223E"/>
<path d="M438.181 418.145C438.181 418.145 469.905 501.838 469.144 542.088C468.705 565.143 466.795 608.108 459.172 638.319C452.953 662.993 427.601 678.723 427.601 678.723L407.32 677.628C407.32 677.628 396.334 639.999 398.244 625.025C402.047 595.215 413.32 572.823 411.951 545.45C409.788 500.635 395.253 417.451 395.253 417.451L438.181 418.145Z" fill="#308CEA"/>
<path d="M403.247 682.455L431.894 683.997L434.497 676.148L402.486 673.449L403.247 682.455Z" fill="#06223E"/>
<path opacity="0.2" d="M406.864 587.227C406.864 587.227 406.864 587.073 407.033 587.088C425.032 588.63 437.455 564.989 434.497 532.619L424.948 450.114L406.864 587.227Z" fill="#051729"/>
<path d="M423.951 417.451C423.951 417.451 449.167 564.619 396.74 581.182C369.073 590.743 345.8 580.38 318.235 569.245C302.297 562.815 282.387 545.404 282.387 545.404L290.044 526.389C303.813 522.991 318.222 522.328 332.296 524.446C359.169 528.239 360.301 535.241 369.85 529.951C389.929 484.673 355.383 448.88 378.859 417.374L423.951 417.451Z" fill="#308CEA"/>
<path d="M291.548 522.78L281.306 547.439L288.844 552.698L301.012 523.351L291.548 522.78Z" fill="#06223E"/>
<path d="M287.323 389.8C284.771 393.239 271.824 390.91 271.824 390.91L269.069 376.275L284.973 382.089L287.323 389.8Z" fill="#EAC1AC"/>
<path d="M272.281 375.52L274.748 390.725L265.199 392.021C264.681 392.064 264.165 391.93 263.75 391.645C263.334 391.36 263.05 390.944 262.951 390.479L259.284 379.684C259.221 379.432 259.267 379.169 259.412 378.948C259.557 378.727 259.789 378.565 260.061 378.496L272.281 375.52Z" fill="#EAC1AC"/>
<path d="M268.005 382.413L273.447 383.292L278.602 379.761L276.607 378.465C275.256 377.587 274.305 376.286 273.937 374.81C273.554 373.264 273.322 371.69 273.244 370.107V369.582C273.179 369.117 272.949 368.685 272.589 368.35C272.229 368.016 271.758 367.799 271.25 367.732L269.898 368.642C269.053 370.323 269.661 372.281 269.56 373.592L269.34 376.136L267.16 377L268.005 382.413Z" fill="#EAC1AC"/>
<path d="M373.129 331.877L341.152 371.973L282.421 382.552V391.342C282.421 391.342 337.62 395.074 350.025 388.489C362.431 381.904 383.236 341.962 383.236 341.962L373.129 331.877Z" fill="#EAC1AC"/>
<path d="M372.757 254.769C359.338 250.667 343.772 258.27 337.637 269.897C331.502 281.525 333.648 295.79 340.561 307.048C342.64 310.456 345.124 313.664 346.831 317.226C348.728 320.758 349.143 324.801 347.997 328.592C346.611 332.278 345.192 334.637 340.189 334.051C340.189 334.051 340.189 331.522 342.099 331.83C342.099 331.83 338.043 333.881 336.454 332.54C338.296 335.131 343.214 334.19 344.786 331.445C347.135 327.358 342.809 321.822 337.738 321.868C332.668 321.914 328.544 326.603 328.713 331.214C328.925 333.52 329.824 335.729 331.313 337.602C332.803 339.475 334.826 340.94 337.164 341.839C335.794 342.045 334.388 341.831 333.165 341.232C331.942 340.632 330.971 339.68 330.403 338.523C332.702 344.013 340.206 346.435 346.544 345.355C352.882 344.276 358.239 340.574 363.208 336.827C369.969 331.769 376.881 325.369 376.729 317.458C376.577 311.551 372.419 306.477 368.921 301.496C365.422 296.515 362.363 290.439 364.594 284.903C366.47 280.199 371.574 277.361 376.07 274.493C379.315 272.442 385.906 267.862 385.129 263.528C384.334 259.395 376.56 255.925 372.757 254.769Z" fill="#06223E"/>
<path d="M342.521 392.021L333.665 370.631L335.693 370.785C337.334 370.911 338.98 370.602 340.434 369.897C341.887 369.191 343.087 368.118 343.89 366.807C350.651 355.826 368.109 327.96 373.028 326.572C380.042 324.675 387.258 329.795 389.929 337.367C391.94 342.934 371.338 366.807 361.839 380.378C353.406 392.391 342.521 392.021 342.521 392.021Z" fill="#06223E"/>
<path d="M256.14 538.433V538.603C256.265 538.899 256.469 539.162 256.735 539.367C257.001 539.572 257.32 539.712 257.661 539.775C257.866 539.833 258.084 539.843 258.294 539.802C258.505 539.762 258.7 539.673 258.861 539.543C260.281 538.356 259.368 533.375 259.284 532.881C259.274 532.817 259.243 532.757 259.195 532.71C259.146 532.663 259.083 532.631 259.013 532.619C258.948 532.612 258.881 532.619 258.819 532.64C258.757 532.662 258.702 532.697 258.658 532.742C257.509 534.223 255.684 536.86 256.14 538.433ZM258.743 533.806C259.047 535.78 259.182 538.433 258.388 539.081C258.305 539.122 258.212 539.144 258.118 539.144C258.023 539.144 257.93 539.122 257.847 539.081C257.62 539.042 257.407 538.951 257.23 538.816C257.052 538.681 256.916 538.506 256.833 538.31C256.529 537.477 257.171 535.78 258.743 533.776V533.806Z" fill="#308CEA"/>
<path d="M258.76 533.529C259.199 535.195 260.923 538.032 262.444 538.371C262.721 538.422 263.009 538.386 263.261 538.268C263.513 538.151 263.713 537.959 263.83 537.724C263.962 537.504 264.04 537.26 264.058 537.009C264.075 536.759 264.032 536.508 263.931 536.274C263.239 534.362 259.25 532.789 259.081 532.712C259.026 532.685 258.965 532.671 258.903 532.671C258.841 532.671 258.78 532.685 258.726 532.712C258.676 532.748 258.638 532.796 258.614 532.85C258.59 532.904 258.582 532.963 258.591 533.02C258.632 533.194 258.689 533.364 258.76 533.529ZM263.357 536.613C263.391 536.75 263.396 536.891 263.37 537.028C263.343 537.166 263.287 537.298 263.205 537.415C262.985 537.785 262.765 537.785 262.596 537.755C261.565 537.57 259.993 535.241 259.486 533.622C260.788 534.223 262.867 535.349 263.306 536.521C263.295 536.551 263.295 536.584 263.306 536.613H263.357Z" fill="#308CEA"/>
<path d="M379.399 412.994L377.828 418.006C377.625 418.392 378.115 418.793 378.825 418.777H437.133C437.691 418.777 438.147 418.515 438.181 418.207L438.722 413.195C438.722 412.855 438.283 412.547 437.674 412.562H380.38C380.189 412.549 379.998 412.582 379.826 412.657C379.653 412.733 379.506 412.849 379.399 412.994Z" fill="#308CEA"/>
<path opacity="0.5" d="M379.399 412.994L377.828 418.006C377.625 418.392 378.115 418.793 378.825 418.777H437.133C437.691 418.777 438.147 418.515 438.181 418.207L438.722 413.195C438.722 412.855 438.283 412.547 437.674 412.562H380.38C380.189 412.549 379.998 412.582 379.826 412.657C379.653 412.733 379.506 412.849 379.399 412.994Z" fill="white"/>
<path d="M390.588 419.24H388.898C388.577 419.24 388.306 419.085 388.34 418.9L389.101 412.377C389.101 412.192 389.422 412.038 389.76 412.038H391.45C391.771 412.038 392.024 412.192 392.008 412.393L391.247 418.9C391.146 419.085 390.841 419.255 390.588 419.24Z" fill="#308CEA"/>
<path d="M432.621 419.24H430.931C430.626 419.24 430.356 419.085 430.39 418.9L431.15 412.393C431.15 412.192 431.455 412.038 431.776 412.038H433.466C433.787 412.038 434.057 412.192 434.024 412.377L433.263 418.885C433.229 419.086 432.959 419.24 432.621 419.24Z" fill="#308CEA"/>
<path d="M413.337 419.209H411.647C411.326 419.209 411.055 419.055 411.089 418.87L411.849 412.362C411.849 412.161 412.171 412.007 412.492 412.007H414.182C414.503 412.007 414.756 412.161 414.74 412.346L413.962 418.854C413.962 419.055 413.675 419.209 413.337 419.209Z" fill="#308CEA"/>
<path d="M397.129 298.767C398.92 307.171 400.678 322.346 394.424 326.911C394.424 326.911 396.926 335.532 413.641 337.829C432.097 340.359 422.413 330.766 422.413 330.766C412.356 327.142 412.61 320.511 414.334 314.404L397.129 298.767Z" fill="#EAC1AC"/>
<path d="M394.492 326.834C403.411 327.35 412.275 328.473 421.01 330.196L433.652 333.635C435.9 337.768 432.215 346.265 421.635 347.884C421.635 347.884 394.982 351.231 387.123 326.186L394.492 326.834Z" fill="#EAC1AC"/>
<path opacity="0.2" d="M404.109 305.167L414.249 314.419C413.822 315.852 413.545 317.319 413.421 318.799C409.568 317.766 403.382 313.895 402.959 310.194C402.964 308.464 403.355 306.754 404.109 305.167Z" fill="#051729"/>
<path d="M385.839 288.157C390.368 301.203 391.957 306.817 401.236 311.952C415.061 319.663 431.657 311.767 431.488 297.764C431.353 285.149 424.001 265.934 408.3 263.837C404.849 263.365 401.323 263.706 398.057 264.829C394.791 265.952 391.895 267.819 389.644 270.252C387.392 272.685 385.861 275.604 385.195 278.73C384.529 281.855 384.75 285.085 385.839 288.11V288.157Z" fill="#EAC1AC"/>
<path d="M419.962 286.121C421.561 288.411 423.5 290.487 425.725 292.289C425.205 292.804 424.568 293.208 423.858 293.474C423.149 293.741 422.384 293.863 421.618 293.832L419.962 286.121Z" fill="#ED893E"/>
<path d="M418.356 300.802C418.928 300.745 419.494 300.642 420.046 300.494C420.09 300.485 420.131 300.468 420.167 300.444C420.203 300.421 420.234 300.391 420.257 300.357C420.281 300.322 420.297 300.284 420.304 300.244C420.311 300.204 420.31 300.163 420.3 300.124C420.276 300.043 420.219 299.973 420.14 299.93C420.061 299.887 419.967 299.874 419.877 299.892C418.435 300.255 416.919 300.305 415.451 300.037C413.984 299.769 412.606 299.191 411.427 298.35C411.357 298.287 411.263 298.252 411.165 298.252C411.067 298.252 410.973 298.287 410.903 298.35C410.869 298.38 410.842 298.416 410.824 298.456C410.806 298.496 410.796 298.538 410.796 298.582C410.796 298.625 410.806 298.667 410.824 298.707C410.842 298.747 410.869 298.783 410.903 298.813C411.941 299.575 413.134 300.143 414.413 300.484C415.692 300.826 417.032 300.934 418.356 300.802Z" fill="#06223E"/>
<path d="M380.92 262.109C379.058 263.209 377.512 264.7 376.412 266.458C375.312 268.215 374.69 270.188 374.599 272.211C374.523 272.984 374.656 273.763 374.988 274.478C375.155 274.831 375.421 275.139 375.759 275.369C376.097 275.599 376.496 275.744 376.915 275.788C378.199 275.788 379.146 274.74 379.856 273.753L383.135 269.126C384.485 267.623 385.62 265.97 386.515 264.207C387.613 261.169 382.932 260.937 380.92 262.109Z" fill="#308CEA"/>
<path d="M382.526 265.178C373.552 274.647 369.529 300.848 395.827 308.158C400.222 304.981 393.123 299.198 390.115 291.889C388.137 287.108 398.16 278.179 402.064 274.508C405.968 270.838 409.568 265.549 415.078 266.397C416.476 266.823 417.982 266.861 419.404 266.505C423.782 264.7 421.652 262.31 419.404 260.644C415.957 258.316 411.852 256.936 407.573 256.666C402.958 256.17 398.279 256.683 393.924 258.163C389.568 259.643 385.661 262.048 382.526 265.178Z" fill="#06223E"/>
<path d="M411.714 262.002C422.277 270.036 408.334 270.237 400.948 275.326C393.867 280.214 398.836 288.218 386.853 291.935C377.067 294.541 374.802 292.968 372.098 291.241C375.449 290.712 378.515 289.186 380.817 286.902C383.118 284.617 384.528 281.702 384.825 278.611C385.653 272.75 399.647 252.687 411.714 262.002Z" fill="#06223E"/>
<path d="M384.25 299.121C385.905 301.296 388.43 302.792 391.281 303.285C395.067 303.886 396.52 300.725 395.219 297.641C393.985 294.865 390.554 291.21 386.887 291.996C385.626 292.294 384.545 293.036 383.883 294.06C383.221 295.083 383.031 296.304 383.354 297.456C383.527 298.06 383.831 298.627 384.25 299.121Z" fill="#EAC1AC"/>
<path d="M409.906 262.819C411.951 267.569 417.849 266.937 422.21 271.902C424.897 274.987 430.17 265.471 422.987 261.724C415.804 257.977 406.695 255.386 409.906 262.819Z" fill="#06223E"/>
<path d="M403.686 282.867C403.837 282.882 403.988 282.852 404.119 282.783C404.25 282.713 404.353 282.608 404.413 282.481C405.799 279.675 409.957 278.965 409.99 278.965C410.176 278.928 410.339 278.827 410.446 278.684C410.553 278.541 410.595 278.365 410.565 278.194C410.528 278.027 410.421 277.88 410.266 277.784C410.11 277.689 409.921 277.653 409.737 277.685C409.517 277.685 404.785 278.595 403.095 281.988C403.019 282.146 403.014 282.324 403.081 282.485C403.147 282.646 403.279 282.778 403.45 282.851H403.686V282.867Z" fill="#06223E"/>
<path d="M425.658 277.192C425.781 277.2 425.905 277.177 426.015 277.125C426.126 277.074 426.218 276.995 426.283 276.899C426.337 276.83 426.375 276.751 426.395 276.668C426.414 276.585 426.416 276.499 426.398 276.416C426.381 276.332 426.345 276.253 426.294 276.182C426.242 276.111 426.175 276.051 426.097 276.004C425.161 275.413 424.083 275.035 422.953 274.904C421.824 274.772 420.676 274.891 419.607 275.249C419.518 275.28 419.437 275.329 419.37 275.39C419.302 275.452 419.249 275.525 419.214 275.606C419.179 275.688 419.163 275.774 419.167 275.861C419.17 275.948 419.194 276.034 419.235 276.112C419.31 276.27 419.449 276.393 419.623 276.457C419.797 276.521 419.992 276.519 420.165 276.452C421.005 276.184 421.904 276.103 422.786 276.215C423.668 276.328 424.507 276.631 425.235 277.099C425.367 277.158 425.511 277.189 425.658 277.192Z" fill="#06223E"/>
<path d="M495.138 361.609L485.234 366.745L474.941 386.947C474.941 386.947 484.879 392.715 492.721 388.042C500.563 383.369 495.138 361.609 495.138 361.609Z" fill="#308CEA"/>
<path opacity="0.5" d="M495.138 361.609L485.234 366.745L474.941 386.947C474.941 386.947 484.879 392.715 492.721 388.042C500.563 383.369 495.138 361.609 495.138 361.609Z" fill="white"/>
<path d="M321.953 367.855L333.665 370.94L344.769 391.897C344.769 391.897 335.845 399.439 326.178 392.237C318.944 386.777 321.953 367.855 321.953 367.855Z" fill="#308CEA"/>
<g opacity="0.5">
<path d="M321.953 367.855L333.665 370.94L344.769 391.897C344.769 391.897 335.845 399.439 326.178 392.237C318.944 386.777 321.953 367.855 321.953 367.855Z" fill="white"/>
</g>
<path d="M424.982 282.42C425.793 282.281 426.672 283.114 426.858 284.255C427.044 285.396 426.587 286.445 425.776 286.568C424.965 286.691 424.086 285.874 423.9 284.733C423.714 283.592 424.17 282.528 424.982 282.42Z" fill="#06223E"/>
<path d="M427.483 281.294L424.627 282.574C426.351 283.684 427.483 281.294 427.483 281.294Z" fill="#06223E"/>
<path d="M410.869 285.072C411.68 284.933 412.559 285.766 412.745 286.907C412.931 288.049 412.475 289.097 411.663 289.221C410.852 289.344 409.973 288.527 409.787 287.385C409.602 286.244 410.024 285.211 410.869 285.072Z" fill="#06223E"/>
<path d="M413.337 283.947L410.48 285.227C412.204 286.337 413.337 283.947 413.337 283.947Z" fill="#06223E"/>
<path d="M339.31 344.075C337.719 344.083 336.141 343.811 334.662 343.273C329.423 341.315 326.989 336.349 327.902 329.625C327.931 329.423 328.048 329.239 328.225 329.115C328.402 328.991 328.627 328.936 328.848 328.962C328.959 328.973 329.066 329.005 329.163 329.055C329.26 329.105 329.345 329.172 329.413 329.253C329.481 329.333 329.53 329.426 329.558 329.524C329.586 329.622 329.592 329.725 329.575 329.825C328.696 335.794 330.758 340.173 335.237 341.839C337.836 342.651 340.651 342.691 343.277 341.954C345.903 341.217 348.206 339.741 349.856 337.737C354.099 332.586 352.713 325.276 346.104 317.689C328.798 297.872 329.947 287.339 332.398 279.011C335.947 266.921 346.341 253.072 375.749 255.74C375.973 255.761 376.179 255.862 376.322 256.021C376.464 256.18 376.532 256.384 376.509 256.588C376.487 256.793 376.376 256.981 376.202 257.111C376.028 257.241 375.804 257.303 375.58 257.282C347.372 254.722 337.4 267.923 334.02 279.428C331.586 287.755 330.64 297.486 347.423 316.748C357.563 328.36 353.456 335.963 351.208 338.677C349.802 340.34 348 341.689 345.939 342.624C343.878 343.559 341.612 344.055 339.31 344.075Z" fill="#06223E"/>
</svg>
