<svg width="780" height="720" viewBox="0 0 780 720" fill="none" xmlns="http://www.w3.org/2000/svg">
<path d="M701.663 605.534H650.025V605.923H701.663V605.534Z" fill="#EBEBEB"/>
<path d="M516.63 609.775H503.081V610.164H516.63V609.775Z" fill="#EBEBEB"/>
<path d="M648.467 591.065H618.548V591.455H648.467V591.065Z" fill="#EBEBEB"/>
<path d="M149.353 593.685H82.0156V594.075H149.353V593.685Z" fill="#EBEBEB"/>
<path d="M173.114 593.685H163.245V594.075H173.114V593.685Z" fill="#EBEBEB"/>
<path d="M351.256 600.264H205.2V600.654H351.256V600.264Z" fill="#EBEBEB"/>
<path d="M371.914 510.913H70.8526C68.4916 510.913 66.2272 509.975 64.5577 508.305C62.8881 506.636 61.9502 504.371 61.9502 502.01V78.8245C61.9708 76.4769 62.9178 74.2326 64.5851 72.5798C66.2524 70.9271 68.505 69.9999 70.8526 70H371.914C373.083 70 374.241 70.2303 375.321 70.6777C376.401 71.125 377.382 71.7808 378.209 72.6075C379.036 73.4341 379.692 74.4155 380.139 75.4956C380.586 76.5757 380.817 77.7334 380.817 78.9024V502.01C380.817 503.179 380.586 504.337 380.139 505.417C379.692 506.497 379.036 507.478 378.209 508.305C377.382 509.132 376.401 509.787 375.321 510.235C374.241 510.682 373.083 510.913 371.914 510.913ZM70.8526 70.3118C68.5962 70.3159 66.4334 71.2141 64.8378 72.8097C63.2423 74.4052 62.3441 76.5681 62.34 78.8245V502.01C62.3441 504.267 63.2423 506.429 64.8378 508.025C66.4334 509.62 68.5962 510.519 70.8526 510.523H371.914C374.171 510.519 376.333 509.62 377.929 508.025C379.525 506.429 380.423 504.267 380.427 502.01V78.8245C380.423 76.5681 379.525 74.4052 377.929 72.8097C376.333 71.2141 374.171 70.3159 371.914 70.3118H70.8526Z" fill="#EBEBEB"/>
<path d="M709.147 510.913H408.085C405.724 510.913 403.46 509.975 401.79 508.305C400.121 506.636 399.183 504.371 399.183 502.01V78.8245C399.203 76.4769 400.15 74.2326 401.817 72.5798C403.485 70.9271 405.737 69.9999 408.085 70H709.147C711.508 70 713.772 70.9379 715.442 72.6075C717.111 74.277 718.049 76.5414 718.049 78.9024V502.01C718.049 504.371 717.111 506.636 715.442 508.305C713.772 509.975 711.508 510.913 709.147 510.913ZM408.085 70.3118C405.829 70.3159 403.666 71.2141 402.07 72.8097C400.475 74.4052 399.577 76.5681 399.572 78.8245V502.01C399.577 504.267 400.475 506.429 402.07 508.025C403.666 509.62 405.829 510.519 408.085 510.523H709.147C711.403 510.519 713.566 509.62 715.161 508.025C716.757 506.429 717.655 504.267 717.659 502.01V78.8245C717.655 76.5681 716.757 74.4052 715.161 72.8097C713.566 71.2141 711.403 70.3159 709.147 70.3118H408.085Z" fill="#EBEBEB"/>
<path d="M779.774 580.448H0.225586V580.838H779.774V580.448Z" fill="#EBEBEB"/>
<path d="M186.272 474.975C184.963 459.914 169.59 454.286 151.364 455.876C133.138 457.466 118.997 465.683 120.276 480.744L186.272 474.975Z" fill="#F0F0F0"/>
<path d="M150.772 449.001C159.222 448.252 161.919 441.112 161.187 432.661C160.454 424.211 156.509 417.647 148.09 418.38C139.671 419.113 136.943 426.269 137.675 434.719C138.408 443.17 142.321 449.734 150.772 449.001Z" fill="#F0F0F0"/>
<path d="M530.474 154.191C530.622 155.863 530.271 157.541 529.465 159.013C528.659 160.484 527.434 161.684 525.946 162.46C524.458 163.236 522.774 163.552 521.106 163.37C519.437 163.189 517.861 162.516 516.575 161.437C515.289 160.359 514.352 158.924 513.883 157.313C513.413 155.702 513.432 153.988 513.937 152.387C514.442 150.787 515.41 149.372 516.719 148.323C518.028 147.273 519.619 146.635 521.291 146.489C523.53 146.295 525.754 146.997 527.476 148.441C529.198 149.885 530.276 151.953 530.474 154.191Z" fill="#F5F5F5"/>
<path d="M577.356 150.044C577.501 151.712 577.148 153.386 576.342 154.853C575.535 156.32 574.312 157.516 572.826 158.288C571.341 159.06 569.659 159.374 567.995 159.191C566.331 159.008 564.758 158.335 563.476 157.258C562.194 156.181 561.26 154.748 560.793 153.14C560.325 151.533 560.345 149.822 560.849 148.226C561.354 146.629 562.32 145.218 563.627 144.171C564.933 143.124 566.521 142.487 568.189 142.342C570.425 142.152 572.645 142.856 574.363 144.299C576.082 145.743 577.158 147.809 577.356 150.044Z" fill="#F5F5F5"/>
<path d="M624.254 145.944C624.402 147.615 624.051 149.293 623.245 150.765C622.439 152.237 621.215 153.436 619.727 154.212C618.239 154.988 616.554 155.305 614.886 155.123C613.218 154.941 611.641 154.268 610.355 153.19C609.07 152.111 608.133 150.676 607.663 149.065C607.194 147.454 607.212 145.74 607.717 144.14C608.222 142.539 609.19 141.125 610.499 140.075C611.808 139.025 613.399 138.387 615.071 138.242C617.31 138.047 619.534 138.749 621.256 140.193C622.978 141.637 624.056 143.705 624.254 145.944Z" fill="#F5F5F5"/>
<path d="M534.653 201.93C534.801 203.602 534.449 205.28 533.643 206.752C532.837 208.223 531.613 209.423 530.125 210.199C528.637 210.975 526.953 211.292 525.284 211.11C523.616 210.928 522.04 210.255 520.754 209.176C519.468 208.098 518.531 206.663 518.062 205.052C517.592 203.441 517.611 201.727 518.116 200.126C518.62 198.526 519.589 197.111 520.898 196.062C522.207 195.012 523.798 194.374 525.47 194.228C527.708 194.034 529.933 194.736 531.654 196.18C533.376 197.624 534.455 199.692 534.653 201.93Z" fill="#F5F5F5"/>
<path d="M581.535 197.846C581.68 199.514 581.327 201.188 580.52 202.655C579.714 204.123 578.491 205.318 577.005 206.09C575.519 206.862 573.838 207.177 572.174 206.993C570.509 206.81 568.937 206.137 567.655 205.06C566.373 203.983 565.439 202.55 564.972 200.942C564.504 199.335 564.524 197.624 565.028 196.028C565.532 194.431 566.499 193.02 567.805 191.973C569.112 190.926 570.699 190.289 572.367 190.144C573.475 190.048 574.591 190.171 575.651 190.506C576.711 190.841 577.695 191.381 578.546 192.096C579.398 192.811 580.1 193.687 580.613 194.674C581.125 195.66 581.439 196.738 581.535 197.846Z" fill="#F5F5F5"/>
<path d="M628.432 193.73C628.58 195.401 628.229 197.079 627.423 198.551C626.617 200.023 625.392 201.223 623.904 201.998C622.416 202.774 620.732 203.091 619.064 202.909C617.396 202.727 615.819 202.054 614.533 200.976C613.247 199.898 612.311 198.462 611.841 196.851C611.371 195.24 611.39 193.526 611.895 191.926C612.4 190.326 613.368 188.911 614.677 187.861C615.986 186.811 617.577 186.173 619.249 186.028C621.488 185.833 623.712 186.535 625.434 187.979C627.155 189.423 628.234 191.492 628.432 193.73Z" fill="#F5F5F5"/>
<path d="M538.831 249.733C538.976 251.401 538.622 253.074 537.816 254.542C537.01 256.009 535.787 257.205 534.301 257.977C532.815 258.749 531.134 259.063 529.47 258.88C527.805 258.697 526.233 258.024 524.951 256.947C523.669 255.87 522.735 254.437 522.267 252.829C521.8 251.221 521.82 249.511 522.324 247.915C522.828 246.318 523.795 244.907 525.101 243.86C526.408 242.812 527.995 242.176 529.663 242.031C530.771 241.933 531.888 242.054 532.949 242.388C534.01 242.722 534.995 243.263 535.846 243.978C536.698 244.694 537.4 245.57 537.912 246.558C538.425 247.545 538.737 248.624 538.831 249.733Z" fill="#F5F5F5"/>
<path d="M585.729 245.617C585.877 247.288 585.525 248.966 584.72 250.438C583.914 251.91 582.689 253.11 581.201 253.885C579.713 254.661 578.029 254.978 576.361 254.796C574.692 254.614 573.116 253.941 571.83 252.863C570.544 251.785 569.607 250.349 569.138 248.738C568.668 247.127 568.687 245.413 569.192 243.813C569.697 242.213 570.665 240.798 571.974 239.748C573.283 238.698 574.874 238.06 576.546 237.915C578.784 237.72 581.009 238.422 582.731 239.866C584.452 241.31 585.531 243.378 585.729 245.617Z" fill="#F5F5F5"/>
<path d="M632.611 241.501C632.759 243.172 632.407 244.85 631.601 246.322C630.795 247.794 629.571 248.993 628.083 249.769C626.595 250.545 624.911 250.862 623.242 250.68C621.574 250.498 619.998 249.825 618.712 248.747C617.426 247.668 616.489 246.233 616.02 244.622C615.55 243.011 615.569 241.297 616.074 239.697C616.578 238.096 617.547 236.682 618.856 235.632C620.165 234.582 621.756 233.944 623.428 233.799C625.666 233.604 627.891 234.306 629.612 235.75C631.334 237.194 632.413 239.262 632.611 241.501Z" fill="#F5F5F5"/>
<path d="M622.476 244.276L526.155 252.695L611.563 148.921L524.082 156.577C523.838 156.6 523.591 156.574 523.357 156.501C523.123 156.428 522.906 156.309 522.718 156.151C522.531 155.992 522.377 155.798 522.266 155.579C522.155 155.361 522.088 155.122 522.071 154.877C522.027 154.387 522.18 153.9 522.496 153.523C522.812 153.146 523.265 152.909 523.755 152.866L620.091 144.447L534.668 248.22L622.18 240.565C622.673 240.526 623.162 240.682 623.541 241C623.921 241.318 624.16 241.772 624.207 242.265C624.226 242.51 624.197 242.758 624.12 242.992C624.043 243.226 623.921 243.443 623.76 243.63C623.599 243.817 623.403 243.97 623.183 244.081C622.962 244.192 622.722 244.258 622.476 244.276Z" fill="#E6E6E6"/>
<path d="M623.958 429.543C623.81 429.089 623.531 428.689 623.157 428.392C622.782 428.095 622.329 427.916 621.853 427.875C617.665 427.682 613.7 425.93 610.737 422.964C606.886 419.082 604.625 413.204 604.251 406.219C604.215 405.589 603.941 404.996 603.483 404.562C603.025 404.127 602.419 403.883 601.788 403.88C601.446 403.882 601.109 403.953 600.796 404.088C600.483 404.224 600.201 404.422 599.966 404.669C599.732 404.917 599.55 405.21 599.431 405.53C599.313 405.85 599.261 406.19 599.277 406.531C599.714 414.732 602.489 421.748 607.213 426.472C610.913 430.177 615.821 432.429 621.042 432.817H621.401C621.811 432.848 622.222 432.778 622.598 432.612C622.975 432.446 623.304 432.189 623.557 431.865C623.81 431.541 623.979 431.16 624.049 430.755C624.119 430.349 624.088 429.933 623.958 429.543Z" fill="#F0F0F0"/>
<path d="M618.968 459.462C598.31 457.654 583.405 443.575 578.697 421.592C578.622 421.262 578.615 420.92 578.675 420.587C578.736 420.254 578.863 419.936 579.05 419.654C579.236 419.371 579.478 419.129 579.76 418.943C580.042 418.756 580.36 418.628 580.693 418.567C581.324 418.455 581.974 418.59 582.508 418.944C583.042 419.298 583.419 419.844 583.561 420.469C587.787 440.223 601.039 452.883 619.421 454.489C639.564 456.251 661.189 442.998 665.071 409.602C665.138 408.951 665.458 408.352 665.963 407.935C666.468 407.518 667.116 407.316 667.768 407.373C668.099 407.4 668.42 407.493 668.714 407.647C669.008 407.8 669.268 408.011 669.478 408.267C669.689 408.523 669.846 408.819 669.941 409.136C670.036 409.454 670.065 409.787 670.029 410.117C666.303 441.611 645.598 461.785 618.968 459.462Z" fill="#F0F0F0"/>
<path d="M579.992 399.686C579.661 399.659 579.34 399.566 579.046 399.412C578.752 399.259 578.492 399.048 578.281 398.792C578.071 398.536 577.913 398.241 577.819 397.923C577.724 397.605 577.694 397.272 577.731 396.942C581.442 365.449 602.146 345.258 628.76 347.597C652.147 349.639 667.816 367.101 670.263 393.403C670.289 393.733 670.248 394.065 670.144 394.38C670.04 394.694 669.874 394.985 669.656 395.234C669.438 395.484 669.173 395.688 668.876 395.834C668.579 395.98 668.255 396.065 667.925 396.085C667.274 396.115 666.637 395.892 666.148 395.461C665.66 395.03 665.357 394.427 665.305 393.777C663.045 370.079 649.06 354.379 628.339 352.571C608.274 350.809 586.555 364.045 582.689 397.41C582.661 397.737 582.57 398.055 582.419 398.346C582.269 398.637 582.062 398.896 581.812 399.107C581.561 399.319 581.272 399.479 580.959 399.578C580.647 399.677 580.318 399.714 579.992 399.686Z" fill="#F0F0F0"/>
<path d="M619.982 446.101C616.278 445.804 612.649 444.898 609.24 443.419C608.922 443.28 608.636 443.076 608.401 442.821C608.166 442.566 607.986 442.265 607.874 441.936C607.761 441.608 607.717 441.26 607.746 440.914C607.774 440.568 607.874 440.232 608.039 439.927C608.331 439.391 608.812 438.983 609.388 438.781C609.964 438.579 610.595 438.599 611.157 438.836C614.408 440.232 617.882 441.034 621.416 441.205C636.68 442.078 652.801 431.258 654.391 405.128C655.358 389.022 649.839 376.02 639.548 369.799C639.016 369.477 638.623 368.967 638.447 368.37C638.271 367.772 638.325 367.131 638.597 366.571C638.753 366.262 638.969 365.988 639.235 365.766C639.5 365.544 639.808 365.379 640.14 365.281C640.472 365.183 640.821 365.154 641.164 365.197C641.507 365.239 641.838 365.351 642.137 365.527C654.064 372.73 660.456 387.354 659.365 405.424C657.805 430.619 642.121 447.395 621.12 446.195L619.982 446.101Z" fill="#F0F0F0"/>
<path d="M597.781 430.556C597.494 430.751 597.17 430.884 596.829 430.947C596.488 431.011 596.138 431.004 595.8 430.926C595.462 430.849 595.144 430.703 594.865 430.497C594.586 430.291 594.353 430.03 594.179 429.73C589.558 421.138 587.527 411.389 588.332 401.666C589.798 377.547 604.251 361.13 623.88 360.849C624.226 360.842 624.569 360.907 624.889 361.039C625.208 361.171 625.497 361.367 625.737 361.616C625.977 361.865 626.163 362.161 626.284 362.485C626.404 362.809 626.456 363.154 626.437 363.5C626.398 364.123 626.126 364.709 625.676 365.143C625.226 365.576 624.629 365.824 624.005 365.838C609.443 366.119 594.818 377.126 593.322 401.963C592.565 410.739 594.374 419.546 598.529 427.313C598.842 427.853 598.938 428.49 598.799 429.098C598.66 429.705 598.296 430.238 597.781 430.588V430.556Z" fill="#F0F0F0"/>
<path d="M631.862 428.592C631.626 428.038 631.598 427.416 631.785 426.843C631.971 426.27 632.359 425.784 632.876 425.474C639.439 421.529 643.462 413.251 643.524 403.257C643.524 395.259 641.264 388.492 636.992 384.205C635.333 382.561 633.356 381.273 631.181 380.421C629.007 379.568 626.682 379.169 624.347 379.247C616.661 379.247 610.425 383.472 606.979 390.893C606.713 391.457 606.245 391.901 605.667 392.135C605.089 392.369 604.444 392.376 603.861 392.156C603.536 392.036 603.239 391.849 602.989 391.608C602.74 391.367 602.543 391.077 602.411 390.756C602.279 390.436 602.215 390.091 602.223 389.744C602.231 389.397 602.311 389.056 602.458 388.742C606.73 379.652 614.728 374.273 624.285 374.258C627.279 374.18 630.257 374.71 633.041 375.814C635.825 376.918 638.357 378.573 640.484 380.681C645.707 385.92 648.545 393.949 648.482 403.304C648.389 415.075 643.431 424.959 635.355 429.808C635.049 429.975 634.712 430.076 634.364 430.105C634.017 430.134 633.668 430.089 633.339 429.975C633.01 429.86 632.708 429.678 632.454 429.44C632.2 429.202 631.998 428.913 631.862 428.592Z" fill="#F0F0F0"/>
<path d="M613.902 410.179C613.569 410.315 613.21 410.377 612.851 410.361C612.492 410.345 612.14 410.252 611.82 410.088C611.5 409.923 611.22 409.692 610.998 409.409C610.776 409.126 610.618 408.798 610.534 408.449C610.363 407.778 610.238 407.077 610.129 406.359C608.71 397.005 613.73 388.913 621.791 387.463C623.668 387.055 625.614 387.092 627.474 387.571C629.334 388.05 631.056 388.958 632.502 390.223C632.773 390.464 632.987 390.763 633.126 391.098C633.266 391.433 633.328 391.795 633.309 392.158C633.289 392.52 633.189 392.874 633.014 393.192C632.839 393.51 632.595 393.785 632.299 393.996L632.143 394.105C631.676 394.43 631.111 394.584 630.543 394.542C629.975 394.499 629.439 394.262 629.025 393.871C628.151 393.133 627.117 392.608 626.005 392.337C624.893 392.066 623.733 392.058 622.617 392.312C616.474 393.419 614.136 399.811 615.009 405.549C615.102 406.11 615.196 406.656 615.336 407.108C615.487 407.695 615.42 408.317 615.147 408.858C614.875 409.4 614.416 409.825 613.855 410.054L613.902 410.179Z" fill="#F0F0F0"/>
<path d="M622.149 419.783C621.756 419.745 621.379 419.607 621.055 419.382C620.73 419.157 620.467 418.854 620.292 418.499C620.118 418.145 620.036 417.752 620.056 417.357C620.075 416.963 620.195 416.58 620.403 416.244L620.622 415.901C620.845 415.544 621.163 415.255 621.539 415.065C621.916 414.875 622.337 414.793 622.758 414.826C623.54 414.87 624.325 414.823 625.096 414.685C630.459 413.719 632.892 408.729 632.892 403.647C632.876 403.036 633.083 402.441 633.472 401.971C633.862 401.501 634.409 401.188 635.012 401.09C635.358 401.037 635.711 401.058 636.049 401.15C636.386 401.243 636.701 401.405 636.971 401.628C637.242 401.85 637.463 402.126 637.619 402.439C637.776 402.752 637.865 403.094 637.881 403.444C638.021 411.583 633.203 418.302 625.985 419.596C624.721 419.83 623.431 419.893 622.149 419.783Z" fill="#F0F0F0"/>
<path d="M623.256 410.569C621.997 410.463 620.802 409.966 619.84 409.147C618.878 408.327 618.197 407.227 617.892 406.001C617.804 405.655 617.8 405.293 617.88 404.945C617.96 404.597 618.122 404.274 618.352 404.001C618.582 403.728 618.874 403.514 619.204 403.376C619.533 403.239 619.891 403.182 620.247 403.21H620.823C621.26 403.256 621.674 403.428 622.014 403.705C622.355 403.982 622.607 404.352 622.741 404.77C622.795 404.987 622.916 405.182 623.087 405.327C623.257 405.472 623.469 405.561 623.692 405.58C624.893 405.689 625.095 404.021 625.127 403.616C625.199 403.009 625.085 402.394 624.799 401.854C624.369 401.334 624.147 400.673 624.176 399.999C624.215 399.503 624.402 399.031 624.711 398.642C625.021 398.254 625.44 397.966 625.914 397.817C626.388 397.668 626.896 397.664 627.372 397.806C627.848 397.947 628.272 398.227 628.588 398.611C629.804 400.148 630.365 402.104 630.147 404.052C629.741 408.153 626.857 410.881 623.256 410.569Z" fill="#F0F0F0"/>
<path d="M576.358 354.769C576.032 354.742 575.715 354.65 575.424 354.499C575.134 354.349 574.876 354.142 574.666 353.891C574.456 353.641 574.297 353.351 574.2 353.038C574.102 352.726 574.067 352.398 574.097 352.072L575.984 330.447L597.609 332.349C597.935 332.377 598.252 332.468 598.542 332.619C598.833 332.77 599.09 332.976 599.301 333.227C599.511 333.478 599.669 333.768 599.767 334.08C599.864 334.392 599.899 334.721 599.869 335.047C599.842 335.373 599.75 335.691 599.6 335.982C599.449 336.274 599.243 336.532 598.992 336.744C598.742 336.955 598.452 337.115 598.14 337.214C597.827 337.314 597.499 337.351 597.172 337.323L580.521 335.857L579.071 352.508C579.041 352.835 578.948 353.153 578.796 353.443C578.643 353.734 578.435 353.991 578.183 354.201C577.931 354.411 577.64 354.57 577.327 354.667C577.014 354.764 576.685 354.799 576.358 354.769Z" fill="#F0F0F0"/>
<path d="M679.15 363.765C678.824 363.738 678.507 363.646 678.216 363.495C677.926 363.345 677.668 363.138 677.458 362.887C677.248 362.636 677.089 362.347 676.992 362.034C676.894 361.722 676.859 361.394 676.889 361.068L678.339 344.417L661.688 342.967C661.361 342.937 661.044 342.844 660.753 342.691C660.463 342.539 660.205 342.331 659.995 342.079C659.785 341.827 659.627 341.536 659.53 341.223C659.432 340.91 659.397 340.58 659.427 340.254C659.455 339.928 659.547 339.61 659.697 339.32C659.848 339.03 660.055 338.772 660.305 338.562C660.556 338.352 660.846 338.193 661.158 338.096C661.47 337.998 661.799 337.963 662.125 337.993L683.749 339.88L681.863 361.551C681.792 362.202 681.468 362.8 680.96 363.214C680.453 363.628 679.802 363.826 679.15 363.765Z" fill="#F0F0F0"/>
<path d="M671.494 480.043L649.87 478.156C649.543 478.127 649.225 478.033 648.935 477.881C648.644 477.729 648.387 477.521 648.177 477.269C647.967 477.017 647.809 476.726 647.711 476.413C647.614 476.099 647.579 475.77 647.609 475.443C647.637 475.117 647.728 474.8 647.879 474.51C648.03 474.219 648.236 473.962 648.487 473.751C648.738 473.541 649.028 473.383 649.34 473.285C649.652 473.188 649.981 473.153 650.306 473.183L666.958 474.633L668.407 457.997C668.435 457.669 668.527 457.35 668.678 457.057C668.83 456.765 669.038 456.506 669.29 456.294C669.542 456.082 669.834 455.923 670.148 455.824C670.462 455.726 670.792 455.691 671.12 455.721C671.446 455.748 671.764 455.84 672.054 455.991C672.344 456.141 672.602 456.348 672.812 456.599C673.022 456.849 673.181 457.139 673.278 457.452C673.376 457.764 673.411 458.092 673.381 458.418L671.494 480.043Z" fill="#F0F0F0"/>
<path d="M585.354 472.465L563.729 470.563L565.616 448.954C565.679 448.294 565.999 447.686 566.507 447.261C567.014 446.835 567.668 446.625 568.329 446.678C568.656 446.707 568.973 446.8 569.264 446.953C569.554 447.105 569.812 447.313 570.022 447.565C570.232 447.817 570.39 448.108 570.487 448.421C570.585 448.734 570.62 449.064 570.59 449.39L569.14 466.01L585.775 467.476C586.102 467.503 586.42 467.595 586.711 467.745C587.002 467.896 587.261 468.102 587.472 468.353C587.684 468.603 587.844 468.893 587.943 469.205C588.042 469.518 588.079 469.847 588.051 470.173C587.996 470.834 587.681 471.446 587.175 471.875C586.67 472.305 586.015 472.517 585.354 472.465Z" fill="#F0F0F0"/>
<path d="M116.737 425.676C116.331 425.707 115.929 425.577 115.617 425.315C115.305 425.052 115.108 424.679 115.069 424.273L113.915 410.99L127.199 409.82C127.605 409.79 128.007 409.92 128.319 410.182C128.63 410.444 128.827 410.818 128.867 411.223C128.893 411.627 128.761 412.025 128.499 412.334C128.238 412.642 127.866 412.837 127.464 412.876L117.236 413.78L118.125 424.008C118.155 424.412 118.028 424.812 117.769 425.123C117.51 425.435 117.14 425.633 116.737 425.676Z" fill="#E0E0E0"/>
<path d="M179.943 420.142C179.539 420.172 179.139 420.045 178.827 419.786C178.516 419.527 178.318 419.157 178.274 418.754L177.386 408.511L167.142 409.415C166.736 409.446 166.334 409.316 166.022 409.054C165.71 408.791 165.514 408.417 165.474 408.012C165.444 407.606 165.573 407.204 165.836 406.892C166.098 406.58 166.472 406.383 166.877 406.344L180.161 405.19L181.33 418.473C181.361 418.877 181.233 419.277 180.974 419.589C180.715 419.9 180.345 420.098 179.943 420.142Z" fill="#E0E0E0"/>
<path d="M186.491 477.376L173.192 478.546C172.786 478.576 172.384 478.446 172.072 478.184C171.76 477.922 171.563 477.548 171.524 477.143C171.493 476.736 171.623 476.334 171.885 476.023C172.148 475.711 172.522 475.514 172.927 475.474L183.155 474.586L182.266 464.358C182.235 463.954 182.363 463.554 182.622 463.243C182.881 462.932 183.251 462.733 183.654 462.69C184.057 462.659 184.457 462.787 184.769 463.046C185.08 463.305 185.279 463.675 185.322 464.077L186.491 477.376Z" fill="#E0E0E0"/>
<path d="M133.513 482.007L120.276 483.161L119.107 469.862C119.081 469.458 119.212 469.06 119.474 468.751C119.736 468.443 120.107 468.249 120.51 468.209C120.911 468.182 121.307 468.312 121.615 468.571C121.923 468.829 122.119 469.197 122.163 469.597L123.067 479.84L133.295 478.936C133.701 478.905 134.103 479.035 134.415 479.297C134.726 479.559 134.923 479.933 134.963 480.339C134.978 480.544 134.952 480.749 134.887 480.944C134.822 481.139 134.719 481.319 134.585 481.474C134.45 481.629 134.286 481.756 134.102 481.847C133.918 481.939 133.718 481.993 133.513 482.007Z" fill="#E0E0E0"/>
<path d="M178.867 204.082L128.072 208.448L127.027 196.552C126.951 190.874 129.024 185.378 132.831 181.165C136.638 176.953 141.897 174.335 147.553 173.838C153.209 173.341 158.844 175.001 163.328 178.485C167.811 181.969 170.812 187.019 171.727 192.623L172.319 199.545L179.663 198.906L179.055 191.984C178.713 188.079 177.605 184.28 175.795 180.804C173.985 177.328 171.508 174.242 168.505 171.723C165.502 169.204 162.033 167.301 158.295 166.122C154.557 164.944 150.623 164.514 146.719 164.855C138.833 165.546 131.545 169.341 126.458 175.405C123.939 178.408 122.036 181.877 120.857 185.615C119.679 189.353 119.249 193.287 119.591 197.191L120.635 209.165C117.743 209.731 115.162 211.347 113.389 213.701C111.616 216.055 110.776 218.982 111.031 221.918L114.664 263.453C114.793 265.02 115.231 266.547 115.953 267.945C116.674 269.343 117.664 270.584 118.866 271.598C120.069 272.612 121.46 273.379 122.959 273.854C124.459 274.329 126.037 274.503 127.604 274.366L184.558 269.393C186.126 269.263 187.652 268.825 189.05 268.104C190.448 267.383 191.69 266.393 192.704 265.19C193.718 263.988 194.484 262.597 194.959 261.097C195.434 259.598 195.609 258.019 195.472 256.452L191.839 214.918C191.7 213.354 191.254 211.834 190.527 210.442C189.799 209.051 188.805 207.817 187.6 206.811C186.395 205.804 185.004 205.045 183.505 204.577C182.007 204.109 180.431 203.941 178.867 204.082ZM157.258 236.091L158.506 250.388C158.59 250.963 158.555 251.549 158.404 252.111C158.254 252.673 157.99 253.198 157.629 253.654C157.269 254.11 156.819 254.488 156.307 254.764C155.795 255.04 155.232 255.209 154.653 255.26C154.074 255.311 153.49 255.243 152.938 255.06C152.386 254.878 151.877 254.585 151.442 254.199C151.007 253.813 150.656 253.342 150.409 252.815C150.163 252.289 150.026 251.717 150.009 251.136L148.761 236.823C147.475 236.034 146.471 234.858 145.892 233.464C145.312 232.07 145.188 230.529 145.535 229.061C145.883 227.592 146.685 226.27 147.827 225.284C148.97 224.297 150.394 223.696 151.898 223.567C153.402 223.437 154.908 223.785 156.203 224.561C157.497 225.338 158.514 226.502 159.108 227.89C159.702 229.278 159.843 230.817 159.51 232.29C159.178 233.762 158.39 235.092 157.258 236.091Z" fill="#EBEBEB"/>
<path d="M265.958 228.076L260.828 219.673C258.243 220.041 255.618 220.041 253.033 219.673L247.888 228.045L246.906 227.78C243.572 226.902 240.372 225.575 237.395 223.836L236.522 223.337L238.689 214.232C238.731 214.055 238.808 213.888 238.915 213.742C239.022 213.595 239.157 213.471 239.312 213.376C239.467 213.282 239.639 213.22 239.819 213.192C239.998 213.165 240.181 213.174 240.358 213.218C240.711 213.303 241.016 213.525 241.206 213.835C241.396 214.145 241.455 214.517 241.371 214.871L239.656 221.965C241.871 223.172 244.207 224.144 246.625 224.865L251.645 216.664L252.565 216.82C255.478 217.288 258.446 217.288 261.359 216.82L262.263 216.664L267.283 224.865C269.703 224.149 272.039 223.177 274.252 221.965L272.023 212.61L272.771 212.064C274.802 210.6 276.622 208.863 278.181 206.904C278.398 206.622 278.716 206.434 279.068 206.382C279.42 206.33 279.778 206.416 280.068 206.623C280.219 206.728 280.348 206.863 280.445 207.02C280.543 207.177 280.608 207.351 280.636 207.534C280.663 207.716 280.653 207.902 280.607 208.081C280.56 208.259 280.477 208.427 280.364 208.572C278.832 210.507 277.067 212.245 275.11 213.748L277.402 223.306L276.513 223.804C273.54 225.541 270.346 226.868 267.018 227.749L265.958 228.076ZM234.433 209.773C234.012 209.289 233.591 208.775 233.186 208.213L223.628 210.505L223.114 209.632C221.388 206.649 220.061 203.451 219.169 200.122L218.92 199.14L227.292 193.995C226.924 191.409 226.924 188.784 227.292 186.199L218.92 181.07L219.169 180.072C220.061 176.747 221.388 173.555 223.114 170.577L223.628 169.688L233.186 171.98C234.781 169.892 236.648 168.025 238.736 166.43L237.005 159.195C236.921 158.842 236.98 158.469 237.17 158.16C237.36 157.85 237.665 157.628 238.019 157.543C238.193 157.501 238.373 157.494 238.55 157.523C238.727 157.551 238.896 157.615 239.048 157.709C239.201 157.803 239.333 157.926 239.437 158.072C239.541 158.217 239.616 158.382 239.656 158.556L241.823 167.568L241.075 168.098C238.673 169.826 236.567 171.932 234.838 174.334L234.293 175.083L224.938 172.853C223.726 175.066 222.753 177.403 222.038 179.822L230.223 184.843L230.083 185.747C229.562 188.655 229.562 191.632 230.083 194.54L230.223 195.46L222.038 200.48C222.756 202.894 223.728 205.225 224.938 207.434L234.293 205.204L234.838 205.953C235.323 206.66 235.843 207.341 236.397 207.995C236.638 208.247 236.772 208.582 236.772 208.931C236.772 209.279 236.638 209.614 236.397 209.866C236.264 209.993 236.107 210.092 235.935 210.157C235.762 210.221 235.579 210.25 235.395 210.241C235.211 210.232 235.031 210.186 234.866 210.106C234.7 210.025 234.553 209.912 234.433 209.773ZM290.155 210.537L286.631 209.695C286.278 209.61 285.973 209.388 285.783 209.078C285.593 208.768 285.534 208.396 285.618 208.042C285.703 207.689 285.925 207.383 286.235 207.193C286.545 207.003 286.917 206.944 287.271 207.029L288.83 207.387C290.034 205.178 291.001 202.847 291.714 200.434L283.529 195.413L283.685 194.493C284.205 191.585 284.205 188.608 283.685 185.7L283.529 184.796L291.714 179.776C291.004 177.356 290.037 175.02 288.83 172.806L279.475 175.036L278.945 174.288C277.213 171.889 275.107 169.784 272.709 168.051L271.96 167.521L274.19 158.166C271.976 156.959 269.64 155.992 267.221 155.282L262.154 163.545L261.249 163.389C258.337 162.922 255.369 162.922 252.456 163.389L251.536 163.545L246.563 155.313L245.627 155.594C245.294 155.704 244.932 155.679 244.617 155.524C244.302 155.37 244.06 155.098 243.943 154.768C243.879 154.597 243.849 154.415 243.856 154.233C243.863 154.05 243.906 153.871 243.983 153.705C244.06 153.54 244.169 153.391 244.304 153.269C244.439 153.146 244.598 153.051 244.77 152.99C245.456 152.772 246.157 152.569 246.843 152.382L247.826 152.117L252.971 160.505C255.555 160.121 258.182 160.121 260.766 160.505L265.895 152.117L266.893 152.382C270.219 153.27 273.412 154.597 276.388 156.327L277.277 156.841L274.985 166.399C277.076 167.991 278.943 169.858 280.535 171.949L290.093 169.657L290.607 170.546C292.34 173.52 293.666 176.714 294.552 180.041L294.817 181.038L286.429 186.168C286.817 188.752 286.817 191.379 286.429 193.963L294.817 199.108L294.552 200.091C293.667 203.422 292.34 206.621 290.607 209.601L290.155 210.537ZM256.51 203.458C253.112 203.324 249.891 201.914 247.487 199.51C245.082 197.106 243.673 193.884 243.538 190.487C243.445 187.145 244.607 183.89 246.794 181.362C248.981 178.834 252.036 177.217 255.356 176.829C255.551 176.805 255.748 176.822 255.936 176.88C256.124 176.938 256.297 177.034 256.444 177.164C256.592 177.294 256.71 177.453 256.791 177.632C256.872 177.811 256.914 178.005 256.915 178.201C256.913 178.532 256.79 178.852 256.569 179.099C256.348 179.346 256.044 179.504 255.715 179.542C253.404 179.805 251.244 180.82 249.566 182.43C247.889 184.04 246.786 186.156 246.427 188.454C246.069 190.751 246.474 193.103 247.582 195.147C248.689 197.192 250.437 198.817 252.557 199.772C254.678 200.727 257.053 200.959 259.318 200.433C261.583 199.908 263.613 198.653 265.096 196.862C266.579 195.071 267.433 192.842 267.526 190.519C267.62 188.195 266.949 185.905 265.615 184.001C265.422 183.731 265.338 183.399 265.378 183.07C265.419 182.741 265.581 182.439 265.833 182.223C265.979 182.094 266.15 181.997 266.336 181.939C266.521 181.881 266.717 181.864 266.911 181.887C267.104 181.911 267.29 181.975 267.456 182.076C267.622 182.177 267.765 182.312 267.876 182.473C269.294 184.502 270.12 186.885 270.261 189.357C270.402 191.828 269.854 194.29 268.676 196.468C267.498 198.645 265.738 200.452 263.592 201.687C261.447 202.921 259 203.535 256.525 203.458H256.51Z" fill="#F0F0F0"/>
<path d="M169.091 342.203L165.77 336.793C164.09 337.042 162.383 337.042 160.703 336.793L157.382 342.203L156.743 342.031C154.591 341.464 152.524 340.609 150.6 339.49L150.039 339.163L151.442 333.269C151.497 333.043 151.64 332.847 151.838 332.725C152.036 332.602 152.275 332.563 152.502 332.614C152.616 332.642 152.723 332.692 152.818 332.76C152.912 332.829 152.992 332.916 153.053 333.016C153.114 333.116 153.154 333.227 153.172 333.343C153.19 333.459 153.185 333.577 153.157 333.69L152.066 338.274C153.496 339.058 155.007 339.685 156.571 340.145L159.814 334.86L160.391 334.953C162.275 335.265 164.198 335.265 166.082 334.953L166.659 334.86L169.917 340.145C171.473 339.675 172.978 339.048 174.407 338.274L172.973 332.256L173.456 331.897C174.767 330.956 175.942 329.838 176.949 328.576C177.086 328.391 177.29 328.267 177.518 328.232C177.746 328.197 177.978 328.254 178.165 328.389C178.261 328.457 178.342 328.544 178.404 328.644C178.466 328.744 178.508 328.855 178.527 328.971C178.545 329.087 178.541 329.205 178.514 329.32C178.486 329.434 178.437 329.542 178.368 329.637C177.374 330.887 176.233 332.013 174.969 332.989L176.528 339.225L175.951 339.552C174.028 340.674 171.961 341.529 169.808 342.094L169.091 342.203ZM148.729 330.369L147.918 329.387L141.682 330.853L141.355 330.291C140.256 328.359 139.422 326.288 138.876 324.133L138.704 323.494L144.114 320.173C143.865 318.493 143.865 316.786 144.114 315.106L138.704 311.785L138.876 311.146C139.441 308.992 140.296 306.926 141.417 305.003L141.744 304.426L147.981 305.985C148.984 304.62 150.151 303.384 151.458 302.306L150.351 297.628C150.323 297.516 150.318 297.399 150.336 297.284C150.354 297.169 150.395 297.06 150.456 296.961C150.516 296.862 150.597 296.777 150.691 296.709C150.785 296.642 150.892 296.594 151.005 296.568C151.233 296.516 151.471 296.556 151.669 296.679C151.868 296.801 152.01 296.997 152.066 297.223L153.469 303.038L152.97 303.397C151.425 304.505 150.071 305.859 148.963 307.404L148.604 307.887L142.586 306.453C141.812 307.882 141.185 309.387 140.715 310.943L146.001 314.186L145.907 314.778C145.746 315.716 145.663 316.665 145.658 317.616C145.663 318.572 145.746 319.526 145.907 320.469L146.001 321.046L140.715 324.289C141.182 325.851 141.809 327.361 142.586 328.795L148.604 327.345L148.963 327.828C149.285 328.29 149.634 328.732 150.008 329.153C150.161 329.315 150.247 329.53 150.247 329.754C150.247 329.977 150.161 330.192 150.008 330.354C149.927 330.443 149.829 330.514 149.719 330.563C149.61 330.612 149.492 330.639 149.372 330.64C149.252 330.641 149.133 330.618 149.022 330.572C148.912 330.525 148.812 330.456 148.729 330.369ZM184.729 330.853L182.452 330.323C182.339 330.295 182.231 330.246 182.137 330.177C182.042 330.108 181.962 330.021 181.901 329.921C181.841 329.821 181.8 329.71 181.782 329.594C181.764 329.479 181.77 329.36 181.798 329.247C181.823 329.134 181.871 329.027 181.939 328.932C182.006 328.838 182.092 328.758 182.19 328.697C182.289 328.636 182.399 328.595 182.513 328.577C182.628 328.559 182.745 328.564 182.858 328.592L183.84 328.826C184.624 327.395 185.251 325.885 185.711 324.32L180.426 321.077L180.519 320.5C180.68 319.558 180.763 318.603 180.769 317.647C180.763 316.696 180.68 315.747 180.519 314.81L180.426 314.217L185.711 310.974C185.248 309.416 184.621 307.91 183.84 306.484L177.822 307.918L177.463 307.435C176.355 305.89 175.001 304.537 173.456 303.428L172.973 303.07L174.407 297.051C172.981 296.271 171.476 295.644 169.917 295.181L166.659 300.466L166.082 300.372C164.198 300.061 162.275 300.061 160.391 300.372L159.814 300.466L156.571 295.181L155.963 295.368C155.746 295.437 155.51 295.419 155.306 295.317C155.103 295.215 154.947 295.037 154.872 294.822C154.83 294.713 154.81 294.596 154.814 294.479C154.819 294.362 154.846 294.247 154.896 294.14C154.945 294.034 155.015 293.939 155.102 293.861C155.189 293.782 155.291 293.722 155.402 293.684L156.743 293.278L157.382 293.123L160.703 298.533C162.383 298.283 164.09 298.283 165.77 298.533L169.091 293.123L169.73 293.278C171.882 293.856 173.947 294.716 175.873 295.835L176.45 296.163L174.891 302.399C176.233 303.438 177.438 304.643 178.477 305.985L184.713 304.426L185.04 305.003C186.162 306.926 187.017 308.992 187.582 311.146L187.753 311.785L182.343 315.106C182.593 316.786 182.593 318.493 182.343 320.173L187.753 323.494L187.582 324.133C187.014 326.285 186.159 328.351 185.04 330.276L184.729 330.853ZM162.995 326.285C160.876 326.139 158.886 325.219 157.403 323.699C155.92 322.178 155.049 320.165 154.957 318.044C154.864 315.922 155.556 313.841 156.901 312.198C158.246 310.554 160.149 309.464 162.246 309.134C162.372 309.121 162.498 309.135 162.618 309.173C162.737 309.212 162.848 309.275 162.941 309.359C163.035 309.442 163.111 309.545 163.163 309.659C163.215 309.773 163.243 309.897 163.244 310.023C163.246 310.239 163.166 310.448 163.022 310.61C162.878 310.771 162.68 310.873 162.465 310.896C161.15 311.047 159.906 311.574 158.884 312.416C157.862 313.257 157.106 314.376 156.705 315.637C156.305 316.899 156.278 318.25 156.629 319.526C156.979 320.803 157.69 321.951 158.678 322.832C159.666 323.713 160.888 324.289 162.196 324.491C163.504 324.694 164.843 324.513 166.05 323.972C167.258 323.43 168.284 322.551 169.003 321.44C169.722 320.329 170.105 319.033 170.104 317.71C170.107 316.302 169.671 314.929 168.857 313.781C168.738 313.603 168.687 313.389 168.712 313.178C168.738 312.966 168.839 312.77 168.997 312.627C169.091 312.542 169.202 312.479 169.322 312.441C169.443 312.403 169.57 312.39 169.695 312.405C169.821 312.42 169.941 312.461 170.05 312.526C170.158 312.591 170.251 312.679 170.323 312.783C171.234 314.095 171.765 315.634 171.854 317.229C171.944 318.824 171.589 320.413 170.83 321.818C170.07 323.224 168.936 324.391 167.553 325.191C166.17 325.99 164.592 326.39 162.995 326.347V326.285Z" fill="#E6E6E6"/>
<path d="M389.999 650C556.951 650 692.293 642.098 692.293 632.351C692.293 622.604 556.951 614.702 389.999 614.702C223.047 614.702 87.7061 622.604 87.7061 632.351C87.7061 642.098 223.047 650 389.999 650Z" fill="#F5F5F5"/>
<path d="M566.879 211.613H516.115L480.256 622.045H531.02C538.145 621.908 544.973 619.168 550.217 614.343C555.462 609.518 558.76 602.941 559.489 595.853L590.811 237.79C591.175 234.454 590.824 231.079 589.781 227.889C588.738 224.699 587.028 221.768 584.763 219.291C582.499 216.815 579.733 214.849 576.649 213.525C573.565 212.201 570.235 211.549 566.879 211.613Z" fill="#006D8F"/>
<path d="M556.527 211.613H384.715C377.59 211.746 370.759 214.482 365.512 219.304C360.265 224.126 356.963 230.701 356.23 237.79L324.908 595.852C324.547 599.186 324.899 602.558 325.941 605.745C326.983 608.932 328.691 611.862 330.951 614.339C333.211 616.816 335.972 618.784 339.051 620.112C342.13 621.441 345.456 622.1 348.809 622.045H520.606C527.721 621.892 534.536 619.147 539.77 614.323C545.004 609.5 548.296 602.932 549.028 595.852L580.35 237.79C580.713 234.463 580.364 231.097 579.328 227.915C578.291 224.733 576.591 221.807 574.338 219.332C572.086 216.857 569.333 214.889 566.262 213.558C563.192 212.227 559.873 211.564 556.527 211.613Z" fill="#006D8F"/>
<path opacity="0.3" d="M556.527 211.613H384.715C377.59 211.746 370.759 214.482 365.512 219.304C360.265 224.126 356.963 230.701 356.23 237.79L324.908 595.852C324.547 599.186 324.899 602.558 325.941 605.745C326.983 608.932 328.691 611.862 330.951 614.339C333.211 616.816 335.972 618.784 339.051 620.112C342.13 621.441 345.456 622.1 348.809 622.045H520.606C527.721 621.892 534.536 619.147 539.77 614.323C545.004 609.5 548.296 602.932 549.028 595.852L580.35 237.79C580.713 234.463 580.364 231.097 579.328 227.915C578.291 224.733 576.591 221.807 574.338 219.332C572.086 216.857 569.333 214.889 566.262 213.558C563.192 212.227 559.873 211.564 556.527 211.613Z" fill="white"/>
<path opacity="0.4" d="M555.794 220.001H510.487C509.136 220.012 507.82 220.428 506.708 221.195C505.596 221.962 504.74 223.045 504.251 224.304C502.464 228.928 499.34 232.915 495.277 235.756C491.214 238.596 486.397 240.162 481.441 240.254H454.718C450.05 240.348 445.495 238.811 441.838 235.908C438.181 233.005 435.651 228.918 434.684 224.351C434.426 223.115 433.744 222.008 432.756 221.222C431.767 220.437 430.536 220.021 429.274 220.048H383.982C379.139 220.133 374.496 221.991 370.93 225.269C367.365 228.547 365.125 233.018 364.633 237.837L333.296 595.899C333.045 598.166 333.28 600.461 333.986 602.63C334.692 604.799 335.853 606.792 337.39 608.477C338.928 610.162 340.807 611.5 342.902 612.401C344.997 613.302 347.261 613.747 349.541 613.704H521.354C526.198 613.615 530.841 611.754 534.406 608.473C537.972 605.192 540.211 600.719 540.702 595.899L572.024 237.837C572.28 235.569 572.048 233.272 571.345 231.1C570.642 228.929 569.484 226.932 567.948 225.244C566.412 223.556 564.533 222.215 562.437 221.311C560.341 220.406 558.076 219.96 555.794 220.001Z" fill="white"/>
<path d="M512.982 414.561H392.744C391.918 414.574 391.098 414.412 390.339 414.085C389.58 413.758 388.9 413.273 388.342 412.662C387.785 412.052 387.364 411.33 387.107 410.545C386.85 409.759 386.762 408.928 386.851 408.106L387.459 401.215C387.638 399.468 388.45 397.846 389.743 396.657C391.035 395.468 392.719 394.793 394.475 394.76H514.728C515.554 394.747 516.374 394.909 517.133 395.236C517.892 395.564 518.573 396.049 519.13 396.659C519.687 397.269 520.109 397.991 520.366 398.777C520.623 399.562 520.71 400.393 520.621 401.215L520.029 408.106C519.846 409.857 519.028 411.481 517.73 412.67C516.431 413.86 514.742 414.532 512.982 414.561Z" fill="white"/>
<path d="M510.394 444.184H390.141C389.315 444.198 388.496 444.036 387.737 443.708C386.979 443.381 386.299 442.895 385.743 442.285C385.187 441.674 384.767 440.952 384.512 440.166C384.257 439.381 384.172 438.55 384.263 437.729L384.855 430.838C385.037 429.092 385.851 427.473 387.143 426.284C388.435 425.095 390.116 424.419 391.871 424.383H512.124C512.951 424.37 513.771 424.532 514.529 424.859C515.288 425.187 515.969 425.672 516.526 426.282C517.084 426.892 517.505 427.614 517.762 428.4C518.019 429.185 518.106 430.016 518.018 430.838L517.41 437.729C517.228 439.475 516.414 441.095 515.122 442.283C513.83 443.472 512.149 444.148 510.394 444.184Z" fill="white"/>
<path opacity="0.1" d="M476.451 226.705C476.253 228.645 475.35 230.446 473.913 231.764C472.477 233.083 470.606 233.83 468.656 233.861C467.739 233.878 466.83 233.699 465.988 233.337C465.146 232.974 464.391 232.437 463.772 231.759C463.154 231.082 462.688 230.282 462.403 229.41C462.119 228.539 462.024 227.616 462.123 226.705C462.322 224.765 463.225 222.965 464.661 221.646C466.098 220.327 467.969 219.581 469.919 219.549C470.835 219.532 471.745 219.711 472.587 220.074C473.429 220.436 474.184 220.974 474.802 221.651C475.42 222.328 475.887 223.129 476.171 224C476.456 224.872 476.551 225.794 476.451 226.705Z" fill="black"/>
<path opacity="0.1" d="M473.209 226.705C473.099 227.764 472.605 228.747 471.821 229.468C471.037 230.188 470.017 230.598 468.952 230.619C468.451 230.628 467.953 230.531 467.493 230.333C467.032 230.135 466.619 229.841 466.281 229.47C465.943 229.1 465.688 228.662 465.533 228.185C465.378 227.708 465.326 227.204 465.382 226.705C465.489 225.645 465.981 224.66 466.766 223.939C467.551 223.218 468.573 222.809 469.638 222.792C470.139 222.785 470.635 222.884 471.095 223.083C471.554 223.281 471.967 223.575 472.304 223.945C472.641 224.315 472.897 224.752 473.052 225.228C473.208 225.704 473.262 226.207 473.209 226.705Z" fill="black"/>
<g opacity="0.8">
<path d="M534.637 238.648C534.368 238.652 534.102 238.598 533.855 238.491C533.608 238.384 533.386 238.226 533.205 238.027C533.024 237.828 532.887 237.593 532.803 237.337C532.72 237.081 532.691 236.811 532.72 236.543L533.063 232.708C533.12 232.141 533.384 231.615 533.803 231.23C534.223 230.845 534.77 230.627 535.339 230.619C535.607 230.615 535.872 230.668 536.118 230.774C536.364 230.88 536.584 231.037 536.765 231.234C536.946 231.431 537.084 231.665 537.168 231.919C537.253 232.172 537.283 232.441 537.257 232.708L536.914 236.543C536.857 237.111 536.594 237.639 536.175 238.027C535.755 238.415 535.208 238.636 534.637 238.648Z" fill="white"/>
<path d="M551.414 238.648C551.145 238.652 550.878 238.598 550.631 238.491C550.384 238.384 550.163 238.226 549.981 238.027C549.8 237.828 549.663 237.593 549.58 237.337C549.496 237.081 549.467 236.811 549.496 236.543L550.291 227.547C550.349 226.98 550.612 226.454 551.032 226.069C551.452 225.684 551.998 225.467 552.568 225.458C552.835 225.454 553.101 225.507 553.346 225.614C553.592 225.72 553.813 225.876 553.994 226.074C554.175 226.271 554.312 226.504 554.397 226.758C554.481 227.012 554.512 227.281 554.485 227.547L553.69 236.543C553.633 237.111 553.37 237.639 552.951 238.027C552.532 238.415 551.985 238.635 551.414 238.648Z" fill="white"/>
<path d="M543.025 238.648C542.756 238.652 542.489 238.598 542.242 238.491C541.995 238.384 541.774 238.226 541.593 238.027C541.411 237.828 541.274 237.593 541.191 237.337C541.107 237.081 541.079 236.811 541.108 236.543L541.669 230.135C541.726 229.564 541.991 229.034 542.414 228.646C542.836 228.258 543.387 228.039 543.961 228.03C544.229 228.026 544.495 228.08 544.742 228.187C544.988 228.294 545.209 228.453 545.389 228.652C545.569 228.851 545.704 229.087 545.786 229.342C545.868 229.598 545.894 229.869 545.863 230.135L545.301 236.543C545.244 237.111 544.982 237.639 544.562 238.027C544.143 238.415 543.596 238.636 543.025 238.648Z" fill="white"/>
</g>
<g opacity="0.8">
<path d="M390.998 238.648H380.458C380.306 238.651 380.156 238.622 380.016 238.562C379.877 238.502 379.752 238.413 379.65 238.3C379.548 238.188 379.472 238.055 379.425 237.911C379.379 237.766 379.365 237.613 379.382 237.463L379.866 231.803C379.9 231.482 380.05 231.184 380.289 230.966C380.527 230.748 380.837 230.624 381.16 230.618H391.699C391.851 230.615 392.002 230.644 392.141 230.704C392.28 230.764 392.405 230.853 392.507 230.966C392.609 231.078 392.686 231.211 392.732 231.355C392.778 231.5 392.793 231.653 392.775 231.803L392.276 237.463C392.249 237.784 392.103 238.084 391.866 238.303C391.63 238.522 391.32 238.645 390.998 238.648Z" fill="white"/>
<path d="M395.877 237.104C395.725 237.107 395.574 237.078 395.434 237.018C395.294 236.958 395.168 236.869 395.065 236.757C394.962 236.645 394.883 236.513 394.835 236.368C394.787 236.224 394.77 236.071 394.786 235.919L395.02 233.331C395.051 233.009 395.2 232.709 395.439 232.49C395.678 232.271 395.99 232.149 396.314 232.146C396.465 232.143 396.616 232.172 396.755 232.232C396.895 232.292 397.02 232.381 397.122 232.494C397.224 232.606 397.3 232.739 397.347 232.883C397.393 233.028 397.407 233.18 397.39 233.331L397.171 235.919C397.137 236.241 396.987 236.538 396.748 236.757C396.51 236.975 396.2 237.098 395.877 237.104Z" fill="white"/>
</g>
<path d="M493.169 369.239C514.15 349.155 516.242 317.293 497.843 298.073C479.444 278.853 447.521 279.554 426.541 299.638C405.561 319.722 403.468 351.584 421.867 370.804C440.266 390.024 472.189 389.323 493.169 369.239Z" fill="white"/>
<path d="M460.034 332.521C446.813 332.521 435.634 337.557 434.683 348.486L433.623 360.632H481.534L482.594 348.486C483.545 337.557 473.271 332.521 460.034 332.521Z" fill="#006D8F"/>
<path d="M460.471 327.516C466.614 327.516 469.451 322.543 469.981 316.4C470.511 310.257 468.563 305.284 462.42 305.284C456.277 305.284 453.455 310.273 452.909 316.4C452.364 322.527 454.328 327.516 460.471 327.516Z" fill="#006D8F"/>
<path d="M507.494 404.24C504.235 404.24 501.475 405.487 501.257 408.184L500.992 411.193H512.826L513.091 408.184C513.309 405.487 510.768 404.24 507.494 404.24Z" fill="#006D8F"/>
<path d="M507.603 403.008C509.162 403.008 509.816 401.776 509.957 400.264C510.097 398.751 509.598 397.52 508.086 397.52C506.573 397.52 505.872 398.751 505.732 400.264C505.591 401.776 506.09 403.008 507.603 403.008Z" fill="#006D8F"/>
<path d="M471.073 473.807H424.3C423.032 473.83 421.774 473.582 420.608 473.081C419.443 472.58 418.398 471.836 417.542 470.899C416.687 469.963 416.041 468.855 415.647 467.649C415.253 466.443 415.12 465.167 415.258 463.906C415.535 461.225 416.784 458.739 418.768 456.915C420.753 455.091 423.336 454.056 426.031 454.006H472.804C474.071 453.986 475.329 454.235 476.493 454.737C477.657 455.239 478.701 455.983 479.556 456.919C480.411 457.855 481.057 458.962 481.452 460.166C481.847 461.371 481.982 462.646 481.847 463.906C481.573 466.589 480.325 469.077 478.339 470.902C476.354 472.726 473.769 473.76 471.073 473.807Z" fill="#006D8F"/>
<path d="M465.414 584.222H415.351C414.008 584.258 412.673 584.005 411.436 583.479C410.2 582.953 409.092 582.167 408.186 581.174C407.281 580.182 406.6 579.006 406.19 577.726C405.78 576.447 405.65 575.094 405.809 573.76L409.005 537.246C409.291 534.413 410.606 531.784 412.701 529.856C414.796 527.928 417.525 526.835 420.371 526.784H470.449C471.789 526.761 473.118 527.023 474.348 527.553C475.578 528.083 476.681 528.869 477.584 529.859C478.487 530.849 479.168 532.02 479.583 533.293C479.998 534.567 480.137 535.914 479.991 537.246L476.795 573.76C476.502 576.593 475.183 579.22 473.087 581.147C470.99 583.075 468.261 584.168 465.414 584.222Z" fill="#006D8F"/>
<g opacity="0.6">
<path d="M449.978 546.46C450.06 545.663 449.972 544.858 449.719 544.098C449.466 543.338 449.055 542.64 448.513 542.05C447.971 541.461 447.309 540.993 446.573 540.678C445.836 540.363 445.041 540.208 444.241 540.224C442.535 540.248 440.897 540.896 439.636 542.045C438.376 543.194 437.579 544.764 437.396 546.46C437.297 547.409 437.438 548.367 437.805 549.247C438.173 550.127 438.756 550.9 439.501 551.496L438.41 564.078C438.356 564.554 438.405 565.037 438.553 565.493C438.702 565.949 438.945 566.368 439.269 566.723C439.592 567.077 439.987 567.358 440.428 567.547C440.868 567.736 441.344 567.829 441.824 567.82C442.84 567.798 443.813 567.406 444.56 566.717C445.306 566.027 445.775 565.089 445.878 564.078L446.985 551.496C447.82 550.925 448.521 550.178 449.038 549.309C449.555 548.439 449.876 547.467 449.978 546.46Z" fill="white"/>
</g>
<path d="M470.886 534.393H464.431L465.99 516.323C466.263 513.815 465.998 511.278 465.215 508.88C464.432 506.482 463.148 504.278 461.448 502.414C459.748 500.55 457.671 499.07 455.354 498.07C453.038 497.07 450.536 496.575 448.014 496.616C442.653 496.721 437.516 498.782 433.571 502.412C429.625 506.042 427.143 510.99 426.592 516.323L425.033 534.393H418.578L420.137 516.323C420.863 509.245 424.155 502.678 429.392 497.861C434.628 493.045 441.446 490.311 448.56 490.177C451.908 490.12 455.229 490.775 458.304 492.101C461.379 493.426 464.137 495.39 466.395 497.863C468.652 500.336 470.358 503.261 471.399 506.444C472.439 509.626 472.79 512.994 472.429 516.323L470.886 534.393Z" fill="#006D8F"/>
<path d="M508.289 431.913L508.491 430.151C508.533 429.743 508.488 429.33 508.36 428.941C508.231 428.551 508.021 428.193 507.745 427.89C507.468 427.586 507.13 427.345 506.754 427.181C506.378 427.018 505.971 426.935 505.56 426.94C504.687 426.958 503.85 427.294 503.207 427.885C502.564 428.477 502.159 429.282 502.068 430.151L501.912 431.882C501.563 431.892 501.229 432.028 500.974 432.267C500.718 432.505 500.559 432.828 500.525 433.176L500.119 437.853C500.099 438.017 500.114 438.183 500.164 438.34C500.214 438.497 500.297 438.641 500.409 438.762C500.52 438.884 500.656 438.98 500.808 439.044C500.96 439.107 501.124 439.138 501.288 439.132H507.712C508.06 439.126 508.393 438.992 508.649 438.757C508.905 438.521 509.065 438.199 509.1 437.853L509.505 433.176C509.518 433.011 509.496 432.845 509.441 432.688C509.385 432.532 509.297 432.39 509.182 432.27C509.067 432.151 508.928 432.057 508.774 431.996C508.62 431.934 508.454 431.906 508.289 431.913ZM505.373 427.766C505.683 427.762 505.989 427.824 506.273 427.947C506.557 428.07 506.812 428.251 507.021 428.479C507.23 428.707 507.388 428.977 507.486 429.27C507.583 429.564 507.618 429.875 507.587 430.183L507.431 431.913H502.598L502.754 430.183C502.822 429.53 503.126 428.925 503.608 428.48C504.09 428.035 504.717 427.781 505.373 427.766Z" fill="#006D8F"/>
<path d="M411.593 433.769L409.348 433.301C409.286 433.288 409.227 433.262 409.176 433.223C409.126 433.184 409.085 433.134 409.056 433.077C409.028 433.02 409.012 432.957 409.012 432.893C409.011 432.83 409.025 432.767 409.052 432.709L409.988 430.495C410.026 430.399 410.03 430.293 409.998 430.195C409.966 430.097 409.9 430.013 409.812 429.959C409.725 429.905 409.62 429.883 409.518 429.899C409.416 429.914 409.323 429.965 409.255 430.043L407.555 431.789C407.515 431.841 407.462 431.883 407.403 431.912C407.344 431.94 407.278 431.955 407.212 431.955C407.146 431.955 407.081 431.94 407.022 431.912C406.962 431.883 406.91 431.841 406.869 431.789L405.482 430.043C405.186 429.669 404.546 430.043 404.655 430.495L405.201 432.709C405.217 432.773 405.219 432.841 405.208 432.906C405.197 432.972 405.172 433.035 405.136 433.09C405.099 433.146 405.051 433.193 404.996 433.23C404.94 433.266 404.877 433.29 404.811 433.301L402.488 433.769C401.989 433.863 401.927 434.564 402.41 434.658L404.655 435.125C404.718 435.137 404.777 435.164 404.828 435.203C404.879 435.242 404.919 435.292 404.947 435.35C404.974 435.408 404.987 435.471 404.985 435.535C404.984 435.599 404.967 435.662 404.936 435.718L404.032 437.947C403.993 438.043 403.989 438.149 404.021 438.247C404.053 438.346 404.119 438.429 404.207 438.483C404.295 438.538 404.399 438.559 404.501 438.544C404.603 438.528 404.697 438.477 404.765 438.4L406.464 436.653C406.508 436.606 406.561 436.568 406.62 436.543C406.679 436.517 406.743 436.504 406.807 436.504C406.871 436.504 406.935 436.517 406.994 436.543C407.053 436.568 407.106 436.606 407.15 436.653L408.538 438.4C408.834 438.774 409.473 438.4 409.348 437.947L408.803 435.733C408.78 435.601 408.809 435.465 408.885 435.355C408.961 435.244 409.077 435.167 409.208 435.141L411.531 434.673C412.014 434.564 412.077 433.863 411.593 433.769Z" fill="#263238"/>
<path d="M426.342 433.769L424.097 433.301C424.035 433.288 423.976 433.262 423.925 433.223C423.875 433.184 423.834 433.134 423.805 433.077C423.777 433.02 423.761 432.957 423.761 432.893C423.76 432.83 423.774 432.767 423.801 432.709L424.737 430.495C424.775 430.399 424.779 430.293 424.747 430.195C424.715 430.097 424.649 430.013 424.561 429.959C424.474 429.905 424.369 429.883 424.267 429.899C424.165 429.914 424.072 429.965 424.004 430.043L422.304 431.789C422.264 431.841 422.211 431.883 422.152 431.912C422.093 431.94 422.027 431.955 421.961 431.955C421.895 431.955 421.83 431.94 421.771 431.912C421.711 431.883 421.659 431.841 421.618 431.789L420.231 430.043C419.935 429.669 419.295 430.043 419.42 430.495L419.966 432.709C419.979 432.774 419.979 432.842 419.966 432.908C419.953 432.973 419.927 433.036 419.889 433.091C419.851 433.146 419.802 433.193 419.746 433.23C419.69 433.266 419.626 433.29 419.56 433.301L417.237 433.769C416.738 433.863 416.676 434.564 417.159 434.658L419.404 435.125C419.467 435.138 419.526 435.165 419.576 435.204C419.627 435.243 419.668 435.292 419.697 435.35C419.725 435.407 419.74 435.469 419.741 435.533C419.742 435.597 419.728 435.66 419.701 435.718L418.765 437.932C418.726 438.027 418.723 438.134 418.755 438.232C418.787 438.33 418.852 438.414 418.94 438.468C419.028 438.522 419.132 438.543 419.235 438.528C419.337 438.513 419.43 438.462 419.498 438.384L421.197 436.638C421.241 436.591 421.294 436.553 421.353 436.527C421.412 436.501 421.476 436.488 421.54 436.488C421.605 436.488 421.669 436.501 421.728 436.527C421.787 436.553 421.84 436.591 421.883 436.638L423.271 438.384C423.567 438.758 424.206 438.384 424.097 437.932L423.552 435.718C423.538 435.653 423.537 435.587 423.549 435.522C423.562 435.457 423.587 435.395 423.623 435.34C423.659 435.285 423.706 435.238 423.761 435.201C423.815 435.164 423.877 435.138 423.941 435.125L426.264 434.658C426.763 434.564 426.826 433.863 426.342 433.769Z" fill="#263238"/>
<path d="M441.091 433.769L438.862 433.301C438.798 433.291 438.737 433.266 438.684 433.228C438.632 433.19 438.589 433.14 438.56 433.081C438.531 433.023 438.517 432.959 438.518 432.894C438.519 432.829 438.535 432.766 438.566 432.708L439.501 430.495C439.561 430.395 439.579 430.276 439.551 430.164C439.524 430.051 439.452 429.954 439.353 429.894C439.254 429.834 439.135 429.816 439.022 429.844C438.91 429.872 438.813 429.943 438.753 430.042L437.069 431.789C437.027 431.841 436.973 431.883 436.912 431.912C436.852 431.94 436.785 431.955 436.718 431.955C436.651 431.955 436.585 431.94 436.524 431.912C436.463 431.883 436.41 431.841 436.367 431.789L434.98 430.042C434.684 429.668 434.044 430.042 434.169 430.495L434.715 432.708C434.728 432.773 434.729 432.84 434.717 432.904C434.705 432.969 434.68 433.031 434.643 433.086C434.607 433.141 434.56 433.188 434.506 433.225C434.451 433.262 434.39 433.288 434.325 433.301L432.002 433.769C431.503 433.862 431.441 434.564 431.924 434.657L434.154 435.125C434.216 435.138 434.275 435.165 434.325 435.203C434.376 435.242 434.417 435.292 434.446 435.349C434.474 435.406 434.489 435.469 434.49 435.533C434.491 435.597 434.477 435.66 434.45 435.718L433.514 437.931C433.454 438.031 433.436 438.15 433.464 438.262C433.492 438.375 433.563 438.472 433.662 438.532C433.762 438.592 433.881 438.61 433.993 438.582C434.106 438.554 434.203 438.483 434.263 438.384L435.946 436.637C435.99 436.59 436.043 436.552 436.102 436.527C436.161 436.501 436.225 436.488 436.289 436.488C436.354 436.488 436.418 436.501 436.477 436.527C436.536 436.552 436.589 436.59 436.632 436.637L438.036 438.384C438.332 438.758 438.971 438.384 438.846 437.931L438.301 435.718C438.277 435.588 438.305 435.454 438.377 435.343C438.45 435.233 438.562 435.155 438.69 435.125L441.014 434.657C441.45 434.564 441.575 433.862 441.091 433.769Z" fill="#263238"/>
<path d="M455.857 433.769L453.611 433.301C453.549 433.288 453.49 433.262 453.44 433.223C453.389 433.184 453.348 433.134 453.319 433.077C453.291 433.02 453.276 432.957 453.275 432.893C453.274 432.83 453.288 432.767 453.315 432.709L454.251 430.495C454.29 430.399 454.293 430.293 454.261 430.195C454.229 430.097 454.163 430.013 454.076 429.959C453.988 429.905 453.883 429.883 453.781 429.899C453.679 429.914 453.586 429.965 453.518 430.043L451.818 431.789C451.778 431.841 451.726 431.883 451.666 431.912C451.607 431.94 451.542 431.955 451.475 431.955C451.409 431.955 451.344 431.94 451.285 431.912C451.225 431.883 451.173 431.841 451.132 431.789L449.745 430.043C449.449 429.669 448.809 430.043 448.919 430.495L449.464 432.709C449.48 432.773 449.483 432.841 449.471 432.906C449.46 432.972 449.435 433.035 449.399 433.09C449.362 433.146 449.314 433.193 449.259 433.23C449.203 433.266 449.14 433.29 449.075 433.301L446.751 433.769C446.253 433.863 446.19 434.564 446.751 434.658L448.997 435.125C449.059 435.137 449.118 435.164 449.169 435.203C449.22 435.242 449.26 435.292 449.288 435.35C449.315 435.408 449.328 435.471 449.326 435.535C449.325 435.599 449.308 435.662 449.277 435.718L448.357 437.932C448.318 438.027 448.315 438.134 448.347 438.232C448.379 438.33 448.445 438.414 448.532 438.468C448.62 438.522 448.725 438.543 448.827 438.528C448.929 438.513 449.022 438.462 449.09 438.384L450.789 436.638C450.833 436.591 450.886 436.553 450.945 436.527C451.004 436.501 451.068 436.488 451.132 436.488C451.197 436.488 451.261 436.501 451.32 436.527C451.379 436.553 451.432 436.591 451.475 436.638L452.863 438.384C453.159 438.758 453.799 438.384 453.674 437.932L453.128 435.718C453.105 435.586 453.135 435.45 453.21 435.339C453.286 435.229 453.402 435.152 453.534 435.125L455.857 434.658C456.278 434.564 456.34 433.863 455.857 433.769Z" fill="#263238"/>
<path d="M470.605 433.769L468.36 433.301C468.298 433.288 468.239 433.262 468.188 433.223C468.137 433.184 468.096 433.134 468.068 433.077C468.039 433.02 468.024 432.957 468.023 432.893C468.023 432.83 468.037 432.767 468.064 432.709L468.999 430.495C469.038 430.399 469.042 430.293 469.01 430.195C468.978 430.097 468.912 430.013 468.824 429.959C468.736 429.905 468.632 429.883 468.53 429.899C468.428 429.914 468.335 429.965 468.267 430.043L466.567 431.789C466.526 431.841 466.474 431.883 466.415 431.912C466.355 431.94 466.29 431.955 466.224 431.955C466.158 431.955 466.093 431.94 466.033 431.912C465.974 431.883 465.922 431.841 465.881 431.789L464.493 430.043C464.197 429.669 463.558 430.043 463.683 430.495L464.228 432.709C464.242 432.774 464.242 432.842 464.229 432.908C464.216 432.973 464.189 433.036 464.152 433.091C464.114 433.146 464.065 433.193 464.009 433.23C463.952 433.266 463.889 433.29 463.823 433.301L461.5 433.769C461.001 433.863 460.939 434.564 461.422 434.658L463.667 435.125C463.73 435.138 463.788 435.165 463.839 435.204C463.89 435.243 463.931 435.292 463.959 435.35C463.988 435.407 464.003 435.469 464.004 435.533C464.004 435.597 463.991 435.66 463.963 435.718L463.028 437.932C462.989 438.027 462.985 438.134 463.017 438.232C463.049 438.33 463.115 438.414 463.203 438.468C463.291 438.522 463.395 438.543 463.497 438.528C463.599 438.513 463.693 438.462 463.761 438.384L465.46 436.638C465.504 436.591 465.557 436.553 465.616 436.527C465.675 436.501 465.739 436.488 465.803 436.488C465.868 436.488 465.931 436.501 465.99 436.527C466.049 436.553 466.102 436.591 466.146 436.638L467.534 438.384C467.83 438.758 468.469 438.384 468.36 437.932L467.814 435.718C467.801 435.653 467.8 435.587 467.812 435.522C467.824 435.457 467.849 435.395 467.886 435.34C467.922 435.285 467.969 435.238 468.023 435.201C468.078 435.164 468.139 435.138 468.204 435.125L470.527 434.658C471.073 434.564 471.073 433.863 470.605 433.769Z" fill="#263238"/>
<path d="M485.354 433.769L483.109 433.301C483.046 433.289 482.987 433.262 482.937 433.223C482.886 433.184 482.845 433.134 482.818 433.076C482.791 433.018 482.777 432.955 482.779 432.891C482.781 432.827 482.798 432.765 482.828 432.708L483.764 430.495C483.794 430.445 483.813 430.391 483.822 430.334C483.831 430.277 483.828 430.219 483.814 430.164C483.8 430.108 483.776 430.055 483.742 430.009C483.708 429.963 483.665 429.924 483.616 429.894C483.567 429.865 483.512 429.845 483.455 429.836C483.399 429.828 483.341 429.83 483.285 429.844C483.229 429.858 483.177 429.882 483.131 429.916C483.084 429.95 483.045 429.993 483.016 430.042L481.332 431.789C481.289 431.841 481.236 431.883 481.175 431.912C481.114 431.94 481.048 431.955 480.981 431.955C480.914 431.955 480.847 431.94 480.787 431.912C480.726 431.883 480.673 431.841 480.63 431.789L479.243 430.042C478.946 429.668 478.307 430.042 478.432 430.495L478.978 432.708C478.991 432.773 478.992 432.84 478.98 432.904C478.967 432.969 478.942 433.031 478.906 433.086C478.87 433.141 478.823 433.188 478.768 433.225C478.714 433.262 478.652 433.288 478.588 433.301L476.265 433.769C475.766 433.862 475.703 434.564 476.187 434.657L478.416 435.125C478.479 435.138 478.538 435.165 478.588 435.203C478.639 435.242 478.68 435.292 478.708 435.349C478.737 435.406 478.752 435.469 478.753 435.533C478.754 435.597 478.74 435.66 478.712 435.718L477.777 437.931C477.717 438.031 477.699 438.15 477.727 438.262C477.755 438.375 477.826 438.472 477.925 438.532C478.024 438.592 478.143 438.61 478.256 438.582C478.368 438.554 478.465 438.483 478.525 438.384L480.209 436.637C480.253 436.59 480.306 436.552 480.365 436.527C480.424 436.501 480.488 436.488 480.552 436.488C480.617 436.488 480.68 436.501 480.739 436.527C480.798 436.552 480.851 436.59 480.895 436.637L482.283 438.384C482.355 438.465 482.454 438.52 482.561 438.538C482.669 438.557 482.78 438.539 482.876 438.486C482.972 438.434 483.047 438.35 483.089 438.25C483.132 438.149 483.139 438.037 483.109 437.931L482.563 435.718C482.54 435.588 482.567 435.454 482.64 435.343C482.712 435.233 482.825 435.155 482.953 435.125L485.276 434.657C485.775 434.564 485.838 433.862 485.354 433.769Z" fill="#263238"/>
<path d="M449.791 401.48H422.102C421.252 401.494 420.437 401.82 419.811 402.394C419.185 402.969 418.791 403.753 418.703 404.598C418.658 404.996 418.699 405.399 418.823 405.779C418.947 406.16 419.151 406.51 419.421 406.805C419.692 407.1 420.022 407.335 420.39 407.492C420.758 407.649 421.156 407.725 421.556 407.716H449.246C450.095 407.702 450.91 407.377 451.537 406.802C452.163 406.227 452.557 405.443 452.645 404.598C452.687 404.201 452.644 403.799 452.519 403.419C452.394 403.04 452.19 402.691 451.92 402.397C451.65 402.102 451.321 401.868 450.954 401.71C450.587 401.552 450.191 401.473 449.791 401.48Z" fill="#263238"/>
<path d="M477.917 401.48H461.843C460.995 401.495 460.182 401.821 459.558 402.396C458.935 402.97 458.544 403.754 458.46 404.598C458.415 404.995 458.456 405.396 458.579 405.776C458.702 406.155 458.905 406.504 459.173 406.799C459.442 407.094 459.77 407.329 460.136 407.487C460.503 407.645 460.898 407.723 461.297 407.716H477.309C478.157 407.701 478.97 407.376 479.594 406.801C480.218 406.226 480.609 405.442 480.693 404.598C480.736 404.207 480.697 403.811 480.578 403.436C480.459 403.061 480.262 402.715 480 402.421C479.738 402.127 479.417 401.891 479.059 401.729C478.7 401.567 478.311 401.482 477.917 401.48Z" fill="#263238"/>
<path d="M499.137 542.812C489.35 546.54 480.515 552.398 473.271 559.962C468.873 556.547 463.63 554.392 458.101 553.726L457.368 553.617L457.057 557.296L457.462 557.452C463.525 559.684 468.652 563.905 472.008 569.426L472.538 570.299L473.115 569.363C479.572 559.056 488.684 550.676 499.495 545.104L499.854 544.917L500.057 542.485L499.137 542.812Z" fill="#263238"/>
<path opacity="0.2" d="M359.816 235.841C357.829 239.31 356.606 243.164 356.23 247.145L333.015 512.534H404.858L419.295 457.202L414.54 401.854L428.977 346.521L424.3 291.189L438.737 235.841H359.816Z" fill="black"/>
<path d="M417.986 275.598L432.423 220.25H250.742L236.32 275.598L241.06 330.931L226.638 386.263L231.378 441.611L216.956 496.943H398.622L413.059 441.611L408.304 386.263L422.741 330.931L417.986 275.598Z" fill="#006D8F"/>
<path opacity="0.7" d="M417.986 275.598L432.423 220.25H250.742L236.32 275.598L241.06 330.931L226.638 386.263L231.378 441.611L216.956 496.943H398.622L413.059 441.611L408.304 386.263L422.741 330.931L417.986 275.598Z" fill="white"/>
<path opacity="0.5" d="M417.986 275.598H236.32L250.742 220.25H432.423L417.986 275.598Z" fill="white"/>
<path opacity="0.5" d="M408.304 386.263H226.638L241.059 330.93H422.741L408.304 386.263Z" fill="white"/>
<path opacity="0.5" d="M398.622 496.943H216.94L231.378 441.611H413.059L398.622 496.943Z" fill="white"/>
<path opacity="0.2" d="M393.679 298.719C391.815 299.258 389.882 299.521 387.942 299.499C385.311 299.615 382.692 299.08 380.318 297.94C379.888 297.685 379.398 297.551 378.899 297.55C378.441 297.556 377.992 297.674 377.589 297.893H377.496C376.8 298.284 376.055 298.583 375.282 298.782C373.537 299.242 371.739 299.468 369.934 299.452C369.389 299.452 368.859 299.452 368.375 299.452C366.975 299.362 365.589 299.117 364.244 298.719C364.046 298.66 363.842 298.624 363.636 298.61C363.293 298.582 362.948 298.626 362.622 298.737C362.297 298.849 361.998 299.027 361.745 299.26C361.492 299.493 361.289 299.775 361.15 300.09C361.012 300.405 360.939 300.745 360.938 301.089V302.773H290.218C288.918 302.773 287.632 303.029 286.431 303.527C285.231 304.025 284.141 304.754 283.223 305.674C282.305 306.593 281.577 307.685 281.081 308.886C280.585 310.087 280.331 311.374 280.333 312.673V322.636C280.329 323.937 280.582 325.225 281.077 326.428C281.571 327.631 282.299 328.724 283.217 329.646C284.135 330.567 285.226 331.298 286.428 331.796C287.629 332.295 288.917 332.552 290.218 332.552H370.558H371.088C371.946 333.269 372.85 333.986 373.816 334.719C374.783 335.452 376.155 336.465 377.418 337.369C377.849 337.681 378.367 337.849 378.899 337.849C379.431 337.849 379.949 337.681 380.38 337.369C390.483 330.042 396.969 324.99 396.969 311.114V301.136C396.974 300.737 396.884 300.342 396.706 299.985C396.527 299.628 396.267 299.319 395.945 299.082C395.624 298.846 395.25 298.69 394.856 298.627C394.462 298.564 394.059 298.595 393.679 298.719Z" fill="black"/>
<path d="M369.015 297.301H288.69C283.223 297.301 278.79 301.734 278.79 307.201V317.164C278.79 322.632 283.223 327.064 288.69 327.064H369.015C374.483 327.064 378.915 322.632 378.915 317.164V307.201C378.915 301.734 374.483 297.301 369.015 297.301Z" fill="#006D8F"/>
<path d="M386.399 294.011C383.768 294.124 381.15 293.589 378.775 292.452C378.353 292.193 377.867 292.056 377.372 292.056C376.876 292.056 376.391 292.193 375.969 292.452C373.588 293.591 370.965 294.126 368.329 294.011C366.389 294.032 364.456 293.769 362.591 293.232C362.216 293.106 361.816 293.071 361.424 293.13C361.032 293.189 360.66 293.341 360.338 293.572C360.017 293.804 359.755 294.109 359.575 294.462C359.394 294.815 359.301 295.205 359.302 295.602V305.58C359.302 319.471 365.788 324.523 375.891 331.851C376.321 332.163 376.84 332.331 377.372 332.331C377.904 332.331 378.422 332.163 378.853 331.851C388.956 324.523 395.442 319.471 395.442 305.58V295.602C395.44 295.205 395.344 294.814 395.162 294.461C394.98 294.109 394.717 293.804 394.394 293.573C394.072 293.341 393.699 293.19 393.306 293.131C392.914 293.071 392.513 293.106 392.136 293.232C390.272 293.771 388.339 294.033 386.399 294.011Z" fill="#006D8F"/>
<path opacity="0.3" d="M386.399 294.011C383.768 294.124 381.15 293.589 378.775 292.452C378.353 292.193 377.867 292.056 377.372 292.056C376.876 292.056 376.391 292.193 375.969 292.452C373.588 293.591 370.965 294.126 368.329 294.011C366.389 294.032 364.456 293.769 362.591 293.232C362.216 293.106 361.816 293.071 361.424 293.13C361.032 293.189 360.66 293.341 360.338 293.572C360.017 293.804 359.755 294.109 359.575 294.462C359.394 294.815 359.301 295.205 359.302 295.602V305.58C359.302 319.471 365.788 324.523 375.891 331.851C376.321 332.163 376.84 332.331 377.372 332.331C377.904 332.331 378.422 332.163 378.853 331.851C388.956 324.523 395.442 319.471 395.442 305.58V295.602C395.44 295.205 395.344 294.814 395.162 294.461C394.98 294.109 394.717 293.804 394.394 293.573C394.072 293.341 393.699 293.19 393.306 293.131C392.914 293.071 392.513 293.106 392.136 293.232C390.272 293.771 388.339 294.033 386.399 294.011Z" fill="white"/>
<path opacity="0.2" d="M375.969 292.421C373.588 293.559 370.965 294.094 368.329 293.98C366.389 293.999 364.456 293.737 362.591 293.2C362.216 293.074 361.816 293.039 361.424 293.098C361.032 293.157 360.66 293.309 360.338 293.541C360.017 293.772 359.755 294.077 359.575 294.43C359.394 294.783 359.301 295.174 359.302 295.57V305.548C359.302 319.44 365.788 324.491 375.891 331.819C376.343 332.147 376.891 332.317 377.45 332.302V292.015C376.927 292.005 376.413 292.146 375.969 292.421Z" fill="white"/>
<path d="M391.855 302.867C385.778 305.248 380.365 309.061 376.077 313.983C373.087 311.779 369.582 310.378 365.896 309.914H365.413V312.299L365.678 312.393C369.777 313.872 373.31 316.598 375.781 320.188L376.171 320.75L376.498 320.142C380.082 313.481 385.541 308.017 392.198 304.426L392.432 304.317V302.758L391.855 302.867Z" fill="#263238"/>
<path d="M429.211 235.826H422.32C421.434 235.842 420.554 235.669 419.739 235.319C418.925 234.968 418.194 234.448 417.597 233.793C416.999 233.138 416.548 232.363 416.274 231.52C415.999 230.677 415.908 229.785 416.006 228.903L416.614 222.012C416.801 220.138 417.669 218.398 419.055 217.122C420.44 215.846 422.245 215.122 424.129 215.09H431.02C431.908 215.071 432.789 215.242 433.606 215.592C434.422 215.941 435.154 216.461 435.754 217.116C436.353 217.772 436.805 218.547 437.081 219.392C437.356 220.236 437.448 221.13 437.35 222.012L436.742 228.903C436.532 230.771 435.654 232.5 434.271 233.772C432.887 235.044 431.09 235.774 429.211 235.826Z" fill="#006D8F"/>
<path d="M432.08 221.996L430.583 220.344L426.81 223.805L423.661 220.344L421.868 221.996L425.033 225.458L421.275 228.919L422.772 230.556L426.53 227.095L429.695 230.556L431.472 228.919L428.307 225.458L432.08 221.996Z" fill="white"/>
<path d="M275.204 295.273C279.195 299.623 282.999 304.129 286.788 308.666C290.577 313.203 294.24 317.834 297.889 322.48C298.045 322.682 297.982 322.604 298.013 322.667C298.045 322.729 298.013 322.745 298.013 322.76C298.041 322.818 298.078 322.871 298.123 322.916C298.255 323.105 298.424 323.266 298.62 323.389C298.815 323.512 299.033 323.595 299.261 323.633C299.437 323.657 299.615 323.657 299.791 323.633C299.884 323.641 299.978 323.641 300.071 323.633H300.212C300.29 323.633 300.212 323.633 300.461 323.54L304.359 321.419C309.598 318.644 314.883 315.931 320.34 313.499L324.908 319.159C320.511 323.197 315.927 328.264 311.297 331.975L307.805 334.719C307.588 334.896 307.358 335.057 307.119 335.202C306.854 335.39 306.578 335.562 306.292 335.716C305.728 336.041 305.145 336.333 304.546 336.589C303.338 337.097 302.07 337.448 300.773 337.634C298.15 338.019 295.472 337.751 292.978 336.855C291.709 336.404 290.503 335.791 289.392 335.03C288.83 334.656 288.3 334.22 287.833 333.799C287.568 333.58 287.349 333.331 287.1 333.097L286.476 332.473C282.345 328.233 278.275 323.961 274.284 319.611C270.293 315.261 266.348 310.88 262.575 306.327L275.204 295.273Z" fill="#B55B52"/>
<path d="M318.281 316.929L321.914 305.252L331.487 310.023C331.487 310.023 330.084 318.535 323.13 320.016L318.281 316.929Z" fill="#B55B52"/>
<path d="M325.734 302.024L334.371 304.394L331.471 310.023L321.898 305.252L325.734 302.024Z" fill="#B55B52"/>
<path d="M224.876 298.454C223.847 303.412 222.568 308.323 221.243 313.219C219.918 318.115 218.468 322.963 216.955 327.812L216.394 329.636L216.114 330.541C216.076 330.671 216.024 330.796 215.958 330.915C215.78 331.416 215.68 331.942 215.661 332.474C215.628 333.607 215.944 334.722 216.566 335.67C216.872 336.086 217.211 336.477 217.579 336.839L218.873 338.258L221.43 341.111C223.098 343.045 224.782 344.978 226.372 347.005L220.931 353.241C218.686 351.963 216.534 350.575 214.383 349.203L211.187 347.083L209.628 346.007C209.098 345.633 208.661 345.383 207.804 344.682C204.753 342.082 202.648 338.546 201.817 334.625C201.398 332.627 201.298 330.575 201.52 328.545C201.52 328.046 201.676 327.485 201.754 326.986L201.926 326.05L202.253 324.179C203.126 319.175 204.062 314.186 205.106 309.228C206.151 304.27 207.273 299.327 208.599 294.448L224.876 298.454Z" fill="#B55B52"/>
<path d="M221.041 346.506L227.464 343.216L230.302 354.13C230.302 354.13 225.141 356.11 221.15 353.568L221.041 346.506Z" fill="#B55B52"/>
<path d="M236.351 339.708L236.647 349.749L229.459 354.441L226.965 343.419L236.351 339.708Z" fill="#B55B52"/>
<path d="M257.383 246.911C257.539 247.675 258.085 248.22 258.584 248.127C259.083 248.033 259.379 247.316 259.223 246.568C259.067 245.819 258.522 245.258 258.023 245.352C257.524 245.445 257.228 246.178 257.383 246.911Z" fill="#263238"/>
<path d="M258.007 248.236C259.41 250.41 261.105 252.383 263.043 254.098C262.592 254.584 262.04 254.966 261.426 255.216C260.812 255.466 260.15 255.58 259.488 255.548L258.007 248.236Z" fill="#A02724"/>
<path d="M253.688 243.2C253.598 243.199 253.51 243.172 253.435 243.122C253.36 243.073 253.301 243.003 253.265 242.92C253.229 242.838 253.217 242.747 253.231 242.659C253.245 242.57 253.285 242.487 253.345 242.42C253.833 241.868 254.445 241.439 255.13 241.168C255.816 240.897 256.555 240.792 257.289 240.861C257.35 240.872 257.407 240.895 257.459 240.929C257.51 240.962 257.555 241.006 257.589 241.056C257.624 241.107 257.649 241.164 257.661 241.224C257.674 241.284 257.675 241.346 257.663 241.407C257.654 241.467 257.633 241.524 257.601 241.575C257.569 241.627 257.527 241.671 257.477 241.706C257.428 241.741 257.372 241.765 257.313 241.778C257.254 241.791 257.193 241.792 257.133 241.781C256.552 241.725 255.965 241.809 255.423 242.026C254.88 242.243 254.398 242.587 254.015 243.028C253.932 243.125 253.815 243.187 253.688 243.2Z" fill="#263238"/>
<path d="M234.901 257.777C236.616 264.934 238.347 278.046 232.204 282.801C232.204 282.801 234.605 290.066 250.913 290.066C268.843 290.066 259.488 285.389 259.488 285.389C249.697 283.487 249.947 274.99 251.693 269.424L234.901 257.777Z" fill="#B55B52"/>
<path d="M230.287 284.126C229.226 282.146 228.041 279.87 230.474 279.153C233.155 278.373 250.352 276.923 255.419 278.389C253.86 281.148 256.495 284.625 256.495 284.625L230.287 284.126Z" fill="#263238"/>
<path d="M244.536 618.677H255.777L256.9 596.039H245.643L244.536 618.677Z" fill="#B55B52"/>
<path d="M173.146 615.559L184.542 616.167L191.465 593.856L180.068 593.248L173.146 615.559Z" fill="#B55B52"/>
<path d="M184.199 615.263L173.457 612.94C173.269 612.897 173.072 612.92 172.899 613.005C172.726 613.091 172.587 613.233 172.506 613.408L168.78 621.499C168.688 621.696 168.643 621.911 168.647 622.127C168.651 622.344 168.705 622.557 168.804 622.75C168.904 622.943 169.046 623.11 169.22 623.239C169.394 623.368 169.595 623.456 169.809 623.495C173.566 624.243 175.437 624.415 180.161 625.444C183.061 626.068 189.625 627.673 193.632 628.562C197.639 629.451 199.026 625.584 197.467 624.867C190.451 621.671 187.52 618.849 185.618 616.214C185.277 615.735 184.772 615.397 184.199 615.263Z" fill="#263238"/>
<path d="M255.185 617.539H244.505C244.312 617.541 244.125 617.609 243.975 617.731C243.825 617.852 243.721 618.021 243.679 618.209L241.745 626.894C241.695 627.104 241.694 627.323 241.742 627.534C241.789 627.744 241.885 627.941 242.02 628.11C242.155 628.278 242.327 628.414 242.523 628.506C242.718 628.597 242.932 628.643 243.149 628.64C247 628.64 252.503 628.344 257.414 628.344C263.074 628.344 267.954 628.655 274.564 628.655C278.571 628.655 279.694 624.602 278.01 624.228C270.355 622.559 264.118 622.372 257.508 618.303C256.817 617.843 256.014 617.579 255.185 617.539Z" fill="#263238"/>
<path d="M211.826 286.106C203.345 290.144 201.037 314.622 201.037 314.622L222.038 324.32C225.588 318.332 227.522 311.526 227.651 304.566C228.072 291.922 220.51 282.037 211.826 286.106Z" fill="#263238"/>
<path opacity="0.4" d="M223.177 301.198C219.388 307.092 219.747 316.197 221.056 323.883L221.992 324.32C225.538 318.331 227.472 311.525 227.605 304.566C227.605 303.818 227.605 303.007 227.605 302.337L223.177 301.198Z" fill="black"/>
<path d="M270.433 285.514C270.433 285.514 280.848 297.269 271.01 370.017H218.733C218.375 361.987 223.411 322.838 215.615 285.015C221.393 283.903 227.236 283.164 233.108 282.801C240.513 282.38 247.936 282.38 255.341 282.801C260.434 283.317 265.479 284.224 270.433 285.514Z" fill="#006D8F"/>
<path opacity="0.6" d="M270.433 285.514C270.433 285.514 280.848 297.269 271.01 370.017H218.733C218.375 361.987 223.411 322.838 215.615 285.015C221.393 283.903 227.236 283.164 233.108 282.801C240.513 282.38 247.936 282.38 255.341 282.801C260.434 283.317 265.479 284.224 270.433 285.514Z" fill="#FAFAFA"/>
<path opacity="0.2" d="M275.001 307.746L274.814 307.575L264.414 302.024C263.354 318.036 270.51 328.077 274.767 332.458C275.3 324.231 275.378 315.982 275.001 307.746Z" fill="black"/>
<path opacity="0.2" d="M256.9 596.039L256.323 607.716H245.066L245.643 596.039H256.9Z" fill="black"/>
<path opacity="0.2" d="M180.067 593.264L191.464 593.856L187.894 605.362L176.497 604.754L180.067 593.264Z" fill="black"/>
<path d="M231.284 250.512C233.794 259.867 234.792 265.495 240.638 269.393C249.338 275.255 260.158 268.52 260.501 258.588C260.797 249.654 256.65 235.825 246.594 233.939C244.374 233.499 242.078 233.637 239.926 234.338C237.774 235.038 235.838 236.279 234.302 237.942C232.766 239.604 231.682 241.633 231.154 243.833C230.626 246.034 230.67 248.333 231.284 250.512Z" fill="#B55B52"/>
<path d="M252.472 370.017C252.472 370.017 241.371 444.713 235.322 472.714C228.618 503.428 192.852 604.77 192.852 604.77L175.344 600.981C175.344 600.981 197.779 518.349 203.408 475.505C205.59 458.776 208.225 431.85 211.562 409.353C214.789 387.525 218.765 370.032 218.765 370.032L252.472 370.017Z" fill="#263238"/>
<path d="M197.047 598.923L193.772 605.253L174.097 600.981L175.749 595.072L197.047 598.923Z" fill="#006D8F"/>
<path opacity="0.6" d="M197.047 598.923L193.772 605.253L174.097 600.981L175.749 595.072L197.047 598.923Z" fill="white"/>
<path opacity="0.6" d="M245.457 396.631C232.625 399.141 233.982 446.989 235.525 471.592C239.236 454.192 244.646 420.734 248.341 396.974C247.447 396.533 246.429 396.412 245.457 396.631Z" fill="black"/>
<path d="M271.01 370.017C271.01 370.017 276.233 443.107 275.173 472.917C274.066 503.928 259.364 605.44 259.364 605.44H242.806C242.806 605.44 242.198 505.658 241.465 475.271C240.654 442.063 236.647 370.001 236.647 370.001L271.01 370.017Z" fill="#263238"/>
<path d="M262.544 598.861C262.622 598.861 261.608 605.737 261.608 605.737H241.465L240.919 599.594L262.544 598.861Z" fill="#006D8F"/>
<path opacity="0.6" d="M262.544 598.861C262.622 598.861 261.608 605.737 261.608 605.737H241.465L240.919 599.594L262.544 598.861Z" fill="white"/>
<path d="M264.337 299.187C264.337 318.8 274.767 326.876 274.767 326.876L291.777 310.319C287.751 303.59 283.167 297.212 278.073 291.251C268.235 279.979 264.337 286.589 264.337 299.187Z" fill="#263238"/>
<path opacity="0.2" d="M259.846 262.143C259.5 263.126 258.918 264.009 258.151 264.715C257.385 265.422 256.458 265.93 255.45 266.196C254.341 266.423 253.335 266.999 252.58 267.842C251.824 268.684 251.36 269.747 251.256 270.874C253.275 270.199 255.105 269.056 256.598 267.538C258.091 266.021 259.204 264.172 259.846 262.143Z" fill="black"/>
<path d="M255.45 231.881C258.942 227.469 253.563 227.204 253.563 227.204C254.967 221.949 248.668 224.771 248.668 224.771C244.895 219.564 242.759 225.91 242.759 225.91C238.845 221.497 238.081 228.7 238.081 228.7C234.153 223.103 232.157 231.179 232.157 231.179C228.54 225.364 226.326 232.925 226.326 232.925C218.858 230.259 222.397 238.024 222.397 238.024C216.036 238.195 221.15 243.138 221.15 243.138C213.51 243.138 220.245 247.519 220.245 247.519C214.181 251.494 221.805 252.57 221.805 252.57C216.862 260.366 225.359 257.434 225.359 257.434C221.914 265.105 229.538 261.722 229.538 261.722C229.054 269.112 233.311 267.101 235.369 265.729C235.758 267.288 236.507 268.847 237.879 268.972C240.545 269.33 240.997 264.294 240.997 264.294C240.997 264.294 243.46 266.228 245.534 265.183C247.608 264.139 246.828 261.504 246.828 261.504C247.278 261.84 247.825 262.022 248.387 262.022C248.949 262.022 249.496 261.84 249.946 261.504C250.835 260.818 250.835 255.86 249.712 254.114L253.766 252.554C253.766 252.554 256.775 252.134 255.434 248.158C254.625 245.873 254.554 243.391 255.232 241.064C259.815 238.912 256.042 236.387 256.042 236.387C261.359 232.972 255.45 231.881 255.45 231.881Z" fill="#263238"/>
<path d="M247.234 250.855C247.868 253.181 249.255 255.231 251.178 256.686C253.72 258.588 255.622 256.686 255.435 253.833C255.279 251.245 253.751 247.144 250.944 246.365C248.138 245.585 246.563 248.095 247.234 250.855Z" fill="#B55B52"/>
</svg>
