<svg width="655" height="656" viewBox="0 0 655 656" fill="none" xmlns="http://www.w3.org/2000/svg">
<path d="M655 501.444H0V501.772H655V501.444Z" fill="#6AB0F8"/>
<path d="M589.369 522.522H560.968V522.849H589.369V522.522Z" fill="#6AB0F8"/>
<path d="M451.518 515.736H406.833V516.064H451.518V515.736Z" fill="#6AB0F8"/>
<path d="M577.868 510.365H519.533V510.693H577.868V510.365Z" fill="#6AB0F8"/>
<path d="M226.656 516.968H212.062V517.295H226.656V516.968Z" fill="#6AB0F8"/>
<path d="M200.391 516.968H150.1V517.295H200.391V516.968Z" fill="#6AB0F8"/>
<path d="M123.153 511.439H86.8662V511.767H123.153V511.439Z" fill="#6AB0F8"/>
<path d="M310.47 443.018H57.5222C55.5406 443.015 53.6414 442.225 52.2414 440.823C50.8415 439.42 50.0552 437.52 50.0552 435.538V79.9646C50.0724 77.9944 50.8663 76.1106 52.2644 74.7223C53.6625 73.334 55.5519 72.5534 57.5222 72.55H310.47C312.454 72.55 314.357 73.3381 315.759 74.7409C317.162 76.1437 317.95 78.0463 317.95 80.0301V435.538C317.95 437.522 317.162 439.424 315.759 440.827C314.357 442.23 312.454 443.018 310.47 443.018ZM57.5222 72.812C55.6275 72.8155 53.8115 73.5706 52.473 74.9116C51.1345 76.2526 50.3827 78.0699 50.3827 79.9646V435.538C50.3827 437.433 51.1345 439.25 52.473 440.591C53.8115 441.932 55.6275 442.687 57.5222 442.691H310.47C312.366 442.687 314.183 441.932 315.524 440.592C316.865 439.251 317.619 437.434 317.623 435.538V79.9646C317.619 78.0687 316.865 76.2514 315.524 74.9108C314.183 73.5702 312.366 72.8155 310.47 72.812H57.5222Z" fill="#C0DFFF"/>
<path d="M593.836 443.018H340.875C338.892 443.015 336.992 442.225 335.59 440.823C334.188 439.421 333.398 437.521 333.395 435.538V79.9646C333.416 77.9932 334.212 76.1094 335.613 74.7215C337.013 73.3336 338.904 72.5534 340.875 72.55H593.836C595.804 72.5569 597.69 73.339 599.085 74.7269C600.481 76.1148 601.273 77.9967 601.29 79.9646V435.538C601.29 437.517 600.506 439.416 599.108 440.818C597.711 442.22 595.815 443.011 593.836 443.018ZM340.875 72.812C338.979 72.8155 337.162 73.5702 335.821 74.9108C334.481 76.2514 333.726 78.0687 333.723 79.9646V435.538C333.726 437.434 334.481 439.251 335.821 440.592C337.162 441.932 338.979 442.687 340.875 442.691H593.836C595.732 442.687 597.549 441.932 598.89 440.592C600.231 439.251 600.985 437.434 600.989 435.538V79.9646C600.985 78.0687 600.231 76.2514 598.89 74.9108C597.549 73.5702 595.732 72.8155 593.836 72.812H340.875Z" fill="#6AB0F8"/>
<path d="M150.65 229.265C157.915 229.265 164.882 226.379 170.019 221.242C175.156 216.105 178.042 209.138 178.042 201.873C178.042 194.608 175.156 187.641 170.019 182.504C164.882 177.367 157.915 174.481 150.65 174.481H147.283V229.265H150.65Z" fill="#E7E7E7"/>
<path d="M147.257 229.265C162.386 229.265 174.649 217.002 174.649 201.873C174.649 186.745 162.386 174.481 147.257 174.481C132.129 174.481 119.865 186.745 119.865 201.873C119.865 217.002 132.129 229.265 147.257 229.265Z" fill="#F5F5F5"/>
<path d="M145.999 205.305C136.271 205.305 126.941 201.441 120.063 194.562C113.184 187.683 109.319 178.354 109.319 168.625V146.735C109.319 145.822 109.682 144.945 110.328 144.299C110.975 143.653 111.851 143.29 112.765 143.29C113.678 143.29 114.555 143.653 115.201 144.299C115.847 144.945 116.21 145.822 116.21 146.735V168.639C116.217 176.535 119.356 184.106 124.938 189.691C130.52 195.275 138.09 198.418 145.986 198.428C146.456 198.399 146.926 198.466 147.368 198.626C147.811 198.786 148.216 199.034 148.559 199.357C148.901 199.679 149.174 200.068 149.361 200.499C149.548 200.931 149.644 201.396 149.644 201.867C149.644 202.337 149.548 202.802 149.361 203.234C149.174 203.666 148.901 204.055 148.559 204.377C148.216 204.699 147.811 204.948 147.368 205.107C146.926 205.267 146.456 205.334 145.986 205.305H145.999Z" fill="#E7E7E7"/>
<path d="M82.3073 166.019H143.248C144.223 166.019 145.185 165.795 146.059 165.365C146.934 164.935 147.698 164.31 148.293 163.538C148.888 162.766 149.297 161.867 149.49 160.912C149.683 159.957 149.654 158.97 149.405 158.028L144.1 138.05C143.742 136.693 142.945 135.492 141.834 134.635C140.723 133.777 139.36 133.311 137.956 133.308H87.5997C86.1944 133.31 84.8291 133.776 83.7157 134.633C82.6024 135.491 81.8034 136.692 81.4427 138.05L76.2027 158.001C75.9476 158.941 75.9121 159.927 76.0988 160.883C76.2855 161.839 76.6895 162.739 77.2795 163.514C77.8696 164.289 78.6298 164.918 79.5016 165.352C80.3734 165.786 81.3333 166.014 82.3073 166.019Z" fill="#E7E7E7"/>
<path d="M537.467 229.265C544.732 229.265 551.699 226.379 556.836 221.242C561.973 216.105 564.859 209.138 564.859 201.873C564.859 194.608 561.973 187.641 556.836 182.504C551.699 177.367 544.732 174.481 537.467 174.481H534.1V229.265H537.467Z" fill="#E7E7E7"/>
<path d="M534.1 229.265C549.228 229.265 561.492 217.002 561.492 201.873C561.492 186.745 549.228 174.481 534.1 174.481C518.972 174.481 506.708 186.745 506.708 201.873C506.708 217.002 518.972 229.265 534.1 229.265Z" fill="#F5F5F5"/>
<path d="M532.843 205.305C523.114 205.305 513.785 201.441 506.906 194.562C500.027 187.683 496.163 178.354 496.163 168.625V146.735C496.163 145.822 496.526 144.945 497.172 144.299C497.818 143.653 498.694 143.29 499.608 143.29C500.522 143.29 501.398 143.653 502.044 144.299C502.69 144.945 503.053 145.822 503.053 146.735V168.639C503.06 176.535 506.199 184.106 511.781 189.691C517.364 195.275 524.933 198.418 532.829 198.428C533.299 198.399 533.769 198.466 534.212 198.626C534.654 198.786 535.059 199.034 535.402 199.357C535.744 199.679 536.018 200.068 536.204 200.499C536.391 200.931 536.487 201.396 536.487 201.867C536.487 202.337 536.391 202.802 536.204 203.234C536.018 203.666 535.744 204.055 535.402 204.377C535.059 204.699 534.654 204.948 534.212 205.107C533.769 205.267 533.299 205.334 532.829 205.305H532.843Z" fill="#E7E7E7"/>
<path d="M469.15 166.018H530.092C531.066 166.019 532.028 165.795 532.902 165.365C533.777 164.935 534.541 164.31 535.136 163.538C535.731 162.766 536.14 161.867 536.333 160.912C536.526 159.957 536.497 158.97 536.249 158.027L531.009 138.076C530.65 136.719 529.854 135.518 528.743 134.661C527.632 133.803 526.268 133.337 524.865 133.334H474.443C473.037 133.336 471.672 133.802 470.559 134.659C469.445 135.517 468.646 136.718 468.286 138.076L463.046 158.027C462.795 158.966 462.764 159.949 462.952 160.901C463.141 161.854 463.546 162.75 464.136 163.522C464.725 164.294 465.484 164.92 466.353 165.353C467.222 165.786 468.179 166.013 469.15 166.018Z" fill="#E7E7E7"/>
<path d="M175.514 414.277H195.439V337.078H175.514V414.277Z" fill="#E7E7E7"/>
<path d="M121.502 414.264H187.618L197.6 323.913H131.485L121.502 414.264Z" fill="#DBDBDB"/>
<path d="M114.337 414.264H182.64L192.623 323.913H124.332L114.337 414.264Z" fill="#E7E7E7"/>
<path d="M177.702 407.15L186.112 331.039H129.258L120.848 407.15H177.702Z" fill="white"/>
<path d="M165.964 388.692L166.37 385.64C168.479 366.54 156.558 349.523 141.074 349.523L140.72 352.628C138.611 371.715 150.532 388.732 166.029 388.732L165.964 388.692Z" fill="#DBDBDB"/>
<path d="M77.408 501.444H136.148V414.264H77.408L77.408 501.444Z" fill="#F5F5F5"/>
<path d="M83.3031 501.444H77.395V484.637H89.4994L83.3031 501.444Z" fill="#E7E7E7"/>
<path d="M242.036 501.444H300.776V414.264H242.036V501.444Z" fill="#E7E7E7"/>
<path d="M77.3945 491.134H247.184V414.277H77.3945V491.134Z" fill="#E7E7E7"/>
<path d="M241.276 501.444H247.184V484.637H235.08L241.276 501.444Z" fill="#E7E7E7"/>
<path d="M81.9795 450.092H242.599V419.071H81.9795V450.092Z" fill="#F5F5F5"/>
<path d="M151.58 439.35H172.998C177.603 439.352 182.16 438.414 186.391 436.594C190.621 434.774 194.435 432.11 197.6 428.765H126.978C130.145 432.108 133.959 434.771 138.189 436.591C142.419 438.411 146.975 439.35 151.58 439.35Z" fill="#DBDBDB"/>
<path d="M81.9795 486.117H242.599V455.096H81.9795V486.117Z" fill="#F5F5F5"/>
<path d="M151.58 475.323H172.998C177.603 475.324 182.16 474.387 186.391 472.567C190.621 470.747 194.435 468.083 197.6 464.738H126.978C130.145 468.081 133.959 470.744 138.189 472.564C142.419 474.383 146.975 475.322 151.58 475.323Z" fill="#DBDBDB"/>
<path d="M236.429 410.714H237.949C237.949 407.583 237.949 399.657 238.106 381.487C238.381 348.541 238.905 346.537 238.905 346.537L235.289 361.746C232.997 378.579 235.957 395.504 236.429 410.714Z" fill="#E7E7E7"/>
<path d="M233.429 359.44C228.189 353.244 217.12 351.436 205.749 349.89C201.282 349.288 217.473 359.493 225.399 366.737C231.556 372.37 235.486 373.929 237.189 379.536C238.053 372.54 237.909 364.824 233.429 359.44Z" fill="#E7E7E7"/>
<path d="M240.332 370.549C245.572 364.353 256.642 362.558 268.013 361.012C272.48 360.409 256.223 370.614 248.363 377.859C242.206 383.492 238.276 385.051 236.573 390.657C235.708 383.662 235.8 375.894 240.332 370.549Z" fill="#E7E7E7"/>
<path d="M238.105 345.03C242.035 337.615 251.808 330.62 262.825 328C267.148 326.965 252.804 341.676 247.354 351.174C243.123 358.536 237.516 367.208 236.638 373.444C235.328 361.156 234.202 352.484 238.105 345.03Z" fill="#E7E7E7"/>
<path d="M237.634 414.264C232.997 414.264 229.158 411.945 228.883 408.958L228.11 403.875H247.171L246.385 408.958C246.123 411.945 242.35 414.264 237.634 414.264Z" fill="#DBDBDB"/>
<path d="M248.402 405.827H226.879L226.263 400.155H249.018L248.402 405.827Z" fill="#DBDBDB"/>
<path d="M222.098 297.503H431.973V106.073L222.098 106.073L222.098 297.503Z" fill="#E7E7E7"/>
<path d="M217.381 297.503H429.916V106.073L217.381 106.073L217.381 297.503Z" fill="#DBDBDB"/>
<path d="M421.427 288.936V114.653L225.844 114.653V288.936H421.427Z" fill="#A4D1FF"/>
<path d="M397.441 288.936L320.465 114.654H294.317L371.293 288.936H397.441Z" fill="white"/>
<path d="M363.879 288.936L286.903 114.654H268.904L345.879 288.936H363.879Z" fill="white"/>
<path d="M298.471 288.923V114.64H288.358V288.923H298.471Z" fill="#E7E7E7"/>
<path d="M365.7 288.923V114.64H355.587V288.923H365.7Z" fill="#E7E7E7"/>
<path d="M296.649 294.372V108.274H283.864V294.372H296.649Z" fill="#DBDBDB"/>
<path d="M363.879 294.372V108.274H351.093V294.372H363.879Z" fill="#DBDBDB"/>
<path d="M226.761 288.936V114.654H225.857V288.936H226.761Z" fill="#E7E7E7"/>
<path d="M213.818 95.0427H441.182C441.473 95.0461 441.75 95.1632 441.956 95.3688C442.162 95.5744 442.279 95.8523 442.282 96.1431C442.279 96.4327 442.161 96.7092 441.955 96.9128C441.749 97.1163 441.471 97.2304 441.182 97.2304H213.818C213.529 97.2304 213.251 97.1163 213.045 96.9128C212.839 96.7092 212.721 96.4327 212.718 96.1431C212.721 95.8523 212.838 95.5744 213.044 95.3688C213.249 95.1632 213.527 95.0461 213.818 95.0427Z" fill="#E7E7E7"/>
<path d="M431.972 102.261C432.363 102.257 432.736 102.1 433.011 101.823C433.286 101.546 433.44 101.171 433.44 100.781V97.6104C433.441 97.4166 433.405 97.2245 433.332 97.0449C433.259 96.8654 433.151 96.7021 433.015 96.5645C432.878 96.4268 432.716 96.3176 432.537 96.2431C432.358 96.1685 432.166 96.1301 431.972 96.1301C431.582 96.1301 431.208 96.2843 430.93 96.5591C430.653 96.8338 430.496 97.207 430.492 97.5973V100.768C430.492 101.161 430.648 101.539 430.925 101.819C431.202 102.099 431.579 102.257 431.972 102.261Z" fill="#E7E7E7"/>
<path d="M230.298 102.261C230.689 102.258 231.064 102.1 231.341 101.824C231.618 101.547 231.775 101.172 231.778 100.781V97.6104C231.778 97.2178 231.622 96.8413 231.345 96.5637C231.067 96.2861 230.69 96.1301 230.298 96.1301C229.909 96.1301 229.536 96.2847 229.26 96.5599C228.985 96.835 228.831 97.2082 228.831 97.5973V100.768C228.829 100.962 228.865 101.155 228.938 101.335C229.011 101.515 229.119 101.679 229.255 101.818C229.391 101.957 229.553 102.067 229.732 102.143C229.911 102.219 230.103 102.259 230.298 102.261Z" fill="#E7E7E7"/>
<path opacity="0.6" d="M214.159 246.046L426.549 246.046V96.13L214.159 96.13L214.159 246.046Z" fill="#E7E7E7"/>
<path d="M445.78 341.061H409.152C405.26 341.061 402.104 344.216 402.104 348.109V365.06C402.104 368.952 405.26 372.108 409.152 372.108H445.78C449.672 372.108 452.828 368.952 452.828 365.06V348.109C452.828 344.216 449.672 341.061 445.78 341.061Z" fill="#DBDBDB"/>
<path d="M450.457 335.323H404.476C403.166 335.323 402.104 336.385 402.104 337.694V339.607C402.104 340.916 403.166 341.978 404.476 341.978H450.457C451.766 341.978 452.828 340.916 452.828 339.607V337.694C452.828 336.385 451.766 335.323 450.457 335.323Z" fill="#E7E7E7"/>
<path d="M402.851 406.6C402.851 406.6 403.519 428.438 428.959 428.438C454.4 428.438 455.068 406.6 455.068 406.6H402.851Z" fill="#E7E7E7"/>
<path d="M460.858 406.6C460.858 406.6 461.526 428.438 486.966 428.438C512.406 428.438 513.075 406.6 513.075 406.6H460.858Z" fill="#E7E7E7"/>
<path d="M500.473 327.004H450.169C444.815 327.004 440.475 331.345 440.475 336.698V362.427C440.475 367.781 444.815 372.121 450.169 372.121H500.473C505.826 372.121 510.167 367.781 510.167 362.427V336.698C510.167 331.345 505.826 327.004 500.473 327.004Z" fill="#E7E7E7"/>
<path d="M506.918 319.118H443.723C441.929 319.118 440.475 320.573 440.475 322.367V325.013C440.475 326.807 441.929 328.262 443.723 328.262H506.918C508.712 328.262 510.167 326.807 510.167 325.013V322.367C510.167 320.573 508.712 319.118 506.918 319.118Z" fill="#DBDBDB"/>
<path d="M383.686 501.444H390.288V393.186H383.686V501.444Z" fill="#E7E7E7"/>
<path d="M574.33 372.108H538.58V393.172H574.33V372.108Z" fill="#E7E7E7"/>
<path d="M360.827 393.186H538.567V372.121H360.827V393.186Z" fill="#DBDBDB"/>
<path d="M574.33 428.372H538.58V449.437H574.33V428.372Z" fill="#E7E7E7"/>
<path d="M360.827 449.437H538.567V428.372H360.827V449.437Z" fill="#DBDBDB"/>
<path d="M561.427 501.444H568.029V393.186H561.427V501.444Z" fill="#E7E7E7"/>
<path d="M531.978 501.444H538.58V393.186H531.978V501.444Z" fill="#DBDBDB"/>
<path d="M360.826 501.444H367.429V393.186H360.826V501.444Z" fill="#DBDBDB"/>
<path d="M327.5 560.604C467.778 560.604 581.496 553.964 581.496 545.774C581.496 537.585 467.778 530.945 327.5 530.945C187.222 530.945 73.5044 537.585 73.5044 545.774C73.5044 553.964 187.222 560.604 327.5 560.604Z" fill="#E7E7E7"/>
<path d="M341.137 479.305H174.02C171.333 479.267 168.76 478.214 166.816 476.358C164.872 474.502 163.702 471.979 163.54 469.297L148.554 179.066C148.471 177.775 148.655 176.481 149.096 175.265C149.536 174.048 150.223 172.936 151.114 171.998C152.004 171.059 153.079 170.315 154.271 169.811C155.462 169.307 156.745 169.055 158.038 169.071H325.155C327.841 169.106 330.415 170.155 332.359 172.01C334.303 173.864 335.473 176.385 335.635 179.066L350.595 469.297C350.678 470.586 350.494 471.878 350.056 473.094C349.617 474.309 348.932 475.421 348.045 476.36C347.158 477.299 346.086 478.045 344.898 478.552C343.709 479.058 342.429 479.315 341.137 479.305Z" fill="#308CEA"/>
<path opacity="0.8" d="M341.137 479.305H174.02C171.333 479.267 168.76 478.214 166.816 476.358C164.872 474.502 163.702 471.979 163.54 469.297L148.554 179.066C148.471 177.775 148.655 176.481 149.096 175.265C149.536 174.048 150.223 172.936 151.114 171.998C152.004 171.059 153.079 170.315 154.271 169.811C155.462 169.307 156.745 169.055 158.038 169.071H325.155C327.841 169.106 330.415 170.155 332.359 172.01C334.303 173.864 335.473 176.385 335.635 179.066L350.595 469.297C350.678 470.586 350.494 471.878 350.056 473.094C349.617 474.309 348.932 475.421 348.045 476.36C347.158 477.299 346.086 478.045 344.898 478.552C343.709 479.058 342.429 479.315 341.137 479.305Z" fill="white"/>
<path d="M308.662 159.613H290.178V160.923H308.662V159.613Z" fill="#308CEA"/>
<path d="M283.772 159.613H277V160.923H283.772V159.613Z" fill="#308CEA"/>
<path d="M348.329 460.886H188.509C185.935 460.862 183.467 459.863 181.6 458.091C179.733 456.319 178.607 453.905 178.448 451.337L164.143 173.748C164.064 172.512 164.24 171.273 164.662 170.109C165.084 168.945 165.741 167.881 166.594 166.983C167.446 166.085 168.475 165.373 169.615 164.892C170.756 164.41 171.983 164.169 173.221 164.185H333.041C335.615 164.213 338.082 165.215 339.946 166.99C341.811 168.764 342.934 171.179 343.089 173.748L357.394 451.337C357.474 452.57 357.297 453.807 356.876 454.97C356.455 456.132 355.799 457.195 354.948 458.092C354.096 458.988 353.069 459.699 351.93 460.18C350.791 460.661 349.565 460.902 348.329 460.886Z" fill="#308CEA"/>
<path d="M348.329 454.507H188.509C187.572 454.475 186.679 454.099 186 453.452C185.322 452.805 184.904 451.931 184.828 450.996L170.51 173.42C170.477 173.051 170.523 172.679 170.645 172.329C170.767 171.979 170.962 171.659 171.217 171.39C171.472 171.121 171.782 170.91 172.125 170.77C172.469 170.63 172.838 170.564 173.208 170.577H333.028C333.963 170.613 334.853 170.989 335.529 171.636C336.205 172.283 336.62 173.156 336.696 174.088L351.08 451.664C351.112 452.032 351.065 452.402 350.943 452.751C350.822 453.1 350.628 453.419 350.374 453.687C350.12 453.955 349.813 454.167 349.472 454.309C349.131 454.45 348.764 454.517 348.394 454.507H348.329ZM173.208 170.905C172.882 170.894 172.558 170.952 172.256 171.074C171.954 171.195 171.68 171.379 171.453 171.612C171.234 171.854 171.067 172.138 170.961 172.446C170.855 172.755 170.813 173.082 170.837 173.407L185.142 450.983C185.215 451.833 185.596 452.627 186.214 453.216C186.832 453.805 187.643 454.147 188.496 454.179H348.316C348.64 454.192 348.963 454.136 349.263 454.014C349.564 453.892 349.835 453.707 350.058 453.472C350.282 453.234 350.453 452.95 350.559 452.641C350.665 452.331 350.704 452.003 350.674 451.677L336.382 174.101C336.312 173.252 335.933 172.458 335.318 171.869C334.702 171.28 333.893 170.937 333.041 170.905H173.208Z" fill="white"/>
<path opacity="0.3" d="M292.427 271.743C310.605 253.09 309.421 222.454 289.783 203.317C270.146 184.18 239.49 183.788 221.312 202.441C203.134 221.095 204.318 251.73 223.956 270.867C243.594 290.004 274.25 290.397 292.427 271.743Z" fill="white"/>
<path d="M296.06 237.099C296.427 243.537 295.132 249.96 292.301 255.754C289.235 261.967 284.477 267.188 278.574 270.815C272.671 274.443 265.863 276.328 258.935 276.255C251.755 276.19 244.714 274.268 238.498 270.676C232.281 267.083 227.101 261.942 223.46 255.754C220.067 250.094 218.115 243.689 217.775 237.099C217.452 232.045 218.175 226.98 219.9 222.218C221.625 217.457 224.314 213.103 227.799 209.429C231.283 205.755 235.489 202.84 240.152 200.865C244.816 198.891 249.836 197.901 254.9 197.956C265.439 198.066 275.545 202.165 283.182 209.428C290.82 216.692 295.421 226.579 296.06 237.099Z" fill="white"/>
<path d="M292.261 255.754C289.196 261.967 284.437 267.188 278.534 270.815C272.631 274.443 265.823 276.328 258.895 276.255C251.715 276.19 244.675 274.268 238.458 270.676C232.242 267.083 227.061 261.942 223.42 255.754C233.375 248.878 245.199 245.221 257.297 245.274C269.719 245.32 281.862 248.96 292.261 255.754Z" fill="#308CEA"/>
<path d="M269.005 236.189C275.554 229.468 275.125 218.429 268.047 211.532C260.969 204.634 249.922 204.491 243.373 211.211C236.824 217.931 237.253 228.971 244.331 235.868C251.409 242.766 262.456 242.909 269.005 236.189Z" fill="#308CEA"/>
<path d="M325.417 352.89H200.273C199.183 352.879 198.138 352.455 197.348 351.704C196.558 350.953 196.082 349.93 196.015 348.842L195.072 330.502C195.04 329.98 195.115 329.458 195.294 328.966C195.473 328.475 195.751 328.026 196.111 327.648C196.472 327.269 196.906 326.969 197.388 326.766C197.87 326.562 198.388 326.461 198.911 326.467H324.055C325.143 326.478 326.186 326.9 326.976 327.649C327.766 328.397 328.243 329.416 328.312 330.502L329.256 348.842C329.29 349.365 329.216 349.889 329.038 350.382C328.86 350.875 328.582 351.325 328.221 351.705C327.861 352.085 327.426 352.387 326.943 352.591C326.461 352.795 325.941 352.897 325.417 352.89Z" fill="white"/>
<path opacity="0.3" d="M287.1 316.341H234.831C233.736 316.333 232.686 315.909 231.893 315.154C231.1 314.4 230.623 313.373 230.56 312.28L230.364 308.35C230.329 307.827 230.403 307.303 230.581 306.81C230.759 306.318 231.037 305.867 231.398 305.487C231.758 305.107 232.193 304.805 232.676 304.601C233.159 304.397 233.678 304.296 234.202 304.302H286.458C287.548 304.313 288.593 304.737 289.383 305.488C290.173 306.239 290.649 307.262 290.715 308.35L290.925 312.28C290.957 312.802 290.882 313.325 290.704 313.816C290.527 314.308 290.25 314.758 289.891 315.139C289.533 315.519 289.1 315.822 288.62 316.029C288.14 316.236 287.623 316.342 287.1 316.341Z" fill="#06223E"/>
<path opacity="0.3" d="M306.54 441.066H228.241C226.387 441.043 224.61 440.32 223.267 439.042C221.923 437.765 221.113 436.026 220.997 434.175L220.539 425.136C220.492 424.248 220.628 423.36 220.936 422.525C221.244 421.691 221.719 420.928 222.332 420.283C222.945 419.638 223.683 419.125 224.501 418.775C225.319 418.425 226.199 418.245 227.089 418.246H305.361C307.215 418.269 308.992 418.992 310.336 420.269C311.679 421.547 312.49 423.286 312.605 425.136L313.064 434.175C313.11 435.062 312.976 435.948 312.669 436.781C312.362 437.613 311.889 438.375 311.279 439.019C310.669 439.664 309.934 440.177 309.12 440.529C308.305 440.881 307.428 441.064 306.54 441.066Z" fill="#06223E"/>
<path d="M327.71 397.246H202.552C201.463 397.232 200.42 396.807 199.63 396.057C198.841 395.306 198.364 394.286 198.295 393.199L197.352 374.859C197.319 374.336 197.395 373.813 197.573 373.321C197.752 372.829 198.03 372.379 198.39 372C198.75 371.62 199.185 371.318 199.666 371.114C200.148 370.909 200.667 370.806 201.19 370.811H326.334C327.424 370.822 328.469 371.246 329.259 371.997C330.049 372.748 330.525 373.771 330.592 374.859L331.548 393.199C331.578 393.72 331.502 394.243 331.322 394.734C331.143 395.225 330.865 395.674 330.505 396.053C330.145 396.433 329.712 396.734 329.231 396.939C328.75 397.145 328.232 397.249 327.71 397.246Z" fill="white"/>
<path d="M216.15 339.672C216.186 340.251 216.102 340.831 215.904 341.376C215.706 341.921 215.397 342.42 214.998 342.84C214.598 343.261 214.116 343.594 213.582 343.82C213.048 344.046 212.473 344.159 211.893 344.152C210.688 344.138 209.533 343.668 208.66 342.837C207.788 342.006 207.262 340.875 207.19 339.672C207.152 339.094 207.234 338.514 207.43 337.969C207.627 337.424 207.935 336.925 208.333 336.505C208.732 336.084 209.213 335.75 209.746 335.524C210.28 335.298 210.855 335.185 211.434 335.192C212.64 335.206 213.797 335.676 214.671 336.507C215.546 337.337 216.074 338.468 216.15 339.672Z" fill="#06223E"/>
<path d="M229.944 339.672C229.982 340.25 229.9 340.83 229.703 341.375C229.507 341.92 229.199 342.419 228.801 342.84C228.402 343.26 227.921 343.594 227.387 343.82C226.854 344.046 226.279 344.159 225.7 344.152C224.494 344.141 223.337 343.672 222.464 342.84C221.591 342.008 221.067 340.876 220.997 339.672C220.959 339.094 221.041 338.514 221.238 337.969C221.434 337.424 221.742 336.925 222.14 336.505C222.539 336.084 223.02 335.75 223.554 335.524C224.087 335.298 224.662 335.185 225.241 335.192C226.447 335.203 227.604 335.672 228.477 336.504C229.35 337.336 229.874 338.468 229.944 339.672Z" fill="#06223E"/>
<path d="M243.66 339.672C243.698 340.25 243.616 340.83 243.419 341.375C243.222 341.92 242.915 342.419 242.517 342.84C242.118 343.26 241.637 343.594 241.103 343.82C240.57 344.046 239.995 344.159 239.416 344.152C238.209 344.138 237.053 343.669 236.178 342.838C235.304 342.007 234.776 340.876 234.7 339.672C234.664 339.093 234.747 338.513 234.945 337.968C235.144 337.423 235.452 336.925 235.852 336.504C236.251 336.084 236.733 335.75 237.268 335.524C237.802 335.299 238.377 335.185 238.957 335.192C240.162 335.206 241.317 335.676 242.189 336.507C243.062 337.339 243.587 338.469 243.66 339.672Z" fill="#06223E"/>
<path d="M257.481 339.672C257.517 340.25 257.433 340.829 257.236 341.373C257.038 341.917 256.731 342.415 256.333 342.835C255.935 343.255 255.454 343.589 254.922 343.816C254.389 344.042 253.815 344.157 253.236 344.152C252.03 344.138 250.874 343.668 249.999 342.838C249.124 342.007 248.596 340.876 248.52 339.672C248.484 339.094 248.568 338.515 248.765 337.971C248.963 337.427 249.27 336.929 249.668 336.509C250.066 336.089 250.547 335.755 251.079 335.528C251.612 335.302 252.186 335.187 252.765 335.192C253.971 335.206 255.127 335.675 256.002 336.506C256.877 337.337 257.405 338.468 257.481 339.672Z" fill="#06223E"/>
<path d="M218.469 384.002C218.507 384.581 218.425 385.161 218.228 385.706C218.031 386.251 217.724 386.749 217.325 387.17C216.927 387.591 216.445 387.924 215.912 388.15C215.378 388.376 214.804 388.489 214.224 388.483C213.018 388.469 211.862 387.999 210.987 387.168C210.112 386.337 209.584 385.206 209.508 384.002C209.472 383.424 209.556 382.843 209.754 382.298C209.952 381.753 210.261 381.255 210.66 380.834C211.06 380.414 211.542 380.08 212.076 379.855C212.611 379.629 213.186 379.516 213.766 379.522C214.971 379.537 216.125 380.007 216.998 380.838C217.87 381.669 218.396 382.8 218.469 384.002Z" fill="#06223E"/>
<path d="M232.237 384.002C232.273 384.58 232.19 385.159 231.992 385.703C231.795 386.248 231.487 386.745 231.089 387.166C230.691 387.586 230.211 387.92 229.678 388.146C229.145 388.373 228.571 388.487 227.993 388.483C226.786 388.469 225.63 387.999 224.755 387.168C223.881 386.337 223.353 385.206 223.277 384.002C223.239 383.424 223.321 382.844 223.517 382.299C223.714 381.754 224.021 381.256 224.42 380.835C224.819 380.414 225.3 380.081 225.833 379.855C226.367 379.629 226.942 379.516 227.521 379.522C228.727 379.536 229.884 380.006 230.758 380.837C231.633 381.668 232.161 382.799 232.237 384.002Z" fill="#06223E"/>
<path d="M246.005 384.002C246.041 384.581 245.957 385.161 245.759 385.707C245.561 386.252 245.252 386.75 244.853 387.17C244.453 387.591 243.971 387.924 243.437 388.15C242.903 388.376 242.328 388.489 241.748 388.483C240.542 388.471 239.385 388.002 238.512 387.171C237.639 386.339 237.114 385.206 237.045 384.002C237.007 383.424 237.089 382.844 237.285 382.299C237.482 381.754 237.79 381.256 238.188 380.835C238.587 380.414 239.068 380.081 239.601 379.855C240.135 379.629 240.71 379.516 241.289 379.522C242.495 379.536 243.652 380.006 244.526 380.837C245.401 381.668 245.929 382.799 246.005 384.002Z" fill="#06223E"/>
<path d="M259.76 384.002C259.798 384.581 259.716 385.161 259.519 385.706C259.323 386.251 259.015 386.749 258.617 387.17C258.218 387.591 257.737 387.924 257.203 388.15C256.67 388.376 256.095 388.489 255.516 388.483C254.309 388.469 253.153 387.999 252.278 387.168C251.404 386.337 250.876 385.206 250.8 384.002C250.764 383.424 250.847 382.843 251.046 382.298C251.244 381.753 251.552 381.255 251.952 380.834C252.352 380.414 252.834 380.08 253.368 379.855C253.902 379.629 254.477 379.516 255.057 379.522C256.263 379.534 257.42 380.003 258.293 380.834C259.166 381.666 259.69 382.799 259.76 384.002Z" fill="#06223E"/>
<path d="M273.528 384.003C273.566 384.581 273.484 385.161 273.287 385.706C273.091 386.251 272.783 386.749 272.385 387.17C271.986 387.591 271.505 387.924 270.971 388.15C270.438 388.376 269.863 388.489 269.284 388.483C268.077 388.469 266.921 387.999 266.046 387.168C265.172 386.337 264.644 385.207 264.568 384.003C264.532 383.425 264.615 382.846 264.813 382.302C265.01 381.757 265.317 381.26 265.716 380.839C266.114 380.419 266.594 380.085 267.127 379.859C267.66 379.632 268.233 379.518 268.812 379.522C270.018 379.536 271.175 380.006 272.049 380.837C272.924 381.668 273.452 382.799 273.528 384.003Z" fill="#06223E"/>
<path d="M287.296 384.002C287.332 384.581 287.248 385.161 287.05 385.707C286.852 386.252 286.543 386.75 286.144 387.17C285.744 387.591 285.262 387.924 284.728 388.15C284.194 388.376 283.619 388.489 283.039 388.483C281.834 388.468 280.679 387.998 279.806 387.167C278.934 386.336 278.408 385.205 278.336 384.002C278.298 383.424 278.38 382.844 278.576 382.299C278.773 381.754 279.081 381.256 279.479 380.835C279.878 380.414 280.359 380.081 280.892 379.855C281.426 379.629 282.001 379.516 282.58 379.522C283.786 379.536 284.943 380.006 285.817 380.837C286.692 381.668 287.22 382.799 287.296 384.002Z" fill="#06223E"/>
<path d="M436.23 231.872C436.558 232.37 436.728 232.632 436.938 232.986L437.527 233.955C437.907 234.61 438.248 235.265 438.575 235.907C439.23 237.217 439.885 238.527 440.409 239.837C441.507 242.439 442.452 245.103 443.239 247.815C444.825 253.173 445.869 258.676 446.357 264.242L446.448 265.277C446.459 265.487 446.459 265.697 446.448 265.906V266.6C446.47 267.511 446.417 268.423 446.291 269.325C446.04 270.998 445.6 272.637 444.981 274.212C443.83 277.023 442.306 279.667 440.448 282.072C436.984 286.508 432.873 290.398 428.252 293.613L424.637 289.381C427.927 285.666 430.84 281.633 433.335 277.342C434.458 275.396 435.338 273.32 435.955 271.159C436.205 270.244 436.35 269.304 436.387 268.356C436.428 267.951 436.428 267.543 436.387 267.138V266.862C436.401 266.741 436.401 266.618 436.387 266.496L436.23 265.579C435.388 260.696 434.197 255.881 432.667 251.169C431.907 248.824 430.977 246.557 430.047 244.344C429.589 243.23 429.065 242.143 428.541 241.095L427.728 239.549L427.322 238.828L426.982 238.252L436.23 231.872Z" fill="#943C00"/>
<path d="M424.047 293.639L428.79 303.66L432.549 295.185C432.549 295.185 429.209 287.849 424.689 288.53L424.047 293.639Z" fill="#662100"/>
<path d="M432.182 304.158L435.955 297.975L432.549 295.185L428.789 303.66L432.182 304.158Z" fill="#662100"/>
<path d="M410.855 535.268C411.836 535.244 412.811 535.112 413.764 534.875C413.812 534.86 413.855 534.833 413.89 534.797C413.924 534.76 413.949 534.715 413.96 534.666C413.968 534.615 413.961 534.564 413.94 534.517C413.919 534.47 413.885 534.431 413.842 534.404C413.462 534.155 410.135 532.006 408.851 532.583C408.709 532.649 408.587 532.752 408.497 532.881C408.407 533.01 408.353 533.16 408.34 533.316C408.3 533.553 408.319 533.796 408.394 534.025C408.47 534.253 408.599 534.459 408.772 534.626C409.366 535.085 410.106 535.313 410.855 535.268ZM413.017 534.495C411.117 534.888 409.676 534.823 409.087 534.312C408.967 534.192 408.878 534.045 408.83 533.882C408.782 533.719 408.776 533.547 408.812 533.382C408.812 533.159 408.943 533.094 409.034 533.054C409.742 532.74 411.668 533.67 413.017 534.495Z" fill="#308CEA"/>
<path d="M413.698 534.875H413.829C413.869 534.85 413.901 534.815 413.924 534.774C413.947 534.733 413.96 534.686 413.96 534.639C413.96 534.508 413.96 531.351 412.755 530.29C412.607 530.157 412.432 530.058 412.242 529.999C412.052 529.94 411.852 529.924 411.655 529.95C411.448 529.951 411.248 530.024 411.089 530.155C410.929 530.286 410.819 530.468 410.777 530.67C410.528 531.915 412.519 534.273 413.567 534.875H413.698ZM411.825 530.434C411.931 530.431 412.037 530.45 412.136 530.488C412.235 530.526 412.325 530.584 412.402 530.657C413.093 531.676 413.45 532.885 413.423 534.115C412.375 533.277 411.131 531.495 411.288 530.749C411.288 530.631 411.38 530.474 411.707 530.434H411.825Z" fill="#308CEA"/>
<path d="M398.489 529.923C398.52 529.885 398.54 529.839 398.547 529.79C398.554 529.742 398.548 529.692 398.529 529.647C398.51 529.601 398.48 529.561 398.44 529.532C398.401 529.502 398.355 529.484 398.306 529.478C397.769 529.478 393.066 529.255 391.992 530.408V530.487C391.903 530.6 391.845 530.735 391.824 530.877C391.804 531.02 391.821 531.165 391.874 531.299C391.944 531.524 392.067 531.728 392.234 531.895C392.4 532.062 392.605 532.185 392.83 532.255C394.35 532.727 397.035 531.011 398.502 529.95L398.489 529.923ZM392.385 530.749C392.974 530.12 395.568 529.95 397.507 529.976C395.476 531.364 393.786 532.019 392.935 531.757C392.786 531.712 392.651 531.631 392.542 531.522C392.432 531.412 392.351 531.277 392.306 531.129C392.28 531.078 392.266 531.022 392.266 530.965C392.266 530.908 392.28 530.852 392.306 530.801L392.385 530.749Z" fill="#308CEA"/>
<path d="M398.489 529.924C398.509 529.883 398.519 529.838 398.519 529.793C398.519 529.747 398.509 529.702 398.489 529.662C398.423 529.557 396.956 527.042 395.227 526.518C394.979 526.445 394.718 526.424 394.461 526.455C394.205 526.487 393.957 526.57 393.734 526.701C393.105 527.068 393.065 527.5 393.144 527.775C393.485 528.993 396.825 530.068 398.266 530.055C398.311 530.054 398.356 530.041 398.395 530.018C398.434 529.995 398.466 529.963 398.489 529.924ZM393.786 527.304C393.86 527.231 393.944 527.169 394.035 527.12C394.197 527.017 394.379 526.951 394.569 526.926C394.759 526.901 394.952 526.918 395.135 526.976C396.275 527.277 397.336 528.745 397.821 529.465C396.262 529.295 393.891 528.338 393.694 527.605C393.678 527.549 393.677 527.49 393.694 527.434C393.71 527.378 393.742 527.328 393.786 527.29V527.304Z" fill="#308CEA"/>
<path d="M412.912 193.502C411.602 200.052 408.772 214.214 413.318 218.563C413.318 218.563 411.537 225.113 399.445 225.113C386.136 225.113 393.092 218.563 393.092 218.563C400.349 216.834 400.166 211.436 398.895 206.38L412.912 193.502Z" fill="#662100"/>
<path d="M390.747 178.149C390.821 178.161 390.896 178.161 390.97 178.149C391.032 178.119 391.088 178.076 391.133 178.024C391.179 177.971 391.214 177.911 391.236 177.845C391.258 177.779 391.266 177.709 391.261 177.64C391.256 177.571 391.237 177.504 391.206 177.442C390.853 176.694 390.327 176.043 389.67 175.541C389.014 175.04 388.247 174.703 387.433 174.56C387.297 174.548 387.161 174.589 387.054 174.675C386.947 174.76 386.876 174.883 386.857 175.018C386.842 175.155 386.882 175.293 386.967 175.401C387.053 175.508 387.178 175.578 387.315 175.595C387.957 175.718 388.561 175.993 389.076 176.396C389.591 176.799 390.002 177.319 390.276 177.913C390.326 177.991 390.397 178.053 390.48 178.095C390.562 178.136 390.655 178.155 390.747 178.149Z" fill="#06223E"/>
<path d="M386.778 183.9C385.747 185.812 384.46 187.575 382.953 189.14C383.361 189.513 383.845 189.794 384.372 189.961C384.899 190.128 385.456 190.179 386.005 190.11L386.778 183.9Z" fill="#943C00"/>
<path d="M387.76 182.42C387.655 183.298 387.092 183.953 386.529 183.887C385.965 183.822 385.572 183.049 385.677 182.171C385.782 181.293 386.345 180.638 386.987 180.704C387.629 180.769 387.852 181.542 387.76 182.42Z" fill="#06223E"/>
<path d="M387.158 180.782L385.14 179.97C385.14 179.97 385.992 181.699 387.158 180.782Z" fill="#06223E"/>
<path d="M410.056 527.434L399.367 529.923L392.869 505.348L403.559 502.859L410.056 527.434Z" fill="#662100"/>
<path d="M426.458 534.613H415.493L416.345 509.212H427.322L426.458 534.613Z" fill="#662100"/>
<path d="M414.615 533.343H426.942C427.156 533.341 427.363 533.417 427.525 533.557C427.686 533.697 427.791 533.891 427.82 534.102L429.222 543.849C429.249 544.095 429.225 544.345 429.149 544.581C429.073 544.817 428.948 545.035 428.782 545.219C428.617 545.404 428.414 545.551 428.187 545.651C427.96 545.751 427.714 545.802 427.466 545.801C423.169 545.735 421.1 545.473 415.676 545.473C412.336 545.473 407.463 545.827 402.864 545.827C398.266 545.827 398.004 541.268 399.93 540.862C408.524 539.002 409.886 536.46 412.781 534.024C413.293 533.587 413.942 533.345 414.615 533.343Z" fill="#06223E"/>
<path d="M398.423 528.286L409.624 523.138C409.814 523.047 410.031 523.029 410.234 523.087C410.436 523.145 410.611 523.275 410.724 523.452L416.082 531.731C416.207 531.944 416.286 532.181 416.314 532.427C416.342 532.672 416.318 532.921 416.244 533.157C416.17 533.392 416.048 533.61 415.884 533.795C415.721 533.981 415.521 534.13 415.296 534.233C411.366 535.963 409.375 536.604 404.449 538.871C401.423 540.259 395.279 543.456 391.114 545.421C386.948 547.386 384.799 543.312 386.371 542.133C393.406 536.893 395.424 533.133 397.035 529.714C397.307 529.084 397.801 528.576 398.423 528.286Z" fill="#06223E"/>
<path opacity="0.2" d="M392.869 505.348L396.354 518.526L406.912 515.527L403.572 502.859L392.869 505.348Z" fill="#06223E"/>
<path opacity="0.2" d="M427.322 509.212H416.344L415.912 522.312H426.89L427.322 509.212Z" fill="#06223E"/>
<path d="M432.3 221.052C436.859 222.06 441.732 238.448 441.732 238.448L428.842 252.164C428.842 252.164 418.139 236.759 420.327 231.099C422.541 225.191 426.864 219.873 432.3 221.052Z" fill="#06223E"/>
<path opacity="0.4" d="M425.017 231.492C422.711 229.383 421.152 230.012 420.091 231.689C419.043 236.562 425.253 246.767 427.755 250.631C428.907 246.02 430.231 236.3 425.017 231.492Z" fill="#06223E"/>
<path d="M374.542 221.379C374.542 221.379 369.302 223.213 379.782 287.6H424.322C423.576 269.469 423.55 258.282 432.182 221.052C425.941 219.764 419.615 218.932 413.253 218.563C406.52 218.077 399.76 218.077 393.027 218.563C384.394 219.362 374.542 221.379 374.542 221.379Z" fill="#06223E"/>
<path opacity="0.4" d="M374.136 246.086C374.424 249.217 374.804 252.741 375.302 256.723C378.957 253.435 381.944 244.081 380.843 238.632C378.232 240.751 375.969 243.266 374.136 246.086Z" fill="#06223E"/>
<path d="M378.905 236.3C376.501 242.349 373.795 248.274 370.796 254.051C367.831 260.036 364.323 265.737 360.316 271.081L359.477 272.116L359.058 272.626C358.914 272.797 358.796 272.954 358.574 273.19C357.785 274.05 356.907 274.823 355.954 275.495C354.269 276.662 352.424 277.579 350.478 278.22C347.083 279.304 343.558 279.93 339.998 280.08C333.329 280.345 326.655 279.751 320.138 278.312L320.859 272.81C323.872 272.81 327.029 272.81 330.029 272.561C333.042 272.413 336.043 272.08 339.015 271.565C341.776 271.135 344.476 270.378 347.059 269.312C348.102 268.867 349.076 268.276 349.954 267.557C350.289 267.276 350.592 266.96 350.858 266.614C350.858 266.614 351.015 266.404 351.12 266.26L351.421 265.828L352.037 264.963C355.324 259.885 358.252 254.585 360.801 249.099C363.421 243.531 366.041 237.754 368.438 232.069L378.905 236.3Z" fill="#943C00"/>
<path d="M374.542 221.379C369.08 222.689 362.373 237.676 362.373 237.676L373.691 254.313C373.691 254.313 388.769 235.331 386.974 229.54C385.14 223.501 381.21 219.755 374.542 221.379Z" fill="#06223E"/>
<path d="M324.003 273.648L314.557 269.286L313.614 278.679C313.614 278.679 321.474 280.997 325.404 278.679L324.003 273.648Z" fill="#662100"/>
<path d="M308.911 268.343L308.007 275.495L313.614 278.679L314.557 269.286L308.911 268.343Z" fill="#662100"/>
<path d="M417.654 183.062C415.65 193.764 415.034 198.349 408.904 203.21C399.734 210.519 386.961 205.725 385.73 194.642C384.603 184.66 388.061 168.835 399.157 165.822C401.601 165.148 404.177 165.111 406.64 165.715C409.102 166.319 411.369 167.544 413.224 169.272C415.079 171.001 416.46 173.176 417.235 175.59C418.011 178.004 418.155 180.576 417.654 183.062Z" fill="#662100"/>
<path d="M394.14 185.315C393.524 190.777 393.288 204.965 405.288 205.41C419.973 205.947 424.375 193.397 423.065 188.38C430.715 182.158 431.815 171.455 423.222 163.267C414.628 155.08 395.712 159.652 390.472 167.63C383.83 177.52 394.14 185.315 394.14 185.315Z" fill="#06223E"/>
<path d="M408.851 166.451C408.144 160.687 408.694 156.718 414.091 156.718C419.488 156.718 426.851 158.669 429.549 164.185C432.248 169.7 432.47 178.333 424.938 177.455C417.405 176.577 409.703 173.341 408.851 166.451Z" fill="#308CEA"/>
<path d="M417.209 165.062C415.899 158.198 422.043 138.862 436.964 137.552C443.88 136.963 447.077 144.404 443.514 145.635C450.064 145.556 454.256 154.215 448.151 155.512C452.972 158.604 451.78 164.944 444.902 168.062C439.78 170.42 418.977 174.573 417.209 165.062Z" fill="#06223E"/>
<path d="M433.152 172.438C428.344 172.438 423.326 171.73 420.209 169.647C419.337 169.122 418.603 168.396 418.068 167.53C417.532 166.665 417.211 165.684 417.13 164.669C417.126 164.583 417.155 164.499 417.211 164.433C417.267 164.367 417.346 164.325 417.432 164.316C417.475 164.31 417.519 164.314 417.561 164.326C417.603 164.339 417.642 164.36 417.675 164.388C417.708 164.417 417.735 164.452 417.754 164.491C417.773 164.53 417.784 164.573 417.785 164.617C417.864 165.533 418.158 166.417 418.643 167.197C419.128 167.978 419.79 168.633 420.575 169.11C426.51 173.04 440.226 171.73 444.496 170.42C448.19 169.215 450.692 166.87 451.19 164.172C451.345 163.181 451.223 162.167 450.837 161.242C450.451 160.317 449.816 159.517 449.003 158.932C448.971 158.902 448.946 158.867 448.929 158.827C448.912 158.788 448.903 158.745 448.903 158.702C448.903 158.659 448.912 158.617 448.929 158.577C448.946 158.538 448.971 158.502 449.003 158.473C449.064 158.413 449.146 158.379 449.232 158.379C449.317 158.379 449.4 158.413 449.461 158.473C450.375 159.14 451.086 160.049 451.514 161.096C451.942 162.144 452.07 163.291 451.885 164.407C451.347 167.355 448.688 169.87 444.758 171.154C440.966 172.11 437.061 172.542 433.152 172.438Z" fill="#06223E"/>
<path d="M390.799 183.9C389.579 185.611 389.076 187.731 389.397 189.808C389.83 192.559 392.502 192.743 394.441 190.987C396.38 189.232 398.07 186.062 396.642 183.782C396.324 183.29 395.886 182.887 395.369 182.612C394.852 182.336 394.273 182.198 393.688 182.21C393.102 182.222 392.529 182.383 392.023 182.679C391.518 182.975 391.096 183.395 390.799 183.9Z" fill="#662100"/>
<path d="M391.546 287.6C391.546 287.6 397.912 362.911 404.528 405.355C409.86 439.638 414.078 519.771 414.078 519.771H429.038C429.038 519.771 434.357 442.036 431.658 408.133C424.807 322.328 440.094 315.332 424.361 287.613L391.546 287.6Z" fill="#308CEA"/>
<path opacity="0.4" d="M410.384 316.066C404.455 322.289 399.67 329.508 396.249 337.393C397.991 354.318 400.061 373.103 402.262 389.557C411.292 366.178 414.091 340.853 410.384 316.066Z" fill="#06223E"/>
<path d="M381.079 287.128C381.079 287.128 367.259 369.383 365.084 406.456C370.507 440.739 392.699 513.208 392.699 513.208L406.31 508.269C406.31 508.269 398.777 429.25 390.59 407.622C409.021 345.567 422.567 329.873 418.624 287.6C409.179 287.6 381.079 287.128 381.079 287.128Z" fill="#308CEA"/>
<path d="M390.878 516.823L409.271 511.832L408.222 504.496L388.533 509.828L390.878 516.823Z" fill="#06223E"/>
<path d="M412.021 520.072H431.082L432.077 513.391L411.917 512.71L412.021 520.072Z" fill="#06223E"/>
<path d="M425.016 284.98L427.021 288.975C427.178 289.29 426.811 289.604 426.3 289.604H379.559C379.166 289.604 378.826 289.408 378.8 289.146L378.394 285.216C378.394 284.94 378.721 284.705 379.153 284.705H424.283C424.418 284.686 424.556 284.702 424.684 284.75C424.812 284.798 424.927 284.877 425.016 284.98Z" fill="#308CEA"/>
<path opacity="0.5" d="M425.016 284.98L427.021 288.975C427.178 289.29 426.811 289.604 426.3 289.604H379.559C379.166 289.604 378.826 289.408 378.8 289.146L378.394 285.216C378.394 284.94 378.721 284.705 379.153 284.705H424.283C424.418 284.686 424.556 284.702 424.684 284.75C424.812 284.798 424.927 284.877 425.016 284.98Z" fill="#06223E"/>
<path d="M418.951 290.01H420.156C420.405 290.01 420.589 289.879 420.575 289.735L419.999 284.495C419.999 284.338 419.776 284.22 419.541 284.22H418.322C418.086 284.22 417.903 284.338 417.916 284.495L418.48 289.735C418.506 289.905 418.715 290.01 418.951 290.01Z" fill="#308CEA"/>
<path d="M402.733 251.863C402.589 251.861 402.449 251.812 402.333 251.725C402.218 251.638 402.133 251.517 402.091 251.378C397.821 235.579 388.991 222.558 384.708 220.593C384.375 220.389 383.975 220.323 383.594 220.41C383.515 220.451 383.428 220.476 383.339 220.483C383.25 220.49 383.16 220.479 383.076 220.45C382.991 220.421 382.914 220.374 382.847 220.314C382.781 220.254 382.728 220.181 382.692 220.099C382.655 220.018 382.635 219.93 382.634 219.84C382.633 219.751 382.649 219.662 382.684 219.579C382.718 219.497 382.769 219.422 382.833 219.36C382.897 219.298 382.973 219.249 383.057 219.218C383.415 219.086 383.798 219.034 384.178 219.066C384.558 219.098 384.926 219.212 385.258 219.401C389.79 221.549 398.751 234.387 403.231 250.54C406.441 250.54 411.392 250.107 412.598 250.003C414.091 248.221 425.069 234.492 420.968 219.466C420.945 219.384 420.938 219.297 420.948 219.212C420.959 219.127 420.986 219.044 421.029 218.97C421.071 218.895 421.129 218.83 421.197 218.778C421.266 218.726 421.344 218.689 421.427 218.667C421.594 218.623 421.771 218.647 421.921 218.732C422.07 218.818 422.18 218.96 422.226 219.126C426.798 235.841 413.541 250.92 413.397 251.064C413.346 251.127 413.282 251.18 413.21 251.218C413.138 251.256 413.059 251.28 412.977 251.286C412.912 251.286 406.375 251.863 402.733 251.863Z" fill="#308CEA"/>
<path d="M424.44 261.111C417.301 247.736 414.379 246.793 413.109 242.496C414.071 240.094 415.446 237.877 417.17 235.946C416.305 235.697 414.445 235.331 413.24 235.108C413.371 234.518 413.515 233.942 413.646 233.379C412.334 233.232 411.008 233.294 409.716 233.562V232.252C408.052 231.89 406.343 231.78 404.646 231.925C404.795 232.545 404.939 233.173 405.078 233.811C403.768 234.06 401.777 234.466 400.821 234.741C402.679 236.846 404.044 239.339 404.816 242.038C400.965 248.653 386.005 291.176 410.345 294.438C434.684 297.7 431.567 274.5 424.44 261.111Z" fill="#308CEA"/>
<path opacity="0.4" d="M424.44 261.111C417.301 247.736 414.379 246.793 413.109 242.496C414.071 240.094 415.446 237.877 417.17 235.946C416.305 235.697 414.445 235.331 413.24 235.108C413.371 234.518 413.515 233.942 413.646 233.379C412.334 233.232 411.008 233.294 409.716 233.562V232.252C408.052 231.89 406.343 231.78 404.646 231.925C404.795 232.545 404.939 233.173 405.078 233.811C403.768 234.06 401.777 234.466 400.821 234.741C402.679 236.846 404.044 239.339 404.816 242.038C400.965 248.653 386.005 291.176 410.345 294.438C434.684 297.7 431.567 274.5 424.44 261.111Z" fill="white"/>
<path d="M403.821 240.767C403.669 241.442 403.603 242.133 403.624 242.824C403.624 243.308 404.934 243.636 406.389 243.78C407.843 243.924 413.947 244.16 413.751 243.479C413.554 242.798 414.052 241.867 414.078 241.291C414.104 240.715 411.655 240.688 409.598 240.767C407.541 240.846 404.227 240.033 403.821 240.767Z" fill="#308CEA"/>
<path d="M389.66 290.01H390.865C391.101 290.01 391.284 289.879 391.271 289.735L390.708 284.495C390.708 284.338 390.485 284.22 390.236 284.22H389.07C388.835 284.22 388.651 284.338 388.664 284.495L389.228 289.735C389.201 289.905 389.411 290.01 389.66 290.01Z" fill="#308CEA"/>
</svg>
