<svg width="640" height="720" viewBox="0 0 640 720" fill="none" xmlns="http://www.w3.org/2000/svg">
<path d="M640.001 540.634H0V540.954H640.001V540.634Z" fill="#EBEBEB"/>
<path d="M575.874 561.229H533.48V561.549H575.874V561.229Z" fill="#EBEBEB"/>
<path d="M423.963 564.711H412.84V565.031H423.963V564.711Z" fill="#EBEBEB"/>
<path d="M532.2 549.351H507.637V549.671H532.2V549.351Z" fill="#EBEBEB"/>
<path d="M122.432 551.501H67.1484V551.821H122.432V551.501Z" fill="#EBEBEB"/>
<path d="M141.94 551.501H133.838V551.821H141.94V551.501Z" fill="#EBEBEB"/>
<path d="M288.192 556.903H168.281V557.223H288.192V556.903Z" fill="#EBEBEB"/>
<path d="M303.36 483.546H56.2042C54.268 483.542 52.4123 482.771 51.0444 481.401C49.6765 480.03 48.9082 478.173 48.9082 476.237V128.806C48.9251 126.881 49.7008 125.04 51.0669 123.684C52.4329 122.327 54.2791 121.564 56.2042 121.561H303.36C305.298 121.561 307.157 122.331 308.528 123.702C309.899 125.072 310.669 126.931 310.669 128.87V476.237C310.669 478.175 309.899 480.034 308.528 481.405C307.157 482.776 305.298 483.546 303.36 483.546ZM56.2042 121.817C54.3529 121.82 52.5785 122.558 51.2707 123.869C49.9628 125.179 49.2282 126.955 49.2282 128.806V476.237C49.2282 478.088 49.9628 479.864 51.2707 481.174C52.5785 482.485 54.3529 483.222 56.2042 483.226H303.36C305.212 483.222 306.988 482.485 308.298 481.175C309.608 479.865 310.345 478.089 310.349 476.237V128.806C310.345 126.953 309.608 125.178 308.298 123.868C306.988 122.558 305.212 121.82 303.36 121.817H56.2042Z" fill="#EBEBEB"/>
<path d="M580.239 483.546H333.071C331.133 483.542 329.276 482.771 327.906 481.401C326.536 480.031 325.765 478.174 325.762 476.237V128.806C325.782 126.88 326.56 125.039 327.929 123.683C329.297 122.327 331.144 121.564 333.071 121.561H580.239C582.162 121.568 584.005 122.332 585.368 123.688C586.731 125.044 587.505 126.883 587.522 128.806V476.237C587.522 478.171 586.756 480.026 585.391 481.396C584.025 482.766 582.173 483.539 580.239 483.546ZM333.071 121.817C331.218 121.82 329.442 122.558 328.132 123.868C326.823 125.178 326.085 126.953 326.082 128.806V476.237C326.085 478.089 326.823 479.865 328.132 481.175C329.442 482.485 331.218 483.222 333.071 483.226H580.239C582.092 483.222 583.867 482.485 585.177 481.175C586.487 479.865 587.224 478.089 587.228 476.237V128.806C587.224 126.953 586.487 125.178 585.177 123.868C583.867 122.558 582.092 121.82 580.239 121.817H333.071Z" fill="#EBEBEB"/>
<path d="M285.043 286.336H84.6719V540.058H285.043V286.336Z" fill="#F0F0F0"/>
<path d="M277.952 295.59H91.75V349.849H277.952V295.59Z" fill="#E0E0E0"/>
<path d="M102.323 304.371H91.75V349.837H102.323V304.371Z" fill="#EBEBEB"/>
<path d="M153.473 304.371H142.9V349.837H153.473V304.371Z" fill="#EBEBEB"/>
<path d="M211.534 303.217L201.115 305.013L208.838 349.818L219.257 348.022L211.534 303.217Z" fill="#EBEBEB"/>
<path d="M115.43 310.362H104.857V349.837H115.43V310.362Z" fill="#EBEBEB"/>
<path d="M139.739 310.362H129.166V349.837H139.739V310.362Z" fill="#EBEBEB"/>
<path d="M201.1 310.362H190.527V349.837H201.1V310.362Z" fill="#EBEBEB"/>
<path d="M167.362 309.001L157.041 311.294L165.605 349.83L175.926 347.536L167.362 309.001Z" fill="#EBEBEB"/>
<path d="M124.581 302.105H119.295V349.837H124.581V302.105Z" fill="#EBEBEB"/>
<path d="M187.495 302.105H182.209V349.837H187.495V302.105Z" fill="#EBEBEB"/>
<path d="M91.7492 412.685H277.951V358.426H91.7492V412.685Z" fill="#E0E0E0"/>
<path d="M267.378 412.685H277.951V367.219H267.378V412.685Z" fill="#EBEBEB"/>
<path d="M216.232 412.685H226.805V367.219H216.232V412.685Z" fill="#EBEBEB"/>
<path d="M150.448 410.895L160.867 412.691L168.59 367.886L158.171 366.09L150.448 410.895Z" fill="#EBEBEB"/>
<path d="M254.259 412.685H264.832V373.21H254.259V412.685Z" fill="#EBEBEB"/>
<path d="M229.966 412.685H240.539V373.21H229.966V412.685Z" fill="#EBEBEB"/>
<path d="M168.589 412.685H179.162V373.21H168.589V412.685Z" fill="#EBEBEB"/>
<path d="M193.792 410.382L204.113 412.676L212.677 374.14L202.356 371.847L193.792 410.382Z" fill="#EBEBEB"/>
<path d="M245.12 412.685H250.406V364.954H245.12V412.685Z" fill="#EBEBEB"/>
<path d="M182.21 412.685H187.496V364.954H182.21V412.685Z" fill="#EBEBEB"/>
<path d="M102.323 367.219H91.75V412.685H102.323V367.219Z" fill="#EBEBEB"/>
<path d="M115.43 373.21H104.857V412.685H115.43V373.21Z" fill="#EBEBEB"/>
<path d="M139.739 373.21H129.166V412.685H139.739V373.21Z" fill="#EBEBEB"/>
<path d="M124.581 364.953H119.295V412.685H124.581V364.953Z" fill="#EBEBEB"/>
<path d="M277.952 421.274H91.75V475.533H277.952V421.274Z" fill="#E0E0E0"/>
<path d="M209.19 430.054H198.617V475.52H209.19V430.054Z" fill="#EBEBEB"/>
<path d="M267.263 428.909L256.844 430.705L264.567 475.51L274.986 473.714L267.263 428.909Z" fill="#EBEBEB"/>
<path d="M171.149 436.058H160.576V475.533H171.149V436.058Z" fill="#EBEBEB"/>
<path d="M195.469 436.058H184.896V475.533H195.469V436.058Z" fill="#EBEBEB"/>
<path d="M256.833 436.058H246.26V475.533H256.833V436.058Z" fill="#EBEBEB"/>
<path d="M223.102 434.691L212.781 436.985L221.345 475.52L231.666 473.226L223.102 434.691Z" fill="#EBEBEB"/>
<path d="M180.302 427.802H175.016V475.533H180.302V427.802Z" fill="#EBEBEB"/>
<path d="M243.212 427.802H237.926V475.533H243.212V427.802Z" fill="#EBEBEB"/>
<path d="M145.575 428.921L135.156 430.717L142.879 475.521L153.298 473.726L145.575 428.921Z" fill="#EBEBEB"/>
<path d="M135.141 436.058H124.568V475.533H135.141V436.058Z" fill="#EBEBEB"/>
<path d="M101.407 434.698L91.0859 436.991L99.6501 475.527L109.971 473.233L101.407 434.698Z" fill="#EBEBEB"/>
<path d="M121.525 427.802H116.238V475.533H121.525V427.802Z" fill="#EBEBEB"/>
<path d="M390.759 388.608H503.681C506.598 388.608 509.486 389.183 512.18 390.302C514.874 391.42 517.32 393.058 519.38 395.124C521.439 397.189 523.071 399.641 524.181 402.338C525.292 405.035 525.859 407.925 525.851 410.842V499.008H368.641V410.842C368.627 404.961 370.949 399.315 375.097 395.146C379.245 390.976 384.878 388.625 390.759 388.608Z" fill="#E6E6E6"/>
<path d="M335.207 453.965H355.406C357.143 453.958 358.864 454.295 360.47 454.955C362.076 455.615 363.536 456.587 364.766 457.813C365.996 459.039 366.971 460.496 367.636 462.101C368.301 463.705 368.643 465.425 368.641 467.162V540.122H322.023V467.162C322.022 465.429 322.362 463.714 323.023 462.113C323.685 460.512 324.656 459.057 325.88 457.831C327.105 456.605 328.559 455.633 330.159 454.97C331.76 454.306 333.475 453.965 335.207 453.965Z" fill="#E0E0E0"/>
<path d="M335.207 453.965H335.63C337.362 453.965 339.078 454.307 340.678 454.97C342.279 455.633 343.732 456.606 344.957 457.831C346.181 459.057 347.152 460.512 347.814 462.113C348.476 463.714 348.816 465.429 348.814 467.162V540.122H322.023V467.162C322.022 465.429 322.362 463.714 323.023 462.113C323.685 460.512 324.656 459.057 325.88 457.831C327.105 456.606 328.559 455.633 330.159 454.97C331.76 454.307 333.475 453.965 335.207 453.965Z" fill="#EBEBEB"/>
<path d="M509.402 506.56H354.445V540.058H509.402V506.56Z" fill="#E6E6E6"/>
<path d="M503.668 475.93H354.228C346.826 475.93 340.826 481.93 340.826 489.332V497.664C340.826 505.066 346.826 511.066 354.228 511.066H503.668C511.07 511.066 517.07 505.066 517.07 497.664V489.332C517.07 481.93 511.07 475.93 503.668 475.93Z" fill="#F5F5F5"/>
<path d="M503.413 475.93H484.892C477.49 475.93 471.49 481.93 471.49 489.332V497.664C471.49 505.066 477.49 511.066 484.892 511.066H503.413C510.815 511.066 516.815 505.066 516.815 497.664V489.332C516.815 481.93 510.815 475.93 503.413 475.93Z" fill="#E0E0E0"/>
<path d="M505.423 453.965H525.634C527.366 453.965 529.081 454.307 530.681 454.97C532.28 455.634 533.734 456.606 534.957 457.832C536.18 459.058 537.15 460.513 537.81 462.114C538.471 463.715 538.809 465.43 538.806 467.162V540.122H492.252V467.162C492.249 465.43 492.587 463.715 493.247 462.114C493.908 460.513 494.877 459.058 496.101 457.832C497.324 456.606 498.777 455.634 500.377 454.97C501.977 454.307 503.691 453.965 505.423 453.965Z" fill="#E0E0E0"/>
<path d="M505.423 453.965H505.858C507.59 453.965 509.305 454.307 510.905 454.97C512.504 455.634 513.958 456.606 515.181 457.832C516.404 459.058 517.374 460.513 518.034 462.114C518.695 463.715 519.033 465.43 519.03 467.162V540.122H492.252V467.162C492.249 465.43 492.587 463.715 493.247 462.114C493.908 460.513 494.877 459.058 496.101 457.832C497.324 456.606 498.777 455.634 500.377 454.97C501.977 454.307 503.691 453.965 505.423 453.965Z" fill="#F0F0F0"/>
<path d="M192.328 255.492C208.761 252.825 219.921 237.341 217.253 220.908C214.586 204.475 199.102 193.316 182.669 195.983C166.236 198.651 155.076 214.135 157.744 230.568C160.411 247.001 175.895 258.16 192.328 255.492Z" fill="#E0E0E0"/>
<path d="M191.607 251.045C205.584 248.776 215.075 235.607 212.806 221.63C210.538 207.653 197.368 198.162 183.391 200.431C169.414 202.699 159.923 215.869 162.192 229.846C164.461 243.823 177.63 253.314 191.607 251.045Z" fill="#F0F0F0"/>
<path d="M186.28 243.341V225.421L174.414 232.141" fill="#F0F0F0"/>
<path d="M186.279 244.62C185.939 244.62 185.614 244.486 185.374 244.246C185.134 244.005 184.999 243.68 184.999 243.34V227.609L175.041 233.254C174.745 233.42 174.396 233.462 174.07 233.371C173.743 233.279 173.466 233.063 173.3 232.768C173.133 232.474 173.089 232.126 173.178 231.8C173.266 231.473 173.481 231.196 173.773 231.027L185.652 224.307C185.846 224.197 186.066 224.141 186.289 224.143C186.513 224.144 186.732 224.205 186.924 224.317C187.117 224.43 187.277 224.591 187.388 224.784C187.5 224.978 187.559 225.197 187.559 225.42V243.34C187.559 243.68 187.424 244.005 187.184 244.246C186.944 244.486 186.618 244.62 186.279 244.62Z" fill="#E0E0E0"/>
<path d="M548.622 187.712H355.662V358.938H548.622V187.712Z" fill="#E6E6E6"/>
<path d="M543.541 192.409H360.488V354.342H543.541V192.409Z" fill="#F0F0F0"/>
<path d="M403.445 192.409L360.488 353.984V278.067L383.17 192.409H403.445Z" fill="white"/>
<path d="M418.663 192.409L375.322 354.342H368.41L411.751 192.409H418.663Z" fill="white"/>
<path d="M543.541 294.592V320.461L534.773 354.342H527.861L543.541 294.592Z" fill="white"/>
<path d="M424.333 189.504H421.248V357.965H424.333V189.504Z" fill="#E6E6E6"/>
<path d="M484.097 189.504H481.012V357.965H484.097V189.504Z" fill="#E6E6E6"/>
<path d="M320 598.439C457.066 598.439 568.18 591.952 568.18 583.949C568.18 575.947 457.066 569.46 320 569.46C182.934 569.46 71.8203 575.947 71.8203 583.949C71.8203 591.952 182.934 598.439 320 598.439Z" fill="#F5F5F5"/>
<path d="M514.433 551.936C514.433 551.936 520.513 538.675 513.563 525.594C506.612 512.512 504.603 509.44 509.031 506.752C513.46 504.064 515.495 517.223 515.495 517.223C517.685 511.281 517.91 504.793 516.135 498.714C513.063 489.254 511.131 473.843 515.329 472.192C519.527 470.541 516.135 491.392 519.796 498.535C521.653 493.535 522.853 488.316 523.367 483.008C523.867 475.405 523.086 463.27 526.401 460.16C529.716 457.05 531.854 459.2 528.59 475.968C526.628 485.992 525.545 496.168 525.351 506.381C525.351 506.381 532.558 484.378 537.409 483.738C542.26 483.098 542.247 490.214 538.1 496.397C533.953 502.579 525.953 513.651 524.647 519.347C524.647 519.347 532.571 502.784 539.687 507.827C546.804 512.871 533.492 522.893 527.553 526.515C521.614 530.138 517.492 552.768 517.492 552.768L514.433 551.936Z" fill="#006D8F"/>
<path opacity="0.2" d="M514.433 551.936C514.433 551.936 520.513 538.675 513.563 525.594C506.612 512.512 504.603 509.44 509.031 506.752C513.46 504.064 515.495 517.223 515.495 517.223C517.685 511.281 517.91 504.793 516.135 498.714C513.063 489.254 511.131 473.843 515.329 472.192C519.527 470.541 516.135 491.392 519.796 498.535C521.653 493.535 522.853 488.316 523.367 483.008C523.867 475.405 523.086 463.27 526.401 460.16C529.716 457.05 531.854 459.2 528.59 475.968C526.628 485.992 525.545 496.168 525.351 506.381C525.351 506.381 532.558 484.378 537.409 483.738C542.26 483.098 542.247 490.214 538.1 496.397C533.953 502.579 525.953 513.651 524.647 519.347C524.647 519.347 532.571 502.784 539.687 507.827C546.804 512.871 533.492 522.893 527.553 526.515C521.614 530.138 517.492 552.768 517.492 552.768L514.433 551.936Z" fill="black"/>
<path d="M519.233 557.376C519.233 557.376 513.307 544.026 520.411 531.047C527.515 518.067 529.563 515.021 525.172 512.282C520.782 509.543 518.58 522.65 518.58 522.65C516.459 516.685 516.311 510.196 518.158 504.141C521.345 494.72 523.47 479.335 519.284 477.619C515.099 475.904 518.248 496.819 514.51 503.898C512.712 498.873 511.571 493.637 511.118 488.32C510.708 480.717 511.643 468.595 508.353 465.434C505.064 462.272 502.913 464.397 505.985 481.216C507.825 491.26 508.784 501.444 508.852 511.655C508.852 511.655 501.902 489.549 497.076 488.845C492.251 488.141 492.161 495.245 496.232 501.491C500.302 507.738 508.161 518.925 509.441 524.634C509.441 524.634 501.761 507.994 494.542 512.935C487.323 517.875 500.558 528.09 506.446 531.802C512.334 535.514 516.2 558.208 516.2 558.208L519.233 557.376Z" fill="#006D8F"/>
<path d="M491.918 547.853H540.827L536.872 582.861H495.873L491.918 547.853Z" fill="#263238"/>
<path d="M310.529 577.242V581.837C310.529 581.973 310.502 582.108 310.45 582.234C310.398 582.359 310.321 582.474 310.225 582.57C310.129 582.666 310.015 582.743 309.889 582.795C309.763 582.847 309.628 582.874 309.492 582.874H179.674C178.567 582.874 177.477 582.602 176.499 582.083C175.521 581.564 174.685 580.813 174.065 579.896C173.444 578.979 173.058 577.923 172.941 576.822C172.823 575.721 172.977 574.608 173.389 573.581L214.529 471.693L281.012 472.141L278.746 485.363L264.078 570.931C263.968 571.58 264.001 572.245 264.174 572.879C264.347 573.514 264.656 574.103 265.08 574.606C265.504 575.109 266.033 575.514 266.629 575.792C267.225 576.071 267.874 576.216 268.532 576.218H309.492C309.628 576.216 309.762 576.241 309.888 576.292C310.014 576.343 310.128 576.418 310.224 576.513C310.321 576.608 310.397 576.722 310.45 576.847C310.502 576.972 310.529 577.106 310.529 577.242Z" fill="#263238"/>
<path opacity="0.5" d="M310.529 577.242V581.837C310.529 581.973 310.502 582.108 310.45 582.234C310.398 582.359 310.321 582.474 310.225 582.57C310.129 582.666 310.015 582.743 309.889 582.795C309.763 582.847 309.628 582.874 309.492 582.874H179.674C178.567 582.874 177.477 582.602 176.499 582.083C175.521 581.564 174.685 580.813 174.065 579.896C173.444 578.979 173.058 577.923 172.941 576.822C172.823 575.721 172.977 574.608 173.389 573.581L198.9 510.413L214.529 471.693L281.012 472.141L278.746 485.363L272.346 522.573L264.065 570.931C263.955 571.58 263.988 572.245 264.161 572.879C264.334 573.514 264.644 574.103 265.067 574.606C265.491 575.109 266.02 575.514 266.616 575.792C267.212 576.071 267.861 576.216 268.519 576.218H309.479C309.616 576.214 309.752 576.238 309.879 576.288C310.006 576.338 310.122 576.413 310.22 576.508C310.318 576.604 310.395 576.718 310.449 576.844C310.502 576.97 310.529 577.105 310.529 577.242Z" fill="white"/>
<path opacity="0.2" d="M268.533 576.205H184.053C183.566 576.204 183.087 576.083 182.658 575.853C182.229 575.623 181.863 575.291 181.593 574.886C181.322 574.482 181.155 574.017 181.107 573.532C181.058 573.048 181.129 572.559 181.314 572.109L217.384 485.35H278.735L264.066 570.919C263.956 571.568 263.989 572.234 264.163 572.87C264.337 573.505 264.647 574.095 265.073 574.598C265.498 575.102 266.028 575.506 266.626 575.784C267.223 576.061 267.874 576.205 268.533 576.205Z" fill="black"/>
<path opacity="0.1" d="M281.013 472.128L278.747 485.35L272.36 522.56L198.9 510.413L214.529 471.68L281.013 472.128Z" fill="black"/>
<path d="M410.279 282.201H102.503C101.469 282.201 100.445 282.405 99.4904 282.8C98.5353 283.196 97.6675 283.776 96.9365 284.507C96.2055 285.238 95.6257 286.106 95.2301 287.061C94.8345 288.016 94.6309 289.039 94.6309 290.073V498.445C94.6309 500.533 95.4602 502.535 96.9365 504.011C98.4128 505.487 100.415 506.317 102.503 506.317H410.279C412.368 506.317 414.372 505.488 415.85 504.012C417.329 502.536 418.161 500.534 418.164 498.445V290.073C418.161 287.984 417.329 285.982 415.85 284.506C414.372 283.03 412.368 282.201 410.279 282.201Z" fill="#263238"/>
<path opacity="0.6" d="M410.279 282.201H102.503C101.469 282.201 100.445 282.405 99.4904 282.8C98.5353 283.196 97.6675 283.776 96.9365 284.507C96.2055 285.238 95.6257 286.106 95.2301 287.061C94.8345 288.016 94.6309 289.039 94.6309 290.073V498.445C94.6309 500.533 95.4602 502.535 96.9365 504.011C98.4128 505.487 100.415 506.317 102.503 506.317H410.279C412.368 506.317 414.372 505.488 415.85 504.012C417.329 502.536 418.161 500.534 418.164 498.445V290.073C418.161 287.984 417.329 285.982 415.85 284.506C414.372 283.03 412.368 282.201 410.279 282.201Z" fill="white"/>
<path opacity="0.2" d="M109.031 506.304H102.503C100.417 506.304 98.417 505.477 96.9411 504.003C95.4651 502.529 94.6343 500.53 94.6309 498.445V290.086C94.6292 289.051 94.8316 288.026 95.2264 287.07C95.6213 286.113 96.2008 285.244 96.932 284.511C97.6631 283.779 98.5315 283.198 99.4874 282.802C100.443 282.405 101.468 282.201 102.503 282.201H109.031C107.993 282.196 106.964 282.397 106.004 282.791C105.043 283.185 104.17 283.765 103.435 284.498C102.7 285.231 102.117 286.102 101.72 287.061C101.322 288.02 101.119 289.048 101.12 290.086V498.445C101.12 499.481 101.325 500.507 101.724 501.464C102.122 502.421 102.705 503.29 103.44 504.02C104.176 504.751 105.048 505.329 106.008 505.721C106.967 506.113 107.995 506.311 109.031 506.304Z" fill="black"/>
<path d="M411.074 288.972H108.264V489.894H411.074V288.972Z" fill="#006D8F"/>
<path opacity="0.4" d="M255.489 365.453C270.009 365.453 281.78 353.682 281.78 339.161C281.78 324.641 270.009 312.87 255.489 312.87C240.968 312.87 229.197 324.641 229.197 339.161C229.197 353.682 240.968 365.453 255.489 365.453Z" fill="white"/>
<path d="M249.217 335.168V332.761C249.217 331.614 249.673 330.513 250.484 329.702C251.295 328.891 252.396 328.435 253.543 328.435H257.383C257.956 328.428 258.524 328.535 259.055 328.749C259.585 328.964 260.068 329.281 260.476 329.684C260.883 330.086 261.206 330.565 261.427 331.094C261.647 331.622 261.761 332.189 261.761 332.761V335.219H264.564V332.761C264.561 330.871 263.808 329.06 262.472 327.724C261.136 326.387 259.324 325.635 257.434 325.632H253.594C251.705 325.635 249.893 326.387 248.557 327.724C247.22 329.06 246.468 330.871 246.465 332.761V335.219L249.217 335.168Z" fill="white"/>
<path d="M242.881 338.406V351.321C242.881 351.51 242.918 351.696 242.99 351.87C243.062 352.044 243.168 352.202 243.301 352.335C243.434 352.468 243.592 352.574 243.766 352.646C243.94 352.718 244.126 352.755 244.314 352.755H266.663C266.852 352.755 267.038 352.718 267.212 352.646C267.386 352.574 267.544 352.468 267.677 352.335C267.81 352.202 267.916 352.044 267.988 351.87C268.06 351.696 268.097 351.51 268.097 351.321V338.406C268.097 338.026 267.946 337.661 267.677 337.392C267.408 337.123 267.044 336.972 266.663 336.972H244.314C244.126 336.972 243.94 337.01 243.766 337.082C243.592 337.154 243.434 337.259 243.301 337.392C243.168 337.525 243.062 337.683 242.99 337.857C242.918 338.031 242.881 338.218 242.881 338.406ZM256.295 345.715V348.275H254.721V345.715C254.491 345.587 254.297 345.402 254.158 345.178C254.019 344.954 253.94 344.698 253.927 344.435C253.927 344.01 254.096 343.604 254.396 343.303C254.696 343.003 255.103 342.835 255.527 342.835C255.952 342.835 256.359 343.003 256.659 343.303C256.959 343.604 257.127 344.01 257.127 344.435C257.111 344.702 257.026 344.96 256.88 345.184C256.734 345.409 256.533 345.592 256.295 345.715Z" fill="white"/>
<path d="M191.347 387.225H166.515C165.038 387.225 163.84 388.423 163.84 389.901V414.733C163.84 416.21 165.038 417.408 166.515 417.408H191.347C192.825 417.408 194.022 416.21 194.022 414.733V389.901C194.022 388.423 192.825 387.225 191.347 387.225Z" fill="white"/>
<path d="M229.632 387.187H204.8C203.323 387.187 202.125 388.385 202.125 389.862V414.694C202.125 416.172 203.323 417.369 204.8 417.369H229.632C231.11 417.369 232.307 416.172 232.307 414.694V389.862C232.307 388.385 231.11 387.187 229.632 387.187Z" fill="white"/>
<path d="M267.904 387.148H243.072C241.594 387.148 240.396 388.346 240.396 389.824V414.656C240.396 416.133 241.594 417.331 243.072 417.331H267.904C269.381 417.331 270.579 416.133 270.579 414.656V389.824C270.579 388.346 269.381 387.148 267.904 387.148Z" fill="white"/>
<path d="M306.175 387.097H281.343C279.866 387.097 278.668 388.295 278.668 389.773V414.605C278.668 416.082 279.866 417.28 281.343 417.28H306.175C307.653 417.28 308.85 416.082 308.85 414.605V389.773C308.85 388.295 307.653 387.097 306.175 387.097Z" fill="white"/>
<path d="M344.449 387.059H319.617C318.139 387.059 316.941 388.257 316.941 389.734V414.566C316.941 416.044 318.139 417.241 319.617 417.241H344.449C345.926 417.241 347.124 416.044 347.124 414.566V389.734C347.124 388.257 345.926 387.059 344.449 387.059Z" fill="white"/>
<g opacity="0.6">
<path d="M226.856 379.853V380.429H222.414V374.144H226.715V374.72H223.08V376.96H226.318V377.562H223.08V379.891L226.856 379.853Z" fill="white"/>
<path d="M232.617 377.689V380.429H231.977V377.753C232.015 377.555 232.005 377.35 231.949 377.155C231.892 376.961 231.79 376.783 231.652 376.636C231.513 376.488 231.341 376.376 231.151 376.307C230.96 376.239 230.756 376.217 230.556 376.243C230.33 376.227 230.104 376.26 229.893 376.341C229.682 376.422 229.491 376.547 229.334 376.71C229.176 376.872 229.056 377.067 228.982 377.28C228.908 377.494 228.882 377.721 228.905 377.945V380.429H228.277V375.705H228.879V376.576C229.071 376.281 229.339 376.042 229.654 375.885C229.968 375.728 230.32 375.657 230.671 375.68C230.938 375.657 231.206 375.694 231.457 375.788C231.708 375.882 231.935 376.03 232.121 376.223C232.307 376.415 232.448 376.647 232.534 376.9C232.62 377.154 232.648 377.424 232.617 377.689Z" fill="white"/>
<path d="M236.802 380.121C236.52 380.349 236.165 380.468 235.803 380.454C235.619 380.469 235.434 380.445 235.26 380.381C235.086 380.318 234.928 380.218 234.797 380.088C234.665 379.958 234.564 379.801 234.499 379.627C234.434 379.454 234.407 379.269 234.421 379.085V376.281H233.576V375.744H234.421V374.72H235.061V375.744H236.495V376.281H235.061V379.097C235.061 379.661 235.343 379.955 235.867 379.955C236.122 379.963 236.371 379.881 236.571 379.725L236.802 380.121Z" fill="white"/>
<path d="M241.922 378.265H237.98C238.009 378.728 238.221 379.161 238.569 379.468C238.917 379.775 239.372 379.932 239.836 379.904C240.107 379.912 240.377 379.862 240.626 379.756C240.876 379.65 241.1 379.491 241.282 379.289L241.64 379.699C241.291 380.027 240.857 380.25 240.387 380.343C239.918 380.437 239.431 380.396 238.983 380.227C238.535 380.058 238.144 379.766 237.853 379.385C237.563 379.005 237.385 378.55 237.34 378.073C237.322 377.762 237.369 377.45 237.477 377.158C237.585 376.865 237.753 376.598 237.969 376.374C238.186 376.149 238.446 375.971 238.734 375.852C239.022 375.732 239.332 375.674 239.644 375.68C239.954 375.674 240.263 375.732 240.55 375.852C240.837 375.972 241.095 376.15 241.31 376.375C241.524 376.6 241.689 376.867 241.795 377.16C241.9 377.452 241.943 377.763 241.922 378.073C241.922 378.073 241.922 378.188 241.922 378.265ZM237.98 377.792H241.32C241.284 377.374 241.092 376.985 240.783 376.702C240.474 376.418 240.069 376.261 239.65 376.261C239.231 376.261 238.826 376.418 238.517 376.702C238.208 376.985 238.016 377.374 237.98 377.792Z" fill="white"/>
<path d="M245.595 375.68V376.281H245.441C245.216 376.27 244.991 376.308 244.783 376.393C244.574 376.479 244.387 376.61 244.236 376.776C244.084 376.943 243.971 377.141 243.905 377.356C243.839 377.572 243.821 377.799 243.854 378.022V380.429H243.201V375.705H243.816V376.627C243.98 376.306 244.239 376.044 244.557 375.875C244.875 375.705 245.237 375.637 245.595 375.68Z" fill="white"/>
<path d="M253.12 375.706L250.764 380.992C250.368 381.914 249.868 382.208 249.19 382.208C248.981 382.216 248.772 382.181 248.576 382.106C248.38 382.031 248.202 381.918 248.051 381.773L248.345 381.299C248.454 381.417 248.587 381.509 248.735 381.571C248.883 381.633 249.043 381.662 249.203 381.658C249.625 381.658 249.907 381.466 250.176 380.877L250.38 380.416L248.32 375.706H248.985L250.752 379.712L252.531 375.706H253.12Z" fill="white"/>
<path d="M253.441 378.074C253.438 377.597 253.577 377.131 253.84 376.733C254.103 376.336 254.478 376.025 254.917 375.841C255.357 375.657 255.841 375.608 256.309 375.699C256.776 375.79 257.206 376.019 257.544 376.355C257.882 376.691 258.112 377.119 258.206 377.587C258.3 378.054 258.253 378.538 258.072 378.979C257.89 379.419 257.581 379.796 257.185 380.061C256.789 380.326 256.324 380.467 255.847 380.467C255.529 380.48 255.211 380.426 254.915 380.311C254.618 380.195 254.348 380.019 254.122 379.795C253.897 379.57 253.719 379.301 253.602 379.005C253.485 378.709 253.43 378.392 253.441 378.074ZM257.588 378.074C257.573 377.73 257.457 377.398 257.255 377.12C257.053 376.841 256.773 376.629 256.451 376.508C256.129 376.387 255.778 376.364 255.443 376.441C255.108 376.519 254.802 376.693 254.565 376.942C254.328 377.191 254.17 377.505 254.11 377.843C254.049 378.182 254.09 378.531 254.227 378.847C254.363 379.163 254.59 379.431 254.878 379.619C255.166 379.807 255.503 379.906 255.847 379.904C256.081 379.903 256.313 379.854 256.527 379.759C256.742 379.665 256.935 379.528 257.094 379.357C257.254 379.185 257.376 378.983 257.455 378.762C257.533 378.542 257.565 378.307 257.55 378.074H257.588Z" fill="white"/>
<path d="M263.746 375.706V380.429H263.144V379.558C262.969 379.849 262.718 380.088 262.419 380.248C262.119 380.408 261.781 380.483 261.442 380.467C261.171 380.494 260.898 380.46 260.643 380.367C260.387 380.274 260.156 380.125 259.965 379.931C259.775 379.737 259.631 379.503 259.543 379.246C259.455 378.988 259.426 378.715 259.458 378.445V375.706H260.085V378.381C260.047 378.58 260.057 378.784 260.113 378.979C260.17 379.173 260.271 379.351 260.41 379.499C260.549 379.646 260.72 379.759 260.911 379.827C261.101 379.895 261.305 379.917 261.506 379.891C261.728 379.904 261.951 379.868 262.158 379.785C262.365 379.703 262.551 379.576 262.704 379.414C262.856 379.251 262.971 379.058 263.041 378.846C263.11 378.634 263.133 378.41 263.106 378.189V375.706H263.746Z" fill="white"/>
<path d="M267.904 375.68V376.281H267.751C267.526 376.27 267.301 376.308 267.092 376.393C266.884 376.479 266.697 376.61 266.545 376.776C266.393 376.943 266.28 377.141 266.214 377.356C266.148 377.572 266.131 377.799 266.163 378.022V380.429H265.523V375.705H266.138V376.627C266.302 376.309 266.558 376.048 266.874 375.879C267.189 375.709 267.549 375.64 267.904 375.68Z" fill="white"/>
<path d="M271.041 377.293C271.018 376.635 271.192 375.986 271.541 375.428C271.889 374.87 272.397 374.428 272.998 374.161C273.599 373.893 274.266 373.811 274.914 373.925C275.562 374.039 276.161 374.344 276.635 374.801C277.108 375.258 277.434 375.846 277.571 376.49C277.708 377.133 277.65 377.803 277.404 378.413C277.158 379.023 276.735 379.546 276.19 379.914C275.644 380.282 275.001 380.479 274.343 380.48C273.915 380.497 273.487 380.427 273.086 380.275C272.685 380.122 272.32 379.89 272.011 379.592C271.702 379.294 271.457 378.937 271.291 378.542C271.124 378.146 271.039 377.722 271.041 377.293ZM276.967 377.293C276.983 376.765 276.839 376.245 276.555 375.8C276.271 375.354 275.861 375.005 275.376 374.796C274.891 374.587 274.354 374.528 273.836 374.627C273.317 374.726 272.841 374.979 272.467 375.352C272.094 375.726 271.841 376.203 271.742 376.721C271.643 377.24 271.701 377.776 271.91 378.261C272.119 378.746 272.469 379.157 272.914 379.44C273.36 379.724 273.88 379.868 274.407 379.853C275.086 379.853 275.738 379.583 276.218 379.103C276.698 378.623 276.967 377.972 276.967 377.293Z" fill="white"/>
<path d="M280.245 374.72H278.043V374.144H283.163V374.72H280.949V380.429H280.283L280.245 374.72Z" fill="white"/>
<path d="M289.09 376.281C289.09 377.561 288.117 378.419 286.53 378.419H284.853V380.403H284.162V374.118H286.505C288.117 374.144 289.09 375.001 289.09 376.281ZM288.425 376.281C288.425 375.27 287.759 374.694 286.505 374.694H284.841V377.83H286.505C287.759 377.856 288.425 377.293 288.425 376.281Z" fill="white"/>
</g>
<path opacity="0.4" d="M291.15 466.508H219.815C216.997 466.505 214.294 465.383 212.302 463.389C210.31 461.394 209.191 458.691 209.191 455.872C209.191 453.053 210.31 450.349 212.302 448.355C214.294 446.36 216.997 445.238 219.815 445.235H291.15C293.971 445.235 296.677 446.356 298.671 448.35C300.666 450.345 301.787 453.051 301.787 455.872C301.787 458.693 300.666 461.398 298.671 463.393C296.677 465.388 293.971 466.508 291.15 466.508Z" fill="white"/>
<path d="M227.66 455.334C227.654 454.836 227.751 454.342 227.944 453.882C228.137 453.423 228.422 453.008 228.782 452.663C229.143 452.319 229.57 452.052 230.037 451.879C230.505 451.707 231.003 451.632 231.5 451.661C232.009 451.642 232.516 451.734 232.986 451.928C233.456 452.122 233.879 452.415 234.227 452.787L233.561 453.427C233.304 453.15 232.99 452.931 232.641 452.786C232.293 452.64 231.917 452.571 231.539 452.582C231.084 452.586 230.638 452.703 230.24 452.922C229.841 453.141 229.504 453.455 229.256 453.837C229.009 454.218 228.86 454.655 228.822 455.107C228.785 455.56 228.86 456.016 229.042 456.432C229.223 456.849 229.505 457.214 229.862 457.496C230.219 457.777 230.64 457.965 231.088 458.044C231.535 458.123 231.995 458.09 232.427 457.948C232.859 457.805 233.248 457.558 233.561 457.229L234.227 457.869C233.877 458.241 233.452 458.535 232.98 458.729C232.507 458.923 231.998 459.014 231.488 458.995C230.992 459.023 230.495 458.949 230.029 458.777C229.563 458.605 229.138 458.339 228.779 457.996C228.42 457.653 228.135 457.239 227.943 456.781C227.75 456.323 227.654 455.831 227.66 455.334Z" fill="white"/>
<path d="M234.92 455.334C234.884 454.568 235.079 453.809 235.478 453.154C235.878 452.5 236.465 451.98 237.162 451.662C237.86 451.343 238.637 451.241 239.393 451.368C240.15 451.496 240.851 451.847 241.406 452.376C241.961 452.905 242.345 453.588 242.508 454.338C242.671 455.087 242.606 455.868 242.322 456.58C242.037 457.292 241.546 457.903 240.911 458.333C240.276 458.764 239.527 458.994 238.76 458.995C238.264 459.021 237.768 458.946 237.302 458.774C236.836 458.601 236.411 458.335 236.051 457.993C235.691 457.65 235.406 457.237 235.211 456.78C235.017 456.323 234.918 455.831 234.92 455.334ZM241.512 455.334C241.52 454.78 241.362 454.237 241.06 453.772C240.757 453.308 240.323 452.945 239.814 452.728C239.304 452.511 238.741 452.451 238.197 452.556C237.652 452.66 237.152 452.924 236.758 453.314C236.365 453.704 236.096 454.202 235.987 454.745C235.877 455.288 235.932 455.852 236.144 456.364C236.356 456.876 236.716 457.313 237.177 457.62C237.638 457.926 238.181 458.089 238.735 458.086C239.101 458.099 239.465 458.036 239.806 457.903C240.147 457.769 240.457 457.567 240.717 457.309C240.977 457.052 241.182 456.744 241.318 456.404C241.455 456.064 241.521 455.7 241.512 455.334Z" fill="white"/>
<path d="M250.265 451.802V458.97H249.421L245.12 453.619V458.97H244.096V451.802H244.941L249.241 457.139V451.802H250.265Z" fill="white"/>
<path d="M253.837 452.634H251.379V451.802H257.28V452.685H254.848V458.97H253.837V452.634Z" fill="white"/>
<path d="M258.42 451.802H259.444V458.97H258.42V451.802Z" fill="white"/>
<path d="M267.763 451.802V458.97H266.919L262.618 453.619V458.97H261.594V451.802H262.4L266.701 457.139V451.802H267.763Z" fill="white"/>
<path d="M269.85 455.821V451.802H270.874V455.834C270.874 457.421 271.603 458.138 272.896 458.138C274.189 458.138 274.918 457.421 274.918 455.834V451.802H275.917V455.872C275.917 456.676 275.597 457.448 275.028 458.017C274.459 458.586 273.688 458.906 272.883 458.906C272.079 458.906 271.307 458.586 270.738 458.017C270.169 457.448 269.85 456.676 269.85 455.872V455.821Z" fill="white"/>
<path d="M283.212 458.022V458.918H278.016V451.802H283.136V452.685H279.04V454.886H282.624V455.757H279.04V458.074L283.212 458.022Z" fill="white"/>
<path opacity="0.1" d="M379.509 289.907C337.64 331.852 230.107 425.216 108.264 418.304V289.907H379.509Z" fill="white"/>
<path opacity="0.1" d="M411.06 367.001V490.841H228.762C235.751 465.83 249.728 431.577 276.839 407.104C325.607 363.072 382.208 363.2 411.06 367.001Z" fill="white"/>
<path d="M443.303 325.197C450.944 330.484 459.492 334.324 468.519 336.525H468.609C467.933 336.505 467.268 336.693 466.702 337.062C466.144 337.41 465.699 337.913 465.422 338.509C465.328 338.691 465.276 338.892 465.268 339.097C465.473 336.409 464.308 333.389 463.489 330.483C462.017 325.888 460.289 321.177 458.561 316.557L463.502 313.907C467.585 320.166 481.217 339.981 471.911 345.715C470.316 346.645 468.431 346.947 466.625 346.56C456.485 345.058 446.816 341.286 438.337 335.526C437.748 335.117 437.236 334.758 436.545 334.246L443.329 325.171L443.303 325.197Z" fill="#FFA07D"/>
<path d="M441.87 323.801C446.351 324.341 450.607 326.069 454.196 328.806L449.076 344.652C449.076 344.652 424.193 321.715 441.87 323.801Z" fill="#006D8F"/>
<path opacity="0.6" d="M441.818 337.126C444.096 339.735 446.505 342.225 449.037 344.588L451.149 338.073L454.195 328.742C450.61 326.007 446.359 324.28 441.882 323.737C431.002 322.521 436.199 330.662 441.818 337.126Z" fill="white"/>
<path opacity="0.2" d="M441.818 337.126C444.095 339.735 446.505 342.226 449.037 344.589L451.149 338.073C448.493 336.004 445.223 334.878 441.856 334.873C441.78 335.622 441.767 336.375 441.818 337.126Z" fill="black"/>
<path d="M386.56 300.365C386.56 300.365 374.656 339.942 399.731 345.254C424.807 350.566 427.52 332.352 427.52 332.352C427.52 332.352 406.912 301.171 386.56 300.365Z" fill="#263238"/>
<path d="M380.686 313.472C380.64 313.485 380.591 313.485 380.545 313.472C380.509 313.454 380.477 313.429 380.45 313.399C380.424 313.369 380.404 313.333 380.392 313.295C380.38 313.256 380.376 313.216 380.381 313.176C380.385 313.136 380.397 313.097 380.417 313.062C380.791 312.379 381.319 311.793 381.959 311.348C382.598 310.904 383.333 310.614 384.103 310.502C384.183 310.505 384.259 310.536 384.318 310.59C384.377 310.644 384.414 310.717 384.423 310.797C384.427 310.837 384.422 310.878 384.41 310.916C384.398 310.955 384.378 310.991 384.352 311.022C384.326 311.053 384.294 311.078 384.258 311.096C384.221 311.115 384.182 311.126 384.142 311.129C383.474 311.238 382.84 311.498 382.288 311.888C381.736 312.278 381.28 312.789 380.954 313.382C380.922 313.42 380.879 313.448 380.832 313.463C380.785 313.479 380.734 313.482 380.686 313.472Z" fill="#263238"/>
<path d="M384.269 318.387C384.109 319.93 383.76 321.447 383.232 322.905C383.629 323.142 384.082 323.267 384.544 323.267C385.006 323.267 385.46 323.142 385.856 322.905L384.269 318.387Z" fill="#DE5753"/>
<path d="M381.85 316.659C382.119 317.363 382.721 317.785 383.13 317.606C383.54 317.427 383.77 316.723 383.502 316.019C383.233 315.315 382.631 314.892 382.222 315.072C381.812 315.251 381.594 315.955 381.85 316.659Z" fill="#263238"/>
<path d="M382.425 315.033H380.672C380.672 315.033 381.926 316.006 382.425 315.033Z" fill="#263238"/>
<path d="M407.335 323.302C407.291 323.417 407.231 323.525 407.156 323.622C407.041 323.84 406.913 324.045 406.785 324.262C406.035 325.611 405.036 326.806 403.841 327.782C400.001 330.841 396.66 331.763 393.754 330.88L393.332 330.739C389.018 328.985 385.652 323.827 382.977 317.005C381.789 314.335 381.042 311.491 380.762 308.582C380.762 308.582 380.762 308.48 380.762 308.454C380.762 308.429 380.762 308.224 380.762 308.121C380.662 306.455 380.98 304.789 381.686 303.276C382.392 301.763 383.465 300.45 384.807 299.456C385.954 298.555 387.2 297.787 388.519 297.165C401.306 290.931 413.748 311.232 407.335 323.302Z" fill="#FFA07D"/>
<path opacity="0.2" d="M406.782 324.262C406.032 325.611 405.033 326.805 403.838 327.782C399.998 330.841 396.658 331.763 393.752 330.88C396.577 330.195 399.122 328.652 401.035 326.464C401.774 325.699 402.671 325.105 403.664 324.725C404.657 324.344 405.722 324.186 406.782 324.262Z" fill="black"/>
<path d="M380.697 308.505C380.697 308.505 384.268 317.901 394.7 317.734C394.7 317.734 402.841 325.414 408.332 322.969C415.82 319.654 417.356 306.035 409.728 296.525C399.82 284.185 378.214 293.081 380.697 308.505Z" fill="#263238"/>
<path d="M389.119 317.196C388.453 315.776 388.466 312.87 390.809 312.153C393.151 311.436 397.209 316.416 392.165 320.307C391.449 320.87 390.501 320.14 389.119 317.196Z" fill="#FFA07D"/>
<path d="M391.924 291.405C391.924 291.405 382.247 293.312 379.124 299.085C375.463 305.792 375.284 310.989 385.012 314.445C385.012 314.445 397.313 302.925 402.612 301.645C405.7 300.878 408.847 300.373 412.02 300.134C408.487 289.907 395.828 287.168 391.924 291.405Z" fill="#263238"/>
<path d="M401.305 328.025C401.305 328.025 407.961 332.633 409.689 340.237L430.438 328.128C430.438 328.128 414.195 324.429 411.404 318.144C411.404 318.144 400.55 319.488 401.305 328.025Z" fill="#FFA07D"/>
<path d="M421.913 377.881C421.913 377.881 395.033 351.475 392.141 343.181C392.141 343.181 403.443 325.581 426.035 324.838C448.627 324.096 464 367.078 464 367.078L421.913 377.881Z" fill="#006D8F"/>
<path opacity="0.6" d="M463.999 367.091L421.925 377.894C421.925 377.894 416.063 372.121 409.509 365.094C407.487 362.905 405.375 360.601 403.34 358.323C398.002 352.269 393.292 346.355 392.152 343.142C392.152 343.142 403.442 325.542 426.034 324.8C448.626 324.057 463.999 367.091 463.999 367.091Z" fill="white"/>
<path d="M396.801 313.229C396.801 313.229 400.731 326.285 414.529 330.611C428.328 334.937 424.859 349.03 438.235 347.366C445.352 346.483 451.445 332.006 429.621 319.206C416.897 311.769 421.838 287.321 394.83 289.613C394.805 289.625 400.411 306.381 396.801 313.229Z" fill="#263238"/>
<path d="M410.203 576.896L403.803 575.437C404.763 543.437 409.384 504.742 413.467 475.674C414.107 471.117 414.747 466.816 415.336 462.797C415.63 460.889 415.899 459.059 416.168 457.293C417.448 448.576 418.625 441.689 419.329 437.427C419.854 434.317 420.148 432.614 420.148 432.614L443.188 438.233L441.537 444.045L436.097 463.245L435.483 465.434L431.873 478.093L425.755 499.635C426.139 532.16 410.203 576.896 410.203 576.896Z" fill="#FFA07D"/>
<path d="M464.986 571.546L458.433 571.213C453.441 536.807 451.342 493.773 450.433 463.859C450.305 459.226 450.19 454.899 450.1 450.957C450.1 450.765 450.1 450.573 450.1 450.381C449.934 442.586 449.857 436.39 449.818 432.461C449.818 429.389 449.818 427.712 449.818 427.712L473.46 429.261L472.449 439.117L470.964 453.581L470.67 456.422L469.646 466.278L466.881 492.762C472.922 524.762 464.986 571.546 464.986 571.546Z" fill="#FFA07D"/>
<path d="M467.444 570.266C467.444 569.447 457.332 570.087 457.332 570.087C457.332 570.087 451.124 576.397 445.095 577.767C439.066 579.136 442.445 582.81 449.178 582.81H465.818C470.631 582.861 467.636 578.778 467.444 570.266Z" fill="#263238"/>
<path d="M451.135 572.429C450.989 572.296 450.887 572.122 450.844 571.93C450.8 571.737 450.817 571.536 450.892 571.354C450.932 571.21 451 571.077 451.092 570.96C451.185 570.844 451.299 570.747 451.43 570.675C452.147 570.383 452.931 570.294 453.695 570.419C452.876 569.984 452.159 569.459 452.121 568.922C452.121 568.576 452.326 568.294 452.786 568.077C452.987 567.986 453.206 567.938 453.426 567.938C453.647 567.938 453.865 567.986 454.066 568.077C455.436 568.653 456.281 571.008 456.319 571.098C456.346 571.163 456.346 571.237 456.319 571.302V571.366C456.295 571.395 456.264 571.417 456.23 571.43C454.925 572.099 453.512 572.532 452.057 572.71C451.726 572.733 451.398 572.632 451.135 572.429ZM451.698 571.149C451.629 571.184 451.567 571.233 451.517 571.292C451.466 571.351 451.428 571.42 451.404 571.494C451.302 571.891 451.404 571.994 451.404 572.032C451.89 572.429 453.734 571.866 455.244 571.238C454.095 570.876 452.867 570.84 451.698 571.136V571.149ZM452.978 568.589C452.838 568.589 452.607 568.781 452.62 568.922C452.62 569.37 454.092 570.202 455.577 570.726C455.246 569.84 454.641 569.082 453.849 568.563C453.721 568.503 453.581 568.473 453.439 568.474C453.294 568.473 453.15 568.504 453.017 568.563L452.978 568.589Z" fill="#263238"/>
<path d="M413.441 570.266C413.441 569.447 403.341 570.087 403.341 570.087C403.341 570.087 397.133 576.397 391.105 577.767C385.076 579.136 388.442 582.81 395.175 582.81H411.815C416.641 582.861 413.658 578.778 413.441 570.266Z" fill="#263238"/>
<path d="M397.146 572.429C397.003 572.294 396.904 572.12 396.86 571.928C396.817 571.737 396.832 571.537 396.903 571.354C396.943 571.21 397.011 571.077 397.103 570.96C397.196 570.844 397.31 570.747 397.441 570.675C398.158 570.383 398.942 570.295 399.706 570.419C398.887 569.984 398.17 569.459 398.145 568.922C398.145 568.58 398.362 568.299 398.797 568.077C398.998 567.986 399.217 567.938 399.437 567.938C399.658 567.938 399.876 567.986 400.077 568.077C401.447 568.653 402.292 571.008 402.33 571.098C402.346 571.13 402.354 571.165 402.354 571.2C402.354 571.236 402.346 571.271 402.33 571.302C402.33 571.302 402.33 571.302 402.33 571.366L402.241 571.43C400.93 572.097 399.514 572.53 398.055 572.71C397.728 572.727 397.406 572.627 397.146 572.429ZM397.709 571.149C397.641 571.184 397.581 571.233 397.533 571.293C397.485 571.352 397.449 571.421 397.428 571.494C397.325 571.891 397.428 571.994 397.492 572.032C397.965 572.429 399.809 571.866 401.332 571.238C400.159 570.861 398.902 570.826 397.709 571.136V571.149ZM398.989 568.589C398.849 568.589 398.618 568.781 398.631 568.922C398.631 569.37 400.103 570.202 401.601 570.726C401.265 569.839 400.655 569.081 399.86 568.563C399.732 568.502 399.592 568.471 399.45 568.474C399.305 568.473 399.161 568.504 399.028 568.563L398.989 568.589Z" fill="#263238"/>
<path d="M416.461 442.24L421.914 403.84V377.856C436.288 367.053 464 367.053 464 367.053C464 367.053 485.287 396.582 474.944 445.133L448.218 448.973L446.515 439.91L443.162 448.973L416.461 442.24Z" fill="#263238"/>
<path opacity="0.2" d="M416.461 442.24L421.914 403.84V377.856C436.288 367.053 464 367.053 464 367.053C464 367.053 485.287 396.582 474.944 445.133L448.218 448.973L446.515 439.91L443.162 448.973L416.461 442.24Z" fill="white"/>
<path opacity="0.2" d="M446.516 440.051L451.636 424.064C451.636 424.064 457.037 422.426 463.975 411.699C464 411.699 462.797 429.952 446.516 440.051Z" fill="black"/>
<path opacity="0.2" d="M435.123 385.241L447.117 384.102C449.031 388.586 449.694 393.505 449.037 398.336L441.357 402.957L435.789 399.001C435.789 399.001 435.609 388.851 435.123 385.241Z" fill="black"/>
<path opacity="0.2" d="M464 382.31C465.609 386.266 466.798 390.381 467.546 394.586L471.795 396.39L474.086 393.536C474.086 393.536 472.538 385.178 469.914 381.082L464 382.31Z" fill="black"/>
<path d="M415.962 440.051L444.327 448.371L442.548 452.186L415.604 443.891L415.962 440.051Z" fill="#263238"/>
<path d="M447.117 447.821L447.591 451.328L475.405 447.821L475.828 443.405L447.117 447.821Z" fill="#263238"/>
<path d="M452.954 372.441C457.503 371.673 462.101 371.224 466.714 371.097L464.998 368.269C460.513 368.15 456.025 368.416 451.584 369.062L452.954 372.441Z" fill="#263238"/>
<path d="M427.444 375.923C423.77 377.51 421.658 378.701 421.658 378.701V382.195C423.723 381.154 425.793 380.203 427.866 379.341L427.444 375.923Z" fill="#263238"/>
<path d="M429.21 378.841C436.325 376.052 443.706 373.998 451.239 372.71L449.959 369.305C442.657 370.523 435.519 372.576 428.686 375.424L429.21 378.841Z" fill="#263238"/>
<path d="M352.306 388.838L345.036 385.92L343.756 392.781C343.756 392.781 350.309 396.749 353.049 392.026L352.306 388.838Z" fill="#FFA07D"/>
<path d="M341.427 386.342L339.098 391.642L343.808 392.781L345.037 385.92L341.427 386.342Z" fill="#FFA07D"/>
<path d="M463.886 315.097L463.028 307.315L456.398 309.465C456.398 309.465 455.988 317.145 461.454 317.299L463.886 315.097Z" fill="#FFA07D"/>
<path d="M460.941 304.333L455.168 304.793L456.397 309.465L463.027 307.315L460.941 304.333Z" fill="#FFA07D"/>
<path opacity="0.2" d="M409.51 365.133C407.488 362.944 405.376 360.64 403.341 358.361C402.56 353.6 402.061 349.401 402.061 349.401C404.499 351.21 406.454 353.591 407.753 356.335C409.052 359.079 409.656 362.1 409.51 365.133Z" fill="black"/>
<path d="M402.803 347.2C399.871 359.02 395.445 370.419 389.632 381.12C383.872 392.064 361.971 393.382 350.963 393.664L350.451 388.083C357.082 386.522 377.69 382.413 380.506 376.435C385.103 366.079 388.886 355.379 391.821 344.435L402.803 347.174V347.2Z" fill="#FFA07D"/>
<path d="M396.533 337.549C390.273 341.645 386.92 352.294 385.857 357.504L398.862 367.078L405.429 360.678C408.091 345.984 398.913 336 396.533 337.549Z" fill="#006D8F"/>
<path opacity="0.6" d="M396.533 337.549C390.273 341.645 386.92 352.294 385.857 357.504L398.862 367.078L405.429 360.678C408.091 345.984 398.913 336 396.533 337.549Z" fill="white"/>
<path d="M460.019 317.593L450.726 318.592C450.595 318.595 450.465 318.572 450.343 318.523C450.222 318.474 450.112 318.4 450.02 318.306C449.929 318.212 449.858 318.1 449.812 317.978C449.766 317.855 449.746 317.724 449.753 317.593L449.19 297.92C449.172 297.642 449.256 297.366 449.425 297.145C449.594 296.924 449.838 296.772 450.111 296.716L459.392 295.731C459.523 295.725 459.654 295.747 459.777 295.796C459.899 295.844 460.01 295.918 460.101 296.012C460.193 296.107 460.264 296.219 460.309 296.343C460.355 296.466 460.373 296.598 460.364 296.729L460.928 316.403C460.945 316.678 460.863 316.95 460.696 317.168C460.529 317.387 460.288 317.538 460.019 317.593Z" fill="#263238"/>
<path opacity="0.6" d="M460.019 317.593L450.726 318.592C450.595 318.595 450.465 318.572 450.343 318.523C450.222 318.474 450.112 318.4 450.02 318.306C449.929 318.212 449.858 318.1 449.812 317.978C449.766 317.855 449.746 317.724 449.753 317.593L449.19 297.92C449.172 297.642 449.256 297.366 449.425 297.145C449.594 296.924 449.838 296.772 450.111 296.716L459.392 295.731C459.523 295.725 459.654 295.747 459.777 295.796C459.899 295.844 460.01 295.918 460.101 296.012C460.193 296.107 460.264 296.219 460.309 296.343C460.355 296.466 460.373 296.598 460.364 296.729L460.928 316.403C460.945 316.678 460.863 316.95 460.696 317.168C460.529 317.387 460.288 317.538 460.019 317.593Z" fill="white"/>
<path d="M459.199 317.683L449.919 318.668C449.788 318.676 449.656 318.655 449.533 318.609C449.41 318.562 449.299 318.489 449.206 318.396C449.113 318.303 449.04 318.192 448.993 318.069C448.946 317.946 448.926 317.814 448.933 317.683L448.383 297.996C448.359 297.721 448.439 297.446 448.607 297.226C448.775 297.006 449.019 296.856 449.292 296.806L458.572 295.82C458.702 295.815 458.832 295.837 458.954 295.884C459.075 295.932 459.185 296.005 459.277 296.098C459.368 296.19 459.44 296.301 459.486 296.423C459.532 296.545 459.552 296.676 459.545 296.806L460.108 316.492C460.131 316.768 460.051 317.043 459.883 317.263C459.715 317.483 459.471 317.633 459.199 317.683Z" fill="#263238"/>
<path opacity="0.7" d="M459.199 317.683L449.919 318.668C449.788 318.676 449.656 318.655 449.533 318.609C449.41 318.562 449.299 318.489 449.206 318.396C449.113 318.303 449.04 318.192 448.993 318.069C448.946 317.946 448.926 317.814 448.933 317.683L448.383 297.996C448.359 297.721 448.439 297.446 448.607 297.226C448.775 297.006 449.019 296.856 449.292 296.806L458.572 295.82C458.702 295.815 458.832 295.837 458.954 295.884C459.075 295.932 459.185 296.005 459.277 296.098C459.368 296.19 459.44 296.301 459.486 296.423C459.532 296.545 459.552 296.676 459.545 296.806L460.108 316.492C460.131 316.768 460.051 317.043 459.883 317.263C459.715 317.483 459.471 317.633 459.199 317.683Z" fill="white"/>
<path d="M458.586 296.204L456.154 296.46L455.846 297.216L452.083 297.612L451.738 296.934L449.306 297.19C449.13 297.227 448.973 297.326 448.865 297.47C448.756 297.613 448.704 297.791 448.717 297.971L449.267 317.644C449.262 317.73 449.274 317.816 449.304 317.896C449.335 317.976 449.382 318.049 449.442 318.11C449.503 318.17 449.576 318.217 449.656 318.247C449.736 318.277 449.822 318.29 449.907 318.284L459.187 317.299C459.362 317.265 459.519 317.168 459.627 317.027C459.736 316.885 459.789 316.709 459.776 316.531L459.226 296.844C459.229 296.759 459.215 296.675 459.184 296.595C459.153 296.516 459.106 296.444 459.046 296.384C458.986 296.324 458.914 296.277 458.835 296.246C458.755 296.215 458.671 296.201 458.586 296.204Z" fill="#006D8F"/>
<path opacity="0.8" d="M457.343 303.321L450.521 304.051C450.437 304.055 450.354 304.041 450.276 304.011C450.199 303.98 450.128 303.934 450.069 303.875C450.01 303.816 449.964 303.746 449.934 303.668C449.904 303.59 449.89 303.507 449.894 303.424V301.529C449.878 301.353 449.928 301.176 450.034 301.035C450.14 300.893 450.296 300.795 450.47 300.761L457.305 300.032C457.388 300.03 457.471 300.045 457.548 300.077C457.625 300.109 457.695 300.156 457.753 300.216C457.811 300.277 457.855 300.348 457.884 300.427C457.912 300.505 457.924 300.588 457.919 300.672L457.983 302.566C457.994 302.75 457.934 302.931 457.814 303.072C457.695 303.213 457.526 303.302 457.343 303.321Z" fill="white"/>
</svg>
