<svg width="719" height="536" viewBox="0 0 719 536" fill="none" xmlns="http://www.w3.org/2000/svg">
<path d="M718.419 470.603H0.581055V470.961H718.419V470.603Z" fill="#E7E7E7"/>
<path d="M646.492 493.703H598.942V494.062H646.492V493.703Z" fill="#E7E7E7"/>
<path d="M476.106 497.608H463.63V497.967H476.106V497.608Z" fill="#E7E7E7"/>
<path d="M597.506 480.379H569.956V480.738H597.506V480.379Z" fill="#E7E7E7"/>
<path d="M137.903 482.792H75.8966V483.15H137.903V482.792Z" fill="#E7E7E7"/>
<path d="M159.783 482.792H150.695V483.15H159.783V482.792Z" fill="#E7E7E7"/>
<path d="M323.823 488.85H189.329V489.209H323.823V488.85Z" fill="#E7E7E7"/>
<path d="M340.836 406.571H63.6216C61.4499 406.568 59.3685 405.702 57.8342 404.165C56.2999 402.628 55.4382 400.545 55.4382 398.374V8.68818C55.4571 6.52896 56.3272 4.46439 57.8594 2.94292C59.3916 1.42145 61.4623 0.565955 63.6216 0.562256H340.836C343.01 0.562256 345.096 1.42594 346.633 2.96331C348.17 4.50068 349.034 6.5858 349.034 8.75996V398.374C349.034 400.548 348.17 402.633 346.633 404.17C345.096 405.708 343.01 406.571 340.836 406.571ZM63.6216 0.849392C61.5451 0.853195 59.555 1.68074 58.088 3.15039C56.621 4.62003 55.7971 6.61169 55.7972 8.68818V398.374C55.7971 400.45 56.621 402.442 58.088 403.911C59.555 405.381 61.5451 406.209 63.6216 406.212H340.836C342.914 406.209 344.906 405.382 346.375 403.912C347.844 402.443 348.671 400.452 348.675 398.374V8.68818C348.671 6.61037 347.844 4.61875 346.375 3.14951C344.906 1.68027 342.914 0.853187 340.836 0.849392H63.6216Z" fill="#E7E7E7"/>
<path d="M651.387 406.571H374.158C371.985 406.568 369.902 405.703 368.366 404.166C366.829 402.63 365.964 400.547 365.961 398.374V8.68818C365.983 6.52765 366.856 4.4631 368.391 2.94202C369.925 1.42095 371.998 0.565914 374.158 0.562256H651.387C653.544 0.569728 655.611 1.42689 657.14 2.94796C658.669 4.46903 659.537 6.53144 659.556 8.68818V398.374C659.556 400.543 658.697 402.624 657.165 404.16C655.634 405.697 653.556 406.564 651.387 406.571ZM374.158 0.849392C372.08 0.853187 370.089 1.68027 368.62 3.14951C367.15 4.61875 366.323 6.61037 366.319 8.68818V398.374C366.323 400.452 367.15 402.443 368.62 403.912C370.089 405.382 372.08 406.209 374.158 406.212H651.387C653.465 406.209 655.457 405.382 656.926 403.912C658.395 402.443 659.222 400.452 659.226 398.374V8.68818C659.222 6.61037 658.395 4.61875 656.926 3.14951C655.457 1.68027 653.465 0.853187 651.387 0.849392H374.158Z" fill="#E7E7E7"/>
<path d="M364.109 148.178C361.871 137.455 357.628 127.25 351.604 118.101L362.371 105.094L339.401 82.1229L326.393 92.8905C317.251 86.85 307.052 82.5881 296.33 80.3283L294.751 63.574H262.133L260.553 80.3283C249.834 82.5662 239.634 86.8089 230.49 92.833L217.483 82.0655L194.512 105.036L205.28 118.044C199.255 127.193 195.013 137.397 192.775 148.121L176.006 149.7V182.247L192.775 183.826C195.016 194.549 199.258 204.753 205.28 213.904L194.397 226.968L217.368 249.939L230.375 239.171C239.516 245.202 249.717 249.445 260.438 251.676L262.018 268.445H294.579L296.158 251.676C306.883 249.442 317.088 245.199 326.235 239.171L339.243 249.939L362.214 226.968L351.446 213.961C357.468 204.81 361.71 194.606 363.951 183.884L380.719 182.304V149.758L364.109 148.178ZM322.474 166.024C322.474 174.741 319.889 183.263 315.046 190.511C310.203 197.759 303.319 203.408 295.266 206.744C287.212 210.08 278.35 210.953 269.8 209.252C261.25 207.552 253.397 203.354 247.233 197.19C241.069 191.026 236.871 183.172 235.17 174.622C233.47 166.073 234.343 157.211 237.679 149.157C241.014 141.103 246.664 134.22 253.912 129.377C261.16 124.534 269.681 121.949 278.399 121.949C284.189 121.945 289.922 123.082 295.272 125.296C300.622 127.509 305.483 130.755 309.578 134.849C313.673 138.942 316.921 143.802 319.136 149.151C321.351 154.501 322.49 160.234 322.488 166.024H322.474Z" fill="#F3CFAB"/>
<path d="M457.485 304.423L458.562 316.411H481.949L483.083 304.366C490.785 302.76 498.116 299.716 504.69 295.393L514.036 303.131L530.59 286.578L522.851 277.231C527.178 270.659 530.222 263.328 531.824 255.624L543.87 254.49V231.16L531.824 230.026C530.222 222.323 527.178 214.992 522.851 208.419L530.59 199.073L514.036 182.534L504.69 190.272C498.12 185.939 490.788 182.89 483.083 181.285L481.949 169.24H458.562L457.428 181.285C449.723 182.892 442.392 185.942 435.821 190.272L426.474 182.534L409.935 199.073L417.674 208.419C413.343 214.991 410.294 222.322 408.686 230.026L396.641 231.16V254.548L408.686 255.682C410.294 263.386 413.343 270.717 417.674 277.289L409.935 286.635L426.474 303.188L435.821 295.45C442.413 299.777 449.763 302.821 457.485 304.423ZM470.32 274.518C464.052 274.521 457.924 272.663 452.712 269.181C447.5 265.699 443.438 260.749 441.041 254.957C438.645 249.165 438.02 242.792 439.248 236.645C440.475 230.498 443.499 224.854 447.936 220.427C452.374 215.999 458.025 212.988 464.175 211.775C470.324 210.562 476.696 211.2 482.482 213.61C488.268 216.02 493.21 220.093 496.68 225.313C500.15 230.533 501.994 236.665 501.977 242.933C501.954 251.315 498.609 259.347 492.675 265.267C486.741 271.187 478.702 274.514 470.32 274.518Z" fill="#F3CFAB"/>
<path d="M159.238 419.665L159.812 425.81H171.742L172.331 419.679C176.257 418.852 179.993 417.294 183.343 415.085L188.109 419.033L196.551 410.606L192.603 405.839C194.81 402.485 196.363 398.744 197.183 394.813L203.327 394.239V382.309L197.183 381.734C196.363 377.803 194.81 374.063 192.603 370.708L196.551 365.942L188.109 357.5L183.343 361.448C179.992 359.244 176.256 357.69 172.331 356.868L171.742 350.724H159.812L159.238 356.868C155.312 357.69 151.576 359.244 148.226 361.448L143.459 357.5L135.018 365.942L138.966 370.708C136.752 374.059 135.198 377.801 134.386 381.734L128.241 382.309V394.239L134.386 394.813C135.198 398.746 136.752 402.488 138.966 405.839L135.018 410.606L143.459 419.033L148.226 415.085C151.573 417.295 155.31 418.849 159.238 419.665ZM165.784 404.418C162.59 404.418 159.467 403.471 156.811 401.696C154.155 399.921 152.085 397.399 150.862 394.447C149.64 391.496 149.32 388.249 149.943 385.116C150.566 381.983 152.105 379.105 154.364 376.846C156.622 374.587 159.5 373.049 162.633 372.426C165.766 371.802 169.014 372.122 171.965 373.345C174.916 374.567 177.439 376.637 179.214 379.293C180.988 381.949 181.936 385.072 181.936 388.267C181.936 390.388 181.518 392.488 180.706 394.447C179.894 396.407 178.705 398.187 177.205 399.687C175.705 401.187 173.925 402.377 171.965 403.188C170.006 404 167.905 404.418 165.784 404.418Z" fill="#E7E7E7"/>
<path d="M588.132 389.86L588.605 394.914H598.425L598.899 389.86C602.134 389.183 605.212 387.902 607.973 386.084L611.892 389.343L618.841 382.395L615.582 378.475C617.402 375.716 618.683 372.638 619.358 369.402L624.411 368.928V359.108L619.358 358.634C618.681 355.399 617.4 352.321 615.582 349.561L618.841 345.641L611.892 338.693L607.973 341.952C605.212 340.134 602.134 338.853 598.899 338.176L598.425 333.122H588.605L588.132 338.176C584.897 338.853 581.818 340.134 579.058 341.952L575.139 338.693L568.19 345.641L571.449 349.561C569.631 352.321 568.35 355.399 567.673 358.634L562.62 359.108V368.928L567.673 369.402C568.348 372.638 569.629 375.716 571.449 378.475L568.19 382.452L575.139 389.401L579.058 386.142C581.823 387.939 584.901 389.201 588.132 389.86ZM593.515 377.312C590.886 377.312 588.316 376.533 586.129 375.072C583.943 373.611 582.239 371.535 581.233 369.106C580.227 366.676 579.963 364.003 580.476 361.424C580.989 358.846 582.256 356.477 584.115 354.617C585.974 352.758 588.343 351.492 590.922 350.979C593.501 350.466 596.174 350.729 598.603 351.736C601.032 352.742 603.108 354.446 604.569 356.632C606.03 358.818 606.81 361.389 606.81 364.018C606.806 367.543 605.404 370.922 602.912 373.414C600.419 375.907 597.04 377.309 593.515 377.312Z" fill="#E7E7E7"/>
<path d="M333.27 468.234H361.122L362.472 453.877C371.652 451.98 380.387 448.355 388.214 443.196L399.34 452.413L419.009 432.701L409.749 421.589C414.902 413.764 418.526 405.035 420.43 395.861L434.787 394.512V366.66L420.43 365.31C418.524 356.142 414.899 347.418 409.749 339.597L418.951 328.471L399.254 308.773L388.214 317.976C380.391 312.827 371.668 309.198 362.501 307.28L361.151 292.923H333.299L331.949 307.28C322.777 309.195 314.049 312.824 306.222 317.976L295.096 308.773L275.369 328.471L284.587 339.597C279.425 347.414 275.796 356.139 273.891 365.31L259.534 366.66V394.512L273.891 395.861C275.793 405.037 279.423 413.768 284.587 421.589L275.369 432.701L295.067 452.398L306.193 443.181C314.014 448.345 322.745 451.974 331.921 453.877L333.27 468.234ZM347.196 418.287C339.74 418.287 332.451 416.075 326.251 411.933C320.051 407.79 315.219 401.902 312.365 395.013C309.512 388.124 308.765 380.544 310.22 373.231C311.675 365.917 315.265 359.2 320.538 353.927C325.81 348.655 332.528 345.064 339.841 343.609C347.155 342.155 354.735 342.901 361.624 345.755C368.513 348.608 374.401 353.44 378.543 359.64C382.686 365.84 384.897 373.129 384.897 380.586C384.905 385.541 383.935 390.45 382.044 395.031C380.153 399.612 377.377 403.774 373.875 407.281C370.374 410.788 366.215 413.57 361.637 415.469C357.059 417.367 352.152 418.344 347.196 418.344V418.287Z" fill="#F3CFAB"/>
<path d="M488.941 417.282L487.505 414.41C485.193 410.013 481.23 406.714 476.487 405.236C471.744 403.758 466.609 404.223 462.208 406.528L455.489 410.046C451.094 412.364 447.797 416.329 446.319 421.073C444.842 425.817 445.305 430.953 447.607 435.357L449.043 438.156L444.363 440.626L461.232 472.756L510.49 446.914L493.621 414.769L488.941 417.282ZM478.661 441.86L481.604 447.474L478.044 449.355L475.101 443.741C474.421 443.715 473.761 443.511 473.184 443.151C472.607 442.791 472.135 442.287 471.813 441.688C471.539 441.224 471.362 440.709 471.294 440.174C471.225 439.64 471.266 439.097 471.413 438.578C471.561 438.06 471.812 437.577 472.152 437.159C472.492 436.74 472.914 436.396 473.391 436.145C473.868 435.895 474.391 435.744 474.929 435.702C475.466 435.66 476.006 435.728 476.517 435.901C477.027 436.075 477.497 436.35 477.898 436.71C478.298 437.071 478.622 437.509 478.848 437.998C479.159 438.602 479.305 439.276 479.273 439.954C479.24 440.632 479.029 441.29 478.661 441.86ZM481.532 421.215L456.423 434.395L454.987 431.523C453.712 429.082 453.458 426.235 454.278 423.606C455.099 420.976 456.928 418.78 459.366 417.497L466.07 413.979C468.503 412.7 471.344 412.434 473.972 413.241C476.599 414.048 478.801 415.862 480.097 418.286L481.532 421.215Z" fill="#E7E7E7"/>
<path d="M144.594 246.565L145.642 243.579C147.265 238.884 146.962 233.737 144.799 229.264C142.635 224.792 138.788 221.36 134.099 219.718L126.921 217.234C122.22 215.614 117.068 215.926 112.597 218.101C108.126 220.276 104.701 224.136 103.074 228.835L102.026 231.835L97.0442 230.098L85.1281 264.396L137.688 282.601L149.59 248.302L144.594 246.565ZM119.642 255.911L117.56 261.855L113.755 260.534L115.837 254.548C115.391 254.037 115.086 253.419 114.953 252.754C114.819 252.089 114.862 251.401 115.076 250.757C115.425 249.758 116.156 248.938 117.109 248.477C118.062 248.017 119.159 247.954 120.159 248.302C121.158 248.651 121.978 249.382 122.439 250.335C122.899 251.288 122.962 252.385 122.614 253.385C122.382 254.029 121.986 254.601 121.464 255.044C120.943 255.487 120.315 255.786 119.642 255.911ZM136.712 243.837L109.922 234.577L110.956 231.577C111.865 228.978 113.766 226.844 116.245 225.644C118.723 224.444 121.576 224.275 124.178 225.174L131.357 227.657C133.958 228.563 136.094 230.464 137.295 232.944C138.495 235.423 138.663 238.277 137.76 240.88L136.712 243.837Z" fill="#E7E7E7"/>
<path d="M614.95 229.797L611.878 228.82C616.084 228.075 619.92 225.941 622.772 222.76C625.623 219.578 627.327 215.533 627.61 211.27C627.892 207.007 626.739 202.772 624.332 199.242C621.926 195.712 618.406 193.09 614.335 191.795C610.263 190.5 605.875 190.607 601.872 192.098C597.868 193.59 594.48 196.38 592.248 200.023C590.017 203.666 589.07 207.952 589.56 212.196C590.05 216.44 591.948 220.398 594.951 223.437L591.893 222.46C587.411 221.029 582.545 221.435 578.362 223.588C574.179 225.742 571.022 229.467 569.583 233.946L566.51 243.622L623.42 261.697L626.536 252.093C627.242 249.868 627.503 247.526 627.302 245.201C627.102 242.875 626.445 240.612 625.369 238.541C624.293 236.47 622.818 234.631 621.03 233.131C619.243 231.63 617.176 230.497 614.95 229.797Z" fill="#E7E7E7"/>
<path d="M408.586 56.41L406.676 57.214C408.426 55.0907 409.413 52.4425 409.48 49.6923C409.548 46.9421 408.692 44.2486 407.048 42.0422C405.405 39.8357 403.07 38.2436 400.416 37.5201C397.762 36.7965 394.942 36.9834 392.406 38.0508C389.871 39.1182 387.766 41.0045 386.429 43.4085C385.091 45.8125 384.598 48.5953 385.028 51.3126C385.457 54.0298 386.785 56.5247 388.799 58.3986C390.813 60.2725 393.397 61.4173 396.139 61.6502L394.229 62.4542C391.444 63.6391 389.24 65.8751 388.095 68.6763C386.949 71.4776 386.956 74.6176 388.113 77.4139L390.64 83.4438L426.087 68.5415L423.546 62.526C422.361 59.7413 420.125 57.5368 417.323 56.3916C414.522 55.2463 411.382 55.253 408.586 56.41Z" fill="#E7E7E7"/>
<path d="M152.045 96.7524L150.021 96.3361C152.674 95.5836 154.999 93.9632 156.624 91.7338C158.248 89.5044 159.078 86.7948 158.981 84.0381C158.884 81.2814 157.866 78.6367 156.089 76.5269C154.312 74.4171 151.879 72.9639 149.179 72.3997C146.479 71.8355 143.668 72.1927 141.194 73.4144C138.721 74.636 136.729 76.6515 135.536 79.1387C134.344 81.6259 134.019 84.4412 134.615 87.1345C135.21 89.8278 136.692 92.2437 138.822 93.9959L136.798 93.5796C133.823 92.9771 130.731 93.5767 128.197 95.2473C125.662 96.9179 123.893 99.5236 123.274 102.495L121.939 108.884L159.568 116.723L160.903 110.334C161.524 107.359 160.94 104.259 159.28 101.713C157.62 99.1674 155.018 97.3836 152.045 96.7524Z" fill="#E7E7E7"/>
<path d="M359.5 535.438C513.236 535.438 637.863 528.162 637.863 519.186C637.863 510.21 513.236 502.934 359.5 502.934C205.764 502.934 81.1368 510.21 81.1368 519.186C81.1368 528.162 205.764 535.438 359.5 535.438Z" fill="#CAD5E1" fill-opacity="0.43"/>
<path d="M530.604 113.148H273.747C267.943 113.148 263.238 117.853 263.238 123.657V439.032C263.238 444.836 267.943 449.541 273.747 449.541H530.604C536.408 449.541 541.113 444.836 541.113 439.032V123.657C541.113 117.853 536.408 113.148 530.604 113.148Z" fill="#106DCC"/>
<path opacity="0.6" d="M530.604 113.148H273.747C267.943 113.148 263.238 117.853 263.238 123.657V439.032C263.238 444.836 267.943 449.541 273.747 449.541H530.604C536.408 449.541 541.113 444.836 541.113 439.032V123.657C541.113 117.853 536.408 113.148 530.604 113.148Z" fill="white"/>
<path d="M496.09 227.253H308.247V259.412H496.09V227.253Z" fill="white"/>
<g opacity="0.4">
<path d="M317.722 242.701C317.714 242.071 317.834 241.446 318.075 240.864C318.316 240.282 318.673 239.756 319.125 239.316C319.576 238.877 320.112 238.534 320.7 238.309C321.289 238.084 321.917 237.981 322.546 238.006C323.171 237.984 323.794 238.092 324.375 238.325C324.956 238.557 325.482 238.908 325.92 239.356L325.302 239.973C324.947 239.613 324.522 239.331 324.052 239.143C323.583 238.955 323.08 238.866 322.575 238.882C321.562 238.882 320.59 239.284 319.874 240.001C319.158 240.717 318.756 241.688 318.756 242.701C318.756 243.714 319.158 244.685 319.874 245.401C320.59 246.117 321.562 246.52 322.575 246.52C323.081 246.536 323.586 246.446 324.056 246.256C324.525 246.065 324.95 245.779 325.302 245.414L325.92 246.032C325.481 246.481 324.952 246.833 324.369 247.066C323.785 247.298 323.159 247.406 322.532 247.381C321.904 247.409 321.277 247.307 320.689 247.084C320.102 246.86 319.566 246.518 319.116 246.08C318.665 245.641 318.309 245.116 318.07 244.534C317.83 243.953 317.712 243.329 317.722 242.701Z" fill="#051729"/>
<path d="M326.796 243.849C326.793 243.15 326.997 242.466 327.384 241.883C327.77 241.301 328.321 240.846 328.966 240.576C329.611 240.307 330.321 240.235 331.008 240.369C331.694 240.504 332.324 240.839 332.82 241.333C333.315 241.826 333.653 242.455 333.79 243.141C333.928 243.826 333.859 244.537 333.592 245.183C333.325 245.829 332.872 246.382 332.291 246.771C331.71 247.159 331.026 247.367 330.327 247.367C329.86 247.383 329.395 247.303 328.961 247.132C328.526 246.961 328.131 246.702 327.8 246.373C327.469 246.043 327.209 245.649 327.036 245.215C326.863 244.781 326.782 244.316 326.796 243.849ZM332.897 243.849C332.875 243.343 332.704 242.855 332.406 242.445C332.108 242.035 331.696 241.722 331.222 241.544C330.747 241.366 330.231 241.332 329.737 241.446C329.243 241.559 328.793 241.815 328.444 242.182C328.095 242.549 327.861 243.011 327.772 243.51C327.683 244.008 327.742 244.522 327.943 244.988C328.143 245.453 328.476 245.849 328.9 246.127C329.324 246.404 329.821 246.551 330.327 246.548C330.678 246.555 331.026 246.489 331.349 246.354C331.673 246.219 331.965 246.018 332.206 245.764C332.448 245.511 332.634 245.209 332.753 244.88C332.872 244.55 332.921 244.199 332.897 243.849Z" fill="#051729"/>
<path d="M342.129 243.289V247.309H341.195V243.376C341.237 243.087 341.214 242.792 341.126 242.513C341.038 242.235 340.889 241.98 340.689 241.767C340.488 241.555 340.243 241.39 339.97 241.286C339.697 241.181 339.405 241.14 339.114 241.165C338.782 241.142 338.449 241.192 338.138 241.312C337.828 241.431 337.547 241.617 337.316 241.856C337.085 242.096 336.909 242.383 336.8 242.697C336.692 243.012 336.653 243.346 336.687 243.677V247.309H335.754V240.375H336.644V241.653C336.924 241.214 337.317 240.859 337.782 240.627C338.248 240.394 338.767 240.292 339.286 240.332C339.677 240.302 340.07 240.358 340.436 240.498C340.803 240.638 341.134 240.857 341.406 241.139C341.677 241.422 341.883 241.762 342.008 242.133C342.133 242.505 342.174 242.9 342.129 243.289Z" fill="#051729"/>
<path d="M346.924 237.475C347.438 237.448 347.945 237.6 348.359 237.906L348.044 238.609C347.752 238.373 347.385 238.251 347.01 238.265C346.22 238.265 345.79 238.71 345.79 239.571V240.375H347.929V241.165H345.818V247.309H344.885V241.165H343.65V240.375H344.885V239.528C344.864 239.254 344.902 238.979 344.996 238.721C345.091 238.463 345.24 238.229 345.434 238.034C345.627 237.839 345.861 237.688 346.118 237.592C346.375 237.495 346.65 237.456 346.924 237.475ZM351.346 238.178C351.348 238.269 351.331 238.36 351.297 238.444C351.263 238.529 351.213 238.606 351.148 238.67C351.084 238.734 351.007 238.785 350.922 238.819C350.838 238.853 350.748 238.87 350.656 238.868C350.561 238.882 350.463 238.875 350.37 238.848C350.277 238.821 350.191 238.774 350.117 238.711C350.044 238.647 349.985 238.569 349.945 238.481C349.904 238.393 349.884 238.297 349.884 238.2C349.884 238.103 349.904 238.007 349.945 237.919C349.985 237.831 350.044 237.753 350.117 237.689C350.191 237.626 350.277 237.579 350.37 237.552C350.463 237.525 350.561 237.518 350.656 237.532C350.744 237.529 350.832 237.542 350.915 237.573C350.997 237.603 351.073 237.65 351.137 237.71C351.201 237.771 351.253 237.843 351.289 237.923C351.324 238.004 351.344 238.09 351.346 238.178ZM350.183 240.375H351.116V247.309H350.183V240.375Z" fill="#051729"/>
<path d="M357.218 240.332V241.236H356.988C356.658 241.22 356.329 241.278 356.024 241.404C355.718 241.53 355.445 241.722 355.223 241.966C355 242.21 354.835 242.501 354.738 242.816C354.641 243.132 354.615 243.465 354.662 243.792V247.324H353.758V240.389H354.648V241.753C354.884 241.286 355.256 240.901 355.714 240.647C356.172 240.394 356.696 240.284 357.218 240.332Z" fill="#051729"/>
<path d="M370.325 243.289V247.309H369.392V243.376C369.392 241.94 368.66 241.165 367.411 241.165C367.085 241.15 366.76 241.206 366.458 241.33C366.157 241.453 365.886 241.641 365.664 241.88C365.443 242.12 365.276 242.405 365.176 242.715C365.076 243.025 365.045 243.354 365.085 243.677V247.309H364.152V243.376C364.152 241.94 363.42 241.165 362.156 241.165C361.831 241.152 361.507 241.21 361.207 241.335C360.906 241.459 360.636 241.647 360.415 241.886C360.194 242.124 360.028 242.408 359.927 242.717C359.826 243.027 359.793 243.354 359.83 243.677V247.309H358.897V240.375H359.802V241.638C360.074 241.218 360.452 240.876 360.898 240.647C361.344 240.418 361.842 240.309 362.343 240.332C362.85 240.291 363.357 240.407 363.796 240.664C364.235 240.92 364.585 241.306 364.798 241.768C365.082 241.303 365.488 240.924 365.971 240.671C366.453 240.418 366.996 240.301 367.54 240.332C367.928 240.303 368.318 240.361 368.681 240.502C369.044 240.642 369.371 240.863 369.638 241.146C369.905 241.43 370.105 241.769 370.224 242.14C370.343 242.511 370.378 242.904 370.325 243.289Z" fill="#051729"/>
<path d="M384.223 238.092V247.309H383.419L377.489 239.829V247.309H376.513V238.092H377.317L383.261 245.572V238.092H384.223Z" fill="#051729"/>
<path d="M393.052 244.136H387.309C387.328 244.475 387.413 244.806 387.56 245.111C387.708 245.416 387.914 245.689 388.168 245.913C388.422 246.138 388.718 246.31 389.039 246.419C389.36 246.528 389.699 246.572 390.037 246.548C390.435 246.561 390.831 246.486 391.196 246.327C391.561 246.168 391.886 245.93 392.148 245.63L392.679 246.247C392.181 246.766 391.542 247.128 390.84 247.286C390.138 247.444 389.405 247.392 388.733 247.137C388.061 246.881 387.478 246.433 387.059 245.848C386.64 245.263 386.403 244.568 386.376 243.849C386.35 243.393 386.419 242.936 386.578 242.507C386.736 242.078 386.981 241.687 387.298 241.357C387.614 241.027 387.995 240.765 388.417 240.589C388.839 240.413 389.293 240.325 389.75 240.332C390.207 240.323 390.661 240.409 391.083 240.585C391.505 240.761 391.886 241.022 392.202 241.353C392.518 241.683 392.762 242.076 392.918 242.506C393.074 242.936 393.139 243.393 393.109 243.849C393.066 243.921 393.052 244.022 393.052 244.136ZM387.309 243.433H392.219C392.219 242.782 391.961 242.157 391.5 241.697C391.04 241.237 390.415 240.978 389.764 240.978C389.113 240.978 388.489 241.237 388.028 241.697C387.568 242.157 387.309 242.782 387.309 243.433Z" fill="#051729"/>
<path d="M405.011 240.375L402.384 247.309H401.508L399.326 241.638L397.144 247.309H396.254L393.655 240.375H394.545L396.713 246.261L398.938 240.375H399.699L401.91 246.261L404.107 240.375H405.011Z" fill="#051729"/>
<path d="M417.286 241.251C417.286 243.218 415.85 244.395 413.51 244.395H411.041V247.266H410.065V238.049H413.51C415.865 238.092 417.286 239.27 417.286 241.251ZM416.31 241.251C416.31 239.815 415.334 238.939 413.439 238.939H411.041V243.548H413.496C415.334 243.548 416.31 242.701 416.31 241.251Z" fill="#051729"/>
<path d="M424.35 243.017V247.324H423.46V246.247C423.199 246.63 422.841 246.938 422.422 247.137C422.003 247.336 421.539 247.421 421.076 247.381C419.511 247.381 418.55 246.563 418.55 245.371C418.55 244.18 419.224 243.376 421.234 243.376H423.431V242.959C423.431 241.782 422.756 241.136 421.464 241.136C420.628 241.126 419.814 241.41 419.167 241.94L418.751 241.251C419.567 240.61 420.585 240.28 421.622 240.318C421.988 240.275 422.359 240.314 422.708 240.434C423.056 240.554 423.373 240.751 423.635 241.011C423.897 241.27 424.098 241.585 424.221 241.932C424.345 242.279 424.389 242.65 424.35 243.017ZM423.416 245.228V244.093H421.234C419.885 244.093 419.454 244.625 419.454 245.328C419.454 246.032 420.1 246.635 421.206 246.635C421.676 246.664 422.143 246.544 422.54 246.291C422.937 246.038 423.244 245.666 423.416 245.228Z" fill="#051729"/>
<path d="M425.929 246.52L426.36 245.773C427.072 246.291 427.934 246.563 428.815 246.548C430.135 246.548 430.667 246.103 430.667 245.429C430.667 243.62 426.187 245.041 426.187 242.299C426.187 241.165 427.164 240.332 428.915 240.332C429.778 240.313 430.628 240.537 431.37 240.978L430.968 241.725C430.358 241.327 429.643 241.122 428.915 241.136C427.666 241.136 427.121 241.624 427.121 242.27C427.121 244.151 431.614 242.744 431.614 245.4C431.614 246.591 430.552 247.367 428.743 247.367C427.738 247.395 426.751 247.098 425.929 246.52Z" fill="#051729"/>
<path d="M432.375 246.52L432.791 245.773C433.511 246.288 434.376 246.56 435.261 246.548C436.567 246.548 437.113 246.103 437.113 245.429C437.113 243.62 432.619 245.041 432.619 242.299C432.619 241.165 433.595 240.332 435.361 240.332C436.219 240.315 437.065 240.539 437.802 240.978L437.4 241.725C436.795 241.327 436.085 241.122 435.361 241.136C434.112 241.136 433.552 241.624 433.552 242.27C433.552 244.151 438.046 242.744 438.046 245.4C438.046 246.591 436.998 247.367 435.175 247.367C434.174 247.397 433.191 247.099 432.375 246.52Z" fill="#051729"/>
<path d="M449.804 240.375L447.177 247.309H446.301L444.119 241.638L441.937 247.309H441.047L438.462 240.375H439.353L441.52 246.261L443.746 240.375H444.55L446.761 246.261L448.957 240.375H449.804Z" fill="#051729"/>
<path d="M450.321 243.849C450.321 243.154 450.527 242.475 450.913 241.897C451.299 241.319 451.847 240.868 452.489 240.601C453.131 240.335 453.838 240.264 454.519 240.399C455.201 240.533 455.828 240.867 456.321 241.357C456.813 241.848 457.149 242.473 457.287 243.154C457.424 243.836 457.356 244.543 457.092 245.186C456.828 245.829 456.38 246.379 455.803 246.767C455.227 247.155 454.548 247.364 453.853 247.367C453.385 247.385 452.919 247.306 452.484 247.136C452.048 246.966 451.652 246.708 451.321 246.378C450.989 246.048 450.729 245.653 450.557 245.218C450.385 244.783 450.305 244.317 450.321 243.849ZM456.408 243.849C456.383 243.347 456.211 242.863 455.913 242.457C455.615 242.052 455.204 241.742 454.732 241.568C454.26 241.394 453.747 241.362 453.257 241.476C452.767 241.591 452.322 241.846 451.976 242.212C451.63 242.577 451.399 243.036 451.311 243.532C451.224 244.027 451.283 244.538 451.483 245C451.683 245.461 452.014 245.854 452.436 246.13C452.857 246.405 453.35 246.551 453.853 246.548C454.202 246.553 454.549 246.486 454.87 246.35C455.192 246.214 455.482 246.013 455.722 245.759C455.962 245.506 456.147 245.205 456.265 244.876C456.384 244.548 456.432 244.198 456.408 243.849Z" fill="#051729"/>
<path d="M462.754 240.332V241.237H462.539C462.209 241.22 461.88 241.278 461.574 241.404C461.269 241.53 460.996 241.722 460.773 241.966C460.551 242.21 460.386 242.501 460.289 242.816C460.192 243.132 460.166 243.465 460.213 243.792V247.324H459.265V240.39H460.17V241.753C460.407 241.284 460.781 240.897 461.242 240.643C461.703 240.39 462.23 240.281 462.754 240.332Z" fill="#051729"/>
<path d="M470.693 237.532V247.309H469.803V245.874C469.527 246.33 469.133 246.703 468.664 246.956C468.194 247.208 467.666 247.33 467.133 247.309C466.2 247.309 465.305 246.939 464.646 246.279C463.986 245.62 463.615 244.725 463.615 243.792C463.615 242.859 463.986 241.965 464.646 241.305C465.305 240.645 466.2 240.275 467.133 240.275C467.651 240.257 468.165 240.373 468.625 240.612C469.086 240.851 469.477 241.204 469.76 241.639V237.475L470.693 237.532ZM469.775 243.849C469.749 243.347 469.577 242.864 469.28 242.459C468.983 242.053 468.573 241.744 468.102 241.569C467.631 241.394 467.118 241.362 466.629 241.475C466.139 241.588 465.693 241.843 465.347 242.207C465 242.571 464.768 243.028 464.679 243.523C464.59 244.018 464.648 244.528 464.845 244.99C465.043 245.452 465.372 245.846 465.791 246.123C466.211 246.4 466.702 246.548 467.205 246.549C467.555 246.555 467.903 246.489 468.227 246.354C468.55 246.219 468.842 246.018 469.084 245.765C469.325 245.511 469.512 245.209 469.631 244.88C469.749 244.55 469.799 244.199 469.775 243.849Z" fill="#051729"/>
</g>
<path opacity="0.2" d="M496.09 383.328H308.246V415.487H496.09V383.328Z" fill="#0E151D"/>
<path d="M496.09 381.347H308.246V413.506H496.09V381.347Z" fill="#106DCC"/>
<path d="M349.206 401.116L349.795 399.881C350.817 400.722 352.104 401.175 353.427 401.159C355.322 401.159 356.141 400.427 356.141 399.465C356.141 396.78 349.479 398.474 349.479 394.383C349.479 392.688 350.8 391.238 353.686 391.238C354.937 391.215 356.169 391.554 357.232 392.215L356.715 393.464C355.808 392.89 354.759 392.581 353.686 392.574C351.819 392.574 351.015 393.363 351.015 394.325C351.015 397.01 357.691 395.33 357.691 399.364C357.691 401.058 356.255 402.494 353.384 402.494C351.874 402.533 350.397 402.046 349.206 401.116Z" fill="white"/>
<path d="M367.267 398.761H360.505C360.612 399.474 360.982 400.121 361.543 400.573C362.105 401.025 362.815 401.25 363.534 401.202C363.983 401.216 364.429 401.134 364.842 400.96C365.256 400.787 365.628 400.527 365.932 400.197L366.765 401.173C366.152 401.799 365.372 402.233 364.518 402.425C363.663 402.617 362.772 402.557 361.951 402.253C361.13 401.95 360.414 401.415 359.89 400.714C359.366 400.013 359.056 399.175 358.998 398.302C358.968 397.739 359.055 397.177 359.252 396.649C359.45 396.122 359.754 395.641 360.147 395.237C360.539 394.832 361.01 394.513 361.531 394.3C362.053 394.086 362.612 393.982 363.175 393.995C363.737 393.979 364.295 394.082 364.815 394.295C365.334 394.509 365.803 394.829 366.191 395.234C366.579 395.64 366.878 396.123 367.068 396.651C367.259 397.18 367.336 397.742 367.296 398.302C367.296 398.431 367.282 398.618 367.267 398.761ZM360.505 397.685H365.86C365.777 397.033 365.46 396.434 364.967 396C364.474 395.565 363.84 395.326 363.183 395.326C362.526 395.326 361.891 395.565 361.398 396C360.906 396.434 360.588 397.033 360.505 397.685Z" fill="white"/>
<path d="M374.087 401.949C373.562 402.343 372.919 402.545 372.263 402.523C371.909 402.563 371.55 402.524 371.213 402.407C370.876 402.291 370.57 402.1 370.316 401.849C370.063 401.599 369.869 401.294 369.749 400.959C369.628 400.623 369.585 400.265 369.622 399.91V395.373H368.186V394.139H369.622V392.315H371.129V394.139H373.527V395.373H371.129V399.896C371.095 400.08 371.104 400.27 371.156 400.451C371.208 400.632 371.3 400.798 371.427 400.937C371.553 401.076 371.71 401.184 371.885 401.252C372.06 401.321 372.248 401.348 372.436 401.331C372.861 401.342 373.277 401.205 373.613 400.944L374.087 401.949Z" fill="white"/>
<path d="M389.262 395.258C389.262 397.656 387.525 399.092 384.668 399.092H381.94V402.437H380.375V391.425H384.682C387.525 391.425 389.262 392.861 389.262 395.258ZM387.682 395.258C387.682 393.679 386.634 392.789 384.624 392.789H381.94V397.728H384.624C386.634 397.728 387.682 396.809 387.682 395.258Z" fill="white"/>
<path d="M397.89 397.398V402.437H396.454V401.331C396.134 401.744 395.715 402.069 395.236 402.278C394.756 402.486 394.233 402.57 393.712 402.523C391.831 402.523 390.64 401.518 390.64 400.068C390.64 398.618 391.501 397.627 393.985 397.627H396.383V397.34C396.383 396.062 395.636 395.316 394.143 395.316C393.186 395.316 392.257 395.634 391.501 396.22L390.87 395.086C391.867 394.355 393.079 393.976 394.315 394.009C396.598 394.009 397.89 395.115 397.89 397.398ZM396.383 399.881V398.718H394.042C392.607 398.718 392.133 399.307 392.133 400.011C392.133 400.714 392.822 401.36 393.971 401.36C394.477 401.397 394.982 401.274 395.414 401.009C395.847 400.743 396.186 400.349 396.383 399.881Z" fill="white"/>
<path d="M399.699 401.547L400.331 400.355C401.186 400.91 402.182 401.209 403.202 401.216C404.638 401.216 405.183 400.8 405.183 400.082C405.183 398.216 399.914 399.838 399.914 396.522C399.914 395.086 401.25 394.009 403.389 394.009C404.453 393.991 405.502 394.253 406.432 394.77L405.786 395.962C405.065 395.508 404.226 395.278 403.374 395.301C402.053 395.301 401.407 395.789 401.407 396.45C401.407 398.417 406.705 396.809 406.705 400.053C406.705 401.561 405.269 402.523 403.102 402.523C401.894 402.551 400.707 402.211 399.699 401.547Z" fill="white"/>
<path d="M407.524 401.547L408.155 400.355C409.011 400.91 410.007 401.209 411.027 401.216C412.462 401.216 413.008 400.8 413.008 400.082C413.008 398.216 407.739 399.838 407.739 396.522C407.739 395.086 409.074 394.009 411.213 394.009C412.272 393.992 413.317 394.255 414.243 394.77L413.596 395.962C412.88 395.511 412.046 395.281 411.199 395.301C409.878 395.301 409.232 395.79 409.232 396.45C409.232 398.417 414.515 396.809 414.515 400.054C414.515 401.561 413.08 402.523 410.912 402.523C409.71 402.547 408.529 402.206 407.524 401.547Z" fill="white"/>
<path d="M428.915 394.095L425.8 402.437H424.364L421.952 396.105L419.511 402.437H418.076L414.989 394.095H416.425L418.851 400.728L421.363 394.095H422.67L425.139 400.757L427.623 394.095H428.915Z" fill="white"/>
<path d="M429.446 398.245C429.446 397.393 429.699 396.56 430.172 395.852C430.645 395.143 431.318 394.591 432.105 394.265C432.892 393.939 433.758 393.854 434.594 394.02C435.429 394.186 436.196 394.597 436.799 395.199C437.401 395.801 437.811 396.569 437.978 397.404C438.144 398.24 438.058 399.106 437.732 399.893C437.406 400.68 436.854 401.352 436.146 401.826C435.438 402.299 434.605 402.552 433.753 402.552C433.182 402.574 432.612 402.478 432.079 402.269C431.547 402.06 431.063 401.744 430.658 401.339C430.254 400.935 429.937 400.451 429.729 399.919C429.52 399.386 429.424 398.816 429.446 398.245ZM436.625 398.245C436.61 397.677 436.428 397.126 436.101 396.662C435.773 396.198 435.316 395.842 434.786 395.638C434.256 395.434 433.678 395.391 433.124 395.516C432.57 395.641 432.065 395.927 431.674 396.338C431.282 396.75 431.022 397.268 430.925 397.827C430.828 398.387 430.899 398.963 431.13 399.482C431.36 400.001 431.739 400.44 432.219 400.743C432.698 401.047 433.257 401.202 433.825 401.188C434.205 401.193 434.582 401.119 434.932 400.97C435.282 400.822 435.597 400.602 435.858 400.325C436.118 400.049 436.318 399.721 436.446 399.363C436.573 399.004 436.624 398.624 436.596 398.245H436.625Z" fill="white"/>
<path d="M444.693 394.009V395.445H444.349C443.975 395.419 443.601 395.477 443.253 395.616C442.906 395.754 442.594 395.97 442.341 396.246C442.089 396.522 441.902 396.852 441.794 397.21C441.687 397.569 441.662 397.947 441.721 398.316V402.48H440.286V394.139H441.721V395.574C442.022 395.063 442.459 394.645 442.984 394.369C443.509 394.092 444.101 393.968 444.693 394.009Z" fill="white"/>
<path d="M454.341 390.765V402.437H452.905V401.116C452.564 401.579 452.115 401.952 451.597 402.202C451.079 402.452 450.508 402.572 449.933 402.552C448.917 402.395 447.99 401.88 447.32 401.099C446.65 400.318 446.282 399.323 446.282 398.295C446.282 397.266 446.65 396.272 447.32 395.491C447.99 394.71 448.917 394.195 449.933 394.038C450.484 394.025 451.03 394.139 451.528 394.374C452.027 394.608 452.464 394.955 452.805 395.388V390.793L454.341 390.765ZM452.819 398.245C452.805 397.677 452.622 397.126 452.295 396.662C451.968 396.198 451.51 395.842 450.98 395.638C450.451 395.434 449.872 395.391 449.318 395.516C448.764 395.641 448.26 395.927 447.868 396.338C447.477 396.75 447.216 397.268 447.119 397.827C447.023 398.387 447.094 398.962 447.324 399.482C447.554 400.001 447.933 400.44 448.413 400.743C448.893 401.047 449.452 401.202 450.019 401.188C450.402 401.197 450.782 401.126 451.135 400.979C451.489 400.832 451.808 400.613 452.071 400.336C452.335 400.059 452.538 399.73 452.666 399.369C452.795 399.009 452.847 398.626 452.819 398.245Z" fill="white"/>
<g opacity="0.6">
<path d="M342.861 163.038L340.262 159.334C340.018 159.334 339.76 159.334 339.501 159.334H336.529V162.995H334.807V150.935H339.501C342.631 150.935 344.526 152.529 344.526 155.142C344.566 155.978 344.329 156.804 343.851 157.492C343.373 158.18 342.682 158.691 341.884 158.946L344.756 162.995L342.861 163.038ZM342.861 155.185C342.861 153.462 341.712 152.486 339.501 152.486H336.63V157.912H339.501C341.655 157.912 342.803 156.907 342.803 155.185H342.861Z" fill="#051729"/>
<path d="M355.294 159.032H347.9C348.004 159.814 348.405 160.526 349.02 161.021C349.634 161.515 350.416 161.754 351.202 161.688C351.693 161.707 352.182 161.619 352.635 161.43C353.089 161.242 353.496 160.958 353.829 160.597L354.748 161.659C354.074 162.344 353.216 162.819 352.279 163.026C351.341 163.233 350.363 163.164 349.463 162.826C348.564 162.489 347.781 161.898 347.211 161.126C346.64 160.353 346.306 159.431 346.249 158.472C346.223 157.861 346.323 157.25 346.543 156.679C346.763 156.108 347.099 155.588 347.528 155.151C347.958 154.715 348.472 154.372 349.04 154.143C349.608 153.914 350.217 153.804 350.829 153.821C351.438 153.806 352.044 153.917 352.609 154.149C353.173 154.38 353.683 154.726 354.107 155.164C354.53 155.603 354.858 156.125 355.07 156.696C355.282 157.268 355.373 157.878 355.337 158.487C355.338 158.669 355.323 158.852 355.294 159.032ZM347.9 157.841H353.757C353.757 157.066 353.45 156.323 352.902 155.775C352.354 155.227 351.611 154.919 350.836 154.919C350.061 154.919 349.318 155.227 348.77 155.775C348.222 156.323 347.914 157.066 347.914 157.841H347.9Z" fill="#051729"/>
<path d="M356.471 162.076L357.16 160.769C358.114 161.385 359.226 161.714 360.362 161.717C361.898 161.717 362.529 161.243 362.529 160.468C362.529 158.429 356.787 160.195 356.787 156.563C356.787 154.926 358.222 153.821 360.591 153.821C361.75 153.804 362.894 154.091 363.908 154.653L363.204 155.96C362.417 155.471 361.504 155.222 360.577 155.242C359.141 155.242 358.423 155.773 358.423 156.491C358.423 158.645 364.166 156.893 364.166 160.439C364.166 162.09 362.644 163.138 360.218 163.138C358.89 163.17 357.584 162.8 356.471 162.076Z" fill="#051729"/>
<path d="M374.474 159.032H367.066C367.177 159.811 367.58 160.519 368.193 161.012C368.806 161.505 369.584 161.747 370.368 161.688C370.861 161.707 371.352 161.619 371.808 161.431C372.264 161.243 372.674 160.958 373.01 160.597L373.929 161.66C373.468 162.146 372.907 162.526 372.285 162.774C371.663 163.022 370.994 163.131 370.325 163.095C369.689 163.144 369.049 163.058 368.448 162.844C367.847 162.63 367.297 162.292 366.834 161.852C366.372 161.413 366.006 160.881 365.762 160.291C365.517 159.702 365.399 159.067 365.415 158.429C365.391 157.818 365.493 157.209 365.714 156.638C365.935 156.068 366.27 155.549 366.699 155.113C367.128 154.677 367.642 154.334 368.209 154.104C368.776 153.875 369.383 153.764 369.995 153.778C370.609 153.76 371.22 153.871 371.788 154.104C372.357 154.338 372.87 154.687 373.295 155.131C373.72 155.575 374.047 156.103 374.255 156.681C374.463 157.259 374.547 157.874 374.503 158.487C374.503 158.659 374.489 158.874 374.474 159.032ZM367.066 157.841H372.924C372.852 157.114 372.512 156.44 371.971 155.95C371.429 155.459 370.725 155.188 369.995 155.188C369.265 155.188 368.56 155.459 368.019 155.95C367.478 156.44 367.138 157.114 367.066 157.841Z" fill="#051729"/>
<path d="M381.94 162.507C381.367 162.94 380.662 163.163 379.944 163.138C379.557 163.179 379.166 163.133 378.799 163.003C378.432 162.873 378.099 162.662 377.824 162.387C377.549 162.112 377.338 161.779 377.209 161.412C377.079 161.045 377.032 160.654 377.073 160.267V155.256H375.522V153.893H377.073V151.897H378.724V153.893H381.337V155.256H378.724V160.195C378.695 160.395 378.712 160.598 378.773 160.791C378.833 160.983 378.936 161.16 379.074 161.307C379.212 161.454 379.381 161.569 379.569 161.642C379.756 161.716 379.958 161.746 380.16 161.731C380.626 161.733 381.08 161.582 381.452 161.301L381.94 162.507Z" fill="#051729"/>
<path d="M398.536 155.185C398.536 157.797 396.641 159.391 393.511 159.391H390.539V163.038H388.817V150.978H393.511C396.641 150.978 398.536 152.572 398.536 155.185ZM396.813 155.185C396.813 153.462 395.665 152.485 393.454 152.485H390.583V157.884H393.454C395.665 157.884 396.828 156.907 396.828 155.185H396.813Z" fill="#051729"/>
<path d="M407.983 157.525V163.038H406.418V161.832C406.069 162.285 405.611 162.643 405.086 162.871C404.561 163.1 403.987 163.192 403.417 163.138C401.35 163.138 400.044 162.033 400.044 160.454C400.044 158.874 400.991 157.783 403.705 157.783H406.332V157.453C406.332 156.017 405.514 155.256 403.877 155.256C402.837 155.247 401.825 155.592 401.006 156.233L400.316 154.998C401.408 154.195 402.737 153.781 404.092 153.821C406.576 153.821 407.983 155.027 407.983 157.525ZM406.332 160.253V158.975H403.776C402.14 158.975 401.68 159.607 401.68 160.41C401.68 161.214 402.441 161.846 403.69 161.846C404.242 161.891 404.794 161.761 405.268 161.475C405.742 161.189 406.114 160.761 406.332 160.253Z" fill="#051729"/>
<path d="M409.892 162.076L410.582 160.769C411.536 161.385 412.647 161.714 413.783 161.717C415.319 161.717 415.965 161.243 415.965 160.468C415.965 158.429 410.223 160.195 410.223 156.563C410.223 154.926 411.658 153.821 414.027 153.821C415.187 153.802 416.331 154.089 417.344 154.653L416.64 155.96C415.853 155.469 414.94 155.22 414.013 155.242C412.577 155.242 411.859 155.773 411.859 156.491C411.859 158.645 417.602 156.893 417.602 160.439C417.602 162.09 416.08 163.138 413.654 163.138C412.322 163.17 411.011 162.8 409.892 162.076Z" fill="#051729"/>
<path d="M418.535 162.076L419.224 160.769C420.178 161.387 421.29 161.716 422.426 161.717C423.948 161.717 424.594 161.243 424.594 160.468C424.594 158.429 418.851 160.195 418.851 156.563C418.851 154.926 420.287 153.821 422.656 153.821C423.819 153.804 424.967 154.091 425.986 154.653L425.268 155.96C424.482 155.469 423.568 155.22 422.641 155.242C421.206 155.242 420.488 155.773 420.488 156.491C420.488 158.645 426.23 156.893 426.23 160.439C426.23 162.09 424.709 163.138 422.282 163.138C420.954 163.173 419.647 162.802 418.535 162.076Z" fill="#051729"/>
<path d="M441.951 153.907L438.548 163.038H437.027L434.399 156.118L431.729 163.038H430.135L426.747 153.907H428.312L430.968 161.186L433.725 153.907H435.16L437.859 161.214L440.587 153.907H441.951Z" fill="#051729"/>
<path d="M442.525 158.487C442.508 157.543 442.772 156.616 443.284 155.823C443.796 155.031 444.532 154.408 445.398 154.035C446.265 153.662 447.223 153.556 448.15 153.729C449.078 153.903 449.933 154.349 450.606 155.01C451.279 155.671 451.74 156.517 451.931 157.441C452.121 158.365 452.032 159.325 451.675 160.199C451.318 161.072 450.709 161.819 449.926 162.345C449.143 162.871 448.221 163.152 447.277 163.153C446.653 163.18 446.03 163.079 445.447 162.856C444.863 162.632 444.332 162.291 443.886 161.853C443.44 161.416 443.09 160.891 442.855 160.312C442.621 159.732 442.509 159.111 442.525 158.487ZM450.35 158.487C450.322 157.886 450.118 157.307 449.764 156.821C449.409 156.335 448.92 155.963 448.357 155.753C447.794 155.542 447.181 155.501 446.595 155.635C446.009 155.77 445.475 156.073 445.059 156.508C444.644 156.943 444.365 157.49 444.258 158.082C444.15 158.673 444.219 159.284 444.455 159.837C444.691 160.39 445.085 160.861 445.586 161.193C446.088 161.525 446.676 161.702 447.277 161.703C447.696 161.714 448.113 161.637 448.5 161.477C448.887 161.318 449.237 161.079 449.527 160.776C449.816 160.473 450.039 160.113 450.18 159.718C450.322 159.324 450.38 158.905 450.35 158.487Z" fill="#051729"/>
<path d="M459.222 153.821V155.429H458.835C458.433 155.401 458.03 155.464 457.656 155.612C457.281 155.76 456.944 155.989 456.67 156.283C456.395 156.577 456.189 156.929 456.066 157.312C455.944 157.696 455.909 158.102 455.963 158.501V163.052H454.255V153.921H455.834V155.457C456.185 154.89 456.69 154.435 457.29 154.145C457.89 153.855 458.56 153.743 459.222 153.821Z" fill="#051729"/>
<path d="M469.774 150.26V163.038H468.195V161.602C467.819 162.106 467.326 162.511 466.758 162.781C466.19 163.052 465.565 163.179 464.936 163.153C463.745 163.086 462.625 162.567 461.805 161.7C460.986 160.834 460.529 159.687 460.529 158.494C460.529 157.301 460.986 156.154 461.805 155.287C462.625 154.421 463.745 153.901 464.936 153.835C465.542 153.81 466.146 153.927 466.699 154.176C467.253 154.426 467.74 154.8 468.123 155.271V150.246L469.774 150.26ZM468.138 158.487C468.11 157.885 467.905 157.305 467.551 156.819C467.196 156.333 466.706 155.962 466.142 155.751C465.578 155.541 464.964 155.501 464.378 155.637C463.791 155.772 463.257 156.077 462.842 156.513C462.427 156.949 462.15 157.498 462.044 158.091C461.938 158.683 462.009 159.294 462.247 159.847C462.486 160.399 462.881 160.87 463.385 161.2C463.888 161.53 464.478 161.705 465.08 161.703C465.497 161.712 465.912 161.633 466.298 161.473C466.684 161.312 467.032 161.073 467.319 160.77C467.607 160.468 467.829 160.108 467.97 159.715C468.111 159.322 468.168 158.903 468.138 158.487Z" fill="#051729"/>
</g>
<path d="M496.09 179H308.247V211.159H496.09V179Z" fill="white"/>
<g opacity="0.4">
<path d="M326.235 189.839V199.056H325.431L319.502 191.577V199.056H318.526V189.839H319.301L325.245 197.319V189.839H326.235Z" fill="#051729"/>
<path d="M335.094 195.884H329.351C329.369 196.222 329.454 196.553 329.602 196.858C329.749 197.163 329.956 197.436 330.21 197.66C330.464 197.885 330.76 198.057 331.081 198.166C331.401 198.275 331.741 198.319 332.079 198.295C332.475 198.308 332.87 198.234 333.234 198.077C333.599 197.921 333.925 197.687 334.189 197.391L334.72 197.994C334.223 198.514 333.583 198.875 332.881 199.033C332.18 199.191 331.447 199.139 330.775 198.884C330.102 198.628 329.52 198.18 329.101 197.595C328.682 197.01 328.444 196.315 328.418 195.596C328.392 195.14 328.461 194.683 328.619 194.254C328.778 193.825 329.023 193.434 329.339 193.104C329.656 192.774 330.037 192.513 330.459 192.336C330.881 192.16 331.334 192.072 331.792 192.079C332.249 192.07 332.703 192.156 333.125 192.332C333.547 192.508 333.928 192.769 334.244 193.1C334.56 193.43 334.803 193.823 334.96 194.253C335.116 194.683 335.181 195.14 335.151 195.596C335.094 195.683 335.094 195.783 335.094 195.884ZM329.351 195.194H334.261C334.261 194.543 334.002 193.919 333.542 193.458C333.081 192.998 332.457 192.739 331.806 192.739C331.155 192.739 330.53 192.998 330.07 193.458C329.61 193.919 329.351 194.543 329.351 195.194Z" fill="#051729"/>
<path d="M347.024 192.136L344.411 199.056H343.521L341.339 193.385L339.157 199.056H338.266L335.668 192.136H336.529L338.697 198.023L340.922 192.136H341.726L343.937 198.023L346.134 192.136H347.024Z" fill="#051729"/>
<path d="M359.299 192.998C359.299 194.965 357.863 196.156 355.538 196.156H353.054V199.028H352.078V189.811H355.538C357.878 189.839 359.299 191.031 359.299 192.998ZM358.323 192.998C358.323 191.562 357.347 190.686 355.451 190.686H352.996V195.295H355.451C357.347 195.295 358.323 194.448 358.323 192.998Z" fill="#051729"/>
<path d="M366.363 194.764V199.071H365.473V197.994C365.216 198.382 364.859 198.694 364.439 198.896C364.02 199.099 363.553 199.184 363.089 199.143C361.524 199.143 360.562 198.324 360.562 197.133C360.562 195.941 361.252 195.166 363.233 195.166H365.429V194.749C365.455 194.492 365.42 194.232 365.329 193.989C365.238 193.747 365.093 193.529 364.904 193.351C364.716 193.174 364.489 193.042 364.242 192.966C363.994 192.889 363.733 192.871 363.477 192.912C362.633 192.897 361.812 193.188 361.165 193.73L360.749 193.027C361.566 192.386 362.583 192.055 363.62 192.093C363.985 192.049 364.355 192.087 364.703 192.204C365.051 192.321 365.368 192.515 365.632 192.771C365.895 193.028 366.097 193.34 366.223 193.684C366.35 194.029 366.398 194.398 366.363 194.764ZM365.429 196.975V195.84H363.262C361.912 195.84 361.481 196.372 361.481 197.09C361.481 197.807 362.127 198.396 363.233 198.396C363.703 198.424 364.169 198.301 364.564 198.045C364.959 197.789 365.262 197.414 365.429 196.975Z" fill="#051729"/>
<path d="M367.942 198.267L368.373 197.534C369.088 198.046 369.948 198.317 370.828 198.31C372.148 198.31 372.694 197.865 372.694 197.176C372.694 195.367 368.2 196.802 368.2 194.06C368.2 192.926 369.177 192.079 370.942 192.079C371.799 192.07 372.643 192.293 373.383 192.725L372.981 193.472C372.376 193.076 371.666 192.871 370.942 192.883C369.679 192.883 369.133 193.371 369.133 194.031C369.133 195.898 373.627 194.491 373.627 197.147C373.627 198.353 372.565 199.128 370.756 199.128C369.749 199.152 368.762 198.85 367.942 198.267Z" fill="#051729"/>
<path d="M374.388 198.267L374.804 197.534C375.529 198.04 376.391 198.31 377.274 198.31C378.58 198.31 379.126 197.865 379.126 197.175C379.126 195.367 374.632 196.802 374.632 194.06C374.632 192.926 375.608 192.079 377.374 192.079C378.236 192.071 379.083 192.294 379.829 192.725L379.413 193.471C378.809 193.073 378.098 192.867 377.374 192.883C376.125 192.883 375.565 193.371 375.565 194.031C375.565 195.898 380.059 194.491 380.059 197.147C380.059 198.353 379.011 199.128 377.188 199.128C376.185 199.154 375.202 198.851 374.388 198.267Z" fill="#051729"/>
<path d="M391.817 192.136L389.204 199.056H388.314L386.132 193.385L383.907 199.056H383.016L380.418 192.136H381.308L383.476 198.023L385.701 192.136H386.505L388.716 198.023L390.913 192.136H391.817Z" fill="#051729"/>
<path d="M392.334 195.596C392.337 194.902 392.545 194.224 392.933 193.648C393.32 193.071 393.87 192.623 394.512 192.358C395.154 192.094 395.86 192.025 396.541 192.162C397.222 192.298 397.847 192.632 398.339 193.123C398.83 193.615 399.164 194.24 399.3 194.921C399.437 195.602 399.368 196.308 399.104 196.95C398.839 197.592 398.391 198.142 397.814 198.529C397.238 198.917 396.56 199.125 395.866 199.128C395.397 199.146 394.93 199.067 394.493 198.896C394.056 198.725 393.66 198.466 393.328 198.134C392.996 197.802 392.737 197.406 392.566 196.969C392.395 196.532 392.316 196.065 392.334 195.596ZM398.421 195.596C398.396 195.094 398.224 194.61 397.926 194.204C397.628 193.798 397.217 193.489 396.745 193.315C396.273 193.141 395.76 193.109 395.27 193.223C394.78 193.337 394.335 193.593 393.989 193.959C393.643 194.324 393.411 194.783 393.324 195.279C393.236 195.774 393.296 196.285 393.496 196.746C393.696 197.208 394.027 197.601 394.448 197.877C394.87 198.152 395.362 198.298 395.866 198.295C396.215 198.3 396.561 198.232 396.883 198.097C397.205 197.961 397.495 197.76 397.735 197.506C397.975 197.252 398.16 196.952 398.278 196.623C398.396 196.294 398.445 195.945 398.421 195.596Z" fill="#051729"/>
<path d="M404.781 192.079V192.998H404.552C404.223 192.98 403.893 193.035 403.588 193.159C403.283 193.283 403.009 193.474 402.787 193.717C402.564 193.96 402.398 194.25 402.301 194.565C402.204 194.88 402.179 195.213 402.226 195.539V199.071H401.278V192.151H402.183V193.5C402.421 193.028 402.797 192.64 403.261 192.386C403.725 192.132 404.255 192.025 404.781 192.079Z" fill="#051729"/>
<path d="M412.706 189.294V199.056H411.816V197.692C411.54 198.148 411.146 198.522 410.677 198.774C410.207 199.027 409.679 199.149 409.146 199.128C408.25 199.071 407.409 198.675 406.795 198.02C406.181 197.365 405.839 196.501 405.839 195.604C405.839 194.706 406.181 193.842 406.795 193.187C407.409 192.532 408.25 192.136 409.146 192.079C409.671 192.067 410.19 192.194 410.651 192.446C411.112 192.698 411.499 193.066 411.773 193.515V189.351L412.706 189.294ZM411.787 195.596C411.762 195.094 411.59 194.611 411.293 194.205C410.996 193.8 410.586 193.491 410.115 193.316C409.644 193.141 409.131 193.109 408.642 193.222C408.152 193.335 407.706 193.589 407.36 193.953C407.013 194.317 406.781 194.775 406.692 195.27C406.603 195.764 406.66 196.274 406.858 196.737C407.056 197.199 407.385 197.593 407.804 197.87C408.224 198.147 408.715 198.295 409.218 198.295C409.568 198.302 409.916 198.236 410.24 198.101C410.563 197.966 410.855 197.765 411.097 197.511C411.338 197.258 411.524 196.956 411.643 196.627C411.762 196.297 411.811 195.946 411.787 195.596Z" fill="#051729"/>
</g>
<path d="M572.784 461.687C572.784 461.687 563.912 462.864 560.121 461.687C556.331 460.51 557.753 443.311 553.891 442.952C544.975 442.133 546.497 464.975 550.287 469.784C554.077 474.594 573.588 472.555 573.588 472.555L572.784 461.687Z" fill="#106DCC"/>
<path opacity="0.2" d="M572.784 461.687C572.784 461.687 563.912 462.864 560.121 461.687C556.331 460.51 557.753 443.311 553.891 442.952C544.975 442.133 546.497 464.975 550.287 469.784C554.077 474.594 573.588 472.555 573.588 472.555L572.784 461.687Z" fill="white"/>
<path d="M573.516 502.188C573.516 502.188 560.38 385.553 576.057 384.218C591.735 382.883 595.525 424.001 589.467 500.709L573.516 502.188Z" fill="#106DCC"/>
<path opacity="0.3" d="M573.516 502.188C573.516 502.188 560.38 385.553 576.057 384.218C591.735 382.883 595.525 424.001 589.467 500.709L573.516 502.188Z" fill="white"/>
<path d="M555.097 488.075H606.68L602.373 521.067H559.404L555.097 488.075Z" fill="#051729"/>
<path d="M589.093 422.45C589.093 422.45 603.45 423.211 603.809 422.45C604.168 421.689 604.24 405.222 610.298 406.155C616.357 407.088 613.701 427.001 610.298 429.313C606.896 431.624 589.093 432.873 589.093 432.873C589.093 432.873 586.71 425.522 589.093 422.45Z" fill="#106DCC"/>
<path opacity="0.4" d="M589.093 422.45C589.093 422.45 603.45 423.211 603.809 422.45C604.168 421.689 604.24 405.222 610.298 406.155C616.357 407.088 613.701 427.001 610.298 429.313C606.896 431.624 589.093 432.873 589.093 432.873C589.093 432.873 586.71 425.522 589.093 422.45Z" fill="white"/>
<path d="M580.034 491.564C576.861 460.452 573.416 429.183 574.205 397.871C574.435 395.474 574.593 383.73 578.584 385.525C579.096 385.952 579.487 386.507 579.718 387.133C580.94 390.91 581.711 394.818 582.016 398.776C585.03 429.959 584.801 461.343 584.643 492.626C584.054 461.371 584.011 430.016 580.953 398.905C580.551 395.101 578.254 378.404 575.914 391.31C575.143 397.942 574.86 404.622 575.067 411.295C575.598 438.099 577.766 464.846 580.034 491.564Z" fill="#106DCC"/>
<path d="M590.888 426.37C595.08 425.968 602.546 425.709 606.135 424.776C606.135 419.852 607.872 413.161 609.638 407.921C609.135 410.261 608.647 413.664 608.202 416.119C607.634 419.075 607.288 422.07 607.169 425.077C606.939 425.781 606.063 425.91 605.503 426.054C600.645 426.712 595.727 426.818 590.845 426.37H590.888Z" fill="#106DCC"/>
<path d="M590.888 430.174C596.875 429.068 603.551 428.638 609.422 427.231C610.944 424.819 610.858 421.416 611.289 418.617C611.633 415.487 611.892 412.343 612.193 409.199C612.358 412.36 612.358 415.527 612.193 418.689C612.139 421.51 611.704 424.311 610.901 427.015C610.735 427.527 610.395 427.964 609.939 428.25C603.677 429.48 597.313 430.124 590.931 430.174H590.888Z" fill="#106DCC"/>
<path d="M568.362 464.874C564.228 464.961 559.949 465.161 555.944 463.783C554.955 462.914 554.33 461.704 554.192 460.395C553.678 457.785 553.419 455.131 553.417 452.47C553.357 449.83 553.448 447.189 553.69 444.56C553.891 447.187 554.049 449.814 554.278 452.427C554.451 455.02 554.787 457.6 555.283 460.151C555.585 461.328 555.872 462.807 556.834 463.022C560.604 463.966 564.445 464.595 568.319 464.903L568.362 464.874Z" fill="#106DCC"/>
<path d="M551.048 446.641L551.981 455.815C552.555 459.821 552.455 464.185 554.048 467.889C554.3 468.078 554.575 468.233 554.867 468.349C559.174 469.784 563.869 469.885 568.362 470.416C565.28 470.576 562.19 470.514 559.116 470.229C556.992 469.87 553.374 469.942 552.641 467.358C550.861 460.596 550.962 453.518 551.048 446.584V446.641Z" fill="#106DCC"/>
<path d="M518.86 121.977C523.337 114.176 530.728 108.469 539.409 106.111C548.09 103.753 557.351 104.936 565.161 109.401L563.725 111.827L573.344 109.214L570.731 99.5952L569.295 102.007C560.579 97.012 550.374 95.2708 540.495 97.0931C530.616 98.9155 521.703 104.183 515.343 111.959C508.983 119.736 505.588 129.516 505.761 139.56C505.935 149.604 509.666 159.262 516.29 166.814L522.693 161.2C518.048 155.876 515.181 149.235 514.494 142.203C513.807 135.171 515.333 128.1 518.86 121.977Z" fill="#051729"/>
<path d="M580.594 111.382L574.134 116.852C579.3 122.939 582.154 130.653 582.194 138.636C582.233 146.62 579.456 154.362 574.351 160.499C569.245 166.637 562.139 170.778 554.281 172.193C546.424 173.608 538.319 172.206 531.394 168.235L532.829 165.809L523.167 168.536L525.78 178.155L527.216 175.729C535.886 180.662 546.017 182.383 555.83 180.592C565.643 178.801 574.512 173.611 580.881 165.934C587.25 158.256 590.712 148.581 590.66 138.606C590.607 128.63 587.044 118.992 580.594 111.382Z" fill="#051729"/>
<g opacity="0.6">
<path d="M518.86 121.977C523.337 114.176 530.728 108.469 539.409 106.111C548.09 103.753 557.351 104.936 565.161 109.401L563.725 111.827L573.344 109.214L570.731 99.5952L569.295 102.007C560.579 97.012 550.374 95.2708 540.495 97.0931C530.616 98.9155 521.703 104.183 515.343 111.959C508.983 119.736 505.588 129.516 505.761 139.56C505.935 149.604 509.666 159.262 516.29 166.814L522.693 161.2C518.048 155.876 515.181 149.235 514.494 142.203C513.807 135.171 515.333 128.1 518.86 121.977Z" fill="white"/>
<path d="M580.594 111.382L574.134 116.852C579.3 122.939 582.154 130.653 582.194 138.636C582.233 146.62 579.456 154.362 574.351 160.499C569.245 166.637 562.139 170.778 554.281 172.193C546.424 173.608 538.319 172.206 531.394 168.235L532.829 165.809L523.167 168.536L525.78 178.155L527.216 175.729C535.886 180.662 546.017 182.383 555.83 180.592C565.643 178.801 574.512 173.611 580.881 165.934C587.25 158.256 590.712 148.581 590.66 138.606C590.607 128.63 587.044 118.992 580.594 111.382Z" fill="white"/>
</g>
<path d="M542.147 98.6046H532.786V69.8911C532.786 64.6099 530.688 59.545 526.954 55.8106C523.219 52.0762 518.154 49.9783 512.873 49.9783C507.592 49.9783 502.527 52.0762 498.793 55.8106C495.058 59.545 492.96 64.6099 492.96 69.8911V98.6046H483.6V69.8911C483.6 62.1273 486.684 54.6815 492.174 49.1917C497.664 43.7018 505.109 40.6177 512.873 40.6177C520.637 40.6177 528.083 43.7018 533.573 49.1917C539.063 54.6815 542.147 62.1273 542.147 69.8911V98.6046Z" fill="#051729"/>
<g opacity="0.3">
<path d="M542.147 98.6046H532.786V69.8911C532.786 64.6099 530.688 59.545 526.954 55.8106C523.219 52.0762 518.154 49.9783 512.873 49.9783C507.592 49.9783 502.527 52.0762 498.793 55.8106C495.058 59.545 492.96 64.6099 492.96 69.8911V98.6046H483.6V69.8911C483.6 62.1273 486.684 54.6815 492.174 49.1917C497.664 43.7018 505.109 40.6177 512.873 40.6177C520.637 40.6177 528.083 43.7018 533.573 49.1917C539.063 54.6815 542.147 62.1273 542.147 69.8911V98.6046Z" fill="white"/>
</g>
<path d="M552.871 91.297V138.287C552.871 139.003 552.73 139.713 552.456 140.374C552.182 141.036 551.78 141.638 551.273 142.144C550.767 142.651 550.165 143.053 549.503 143.327C548.842 143.601 548.132 143.742 547.416 143.742H478.302C477.588 143.74 476.88 143.598 476.221 143.323C475.562 143.047 474.963 142.645 474.459 142.138C473.955 141.632 473.556 141.031 473.284 140.37C473.012 139.709 472.873 139.001 472.875 138.287V91.297C472.873 90.5825 473.012 89.8745 473.284 89.2136C473.556 88.5528 473.955 87.9519 474.459 87.4453C474.963 86.9387 475.562 86.5363 476.221 86.2611C476.88 85.9859 477.588 85.8433 478.302 85.8414H547.416C548.32 85.835 549.21 86.0625 550 86.5019C550.869 86.9642 551.596 87.6551 552.102 88.5001C552.608 89.3451 552.874 90.3121 552.871 91.297Z" fill="#106DCC"/>
<path opacity="0.2" d="M550 86.5019V132.544C550 133.26 549.859 133.968 549.584 134.63C549.31 135.291 548.908 135.891 548.401 136.397C547.894 136.902 547.293 137.303 546.631 137.575C545.969 137.848 545.26 137.987 544.544 137.985H475.431C474.538 137.988 473.659 137.766 472.875 137.339V91.297C472.873 90.5825 473.012 89.8745 473.284 89.2136C473.556 88.5528 473.955 87.9519 474.459 87.4453C474.963 86.9387 475.562 86.5363 476.221 86.2611C476.88 85.9859 477.588 85.8433 478.302 85.8414H547.416C548.32 85.835 549.21 86.0625 550 86.5019Z" fill="white"/>
<path opacity="0.5" d="M523.167 108.898C523.141 107.025 522.604 105.194 521.613 103.603C520.623 102.012 519.218 100.721 517.548 99.8707C515.878 99.0199 514.008 98.641 512.139 98.7748C510.27 98.9087 508.473 99.5502 506.941 100.63C505.41 101.71 504.203 103.188 503.449 104.904C502.696 106.619 502.425 108.508 502.666 110.367C502.907 112.225 503.651 113.982 504.817 115.449C505.983 116.916 507.528 118.036 509.284 118.69L508.81 131.209H517.037L515.816 118.934C517.956 118.271 519.826 116.938 521.15 115.131C522.474 113.324 523.181 111.139 523.167 108.898Z" fill="#0E151D"/>
<path d="M183.443 121.978L188.21 137.296L192.962 121.978H183.443Z" fill="#106DCC"/>
<path d="M227.174 85.3821H149.231C142.42 85.3821 136.898 90.9035 136.898 97.7145V114.325C136.898 121.136 142.42 126.658 149.231 126.658H227.174C233.985 126.658 239.506 121.136 239.506 114.325V97.7145C239.506 90.9035 233.985 85.3821 227.174 85.3821Z" fill="#106DCC"/>
<path d="M161.018 105.998L163.717 107.52L163.013 108.755L160.271 107.147V110.234H158.836V107.147L156.093 108.755L155.39 107.52L158.118 105.998L155.39 104.563L156.093 103.299L158.836 104.907V101.778H160.271V104.836L163.013 103.228L163.717 104.491L161.018 105.998Z" fill="white"/>
<path d="M170.551 105.998L173.25 107.52L172.546 108.755L169.804 107.147V110.234H168.455V107.147L165.684 108.755L164.98 107.52L167.708 105.998L164.98 104.563L165.684 103.299L168.426 104.907V101.778H169.775V104.836L172.518 103.228L173.221 104.491L170.551 105.998Z" fill="white"/>
<path d="M180.04 105.998L182.74 107.52L182.036 108.755L179.294 107.147V110.234H177.858V107.147L175.116 108.755L174.413 107.52L177.126 105.998L174.413 104.563L175.116 103.299L177.858 104.907V101.849H179.294V104.907L182.036 103.299L182.74 104.563L180.04 105.998Z" fill="white"/>
<path d="M189.616 105.998L192.316 107.52L191.612 108.755L188.87 107.147V110.234H187.506V107.147L184.764 108.755L184.06 107.52L186.774 105.998L184.06 104.563L184.764 103.299L187.506 104.907V101.849H188.87V104.907L191.612 103.299L192.316 104.563L189.616 105.998Z" fill="white"/>
<path d="M199.149 105.998L201.848 107.52L201.145 108.755L198.388 107.147V110.234H196.953V107.147L194.397 108.755L193.679 107.52L196.407 105.998L193.679 104.563L194.397 103.299L197.139 104.907V101.849H198.575V104.907L201.332 103.299L202.035 104.563L199.149 105.998Z" fill="white"/>
<path d="M208.668 105.998L211.381 107.52L210.678 108.755L207.921 107.147V110.234H206.557V107.147L203.801 108.755L203.097 107.52L205.825 105.998L203.097 104.563L203.801 103.299L206.557 104.907V101.849H207.921V104.907L210.678 103.299L211.381 104.563L208.668 105.998Z" fill="white"/>
<path d="M218.201 105.998L220.9 107.52L220.196 108.755L217.454 107.147V110.234H216.018V107.147L213.276 108.755L212.573 107.52L215.301 105.998L212.573 104.563L213.276 103.299L216.018 104.907V101.778H217.454V104.836L220.196 103.228L220.9 104.491L218.201 105.998Z" fill="white"/>
<path d="M250.489 228.935L259.247 223.264L249.384 217.206C249.384 217.206 241.875 222.733 244.89 226.48L250.489 228.935Z" fill="#F4DDD7"/>
<path d="M263.741 213.947L253.49 211.621L249.384 217.206L259.247 223.264L263.741 213.947Z" fill="#F4DDD7"/>
<path d="M214.497 210.53C220.039 218.914 225.595 229.107 233.161 235.64C233.304 235.755 233.247 235.64 232.687 235.64C232.4 235.712 232.543 235.855 233.132 235.64C234.855 234.658 236.371 233.351 237.597 231.792C240.405 228.389 242.903 224.742 245.062 220.895C245.163 220.737 245.062 220.895 245.062 221.068C245.026 221.33 245.026 221.595 245.062 221.857C245.192 221.986 244.732 221.613 245.622 223.58C246.042 224.208 246.638 224.697 247.336 224.985C248.034 225.274 248.801 225.35 249.542 225.202C250.016 225.1 250.463 224.901 250.856 224.616C251.249 224.332 251.579 223.97 251.824 223.551C251.6 223.816 251.398 224.1 251.221 224.398L244.79 221.656C244.945 220.743 245.32 219.881 245.881 219.144C246.4 218.559 247.087 218.148 247.848 217.967C248.594 217.82 249.366 217.898 250.069 218.189C250.771 218.48 251.372 218.972 251.796 219.603C252.686 221.585 252.241 221.211 252.37 221.355C252.386 221.813 252.343 222.272 252.241 222.719C249.987 232.295 244.1 248.073 231.897 248.159C223.283 247.369 216.751 237.908 211.913 231.936C208.479 227.338 205.315 222.544 202.437 217.579L214.425 210.544L214.497 210.53Z" fill="#F4DDD7"/>
<path d="M210.075 204.227C215.818 206.122 227.461 232.582 227.461 232.582L207.677 241.971C207.677 241.971 203.658 221.182 204.447 214.478C204.942 210.467 206.956 206.798 210.075 204.227Z" fill="#106DCC"/>
<path opacity="0.7" d="M210.075 204.227C215.818 206.122 227.461 232.582 227.461 232.582L207.677 241.971C207.677 241.971 203.658 221.182 204.447 214.478C204.942 210.467 206.956 206.798 210.075 204.227Z" fill="white"/>
<path d="M233.333 510.988L223.254 513.845L220.857 498.153L219.565 489.769L229.643 486.912L231.366 498.153L233.333 510.988Z" fill="#F4DDD7"/>
<path d="M175.389 511.806L164.995 513.185L164.894 498.153L164.822 488.807L175.231 487.457L175.303 498.153L175.389 511.806Z" fill="#F4DDD7"/>
<path opacity="0.2" d="M175.231 487.457L175.303 498.153H164.894L164.822 488.807L175.231 487.457Z" fill="#0E151D"/>
<path opacity="0.2" d="M231.366 498.153H220.857L219.565 489.769L229.643 486.912L231.366 498.153Z" fill="#0E151D"/>
<path d="M233.161 509.409L221.675 509.107C221.467 509.101 221.262 509.165 221.095 509.291C220.928 509.416 220.808 509.594 220.756 509.797L218.359 519.014C218.283 519.236 218.264 519.473 218.301 519.705C218.339 519.936 218.432 520.155 218.574 520.342C218.716 520.529 218.901 520.678 219.114 520.777C219.326 520.876 219.56 520.921 219.794 520.909C223.929 520.909 229.844 520.909 235.084 521.009C241.157 521.181 245.019 520.88 252.14 521.009C256.447 521.124 257.782 516.831 256.002 516.386C247.862 514.376 242.55 514.778 235.616 510.242C234.889 509.744 234.04 509.456 233.161 509.409Z" fill="#051729"/>
<path d="M234.036 510.687C234.028 510.635 234.035 510.583 234.059 510.536C234.082 510.49 234.119 510.452 234.166 510.428C234.654 510.199 238.946 508.174 240.195 508.921C240.314 508.989 240.412 509.088 240.48 509.206C240.548 509.325 240.584 509.459 240.583 509.596C240.597 509.821 240.557 510.046 240.467 510.253C240.377 510.46 240.24 510.643 240.066 510.787C238.889 511.763 235.903 511.275 234.223 510.888C234.174 510.879 234.13 510.854 234.096 510.818C234.063 510.782 234.042 510.736 234.036 510.687ZM235.056 510.572C237.367 511.017 239.09 510.959 239.75 510.4C239.867 510.309 239.959 510.191 240.017 510.055C240.075 509.919 240.097 509.771 240.081 509.624C240.085 509.57 240.074 509.515 240.048 509.467C240.023 509.419 239.984 509.379 239.937 509.352H239.851C239.061 509.021 236.75 509.825 235.056 510.572Z" fill="#106DCC"/>
<path d="M234.123 510.844C234.088 510.822 234.061 510.789 234.045 510.75C234.03 510.712 234.027 510.669 234.036 510.629C234.187 509.149 234.806 507.756 235.802 506.652C235.999 506.488 236.23 506.368 236.478 506.301C236.725 506.234 236.985 506.222 237.238 506.265C237.913 506.351 238.099 506.695 238.142 506.982C238.286 508.16 235.702 510.356 234.41 510.887C234.353 510.902 234.294 510.902 234.237 510.887L234.123 510.844ZM237.123 506.753C236.943 506.728 236.759 506.742 236.584 506.791C236.408 506.84 236.245 506.925 236.104 507.04C235.308 507.923 234.807 509.032 234.668 510.213C235.989 509.48 237.755 507.758 237.654 507.04C237.654 507.04 237.654 506.882 237.439 506.81L237.123 506.753Z" fill="#106DCC"/>
<path d="M174.973 509.409L163.487 509.107C163.279 509.101 163.074 509.165 162.907 509.291C162.74 509.416 162.62 509.594 162.568 509.797L160.156 519.014C160.097 519.235 160.09 519.467 160.134 519.692C160.178 519.917 160.273 520.129 160.412 520.312C160.55 520.494 160.728 520.643 160.933 520.747C161.137 520.85 161.363 520.905 161.592 520.909C165.713 520.909 171.642 520.909 176.882 521.009C182.955 521.181 186.803 520.88 193.924 521.009C198.231 521.124 199.58 516.831 197.786 516.386C189.66 514.376 184.333 514.778 177.413 510.242C176.69 509.748 175.847 509.461 174.973 509.409Z" fill="#051729"/>
<path d="M175.734 510.687C175.726 510.634 175.736 510.58 175.762 510.533C175.788 510.487 175.828 510.45 175.877 510.428C176.365 510.199 180.644 508.174 181.893 508.921C182.011 508.989 182.109 509.088 182.177 509.206C182.245 509.325 182.281 509.459 182.28 509.596C182.296 509.82 182.258 510.044 182.171 510.251C182.084 510.458 181.949 510.642 181.778 510.787C180.586 511.763 177.6 511.275 175.92 510.888C175.873 510.875 175.831 510.85 175.798 510.814C175.765 510.778 175.743 510.734 175.734 510.687ZM176.767 510.572C179.064 511.017 180.802 510.959 181.462 510.4C181.577 510.308 181.667 510.189 181.725 510.053C181.782 509.918 181.805 509.771 181.792 509.624C181.792 509.569 181.777 509.515 181.75 509.467C181.722 509.419 181.682 509.379 181.634 509.352H181.548C180.83 509.021 178.519 509.825 176.825 510.572H176.767Z" fill="#106DCC"/>
<path d="M175.891 510.844C175.855 510.822 175.827 510.79 175.809 510.752C175.791 510.713 175.785 510.671 175.791 510.629C175.949 509.148 176.572 507.756 177.571 506.652C177.768 506.487 177.998 506.367 178.246 506.3C178.494 506.233 178.754 506.221 179.007 506.264C179.682 506.351 179.868 506.695 179.897 506.982C180.055 508.16 177.456 510.356 176.179 510.887C176.117 510.901 176.053 510.901 175.992 510.887L175.891 510.844ZM178.892 506.753C178.711 506.728 178.528 506.74 178.352 506.79C178.177 506.839 178.014 506.924 177.873 507.04C177.083 507.927 176.583 509.034 176.437 510.213C177.758 509.48 179.524 507.758 179.438 507.04C179.425 506.984 179.397 506.932 179.356 506.891C179.316 506.851 179.264 506.822 179.208 506.81C179.107 506.772 179 506.752 178.892 506.753Z" fill="#106DCC"/>
<path d="M153.954 283.39C148.441 307.251 157.888 494.995 157.888 494.995H176.15L183.96 338.506L212.673 494.995L232.199 493.559C219.436 372.359 208.165 300.001 208.165 300.001V290.856L153.954 283.39Z" fill="#051729"/>
<path opacity="0.2" d="M232.227 493.53L212.702 494.966L190.09 371.785L183.974 338.492L176.164 494.98H157.902C157.902 494.98 148.456 307.208 153.954 283.39L208.223 290.87V300.015C208.223 300.015 219.464 372.402 232.227 493.53Z" fill="white"/>
<path d="M152.763 202.691C154.675 213.957 155.745 225.349 155.964 236.774C156.151 244.742 155.964 252.322 155.691 259.185C154.974 275.279 153.423 287.453 153.495 291.631L208.28 292.607C221.345 235.324 210.118 204.227 210.118 204.227C205.871 203.048 201.556 202.127 197.197 201.471C196.24 201.346 195.283 201.231 194.326 201.126C186.578 200.537 178.803 200.393 171.039 200.695C169.603 200.695 168.067 200.825 166.617 200.939C159.295 201.557 152.763 202.691 152.763 202.691Z" fill="#106DCC"/>
<path d="M196.106 202.993C196.106 202.993 192.847 207.716 190.234 208.046C186.53 208.549 173.006 200.265 173.006 200.265C176.136 197.953 177.672 192.914 178.346 187.588C178.829 183.264 178.92 178.906 178.619 174.566L191.268 188.32C189.602 192.627 188.612 197.221 191.885 200.451C193.088 201.598 194.529 202.466 196.106 202.993Z" fill="#F4DDD7"/>
<path opacity="0.2" d="M191.856 200.408C186.285 197.368 181.614 192.911 178.318 187.487C178.8 183.164 178.892 178.805 178.591 174.466L191.239 188.219C189.573 192.569 188.655 197.25 191.856 200.408Z" fill="#0E151D"/>
<path d="M205.883 162.162C206.959 166.139 205.883 174.207 200.542 171.336C195.201 168.464 204.088 155.299 205.883 162.162Z" fill="#051729"/>
<path d="M177.342 166.254C176.294 176.303 175.174 182.19 179.38 188.119C185.726 197.02 198.862 194.364 202.897 184.759C206.543 176.145 207.634 161.071 198.489 155.558C196.46 154.338 194.155 153.653 191.789 153.567C189.423 153.481 187.074 153.996 184.961 155.065C182.848 156.133 181.041 157.72 179.709 159.677C178.376 161.634 177.562 163.896 177.342 166.254Z" fill="#F4DDD7"/>
<path d="M184.663 161.056L185.166 149.758C185.166 149.758 173.164 148.322 173.437 154.524C166.631 157.539 169.33 168.034 178.059 173.504C183.142 169.8 182.984 160.31 182.984 160.31C183.501 160.568 184.075 160.812 184.663 161.056Z" fill="#051729"/>
<path d="M172.101 173.934C172.285 175.181 172.715 176.379 173.366 177.459C174.016 178.538 174.875 179.478 175.891 180.223C178.619 182.204 181.189 180.022 181.419 176.834C181.634 173.963 180.471 169.469 177.255 168.752C176.546 168.612 175.813 168.65 175.122 168.861C174.43 169.073 173.802 169.452 173.292 169.964C172.782 170.477 172.407 171.108 172.199 171.8C171.991 172.493 171.958 173.226 172.101 173.934Z" fill="#F4DDD7"/>
<path d="M192.086 171.408C191.942 172.226 192.273 172.944 192.804 173.03C193.335 173.116 193.88 172.527 194.01 171.709C194.139 170.891 193.823 170.173 193.292 170.087C192.761 170.001 192.215 170.589 192.086 171.408Z" fill="#051729"/>
<path d="M201.303 172.843C201.174 173.662 201.504 174.394 202.035 174.465C202.566 174.537 203.112 173.963 203.241 173.145C203.37 172.326 203.054 171.608 202.523 171.522C201.992 171.436 201.446 172.039 201.303 172.843Z" fill="#051729"/>
<path d="M198.302 172.843C198.919 175.404 199.885 177.868 201.174 180.165C200.546 180.445 199.866 180.589 199.178 180.589C198.491 180.589 197.811 180.445 197.183 180.165L198.302 172.843Z" fill="#E4BDB4"/>
<path d="M192.287 182.606C192.63 182.714 192.98 182.796 193.335 182.85C193.398 182.858 193.461 182.842 193.512 182.805C193.563 182.767 193.597 182.711 193.608 182.649C193.614 182.617 193.614 182.584 193.607 182.552C193.6 182.52 193.587 182.49 193.568 182.463C193.549 182.436 193.525 182.413 193.498 182.396C193.47 182.379 193.439 182.367 193.407 182.362C192.393 182.226 191.426 181.854 190.583 181.275C189.74 180.697 189.045 179.928 188.554 179.031C188.543 179.001 188.526 178.973 188.504 178.95C188.482 178.927 188.455 178.908 188.425 178.896C188.395 178.884 188.363 178.878 188.331 178.879C188.299 178.88 188.267 178.888 188.238 178.902C188.18 178.927 188.134 178.974 188.109 179.034C188.085 179.093 188.085 179.159 188.109 179.218C188.537 180.038 189.128 180.762 189.847 181.345C190.565 181.928 191.396 182.357 192.287 182.606Z" fill="#051729"/>
<path d="M189.731 167.991C189.813 168.018 189.901 168.022 189.985 168.001C190.069 167.981 190.145 167.938 190.205 167.876C190.638 167.444 191.166 167.117 191.746 166.923C192.327 166.729 192.944 166.672 193.55 166.756C193.612 166.77 193.675 166.772 193.737 166.762C193.799 166.751 193.858 166.729 193.912 166.696C193.965 166.662 194.011 166.619 194.048 166.568C194.084 166.516 194.11 166.458 194.125 166.397C194.139 166.336 194.141 166.272 194.13 166.21C194.12 166.148 194.097 166.089 194.064 166.036C194.031 165.982 193.987 165.936 193.936 165.9C193.885 165.863 193.827 165.837 193.766 165.823C193.004 165.694 192.223 165.75 191.488 165.987C190.753 166.225 190.086 166.636 189.545 167.187C189.454 167.278 189.402 167.402 189.402 167.531C189.402 167.661 189.454 167.784 189.545 167.876C189.598 167.927 189.662 167.966 189.731 167.991Z" fill="#051729"/>
<path d="M205.883 170.302C205.971 170.331 206.067 170.331 206.156 170.302C206.279 170.265 206.383 170.181 206.445 170.069C206.507 169.956 206.521 169.823 206.486 169.699C206.284 168.958 205.905 168.277 205.383 167.715C204.86 167.152 204.209 166.725 203.485 166.469C203.362 166.437 203.23 166.453 203.118 166.515C203.006 166.576 202.922 166.678 202.882 166.799C202.847 166.923 202.861 167.056 202.923 167.168C202.985 167.281 203.089 167.365 203.212 167.402C203.787 167.604 204.301 167.946 204.71 168.398C205.118 168.849 205.408 169.395 205.553 169.986C205.578 170.062 205.621 170.13 205.678 170.185C205.736 170.24 205.806 170.28 205.883 170.302Z" fill="#051729"/>
<path d="M173.436 154.524C173.436 154.524 167.234 148.365 188.281 148.925C209.328 149.485 212.831 161.286 203.184 164.028L202.753 162.104C201.096 162.959 199.276 163.449 197.414 163.543C195.552 163.637 193.691 163.333 191.957 162.65L193.478 161.702C193.478 161.702 179.107 163.167 173.436 154.524Z" fill="#051729"/>
<path d="M190.234 208.003C190.234 208.003 187.549 211.104 184.491 214.162C180.026 211.908 169.575 205.864 170.134 200.279C170.752 198.657 175.001 197.623 175.001 197.623C175.001 197.623 179.509 203.639 190.234 208.003Z" fill="#106DCC"/>
<path d="M190.234 208.003C192.43 209.773 194.364 211.847 195.977 214.162C199.264 212.037 197.613 201.643 196.407 200.494C194.669 199.545 192.718 199.051 190.736 199.059C191.387 200.478 191.681 202.034 191.594 203.593C191.506 205.152 191.039 206.666 190.234 208.003Z" fill="#106DCC"/>
<g opacity="0.5">
<path d="M190.234 208.003C190.234 208.003 187.549 211.104 184.491 214.162C180.026 211.908 169.575 205.864 170.134 200.279C170.752 198.657 175.001 197.623 175.001 197.623C175.001 197.623 179.509 203.639 190.234 208.003Z" fill="white"/>
<path d="M190.234 208.003C192.43 209.773 194.364 211.847 195.977 214.162C199.264 212.037 197.613 201.643 196.407 200.494C194.669 199.545 192.718 199.051 190.736 199.059C191.387 200.478 191.681 202.034 191.594 203.593C191.506 205.152 191.039 206.666 190.234 208.003Z" fill="white"/>
</g>
<path opacity="0.2" d="M190.09 371.785L183.974 338.492L185.152 320.876C185.152 320.876 193.522 351.427 190.09 371.785Z" fill="#0E151D"/>
<path d="M158.505 217.895C153.193 226.753 144.967 239.43 140.459 248.432C138.061 253.528 137.315 258.984 136.008 264.482C134.759 270.354 133.51 276.341 132.132 282.256L125.27 281.653C125.025 275.437 125.083 269.278 125.456 263.061C125.93 256.586 126.275 249.594 128.715 243.45C133.568 231.634 139.957 221.068 146.805 210.429L158.505 217.923V217.895Z" fill="#F4DDD7"/>
<path d="M152.763 202.691C145.053 204.687 131.228 232.395 131.228 232.395L147.609 243.005L162.382 228.648C163.23 223.451 162.911 218.13 161.449 213.071C159.051 204.428 152.763 202.691 152.763 202.691Z" fill="#106DCC"/>
<path opacity="0.7" d="M152.763 202.691C145.053 204.687 131.228 232.395 131.228 232.395L147.609 243.005L162.382 228.648C163.23 223.451 162.911 218.13 161.449 213.071C159.051 204.428 152.763 202.691 152.763 202.691Z" fill="white"/>
<path d="M158.574 288.105L272.378 167.423C272.991 166.773 273.726 166.25 274.542 165.884C275.357 165.518 276.236 165.316 277.13 165.29C278.023 165.263 278.913 165.413 279.748 165.731C280.583 166.049 281.348 166.528 281.998 167.141L284.745 169.731C286.058 170.97 286.825 172.679 286.878 174.483C286.931 176.287 286.265 178.038 285.027 179.351L171.223 300.033L158.574 288.105Z" fill="#051729"/>
<path opacity="0.6" d="M158.574 288.105L272.378 167.423C272.991 166.773 273.726 166.25 274.542 165.884C275.357 165.518 276.236 165.316 277.13 165.29C278.023 165.263 278.913 165.413 279.748 165.731C280.583 166.049 281.348 166.528 281.998 167.141L284.745 169.731C286.058 170.97 286.825 172.679 286.878 174.483C286.931 176.287 286.265 178.038 285.027 179.351L171.223 300.033L158.574 288.105Z" fill="white"/>
<path opacity="0.2" d="M282.835 167.948L284.744 169.742C285.394 170.354 285.917 171.087 286.284 171.901C286.65 172.715 286.852 173.593 286.879 174.485C286.905 175.377 286.756 176.265 286.439 177.1C286.122 177.934 285.644 178.698 285.032 179.347L171.226 300.044L169.33 298.249L283.136 177.552C283.748 176.902 284.225 176.138 284.541 175.303C284.857 174.468 285.005 173.579 284.977 172.687C284.949 171.795 284.745 170.918 284.378 170.104C284.01 169.291 283.486 168.558 282.835 167.948Z" fill="#0E151D"/>
<path d="M246.527 214.679L267.617 234.577L270.359 231.663L267.631 229.093L271.967 224.485L270.373 222.977L276.891 216.072L278.485 217.579L282.562 213.258L285.29 215.842L288.118 212.827L286.525 211.319L290.602 206.984L287.4 203.969L290.071 201.14L294.88 205.663L299.762 200.494L278.672 180.596L246.527 214.679Z" fill="#051729"/>
<path opacity="0.6" d="M246.527 214.679L267.617 234.577L270.359 231.663L267.631 229.093L271.967 224.485L270.373 222.977L276.891 216.072L278.485 217.579L282.562 213.258L285.29 215.842L288.118 212.827L286.525 211.319L290.602 206.984L287.4 203.969L290.071 201.14L294.88 205.663L299.762 200.494L278.672 180.596L246.527 214.679Z" fill="white"/>
<g opacity="0.2">
<path opacity="0.6" d="M268.458 229.888L265.72 232.792L267.621 234.584L270.359 231.68L268.458 229.888Z" fill="#0E151D"/>
<path opacity="0.6" d="M278.485 217.579L276.891 216.057L270.373 222.977L271.967 224.484L267.631 229.093L265.722 227.298L270.072 222.69L268.464 221.182L274.982 214.262L276.59 215.784L280.653 211.463L282.562 213.257L278.485 217.579Z" fill="#0E151D"/>
<path opacity="0.6" d="M284.615 209.51L288.707 205.189L290.616 206.984L286.525 211.319L288.133 212.827L285.29 215.842L283.395 214.047L286.223 211.032L284.615 209.51Z" fill="#0E151D"/>
<path opacity="0.6" d="M288.155 199.34L285.486 202.17L287.387 203.963L290.056 201.132L288.155 199.34Z" fill="#0E151D"/>
<path opacity="0.6" d="M297.856 198.709L292.971 203.89L294.872 205.683L299.757 200.502L297.856 198.709Z" fill="#0E151D"/>
</g>
<path d="M269.349 168.413L234.461 205.409C233.884 206.021 233.913 206.984 234.524 207.56L247.184 219.498C247.795 220.075 248.758 220.047 249.335 219.435L284.223 182.439C284.799 181.828 284.771 180.864 284.16 180.288L271.5 168.35C270.889 167.773 269.926 167.801 269.349 168.413Z" fill="#051729"/>
<path d="M171.886 339.052C169.238 341.86 166.063 344.12 162.542 345.701C159.021 347.283 155.223 348.155 151.364 348.268C147.506 348.382 143.663 347.734 140.056 346.362C136.448 344.99 133.145 342.92 130.337 340.272L120.805 331.285C117.996 328.637 115.736 325.462 114.155 321.941C112.574 318.42 111.701 314.621 111.588 310.763C111.475 306.905 112.123 303.062 113.495 299.454C114.867 295.846 116.936 292.544 119.584 289.736C122.234 286.916 125.415 284.647 128.944 283.059C132.473 281.472 136.28 280.596 140.148 280.482C144.016 280.369 147.869 281.02 151.484 282.399C155.1 283.777 158.408 285.856 161.219 288.516L170.737 297.503C173.541 300.156 175.795 303.335 177.37 306.858C178.945 310.382 179.811 314.181 179.918 318.039C180.024 321.898 179.37 325.739 177.992 329.344C176.614 332.95 174.539 336.248 171.886 339.052Z" fill="#051729"/>
<path d="M160.932 328.715C159.614 330.114 158.034 331.24 156.281 332.029C154.528 332.817 152.637 333.253 150.716 333.31C148.794 333.368 146.881 333.046 145.084 332.363C143.287 331.68 141.642 330.65 140.244 329.332L131.228 320.718C129.829 319.399 128.704 317.818 127.917 316.065C127.129 314.311 126.695 312.42 126.639 310.499C126.583 308.577 126.906 306.664 127.59 304.868C128.274 303.071 129.305 301.427 130.625 300.03C131.941 298.63 133.52 297.504 135.273 296.715C137.025 295.927 138.916 295.493 140.836 295.437C142.757 295.381 144.67 295.704 146.465 296.389C148.26 297.074 149.903 298.106 151.298 299.427L160.401 308.041C163.211 310.713 164.846 314.391 164.945 318.268C165.045 322.144 163.601 325.902 160.932 328.715Z" fill="white"/>
<path opacity="0.5" d="M269.349 168.413L234.461 205.409C233.884 206.021 233.913 206.984 234.524 207.56L247.184 219.498C247.795 220.075 248.758 220.047 249.335 219.435L284.223 182.439C284.799 181.828 284.771 180.864 284.16 180.288L271.5 168.35C270.889 167.773 269.926 167.801 269.349 168.413Z" fill="white"/>
<g opacity="0.5">
<path d="M171.886 339.052C169.238 341.86 166.063 344.12 162.542 345.701C159.021 347.283 155.223 348.155 151.364 348.268C147.506 348.382 143.663 347.734 140.056 346.362C136.448 344.99 133.145 342.92 130.337 340.272L120.805 331.285C117.996 328.637 115.736 325.462 114.155 321.941C112.574 318.42 111.701 314.621 111.588 310.763C111.475 306.905 112.123 303.062 113.495 299.454C114.867 295.846 116.936 292.544 119.584 289.736C122.234 286.916 125.415 284.647 128.944 283.059C132.473 281.472 136.28 280.596 140.148 280.482C144.016 280.369 147.869 281.02 151.484 282.399C155.1 283.777 158.408 285.856 161.219 288.516L170.737 297.503C173.541 300.156 175.795 303.335 177.37 306.858C178.945 310.382 179.811 314.181 179.918 318.039C180.024 321.898 179.37 325.739 177.992 329.344C176.614 332.95 174.539 336.248 171.886 339.052Z" fill="white"/>
<path d="M160.932 328.715C159.614 330.114 158.034 331.241 156.281 332.029C154.528 332.818 152.637 333.253 150.716 333.31C148.794 333.368 146.881 333.046 145.084 332.363C143.287 331.681 141.642 330.651 140.244 329.332L131.228 320.718C129.829 319.4 128.704 317.819 127.917 316.065C127.129 314.312 126.695 312.42 126.639 310.499C126.583 308.578 126.906 306.664 127.59 304.868C128.274 303.072 129.305 301.428 130.625 300.03C131.941 298.63 133.52 297.504 135.273 296.716C137.025 295.927 138.916 295.493 140.836 295.437C142.757 295.381 144.67 295.704 146.465 296.389C148.26 297.074 149.903 298.106 151.298 299.427L160.401 308.041C163.211 310.713 164.846 314.391 164.945 318.268C165.045 322.145 163.601 325.902 160.932 328.715Z" fill="white"/>
</g>
<path opacity="0.2" d="M280.351 176.691L284.17 180.28C284.314 180.422 284.428 180.59 284.506 180.777C284.584 180.963 284.624 181.162 284.624 181.364C284.624 181.566 284.584 181.765 284.506 181.952C284.428 182.138 284.314 182.306 284.17 182.448L249.283 219.431C249.143 219.574 248.975 219.688 248.79 219.766C248.606 219.843 248.407 219.883 248.206 219.883C248.006 219.883 247.807 219.843 247.623 219.766C247.438 219.688 247.27 219.574 247.13 219.431L243.325 215.842C243.61 216.123 243.994 216.281 244.395 216.281C244.795 216.281 245.18 216.123 245.464 215.842L280.351 178.844C280.495 178.704 280.608 178.537 280.686 178.352C280.764 178.167 280.804 177.968 280.804 177.768C280.804 177.567 280.764 177.369 280.686 177.184C280.608 176.999 280.495 176.831 280.351 176.691Z" fill="#0E151D"/>
<g opacity="0.2">
<path d="M148.456 296.771L151.327 299.455C148.474 296.989 144.78 295.719 141.014 295.909C137.247 296.099 133.7 297.734 131.109 300.475C128.519 303.215 127.085 306.849 127.107 310.62C127.129 314.391 128.605 318.008 131.228 320.718L128.356 318.019C125.533 315.353 123.884 311.676 123.772 307.795C123.66 303.913 125.095 300.147 127.76 297.323C130.426 294.5 134.104 292.851 137.985 292.739C141.866 292.628 145.632 294.062 148.456 296.728V296.771Z" fill="#0E151D"/>
<path d="M167.823 294.876L170.694 297.575C176.187 302.967 179.346 310.297 179.494 317.992C179.642 325.687 176.766 333.133 171.485 338.732C166.204 344.331 158.938 347.636 151.248 347.937C143.557 348.238 136.055 345.512 130.352 340.344L127.48 337.659C133.164 342.949 140.71 345.776 148.471 345.523C156.232 345.269 163.577 341.957 168.904 336.307C174.231 330.658 177.107 323.131 176.905 315.369C176.702 307.606 173.437 300.24 167.823 294.876Z" fill="#0E151D"/>
</g>
<g opacity="0.2">
<path d="M148.456 296.771L151.327 299.455C148.474 296.989 144.78 295.719 141.014 295.909C137.247 296.099 133.7 297.734 131.109 300.475C128.519 303.215 127.085 306.849 127.107 310.62C127.129 314.391 128.605 318.008 131.228 320.718L128.356 318.019C125.533 315.353 123.884 311.676 123.772 307.795C123.66 303.913 125.095 300.147 127.76 297.323C130.426 294.5 134.104 292.851 137.985 292.739C141.866 292.628 145.632 294.062 148.456 296.728V296.771Z" fill="#0E151D"/>
<path d="M148.456 296.771L151.327 299.455C148.474 296.989 144.78 295.719 141.014 295.909C137.247 296.099 133.7 297.734 131.109 300.475C128.519 303.215 127.085 306.849 127.107 310.62C127.129 314.391 128.605 318.008 131.228 320.718L128.356 318.019C125.533 315.353 123.884 311.676 123.772 307.795C123.66 303.913 125.095 300.147 127.76 297.323C130.426 294.5 134.104 292.851 137.985 292.739C141.866 292.628 145.632 294.062 148.456 296.728V296.771Z" fill="#0E151D"/>
</g>
<path d="M126.605 298.048L137.157 295.407L135.98 287.697L123.116 290.296L126.605 298.048Z" fill="#F4DDD7"/>
<path d="M125.571 280.203L123.116 290.253L136.037 287.654C136.037 287.654 136.209 278.624 131.414 278.035L125.571 280.203Z" fill="#F4DDD7"/>
</svg>
