<svg width="24" height="24" viewBox="0 0 24 24" fill="none" xmlns="http://www.w3.org/2000/svg">
<rect width="24" height="24" rx="12" fill="white"/>
<path d="M12.3488 9.6603C12.3488 9.6603 5.54271 8.2019 5.36703 12.8797C5.19135 17.5576 8.58657 20.477 10.8926 21.9132C7.31515 20.2605 2.91658 16.8806 2.90877 11.8114C2.90227 7.1792 9.73566 4.85201 12.3475 9.6603H12.3488Z" fill="url(#paint0_linear_2349_31374)"/>
<path d="M12.3268 10.5946C12.3268 10.5946 18.6457 9.23501 18.8088 13.596C18.972 17.9569 14.2944 20.5745 12.1534 21.9135C15.4748 20.3727 21.0839 17.3258 21.0912 12.6C21.0972 8.28158 14.7529 6.11204 12.328 10.5946H12.3268Z" fill="url(#paint1_linear_2349_31374)"/>
<path d="M18.572 8.03516C19.5502 8.03516 20.3432 7.24028 20.3432 6.25976C20.3432 5.27924 19.5502 4.48438 18.572 4.48438C17.5939 4.48438 16.8009 5.27924 16.8009 6.25976C16.8009 7.24028 17.5939 8.03516 18.572 8.03516Z" fill="#F47344"/>
<path d="M9.03374 6.0672C10.1305 6.0672 11.0196 5.17596 11.0196 4.07657C11.0196 2.97717 10.1305 2.08594 9.03374 2.08594C7.93698 2.08594 7.04788 2.97717 7.04788 4.07657C7.04788 5.17596 7.93698 6.0672 9.03374 6.0672Z" fill="#F47344"/>
<defs>
<linearGradient id="paint0_linear_2349_31374" x1="7.62877" y1="7.00391" x2="7.62877" y2="21.9132" gradientUnits="userSpaceOnUse">
<stop stop-color="#0292C0"/>
<stop offset="1" stop-color="#006D8F"/>
</linearGradient>
<linearGradient id="paint1_linear_2349_31374" x1="16.709" y1="8.11816" x2="16.709" y2="22.0175" gradientUnits="userSpaceOnUse">
<stop stop-color="#0292C0"/>
<stop offset="1" stop-color="#006D8F"/>
</linearGradient>
</defs>
</svg>
