<svg width="218" height="48" viewBox="0 0 218 48" fill="none" xmlns="http://www.w3.org/2000/svg">
<path d="M23.2179 18.3352C23.2179 18.3352 6.70144 14.8046 6.2751 26.1292C5.84877 37.4539 14.0881 44.5216 19.6841 47.9986C11.0027 43.9974 0.32853 35.8149 0.309582 23.5428C0.293791 12.3287 16.8766 6.69473 23.2148 18.3352H23.2179Z" fill="url(#paint0_linear_1488_80399)"/>
<path d="M23.1648 20.5981C23.1648 20.5981 38.4992 17.3066 38.895 27.8641C39.2908 38.4216 27.9395 44.7587 22.744 48.0001C30.8041 44.2699 44.416 36.8936 44.4336 25.4529C44.4482 14.9984 29.0523 9.74612 23.1677 20.5981H23.1648Z" fill="url(#paint1_linear_1488_80399)"/>
<path d="M38.3196 14.4032C40.6933 14.4032 42.6176 12.4788 42.6176 10.1051C42.6176 7.73132 40.6933 5.80701 38.3196 5.80701C35.9458 5.80701 34.0215 7.73132 34.0215 10.1051C34.0215 12.4788 35.9458 14.4032 38.3196 14.4032Z" fill="#F47344"/>
<path d="M15.1736 9.63831C17.8352 9.63831 19.9928 7.4807 19.9928 4.81915C19.9928 2.15761 17.8352 0 15.1736 0C12.5121 0 10.3545 2.15761 10.3545 4.81915C10.3545 7.4807 12.5121 9.63831 15.1736 9.63831Z" fill="#F47344"/>
<path d="M199.122 19.0796H211.542C213.551 19.0796 215.077 19.671 216.123 20.8539C217.168 22.0368 217.691 23.5911 217.691 25.5168V37.2357C217.691 39.7115 216.453 40.9494 213.977 40.9494H202.96C199.328 40.9494 197.513 38.6799 197.513 34.1409C197.513 32.0227 197.967 30.3584 198.874 29.148C199.782 27.9376 201.144 27.3324 202.96 27.3324H212.863V25.9294C212.863 23.8387 211.845 22.7933 209.809 22.7933H199.122V19.0796ZM212.863 31.0461H204.816C203.276 31.0461 202.506 32.0777 202.506 34.1409C202.506 36.2041 203.276 37.2357 204.816 37.2357H211.625C212.45 37.2357 212.863 36.8231 212.863 35.9978V31.0461Z" fill="url(#paint2_linear_1488_80399)"/>
<path d="M192.614 40.9516H189.602C186.988 40.9516 184.994 40.4014 183.618 39.3011C182.243 38.2007 181.555 36.3713 181.555 33.813V22.7955H178.543V19.0818H181.555V12.0669H186.383V19.0818H192.614V22.7955H186.383V32.8226C186.383 34.4182 186.796 35.5598 187.621 36.2475C188.446 36.9078 189.712 37.2379 191.417 37.2379H192.614V40.9516Z" fill="url(#paint3_linear_1488_80399)"/>
<path d="M155.075 19.0796H167.496C169.504 19.0796 171.03 19.671 172.076 20.8539C173.121 22.0368 173.644 23.5911 173.644 25.5168V37.2357C173.644 39.7115 172.406 40.9494 169.93 40.9494H158.913C155.281 40.9494 153.466 38.6799 153.466 34.1409C153.466 32.0227 153.92 30.3584 154.828 29.148C155.735 27.9376 157.097 27.3324 158.913 27.3324H168.816V25.9294C168.816 23.8387 167.798 22.7933 165.762 22.7933H155.075V19.0796ZM168.816 31.0461H160.77C159.229 31.0461 158.459 32.0777 158.459 34.1409C158.459 36.2041 159.229 37.2357 160.77 37.2357H167.578C168.403 37.2357 168.816 36.8231 168.816 35.9978V31.0461Z" fill="url(#paint4_linear_1488_80399)"/>
<path d="M117.412 40.9494V22.7933C117.412 20.3175 118.65 19.0796 121.126 19.0796H140.066C142.762 19.0796 144.853 19.6435 146.338 20.7714C147.824 21.8993 148.566 23.8249 148.566 26.5484V40.9494H143.738V27.8275C143.738 26.122 143.381 24.8565 142.666 24.0313C141.95 23.206 140.781 22.7933 139.158 22.7933H135.403V40.9494H130.575V22.7933H123.478C122.653 22.7933 122.24 23.206 122.24 24.0313V40.9494H117.412Z" fill="url(#paint5_linear_1488_80399)"/>
<path d="M80.2197 40.9359L91.4672 14.129C92.0069 12.8505 92.6175 11.9697 93.2992 11.4867C94.0093 11.0037 95.0318 10.7622 96.3667 10.7622C97.6448 10.7622 98.6389 11.0179 99.349 11.5293C100.087 12.0123 100.727 12.8789 101.266 14.129L112.514 40.9359H106.592L103.524 33.3925H89.1666L86.1417 40.9359H80.2197ZM95.5146 17.2402L90.6152 29.3863H102.076L97.2188 17.2402C96.9064 16.4162 96.6223 16.0042 96.3667 16.0042C96.1111 16.0042 95.8271 16.4162 95.5146 17.2402Z" fill="url(#paint6_linear_1488_80399)"/>
<path d="M74.6168 40.9529H62.4852C60.7796 40.9529 59.3629 40.7191 58.235 40.2514C57.1346 39.7837 56.2956 39.0548 55.7179 38.0644C55.1402 37.0466 54.7413 35.9187 54.5213 34.6808C54.3287 33.4429 54.2324 31.8748 54.2324 29.9767C54.2324 25.7403 55.0302 22.8243 56.6257 21.2288C58.2488 19.6332 60.9722 18.8354 64.796 18.8354C68.2071 18.8354 70.8067 19.4682 72.5949 20.7336C74.4105 21.9715 75.3183 24.2273 75.3183 27.5009C75.3183 30.2518 74.1904 31.6273 71.9346 31.6273H59.2254C59.2254 33.5254 59.528 34.9421 60.1332 35.8774C60.7659 36.7852 62.0313 37.2391 63.9294 37.2391H74.6168V40.9529ZM59.2254 27.9135H69.2525C69.9677 27.9135 70.3253 27.4871 70.3253 26.6343C70.3253 25.2864 69.7889 24.2685 68.716 23.5808C67.6707 22.8931 66.364 22.5492 64.796 22.5492C62.7603 22.5492 61.3161 22.9756 60.4633 23.8284C59.638 24.6537 59.2254 26.0154 59.2254 27.9135Z" fill="url(#paint7_linear_1488_80399)"/>
<defs>
<linearGradient id="paint0_linear_1488_80399" x1="11.7638" y1="11.9043" x2="11.7638" y2="47.9986" gradientUnits="userSpaceOnUse">
<stop stop-color="#0292C0"/>
<stop offset="1" stop-color="#006D8F"/>
</linearGradient>
<linearGradient id="paint1_linear_1488_80399" x1="33.7992" y1="14.6028" x2="33.7992" y2="48.2519" gradientUnits="userSpaceOnUse">
<stop stop-color="#0292C0"/>
<stop offset="1" stop-color="#006D8F"/>
</linearGradient>
<linearGradient id="paint2_linear_1488_80399" x1="207.406" y1="19.0796" x2="207.406" y2="41.1144" gradientUnits="userSpaceOnUse">
<stop stop-color="#0292C0"/>
<stop offset="1" stop-color="#006D8F"/>
</linearGradient>
<linearGradient id="paint3_linear_1488_80399" x1="185.442" y1="12.0669" x2="185.442" y2="41.1694" gradientUnits="userSpaceOnUse">
<stop stop-color="#0292C0"/>
<stop offset="1" stop-color="#006D8F"/>
</linearGradient>
<linearGradient id="paint4_linear_1488_80399" x1="163.359" y1="19.0796" x2="163.359" y2="41.1144" gradientUnits="userSpaceOnUse">
<stop stop-color="#0292C0"/>
<stop offset="1" stop-color="#006D8F"/>
</linearGradient>
<linearGradient id="paint5_linear_1488_80399" x1="132.687" y1="19.0796" x2="132.687" y2="41.1144" gradientUnits="userSpaceOnUse">
<stop stop-color="#0292C0"/>
<stop offset="1" stop-color="#006D8F"/>
</linearGradient>
<linearGradient id="paint6_linear_1488_80399" x1="96.0535" y1="10.7622" x2="96.0535" y2="41.1634" gradientUnits="userSpaceOnUse">
<stop stop-color="#0292C0"/>
<stop offset="1" stop-color="#006D8F"/>
</linearGradient>
<linearGradient id="paint7_linear_1488_80399" x1="64.5708" y1="18.8354" x2="64.5708" y2="41.1197" gradientUnits="userSpaceOnUse">
<stop stop-color="#0292C0"/>
<stop offset="1" stop-color="#006D8F"/>
</linearGradient>
</defs>
</svg>
