<svg width="112" height="26" viewBox="0 0 112 26" fill="none" xmlns="http://www.w3.org/2000/svg">
<path d="M11.7059 10.1052C11.7059 10.1052 3.26617 8.30109 3.04832 14.0879C2.83046 19.8747 7.04065 23.4861 9.90015 25.2628C5.46405 23.2183 0.00968805 19.0371 5.75817e-06 12.7662C-0.00806282 7.03593 8.46556 4.15706 11.7043 10.1052H11.7059Z" fill="white"/>
<path d="M11.6788 11.2618C11.6788 11.2618 19.5145 9.57984 19.7167 14.9746C19.919 20.3694 14.1186 23.6075 11.4638 25.2639C15.5824 23.3578 22.5379 19.5886 22.5469 13.7425C22.5544 8.4004 14.6872 5.71655 11.6803 11.2618H11.6788Z" fill="white"/>
<path d="M19.4228 8.09614C20.6358 8.09614 21.6191 7.11284 21.6191 5.89988C21.6191 4.68691 20.6358 3.70361 19.4228 3.70361C18.2099 3.70361 17.2266 4.68691 17.2266 5.89988C17.2266 7.11284 18.2099 8.09614 19.4228 8.09614Z" fill="#F47344"/>
<path d="M7.59534 5.66139C8.95536 5.66139 10.0579 4.55887 10.0579 3.19886C10.0579 1.83884 8.95536 0.736328 7.59534 0.736328C6.23532 0.736328 5.13281 1.83884 5.13281 3.19886C5.13281 4.55887 6.23532 5.66139 7.59534 5.66139Z" fill="#F47344"/>
<path d="M101.591 10.4856H107.938C108.964 10.4856 109.744 10.7878 110.278 11.3923C110.812 11.9967 111.079 12.7909 111.079 13.7749V19.7631C111.079 21.0283 110.447 21.6608 109.182 21.6608H103.552C101.696 21.6608 100.769 20.5011 100.769 18.1817C100.769 17.0994 101 16.2489 101.464 15.6304C101.928 15.0119 102.624 14.7027 103.552 14.7027H108.612V13.9858C108.612 12.9174 108.092 12.3833 107.052 12.3833H101.591V10.4856ZM108.612 16.6003H104.501C103.713 16.6003 103.32 17.1275 103.32 18.1817C103.32 19.236 103.713 19.7631 104.501 19.7631H107.98C108.401 19.7631 108.612 19.5523 108.612 19.1306V16.6003Z" fill="white"/>
<path d="M98.2653 21.6621H96.7261C95.3907 21.6621 94.3715 21.381 93.6687 20.8187C92.9658 20.2564 92.6144 19.3216 92.6144 18.0143V12.3845H91.0752V10.4869H92.6144V6.90234H95.0814V10.4869H98.2653V12.3845H95.0814V17.5083C95.0814 18.3236 95.2923 18.9069 95.714 19.2584C96.1357 19.5957 96.7823 19.7644 97.6538 19.7644H98.2653V21.6621Z" fill="white"/>
<path d="M79.0831 10.4856H85.4298C86.4559 10.4856 87.2361 10.7878 87.7702 11.3923C88.3044 11.9967 88.5715 12.7909 88.5715 13.7749V19.7631C88.5715 21.0283 87.9389 21.6608 86.6738 21.6608H81.044C79.1885 21.6608 78.2607 20.5011 78.2607 18.1817C78.2607 17.0994 78.4927 16.2489 78.9566 15.6304C79.4204 15.0119 80.1163 14.7027 81.044 14.7027H86.1045V13.9858C86.1045 12.9174 85.5844 12.3833 84.5442 12.3833H79.0831V10.4856ZM86.1045 16.6003H81.9929C81.2057 16.6003 80.8121 17.1275 80.8121 18.1817C80.8121 19.236 81.2057 19.7631 81.9929 19.7631H85.4719C85.8936 19.7631 86.1045 19.5523 86.1045 19.1306V16.6003Z" fill="white"/>
<path d="M59.8379 21.6608V12.3833C59.8379 11.1182 60.4705 10.4856 61.7356 10.4856H71.4138C72.7913 10.4856 73.8596 10.7738 74.6187 11.3501C75.3778 11.9264 75.7573 12.9104 75.7573 14.302V21.6608H73.2903V14.9557C73.2903 14.0842 73.1076 13.4375 72.7421 13.0158C72.3766 12.5941 71.7792 12.3833 70.9499 12.3833H69.0311V21.6608H66.5641V12.3833H62.9374C62.5157 12.3833 62.3049 12.5941 62.3049 13.0158V21.6608H59.8379Z" fill="white"/>
<path d="M40.833 21.654L46.5803 7.95601C46.8561 7.30269 47.1681 6.85262 47.5165 6.60581C47.8793 6.359 48.4018 6.2356 49.0839 6.2356C49.737 6.2356 50.245 6.36626 50.6078 6.62759C50.9852 6.8744 51.3117 7.3172 51.5875 7.95601L57.3348 21.654H54.3088L52.7413 17.7994H45.4048L43.8591 21.654H40.833ZM48.6485 9.54576L46.1449 15.7523H52.0011L49.5193 9.54576C49.3597 9.12473 49.2145 8.91421 49.0839 8.91421C48.9533 8.91421 48.8082 9.12473 48.6485 9.54576Z" fill="white"/>
<path d="M37.9699 21.6626H31.7708C30.8993 21.6626 30.1753 21.5431 29.599 21.3041C29.0367 21.0652 28.608 20.6927 28.3128 20.1866C28.0176 19.6665 27.8138 19.0902 27.7013 18.4576C27.6029 17.8251 27.5537 17.0238 27.5537 16.0539C27.5537 13.8891 27.9614 12.3991 28.7767 11.5838C29.606 10.7685 30.9977 10.3608 32.9516 10.3608C34.6946 10.3608 36.023 10.6841 36.9367 11.3308C37.8644 11.9633 38.3283 13.116 38.3283 14.7888C38.3283 16.1945 37.752 16.8973 36.5993 16.8973H30.105C30.105 17.8672 30.2597 18.5912 30.5689 19.0691C30.8922 19.533 31.5388 19.7649 32.5088 19.7649H37.9699V21.6626ZM30.105 14.9996H35.2288C35.5943 14.9996 35.777 14.7817 35.777 14.346C35.777 13.6572 35.5029 13.1371 34.9547 12.7857C34.4205 12.4342 33.7528 12.2585 32.9516 12.2585C31.9114 12.2585 31.1734 12.4764 30.7376 12.9122C30.3159 13.3339 30.105 14.0297 30.105 14.9996Z" fill="white"/>
</svg>
